G04 EAGLE Gerber X2 export*
G75*
%MOMM*%
%FSLAX34Y34*%
%LPD*%
%AMOC8*
5,1,8,0,0,1.08239X$1,22.5*%
G01*
%ADD10R,4.902200X1.600200*%
%ADD11C,0.914400*%

G36*
X990185Y5012D02*
X990185Y5012D01*
X990370Y5014D01*
X990500Y5032D01*
X990631Y5041D01*
X990812Y5076D01*
X990996Y5101D01*
X991122Y5135D01*
X991252Y5160D01*
X991428Y5218D01*
X991606Y5266D01*
X991727Y5316D01*
X991852Y5357D01*
X992020Y5436D01*
X992190Y5506D01*
X992305Y5571D01*
X992423Y5627D01*
X992579Y5727D01*
X992740Y5819D01*
X992845Y5897D01*
X992956Y5968D01*
X993098Y6087D01*
X993246Y6198D01*
X993340Y6289D01*
X993441Y6373D01*
X993567Y6509D01*
X993700Y6638D01*
X993782Y6740D01*
X993871Y6837D01*
X993979Y6987D01*
X994094Y7131D01*
X994163Y7244D01*
X994239Y7350D01*
X994327Y7513D01*
X994424Y7671D01*
X994477Y7791D01*
X994540Y7906D01*
X994606Y8079D01*
X994682Y8248D01*
X994720Y8373D01*
X994768Y8496D01*
X994812Y8676D01*
X994866Y8853D01*
X994888Y8982D01*
X994919Y9110D01*
X994941Y9293D01*
X994972Y9476D01*
X994980Y9629D01*
X994992Y9737D01*
X994991Y9846D01*
X994999Y10000D01*
X994999Y141614D01*
X994988Y141799D01*
X994986Y141984D01*
X994968Y142114D01*
X994959Y142245D01*
X994924Y142426D01*
X994899Y142610D01*
X994865Y142736D01*
X994840Y142866D01*
X994782Y143042D01*
X994734Y143220D01*
X994684Y143341D01*
X994643Y143466D01*
X994564Y143634D01*
X994494Y143804D01*
X994429Y143919D01*
X994373Y144037D01*
X994273Y144193D01*
X994182Y144354D01*
X994103Y144459D01*
X994032Y144570D01*
X993913Y144712D01*
X993802Y144860D01*
X993711Y144954D01*
X993627Y145055D01*
X993491Y145181D01*
X993362Y145314D01*
X993260Y145396D01*
X993163Y145485D01*
X993013Y145593D01*
X992869Y145708D01*
X992756Y145777D01*
X992650Y145853D01*
X992487Y145941D01*
X992329Y146038D01*
X992209Y146091D01*
X992094Y146154D01*
X991921Y146220D01*
X991752Y146296D01*
X991627Y146334D01*
X991504Y146382D01*
X991324Y146426D01*
X991147Y146480D01*
X991018Y146502D01*
X990890Y146533D01*
X990707Y146555D01*
X990524Y146586D01*
X990371Y146594D01*
X990263Y146606D01*
X990154Y146605D01*
X990000Y146613D01*
X974308Y146613D01*
X974308Y157155D01*
X974308Y167697D01*
X990000Y167697D01*
X990185Y167708D01*
X990370Y167710D01*
X990500Y167728D01*
X990631Y167737D01*
X990812Y167772D01*
X990996Y167797D01*
X991122Y167831D01*
X991252Y167856D01*
X991428Y167914D01*
X991606Y167962D01*
X991727Y168012D01*
X991852Y168053D01*
X992020Y168132D01*
X992190Y168202D01*
X992305Y168267D01*
X992423Y168323D01*
X992579Y168423D01*
X992740Y168514D01*
X992845Y168593D01*
X992956Y168664D01*
X993098Y168783D01*
X993246Y168894D01*
X993340Y168985D01*
X993441Y169069D01*
X993567Y169205D01*
X993700Y169334D01*
X993782Y169436D01*
X993871Y169533D01*
X993979Y169683D01*
X994094Y169827D01*
X994163Y169940D01*
X994239Y170046D01*
X994327Y170209D01*
X994424Y170367D01*
X994477Y170487D01*
X994540Y170602D01*
X994606Y170775D01*
X994682Y170944D01*
X994720Y171069D01*
X994768Y171192D01*
X994812Y171372D01*
X994866Y171549D01*
X994888Y171678D01*
X994919Y171806D01*
X994941Y171989D01*
X994972Y172172D01*
X994980Y172325D01*
X994992Y172433D01*
X994991Y172542D01*
X994999Y172696D01*
X994999Y226704D01*
X994988Y226889D01*
X994986Y227074D01*
X994968Y227204D01*
X994959Y227335D01*
X994924Y227516D01*
X994899Y227700D01*
X994865Y227826D01*
X994840Y227956D01*
X994782Y228132D01*
X994734Y228310D01*
X994684Y228431D01*
X994643Y228556D01*
X994564Y228724D01*
X994494Y228894D01*
X994429Y229009D01*
X994373Y229127D01*
X994273Y229283D01*
X994182Y229444D01*
X994103Y229549D01*
X994032Y229660D01*
X993913Y229802D01*
X993802Y229950D01*
X993711Y230044D01*
X993627Y230145D01*
X993491Y230271D01*
X993362Y230404D01*
X993260Y230486D01*
X993163Y230575D01*
X993013Y230683D01*
X992869Y230798D01*
X992756Y230867D01*
X992650Y230943D01*
X992487Y231031D01*
X992329Y231128D01*
X992209Y231181D01*
X992094Y231244D01*
X991921Y231310D01*
X991752Y231386D01*
X991627Y231424D01*
X991504Y231472D01*
X991324Y231516D01*
X991147Y231570D01*
X991018Y231592D01*
X990890Y231623D01*
X990707Y231645D01*
X990524Y231676D01*
X990371Y231684D01*
X990263Y231696D01*
X990154Y231695D01*
X990000Y231703D01*
X974308Y231703D01*
X974308Y242245D01*
X974308Y252787D01*
X990000Y252787D01*
X990185Y252798D01*
X990370Y252800D01*
X990500Y252818D01*
X990631Y252827D01*
X990812Y252862D01*
X990996Y252887D01*
X991122Y252921D01*
X991252Y252946D01*
X991428Y253004D01*
X991606Y253052D01*
X991727Y253102D01*
X991852Y253143D01*
X992020Y253222D01*
X992190Y253292D01*
X992305Y253357D01*
X992423Y253413D01*
X992579Y253513D01*
X992740Y253604D01*
X992845Y253683D01*
X992956Y253754D01*
X993098Y253873D01*
X993246Y253984D01*
X993340Y254075D01*
X993441Y254159D01*
X993567Y254295D01*
X993700Y254424D01*
X993782Y254526D01*
X993871Y254623D01*
X993979Y254773D01*
X994094Y254917D01*
X994163Y255030D01*
X994239Y255136D01*
X994327Y255299D01*
X994424Y255457D01*
X994477Y255577D01*
X994540Y255692D01*
X994606Y255865D01*
X994682Y256034D01*
X994720Y256159D01*
X994768Y256282D01*
X994812Y256462D01*
X994866Y256639D01*
X994888Y256768D01*
X994919Y256896D01*
X994941Y257079D01*
X994972Y257262D01*
X994980Y257415D01*
X994992Y257523D01*
X994991Y257632D01*
X994999Y257786D01*
X994999Y276814D01*
X994988Y276999D01*
X994986Y277184D01*
X994968Y277314D01*
X994959Y277445D01*
X994924Y277626D01*
X994899Y277810D01*
X994865Y277936D01*
X994840Y278066D01*
X994782Y278242D01*
X994734Y278420D01*
X994684Y278541D01*
X994643Y278666D01*
X994564Y278834D01*
X994494Y279004D01*
X994429Y279119D01*
X994373Y279237D01*
X994273Y279393D01*
X994182Y279554D01*
X994103Y279659D01*
X994032Y279770D01*
X993913Y279912D01*
X993802Y280060D01*
X993711Y280154D01*
X993627Y280255D01*
X993491Y280381D01*
X993362Y280514D01*
X993260Y280596D01*
X993163Y280685D01*
X993013Y280793D01*
X992869Y280908D01*
X992756Y280977D01*
X992650Y281053D01*
X992487Y281141D01*
X992329Y281238D01*
X992209Y281291D01*
X992094Y281354D01*
X991921Y281420D01*
X991752Y281496D01*
X991627Y281534D01*
X991504Y281582D01*
X991324Y281626D01*
X991147Y281680D01*
X991018Y281702D01*
X990890Y281733D01*
X990707Y281755D01*
X990524Y281786D01*
X990371Y281794D01*
X990263Y281806D01*
X990154Y281805D01*
X990000Y281813D01*
X974408Y281813D01*
X974408Y292355D01*
X974408Y302897D01*
X990000Y302897D01*
X990185Y302908D01*
X990370Y302910D01*
X990500Y302928D01*
X990631Y302937D01*
X990812Y302972D01*
X990996Y302997D01*
X991122Y303031D01*
X991252Y303056D01*
X991428Y303114D01*
X991606Y303162D01*
X991727Y303212D01*
X991852Y303253D01*
X992020Y303332D01*
X992190Y303402D01*
X992305Y303467D01*
X992423Y303523D01*
X992579Y303623D01*
X992740Y303714D01*
X992845Y303793D01*
X992956Y303864D01*
X993098Y303983D01*
X993246Y304094D01*
X993340Y304185D01*
X993441Y304269D01*
X993567Y304405D01*
X993700Y304534D01*
X993782Y304636D01*
X993871Y304733D01*
X993979Y304883D01*
X994094Y305027D01*
X994163Y305140D01*
X994239Y305246D01*
X994327Y305409D01*
X994424Y305567D01*
X994477Y305687D01*
X994540Y305802D01*
X994606Y305975D01*
X994682Y306144D01*
X994720Y306269D01*
X994768Y306392D01*
X994812Y306572D01*
X994866Y306749D01*
X994888Y306878D01*
X994919Y307006D01*
X994941Y307189D01*
X994972Y307372D01*
X994980Y307525D01*
X994992Y307633D01*
X994991Y307742D01*
X994999Y307896D01*
X994999Y361904D01*
X994988Y362089D01*
X994986Y362274D01*
X994968Y362404D01*
X994959Y362535D01*
X994924Y362716D01*
X994899Y362900D01*
X994865Y363026D01*
X994840Y363156D01*
X994782Y363332D01*
X994734Y363510D01*
X994684Y363631D01*
X994643Y363756D01*
X994564Y363924D01*
X994494Y364094D01*
X994429Y364209D01*
X994373Y364327D01*
X994273Y364483D01*
X994182Y364644D01*
X994103Y364749D01*
X994032Y364860D01*
X993913Y365002D01*
X993802Y365150D01*
X993711Y365244D01*
X993627Y365345D01*
X993491Y365471D01*
X993362Y365604D01*
X993260Y365686D01*
X993163Y365775D01*
X993013Y365883D01*
X992869Y365998D01*
X992756Y366067D01*
X992650Y366143D01*
X992487Y366231D01*
X992329Y366328D01*
X992209Y366381D01*
X992094Y366444D01*
X991921Y366510D01*
X991752Y366586D01*
X991627Y366624D01*
X991504Y366672D01*
X991324Y366716D01*
X991147Y366770D01*
X991018Y366792D01*
X990890Y366823D01*
X990707Y366845D01*
X990524Y366876D01*
X990371Y366884D01*
X990263Y366896D01*
X990154Y366895D01*
X990000Y366903D01*
X974408Y366903D01*
X974408Y377445D01*
X974408Y387987D01*
X990000Y387987D01*
X990185Y387998D01*
X990370Y388000D01*
X990500Y388018D01*
X990631Y388027D01*
X990812Y388062D01*
X990996Y388087D01*
X991122Y388121D01*
X991252Y388146D01*
X991428Y388204D01*
X991606Y388252D01*
X991727Y388302D01*
X991852Y388343D01*
X992020Y388422D01*
X992190Y388492D01*
X992305Y388557D01*
X992423Y388613D01*
X992579Y388713D01*
X992740Y388804D01*
X992845Y388883D01*
X992956Y388954D01*
X993098Y389073D01*
X993246Y389184D01*
X993340Y389275D01*
X993441Y389359D01*
X993567Y389495D01*
X993700Y389624D01*
X993782Y389726D01*
X993871Y389823D01*
X993979Y389973D01*
X994094Y390117D01*
X994163Y390230D01*
X994239Y390336D01*
X994327Y390499D01*
X994424Y390657D01*
X994477Y390777D01*
X994540Y390892D01*
X994606Y391065D01*
X994682Y391234D01*
X994720Y391359D01*
X994768Y391482D01*
X994812Y391662D01*
X994866Y391839D01*
X994888Y391968D01*
X994919Y392096D01*
X994941Y392279D01*
X994972Y392462D01*
X994980Y392615D01*
X994992Y392723D01*
X994991Y392832D01*
X994999Y392986D01*
X994999Y626514D01*
X994988Y626699D01*
X994986Y626884D01*
X994968Y627014D01*
X994959Y627145D01*
X994924Y627326D01*
X994899Y627510D01*
X994865Y627636D01*
X994840Y627766D01*
X994782Y627942D01*
X994734Y628120D01*
X994684Y628241D01*
X994643Y628366D01*
X994564Y628534D01*
X994494Y628704D01*
X994429Y628819D01*
X994373Y628937D01*
X994273Y629093D01*
X994182Y629254D01*
X994103Y629359D01*
X994032Y629470D01*
X993913Y629612D01*
X993802Y629760D01*
X993711Y629854D01*
X993627Y629955D01*
X993491Y630081D01*
X993362Y630214D01*
X993260Y630296D01*
X993163Y630385D01*
X993013Y630493D01*
X992869Y630608D01*
X992756Y630677D01*
X992650Y630753D01*
X992487Y630841D01*
X992329Y630938D01*
X992209Y630991D01*
X992094Y631054D01*
X991921Y631120D01*
X991752Y631196D01*
X991627Y631234D01*
X991504Y631282D01*
X991324Y631326D01*
X991147Y631380D01*
X991018Y631402D01*
X990890Y631433D01*
X990707Y631455D01*
X990524Y631486D01*
X990371Y631494D01*
X990263Y631506D01*
X990154Y631505D01*
X990000Y631513D01*
X974508Y631513D01*
X974508Y642055D01*
X974508Y652597D01*
X990000Y652597D01*
X990185Y652608D01*
X990370Y652610D01*
X990500Y652628D01*
X990631Y652637D01*
X990812Y652672D01*
X990996Y652697D01*
X991122Y652731D01*
X991252Y652756D01*
X991428Y652814D01*
X991606Y652862D01*
X991727Y652912D01*
X991852Y652953D01*
X992020Y653032D01*
X992190Y653102D01*
X992305Y653167D01*
X992423Y653223D01*
X992579Y653323D01*
X992740Y653414D01*
X992845Y653493D01*
X992956Y653564D01*
X993098Y653683D01*
X993246Y653794D01*
X993340Y653885D01*
X993441Y653969D01*
X993567Y654105D01*
X993700Y654234D01*
X993782Y654336D01*
X993871Y654433D01*
X993979Y654583D01*
X994094Y654727D01*
X994163Y654840D01*
X994239Y654946D01*
X994327Y655109D01*
X994424Y655267D01*
X994477Y655387D01*
X994540Y655502D01*
X994606Y655675D01*
X994682Y655844D01*
X994720Y655969D01*
X994768Y656092D01*
X994812Y656272D01*
X994866Y656449D01*
X994888Y656578D01*
X994919Y656706D01*
X994941Y656889D01*
X994972Y657072D01*
X994980Y657225D01*
X994992Y657333D01*
X994991Y657442D01*
X994999Y657596D01*
X994999Y711604D01*
X994988Y711789D01*
X994986Y711974D01*
X994968Y712104D01*
X994959Y712235D01*
X994924Y712416D01*
X994899Y712600D01*
X994865Y712726D01*
X994840Y712856D01*
X994782Y713032D01*
X994734Y713210D01*
X994684Y713331D01*
X994643Y713456D01*
X994564Y713624D01*
X994494Y713794D01*
X994429Y713909D01*
X994373Y714027D01*
X994273Y714183D01*
X994182Y714344D01*
X994103Y714449D01*
X994032Y714560D01*
X993913Y714702D01*
X993802Y714850D01*
X993711Y714944D01*
X993627Y715045D01*
X993491Y715171D01*
X993362Y715304D01*
X993260Y715386D01*
X993163Y715475D01*
X993013Y715583D01*
X992869Y715698D01*
X992756Y715767D01*
X992650Y715843D01*
X992487Y715931D01*
X992329Y716028D01*
X992209Y716081D01*
X992094Y716144D01*
X991921Y716210D01*
X991752Y716286D01*
X991627Y716324D01*
X991504Y716372D01*
X991324Y716416D01*
X991147Y716470D01*
X991018Y716492D01*
X990890Y716523D01*
X990707Y716545D01*
X990524Y716576D01*
X990371Y716584D01*
X990263Y716596D01*
X990154Y716595D01*
X990000Y716603D01*
X974508Y716603D01*
X974508Y727145D01*
X974508Y737687D01*
X990000Y737687D01*
X990185Y737698D01*
X990370Y737700D01*
X990500Y737718D01*
X990631Y737727D01*
X990812Y737762D01*
X990996Y737787D01*
X991122Y737821D01*
X991252Y737846D01*
X991428Y737904D01*
X991606Y737952D01*
X991727Y738002D01*
X991852Y738043D01*
X992020Y738122D01*
X992190Y738192D01*
X992305Y738257D01*
X992423Y738313D01*
X992579Y738413D01*
X992740Y738504D01*
X992845Y738583D01*
X992956Y738654D01*
X993098Y738773D01*
X993246Y738884D01*
X993340Y738975D01*
X993441Y739059D01*
X993567Y739195D01*
X993700Y739324D01*
X993782Y739426D01*
X993871Y739523D01*
X993979Y739673D01*
X994094Y739817D01*
X994163Y739930D01*
X994239Y740036D01*
X994327Y740199D01*
X994424Y740357D01*
X994477Y740477D01*
X994540Y740592D01*
X994606Y740765D01*
X994682Y740934D01*
X994720Y741059D01*
X994768Y741182D01*
X994812Y741362D01*
X994866Y741539D01*
X994888Y741668D01*
X994919Y741796D01*
X994941Y741979D01*
X994972Y742162D01*
X994980Y742315D01*
X994992Y742423D01*
X994991Y742532D01*
X994999Y742686D01*
X994999Y743714D01*
X994988Y743899D01*
X994986Y744084D01*
X994968Y744214D01*
X994959Y744345D01*
X994924Y744526D01*
X994899Y744710D01*
X994865Y744836D01*
X994840Y744966D01*
X994782Y745142D01*
X994734Y745320D01*
X994684Y745441D01*
X994643Y745566D01*
X994564Y745734D01*
X994494Y745904D01*
X994429Y746019D01*
X994373Y746137D01*
X994273Y746293D01*
X994182Y746454D01*
X994103Y746559D01*
X994032Y746670D01*
X993913Y746812D01*
X993802Y746960D01*
X993711Y747054D01*
X993627Y747155D01*
X993491Y747281D01*
X993362Y747414D01*
X993260Y747496D01*
X993163Y747585D01*
X993013Y747693D01*
X992869Y747808D01*
X992756Y747877D01*
X992650Y747953D01*
X992487Y748041D01*
X992329Y748138D01*
X992209Y748191D01*
X992094Y748254D01*
X991921Y748320D01*
X991752Y748396D01*
X991627Y748434D01*
X991504Y748482D01*
X991324Y748526D01*
X991147Y748580D01*
X991018Y748602D01*
X990890Y748633D01*
X990707Y748655D01*
X990524Y748686D01*
X990371Y748694D01*
X990263Y748706D01*
X990154Y748705D01*
X990000Y748713D01*
X974608Y748713D01*
X974608Y759255D01*
X974608Y769797D01*
X990000Y769797D01*
X990185Y769808D01*
X990370Y769810D01*
X990500Y769828D01*
X990631Y769837D01*
X990812Y769872D01*
X990996Y769897D01*
X991122Y769931D01*
X991252Y769956D01*
X991428Y770014D01*
X991606Y770062D01*
X991727Y770112D01*
X991852Y770153D01*
X992020Y770232D01*
X992190Y770302D01*
X992305Y770367D01*
X992423Y770423D01*
X992579Y770523D01*
X992740Y770614D01*
X992845Y770693D01*
X992956Y770764D01*
X993098Y770883D01*
X993246Y770994D01*
X993340Y771085D01*
X993441Y771169D01*
X993567Y771305D01*
X993700Y771434D01*
X993782Y771536D01*
X993871Y771633D01*
X993979Y771783D01*
X994094Y771927D01*
X994163Y772040D01*
X994239Y772146D01*
X994327Y772309D01*
X994424Y772467D01*
X994477Y772587D01*
X994540Y772702D01*
X994606Y772875D01*
X994682Y773044D01*
X994720Y773169D01*
X994768Y773292D01*
X994812Y773472D01*
X994866Y773649D01*
X994888Y773778D01*
X994919Y773906D01*
X994941Y774089D01*
X994972Y774272D01*
X994980Y774425D01*
X994992Y774533D01*
X994991Y774615D01*
X994992Y774623D01*
X994992Y774658D01*
X994999Y774796D01*
X994999Y828804D01*
X994988Y828989D01*
X994986Y829174D01*
X994968Y829304D01*
X994959Y829435D01*
X994924Y829616D01*
X994899Y829800D01*
X994865Y829926D01*
X994840Y830056D01*
X994782Y830232D01*
X994734Y830410D01*
X994684Y830531D01*
X994643Y830656D01*
X994564Y830824D01*
X994494Y830994D01*
X994429Y831109D01*
X994373Y831227D01*
X994273Y831383D01*
X994182Y831544D01*
X994103Y831649D01*
X994032Y831760D01*
X993913Y831902D01*
X993802Y832050D01*
X993711Y832144D01*
X993627Y832245D01*
X993491Y832371D01*
X993362Y832504D01*
X993260Y832586D01*
X993163Y832675D01*
X993013Y832783D01*
X992869Y832898D01*
X992756Y832967D01*
X992650Y833043D01*
X992487Y833131D01*
X992329Y833228D01*
X992209Y833281D01*
X992094Y833344D01*
X991921Y833410D01*
X991752Y833486D01*
X991627Y833524D01*
X991504Y833572D01*
X991324Y833616D01*
X991147Y833670D01*
X991018Y833692D01*
X990890Y833723D01*
X990707Y833745D01*
X990524Y833776D01*
X990371Y833784D01*
X990263Y833796D01*
X990154Y833795D01*
X990000Y833803D01*
X974608Y833803D01*
X974608Y844345D01*
X974608Y854887D01*
X990000Y854887D01*
X990185Y854898D01*
X990370Y854900D01*
X990500Y854918D01*
X990631Y854927D01*
X990812Y854962D01*
X990996Y854987D01*
X991122Y855021D01*
X991252Y855046D01*
X991428Y855104D01*
X991606Y855152D01*
X991727Y855202D01*
X991852Y855243D01*
X992020Y855322D01*
X992190Y855392D01*
X992305Y855457D01*
X992423Y855513D01*
X992579Y855613D01*
X992740Y855704D01*
X992845Y855783D01*
X992956Y855854D01*
X993098Y855973D01*
X993246Y856084D01*
X993340Y856175D01*
X993441Y856259D01*
X993567Y856395D01*
X993700Y856524D01*
X993782Y856626D01*
X993871Y856723D01*
X993979Y856873D01*
X994094Y857017D01*
X994163Y857130D01*
X994239Y857236D01*
X994327Y857399D01*
X994424Y857557D01*
X994477Y857677D01*
X994540Y857792D01*
X994606Y857965D01*
X994682Y858134D01*
X994720Y858259D01*
X994768Y858382D01*
X994812Y858562D01*
X994866Y858739D01*
X994888Y858868D01*
X994919Y858996D01*
X994941Y859179D01*
X994972Y859362D01*
X994980Y859515D01*
X994992Y859623D01*
X994991Y859732D01*
X994999Y859886D01*
X994999Y990000D01*
X994988Y990185D01*
X994986Y990370D01*
X994968Y990500D01*
X994959Y990631D01*
X994924Y990812D01*
X994899Y990996D01*
X994865Y991122D01*
X994840Y991252D01*
X994782Y991428D01*
X994734Y991606D01*
X994684Y991727D01*
X994643Y991852D01*
X994564Y992020D01*
X994494Y992190D01*
X994429Y992305D01*
X994373Y992423D01*
X994273Y992579D01*
X994182Y992740D01*
X994103Y992845D01*
X994032Y992956D01*
X993913Y993098D01*
X993802Y993246D01*
X993711Y993340D01*
X993627Y993441D01*
X993491Y993567D01*
X993362Y993700D01*
X993260Y993782D01*
X993163Y993871D01*
X993013Y993979D01*
X992869Y994094D01*
X992756Y994163D01*
X992650Y994239D01*
X992487Y994327D01*
X992329Y994424D01*
X992209Y994477D01*
X992094Y994540D01*
X991921Y994606D01*
X991752Y994682D01*
X991627Y994720D01*
X991504Y994768D01*
X991324Y994812D01*
X991147Y994866D01*
X991018Y994888D01*
X990890Y994919D01*
X990707Y994941D01*
X990524Y994972D01*
X990371Y994980D01*
X990263Y994992D01*
X990154Y994991D01*
X990000Y994999D01*
X10000Y994999D01*
X9815Y994988D01*
X9630Y994986D01*
X9500Y994968D01*
X9369Y994959D01*
X9188Y994924D01*
X9004Y994899D01*
X8878Y994865D01*
X8748Y994840D01*
X8572Y994782D01*
X8394Y994734D01*
X8273Y994684D01*
X8148Y994643D01*
X7980Y994564D01*
X7810Y994494D01*
X7695Y994429D01*
X7577Y994373D01*
X7421Y994273D01*
X7260Y994182D01*
X7155Y994103D01*
X7044Y994032D01*
X6902Y993913D01*
X6754Y993802D01*
X6660Y993711D01*
X6559Y993627D01*
X6433Y993491D01*
X6300Y993362D01*
X6218Y993260D01*
X6129Y993163D01*
X6021Y993013D01*
X5906Y992869D01*
X5837Y992756D01*
X5761Y992650D01*
X5673Y992487D01*
X5576Y992329D01*
X5523Y992209D01*
X5460Y992094D01*
X5394Y991921D01*
X5318Y991752D01*
X5280Y991627D01*
X5232Y991504D01*
X5188Y991324D01*
X5134Y991147D01*
X5112Y991018D01*
X5081Y990890D01*
X5059Y990707D01*
X5028Y990524D01*
X5020Y990371D01*
X5008Y990263D01*
X5009Y990154D01*
X5001Y990000D01*
X5001Y558586D01*
X5012Y558401D01*
X5014Y558216D01*
X5032Y558086D01*
X5041Y557955D01*
X5076Y557774D01*
X5101Y557590D01*
X5135Y557464D01*
X5160Y557334D01*
X5218Y557158D01*
X5266Y556980D01*
X5316Y556859D01*
X5357Y556734D01*
X5436Y556566D01*
X5506Y556396D01*
X5571Y556281D01*
X5627Y556163D01*
X5727Y556007D01*
X5819Y555846D01*
X5897Y555741D01*
X5968Y555630D01*
X6087Y555488D01*
X6198Y555340D01*
X6289Y555246D01*
X6373Y555145D01*
X6509Y555019D01*
X6638Y554886D01*
X6740Y554804D01*
X6837Y554715D01*
X6987Y554607D01*
X7131Y554492D01*
X7244Y554423D01*
X7350Y554347D01*
X7513Y554259D01*
X7671Y554162D01*
X7791Y554109D01*
X7906Y554046D01*
X8079Y553980D01*
X8248Y553904D01*
X8373Y553866D01*
X8496Y553818D01*
X8676Y553774D01*
X8853Y553720D01*
X8982Y553698D01*
X9110Y553667D01*
X9293Y553645D01*
X9476Y553614D01*
X9629Y553606D01*
X9737Y553594D01*
X9846Y553595D01*
X10000Y553587D01*
X25292Y553587D01*
X25292Y543045D01*
X25292Y532503D01*
X10000Y532503D01*
X9815Y532492D01*
X9630Y532490D01*
X9500Y532472D01*
X9369Y532463D01*
X9188Y532428D01*
X9004Y532403D01*
X8878Y532369D01*
X8748Y532344D01*
X8572Y532286D01*
X8394Y532238D01*
X8273Y532188D01*
X8148Y532147D01*
X7980Y532068D01*
X7810Y531998D01*
X7695Y531933D01*
X7577Y531877D01*
X7421Y531777D01*
X7260Y531686D01*
X7155Y531607D01*
X7044Y531536D01*
X6902Y531417D01*
X6754Y531306D01*
X6660Y531215D01*
X6559Y531131D01*
X6433Y530995D01*
X6300Y530866D01*
X6218Y530764D01*
X6129Y530667D01*
X6021Y530517D01*
X5906Y530373D01*
X5837Y530260D01*
X5761Y530154D01*
X5673Y529991D01*
X5576Y529833D01*
X5523Y529713D01*
X5460Y529598D01*
X5394Y529425D01*
X5318Y529256D01*
X5280Y529131D01*
X5232Y529008D01*
X5188Y528828D01*
X5134Y528651D01*
X5112Y528522D01*
X5081Y528394D01*
X5059Y528211D01*
X5028Y528028D01*
X5020Y527875D01*
X5008Y527767D01*
X5009Y527658D01*
X5001Y527504D01*
X5001Y473496D01*
X5012Y473311D01*
X5014Y473126D01*
X5032Y472996D01*
X5041Y472865D01*
X5076Y472684D01*
X5101Y472500D01*
X5135Y472374D01*
X5160Y472244D01*
X5218Y472068D01*
X5266Y471890D01*
X5316Y471769D01*
X5357Y471644D01*
X5436Y471476D01*
X5506Y471306D01*
X5571Y471191D01*
X5627Y471073D01*
X5727Y470917D01*
X5819Y470756D01*
X5897Y470651D01*
X5968Y470540D01*
X6087Y470398D01*
X6198Y470250D01*
X6289Y470156D01*
X6373Y470055D01*
X6509Y469929D01*
X6638Y469796D01*
X6740Y469714D01*
X6837Y469625D01*
X6987Y469517D01*
X7131Y469402D01*
X7244Y469333D01*
X7350Y469257D01*
X7513Y469169D01*
X7671Y469072D01*
X7791Y469019D01*
X7906Y468956D01*
X8079Y468890D01*
X8248Y468814D01*
X8373Y468776D01*
X8496Y468728D01*
X8676Y468684D01*
X8853Y468630D01*
X8982Y468608D01*
X9110Y468577D01*
X9293Y468555D01*
X9476Y468524D01*
X9629Y468516D01*
X9737Y468504D01*
X9846Y468505D01*
X10000Y468497D01*
X25292Y468497D01*
X25292Y457955D01*
X25292Y447413D01*
X10000Y447413D01*
X9815Y447402D01*
X9630Y447400D01*
X9500Y447382D01*
X9369Y447373D01*
X9188Y447338D01*
X9004Y447313D01*
X8878Y447279D01*
X8748Y447254D01*
X8572Y447196D01*
X8394Y447148D01*
X8273Y447098D01*
X8148Y447057D01*
X7980Y446978D01*
X7810Y446908D01*
X7695Y446843D01*
X7577Y446787D01*
X7421Y446687D01*
X7260Y446596D01*
X7155Y446517D01*
X7044Y446446D01*
X6902Y446327D01*
X6754Y446216D01*
X6660Y446125D01*
X6559Y446041D01*
X6433Y445905D01*
X6300Y445776D01*
X6218Y445674D01*
X6129Y445577D01*
X6021Y445427D01*
X5906Y445283D01*
X5837Y445170D01*
X5761Y445064D01*
X5673Y444901D01*
X5576Y444743D01*
X5523Y444623D01*
X5460Y444508D01*
X5394Y444335D01*
X5318Y444166D01*
X5280Y444041D01*
X5232Y443918D01*
X5188Y443738D01*
X5134Y443561D01*
X5112Y443432D01*
X5081Y443304D01*
X5059Y443121D01*
X5028Y442938D01*
X5020Y442785D01*
X5008Y442677D01*
X5009Y442568D01*
X5001Y442414D01*
X5001Y10000D01*
X5012Y9815D01*
X5014Y9630D01*
X5032Y9500D01*
X5041Y9369D01*
X5076Y9188D01*
X5101Y9004D01*
X5135Y8878D01*
X5160Y8748D01*
X5218Y8572D01*
X5266Y8394D01*
X5316Y8273D01*
X5357Y8148D01*
X5436Y7980D01*
X5506Y7810D01*
X5571Y7695D01*
X5627Y7577D01*
X5727Y7421D01*
X5819Y7260D01*
X5897Y7155D01*
X5968Y7044D01*
X6087Y6902D01*
X6198Y6754D01*
X6289Y6660D01*
X6373Y6559D01*
X6509Y6433D01*
X6638Y6300D01*
X6740Y6218D01*
X6837Y6129D01*
X6987Y6021D01*
X7131Y5906D01*
X7244Y5837D01*
X7350Y5761D01*
X7513Y5673D01*
X7671Y5576D01*
X7791Y5523D01*
X7906Y5460D01*
X8079Y5394D01*
X8248Y5318D01*
X8373Y5280D01*
X8496Y5232D01*
X8676Y5188D01*
X8853Y5134D01*
X8982Y5112D01*
X9110Y5081D01*
X9293Y5059D01*
X9476Y5028D01*
X9629Y5020D01*
X9737Y5008D01*
X9846Y5009D01*
X10000Y5001D01*
X990000Y5001D01*
X990185Y5012D01*
G37*
%LPC*%
G36*
X60014Y895540D02*
X60014Y895540D01*
X53279Y897344D01*
X47241Y900831D01*
X42311Y905761D01*
X38824Y911799D01*
X37020Y918534D01*
X37020Y925506D01*
X38824Y932241D01*
X42311Y938279D01*
X47241Y943209D01*
X53279Y946696D01*
X60014Y948500D01*
X66986Y948500D01*
X73721Y946696D01*
X79759Y943209D01*
X84689Y938279D01*
X88176Y932241D01*
X89980Y925506D01*
X89980Y918534D01*
X88176Y911799D01*
X84689Y905761D01*
X79759Y900831D01*
X73721Y897344D01*
X66986Y895540D01*
X60014Y895540D01*
G37*
%LPD*%
%LPC*%
G36*
X910914Y547560D02*
X910914Y547560D01*
X904179Y549364D01*
X898141Y552851D01*
X893211Y557781D01*
X889724Y563819D01*
X887920Y570554D01*
X887920Y577526D01*
X889724Y584261D01*
X893211Y590299D01*
X898141Y595229D01*
X904179Y598716D01*
X910914Y600520D01*
X917886Y600520D01*
X924621Y598716D01*
X930659Y595229D01*
X935589Y590299D01*
X939076Y584261D01*
X940880Y577526D01*
X940880Y570554D01*
X939076Y563819D01*
X935589Y557781D01*
X930659Y552851D01*
X924621Y549364D01*
X917886Y547560D01*
X910914Y547560D01*
G37*
%LPD*%
%LPC*%
G36*
X60014Y49720D02*
X60014Y49720D01*
X53279Y51524D01*
X47241Y55011D01*
X42311Y59941D01*
X38824Y65979D01*
X37020Y72714D01*
X37020Y79686D01*
X38824Y86421D01*
X42311Y92459D01*
X47241Y97389D01*
X53279Y100876D01*
X60014Y102680D01*
X66986Y102680D01*
X73721Y100876D01*
X79759Y97389D01*
X84689Y92459D01*
X88176Y86421D01*
X89980Y79686D01*
X89980Y72714D01*
X88176Y65979D01*
X84689Y59941D01*
X79759Y55011D01*
X73721Y51524D01*
X66986Y49720D01*
X60014Y49720D01*
G37*
%LPD*%
%LPC*%
G36*
X35290Y548044D02*
X35290Y548044D01*
X35290Y553587D01*
X55052Y553587D01*
X55543Y553489D01*
X56006Y553298D01*
X56422Y553020D01*
X56776Y552666D01*
X57054Y552250D01*
X57245Y551787D01*
X57343Y551296D01*
X57343Y548044D01*
X35290Y548044D01*
G37*
%LPD*%
%LPC*%
G36*
X35290Y462954D02*
X35290Y462954D01*
X35290Y468497D01*
X55052Y468497D01*
X55543Y468399D01*
X56006Y468208D01*
X56422Y467930D01*
X56776Y467576D01*
X57054Y467160D01*
X57245Y466697D01*
X57343Y466206D01*
X57343Y462954D01*
X35290Y462954D01*
G37*
%LPD*%
%LPC*%
G36*
X942557Y849344D02*
X942557Y849344D01*
X942557Y852596D01*
X942655Y853087D01*
X942846Y853550D01*
X943124Y853966D01*
X943478Y854320D01*
X943894Y854598D01*
X944357Y854789D01*
X944848Y854887D01*
X964609Y854887D01*
X964609Y849344D01*
X942557Y849344D01*
G37*
%LPD*%
%LPC*%
G36*
X942557Y764254D02*
X942557Y764254D01*
X942557Y767506D01*
X942655Y767997D01*
X942846Y768460D01*
X943124Y768876D01*
X943478Y769230D01*
X943894Y769508D01*
X944357Y769699D01*
X944848Y769797D01*
X964609Y769797D01*
X964609Y764254D01*
X942557Y764254D01*
G37*
%LPD*%
%LPC*%
G36*
X942457Y647054D02*
X942457Y647054D01*
X942457Y650306D01*
X942555Y650797D01*
X942746Y651260D01*
X943024Y651676D01*
X943378Y652030D01*
X943794Y652308D01*
X944257Y652499D01*
X944748Y652597D01*
X964509Y652597D01*
X964509Y647054D01*
X942457Y647054D01*
G37*
%LPD*%
%LPC*%
G36*
X942357Y382444D02*
X942357Y382444D01*
X942357Y385696D01*
X942455Y386187D01*
X942646Y386650D01*
X942924Y387066D01*
X943278Y387420D01*
X943694Y387698D01*
X944157Y387889D01*
X944648Y387987D01*
X964409Y387987D01*
X964409Y382444D01*
X942357Y382444D01*
G37*
%LPD*%
%LPC*%
G36*
X942357Y297354D02*
X942357Y297354D01*
X942357Y300606D01*
X942455Y301097D01*
X942646Y301560D01*
X942924Y301976D01*
X943278Y302330D01*
X943694Y302608D01*
X944157Y302799D01*
X944648Y302897D01*
X964409Y302897D01*
X964409Y297354D01*
X942357Y297354D01*
G37*
%LPD*%
%LPC*%
G36*
X942257Y247244D02*
X942257Y247244D01*
X942257Y250496D01*
X942355Y250987D01*
X942546Y251450D01*
X942824Y251866D01*
X943178Y252220D01*
X943594Y252498D01*
X944057Y252689D01*
X944548Y252787D01*
X964309Y252787D01*
X964309Y247244D01*
X942257Y247244D01*
G37*
%LPD*%
%LPC*%
G36*
X942257Y162154D02*
X942257Y162154D01*
X942257Y165406D01*
X942355Y165897D01*
X942546Y166360D01*
X942824Y166776D01*
X943178Y167130D01*
X943594Y167408D01*
X944057Y167599D01*
X944548Y167697D01*
X964309Y167697D01*
X964309Y162154D01*
X942257Y162154D01*
G37*
%LPD*%
%LPC*%
G36*
X942457Y732144D02*
X942457Y732144D01*
X942457Y735396D01*
X942555Y735887D01*
X942746Y736350D01*
X943024Y736766D01*
X943378Y737120D01*
X943794Y737398D01*
X944257Y737589D01*
X944748Y737687D01*
X964509Y737687D01*
X964509Y732144D01*
X942457Y732144D01*
G37*
%LPD*%
%LPC*%
G36*
X944848Y833803D02*
X944848Y833803D01*
X944357Y833901D01*
X943894Y834092D01*
X943478Y834370D01*
X943124Y834724D01*
X942846Y835140D01*
X942655Y835603D01*
X942557Y836094D01*
X942557Y839346D01*
X964609Y839346D01*
X964609Y833803D01*
X944848Y833803D01*
G37*
%LPD*%
%LPC*%
G36*
X944848Y748713D02*
X944848Y748713D01*
X944357Y748811D01*
X943894Y749002D01*
X943478Y749280D01*
X943124Y749634D01*
X942846Y750050D01*
X942655Y750513D01*
X942557Y751004D01*
X942557Y754256D01*
X964609Y754256D01*
X964609Y748713D01*
X944848Y748713D01*
G37*
%LPD*%
%LPC*%
G36*
X944748Y716603D02*
X944748Y716603D01*
X944257Y716701D01*
X943794Y716892D01*
X943378Y717170D01*
X943024Y717524D01*
X942746Y717940D01*
X942555Y718403D01*
X942457Y718894D01*
X942457Y722146D01*
X964509Y722146D01*
X964509Y716603D01*
X944748Y716603D01*
G37*
%LPD*%
%LPC*%
G36*
X944748Y631513D02*
X944748Y631513D01*
X944257Y631611D01*
X943794Y631802D01*
X943378Y632080D01*
X943024Y632434D01*
X942746Y632850D01*
X942555Y633313D01*
X942457Y633804D01*
X942457Y637056D01*
X964509Y637056D01*
X964509Y631513D01*
X944748Y631513D01*
G37*
%LPD*%
%LPC*%
G36*
X944648Y366903D02*
X944648Y366903D01*
X944157Y367001D01*
X943694Y367192D01*
X943278Y367470D01*
X942924Y367824D01*
X942646Y368240D01*
X942455Y368703D01*
X942357Y369194D01*
X942357Y372446D01*
X964409Y372446D01*
X964409Y366903D01*
X944648Y366903D01*
G37*
%LPD*%
%LPC*%
G36*
X944648Y281813D02*
X944648Y281813D01*
X944157Y281911D01*
X943694Y282102D01*
X943278Y282380D01*
X942924Y282734D01*
X942646Y283150D01*
X942455Y283613D01*
X942357Y284104D01*
X942357Y287356D01*
X964409Y287356D01*
X964409Y281813D01*
X944648Y281813D01*
G37*
%LPD*%
%LPC*%
G36*
X944548Y231703D02*
X944548Y231703D01*
X944057Y231801D01*
X943594Y231992D01*
X943178Y232270D01*
X942824Y232624D01*
X942546Y233040D01*
X942355Y233503D01*
X942257Y233994D01*
X942257Y237246D01*
X964309Y237246D01*
X964309Y231703D01*
X944548Y231703D01*
G37*
%LPD*%
%LPC*%
G36*
X944548Y146613D02*
X944548Y146613D01*
X944057Y146711D01*
X943594Y146902D01*
X943178Y147180D01*
X942824Y147534D01*
X942546Y147950D01*
X942355Y148413D01*
X942257Y148904D01*
X942257Y152156D01*
X964309Y152156D01*
X964309Y146613D01*
X944548Y146613D01*
G37*
%LPD*%
%LPC*%
G36*
X35290Y532503D02*
X35290Y532503D01*
X35290Y538046D01*
X57343Y538046D01*
X57343Y534794D01*
X57245Y534303D01*
X57054Y533840D01*
X56776Y533424D01*
X56422Y533070D01*
X56006Y532792D01*
X55543Y532601D01*
X55052Y532503D01*
X35290Y532503D01*
G37*
%LPD*%
%LPC*%
G36*
X35290Y447413D02*
X35290Y447413D01*
X35290Y452956D01*
X57343Y452956D01*
X57343Y449704D01*
X57245Y449213D01*
X57054Y448750D01*
X56776Y448334D01*
X56422Y447980D01*
X56006Y447702D01*
X55543Y447511D01*
X55052Y447413D01*
X35290Y447413D01*
G37*
%LPD*%
D10*
X30291Y543045D03*
X30291Y457955D03*
X969609Y759255D03*
X969609Y844345D03*
X969509Y642055D03*
X969509Y727145D03*
X969309Y157155D03*
X969309Y242245D03*
X969409Y292355D03*
X969409Y377445D03*
D11*
X12700Y985520D03*
X985520Y499110D03*
X12700Y596392D03*
X12700Y401828D03*
X109982Y12700D03*
X207264Y12700D03*
X985520Y12700D03*
X985520Y109982D03*
X985520Y401828D03*
X985520Y596392D03*
X985520Y888238D03*
X985520Y985520D03*
X304546Y985520D03*
X207264Y985520D03*
X109982Y985520D03*
X304546Y12700D03*
X12700Y12700D03*
M02*
