G04 EAGLE Gerber X2 export*
%TF.Part,Single*%
%TF.FileFunction,Copper,L1,Top,Mixed*%
%TF.FilePolarity,Positive*%
%TF.GenerationSoftware,Autodesk,EAGLE,8.7.1*%
%TF.CreationDate,2018-04-02T22:08:27Z*%
G75*
%MOMM*%
%FSLAX34Y34*%
%LPD*%
%AMOC8*
5,1,8,0,0,1.08239X$1,22.5*%
G01*
%ADD10R,1.803400X1.295400*%
%ADD11R,2.362200X1.498600*%
%ADD12R,4.902200X1.600200*%
%ADD13C,2.984500*%
%ADD14C,1.536700*%
%ADD15C,0.381000*%
%ADD16C,0.914400*%
%ADD17C,0.254000*%
%ADD18C,1.016000*%

G36*
X490485Y559821D02*
X490485Y559821D01*
X490513Y559818D01*
X490606Y559838D01*
X490699Y559851D01*
X490725Y559864D01*
X490754Y559870D01*
X490835Y559918D01*
X490919Y559961D01*
X490940Y559981D01*
X490965Y559996D01*
X491026Y560068D01*
X491093Y560135D01*
X491106Y560161D01*
X491125Y560183D01*
X491160Y560271D01*
X491202Y560355D01*
X491206Y560384D01*
X491217Y560411D01*
X491235Y560578D01*
X491235Y589026D01*
X491234Y589034D01*
X491235Y589042D01*
X491214Y589156D01*
X491196Y589269D01*
X491192Y589276D01*
X491190Y589284D01*
X491134Y589385D01*
X491080Y589486D01*
X491074Y589492D01*
X491070Y589499D01*
X490986Y589576D01*
X490902Y589656D01*
X490895Y589659D01*
X490888Y589665D01*
X490783Y589711D01*
X490679Y589759D01*
X490671Y589760D01*
X490663Y589763D01*
X490549Y589774D01*
X490435Y589786D01*
X490426Y589784D01*
X490418Y589785D01*
X490253Y589755D01*
X465107Y582135D01*
X465033Y582098D01*
X464955Y582069D01*
X464923Y582044D01*
X464886Y582026D01*
X464827Y581968D01*
X464763Y581916D01*
X464741Y581881D01*
X464712Y581853D01*
X464675Y581779D01*
X464630Y581709D01*
X464620Y581669D01*
X464601Y581633D01*
X464590Y581551D01*
X464569Y581470D01*
X464573Y581430D01*
X464567Y581390D01*
X464582Y581308D01*
X464589Y581225D01*
X464604Y581188D01*
X464612Y581148D01*
X464652Y581075D01*
X464685Y580999D01*
X464718Y580957D01*
X464732Y580933D01*
X464753Y580913D01*
X464790Y580868D01*
X464814Y580844D01*
X464567Y569739D01*
X464570Y569720D01*
X464567Y569701D01*
X464587Y569598D01*
X464601Y569495D01*
X464610Y569478D01*
X464613Y569459D01*
X464665Y569369D01*
X464711Y569275D01*
X464725Y569262D01*
X464735Y569245D01*
X464812Y569175D01*
X464886Y569102D01*
X464903Y569094D01*
X464917Y569081D01*
X465068Y569007D01*
X490214Y559863D01*
X490243Y559857D01*
X490269Y559845D01*
X490363Y559834D01*
X490456Y559817D01*
X490485Y559821D01*
G37*
G36*
X489739Y410975D02*
X489739Y410975D01*
X489751Y410974D01*
X489859Y410997D01*
X489968Y411017D01*
X489979Y411023D01*
X489992Y411026D01*
X490087Y411083D01*
X490183Y411136D01*
X490192Y411146D01*
X490203Y411152D01*
X490275Y411236D01*
X490349Y411318D01*
X490355Y411329D01*
X490363Y411339D01*
X490404Y411442D01*
X490449Y411543D01*
X490450Y411555D01*
X490455Y411567D01*
X490473Y411734D01*
X490473Y439674D01*
X490470Y439694D01*
X490472Y439714D01*
X490450Y439815D01*
X490434Y439917D01*
X490424Y439934D01*
X490420Y439954D01*
X490367Y440043D01*
X490318Y440134D01*
X490304Y440148D01*
X490294Y440165D01*
X490215Y440232D01*
X490140Y440304D01*
X490122Y440312D01*
X490107Y440325D01*
X490011Y440364D01*
X489917Y440407D01*
X489897Y440409D01*
X489879Y440417D01*
X489775Y440423D01*
X489673Y440434D01*
X489653Y440430D01*
X489633Y440431D01*
X489469Y440395D01*
X487880Y439861D01*
X487880Y439860D01*
X485620Y439099D01*
X476577Y436054D01*
X474316Y435293D01*
X465274Y432248D01*
X464577Y432013D01*
X464538Y431993D01*
X464496Y431981D01*
X464430Y431936D01*
X464360Y431898D01*
X464329Y431866D01*
X464293Y431841D01*
X464245Y431778D01*
X464190Y431720D01*
X464172Y431680D01*
X464145Y431645D01*
X464120Y431569D01*
X464087Y431497D01*
X464082Y431453D01*
X464068Y431411D01*
X464061Y431267D01*
X464060Y431252D01*
X464061Y431249D01*
X464060Y431244D01*
X464822Y419306D01*
X464823Y419303D01*
X464823Y419300D01*
X464850Y419186D01*
X464877Y419066D01*
X464879Y419064D01*
X464879Y419061D01*
X464943Y418958D01*
X465006Y418856D01*
X465008Y418855D01*
X465009Y418852D01*
X465105Y418774D01*
X465195Y418699D01*
X465197Y418698D01*
X465199Y418696D01*
X465353Y418628D01*
X489483Y411008D01*
X489495Y411006D01*
X489507Y411001D01*
X489617Y410989D01*
X489726Y410973D01*
X489739Y410975D01*
G37*
D10*
X465406Y481548D03*
X465660Y518886D03*
D11*
X18342Y500190D03*
D12*
X30191Y457645D03*
X30191Y542735D03*
D11*
X981458Y750000D03*
D12*
X969609Y792545D03*
X969609Y707455D03*
D11*
X981458Y250300D03*
D12*
X969609Y292845D03*
X969609Y207755D03*
D13*
X88690Y500190D02*
X18342Y500190D01*
X88690Y500190D02*
X89000Y500500D01*
D14*
X88690Y500190D02*
X88710Y506794D01*
X89819Y506807D01*
X90928Y506848D01*
X92035Y506915D01*
X93141Y507008D01*
X94244Y507129D01*
X95343Y507276D01*
X96439Y507449D01*
X97531Y507649D01*
X98617Y507876D01*
X99697Y508128D01*
X100771Y508407D01*
X101838Y508711D01*
X102897Y509041D01*
X103948Y509397D01*
X104990Y509777D01*
X106022Y510183D01*
X107045Y510614D01*
X108057Y511069D01*
X109057Y511549D01*
X110045Y512053D01*
X111021Y512580D01*
X111985Y513131D01*
X112934Y513705D01*
X113869Y514302D01*
X114790Y514921D01*
X115695Y515562D01*
X116585Y516225D01*
X117458Y516909D01*
X118315Y517614D01*
X119154Y518340D01*
X119975Y519086D01*
X120779Y519851D01*
X121563Y520635D01*
X122328Y521439D01*
X123074Y522260D01*
X123800Y523099D01*
X124505Y523956D01*
X125189Y524829D01*
X125852Y525719D01*
X126493Y526624D01*
X127112Y527545D01*
X127709Y528480D01*
X128283Y529429D01*
X128834Y530393D01*
X129361Y531369D01*
X129865Y532357D01*
X130345Y533357D01*
X130800Y534369D01*
X131231Y535392D01*
X131637Y536424D01*
X132017Y537466D01*
X132373Y538517D01*
X132703Y539576D01*
X133007Y540643D01*
X133286Y541717D01*
X133538Y542797D01*
X133765Y543883D01*
X133965Y544975D01*
X134138Y546071D01*
X134285Y547170D01*
X134406Y548273D01*
X134499Y549379D01*
X134566Y550486D01*
X134607Y551595D01*
X134620Y552704D01*
X134620Y911098D01*
X134633Y912190D01*
X134673Y913282D01*
X134739Y914373D01*
X134831Y915462D01*
X134950Y916548D01*
X135094Y917631D01*
X135265Y918710D01*
X135462Y919784D01*
X135685Y920854D01*
X135934Y921918D01*
X136208Y922976D01*
X136508Y924026D01*
X136833Y925069D01*
X137183Y926104D01*
X137558Y927130D01*
X137958Y928147D01*
X138382Y929154D01*
X138830Y930150D01*
X139303Y931136D01*
X139799Y932109D01*
X140318Y933070D01*
X140861Y934019D01*
X141426Y934954D01*
X142014Y935875D01*
X142623Y936781D01*
X143255Y937673D01*
X143908Y938549D01*
X144581Y939409D01*
X145276Y940253D01*
X145990Y941079D01*
X146725Y941888D01*
X147478Y942679D01*
X148251Y943452D01*
X149042Y944205D01*
X149851Y944940D01*
X150677Y945654D01*
X151521Y946349D01*
X152381Y947022D01*
X153257Y947675D01*
X154149Y948307D01*
X155055Y948916D01*
X155976Y949504D01*
X156911Y950069D01*
X157860Y950612D01*
X158821Y951131D01*
X159794Y951627D01*
X160780Y952100D01*
X161776Y952548D01*
X162783Y952972D01*
X163800Y953372D01*
X164826Y953747D01*
X165861Y954097D01*
X166904Y954422D01*
X167954Y954722D01*
X169012Y954996D01*
X170076Y955245D01*
X171146Y955468D01*
X172220Y955665D01*
X173299Y955836D01*
X174382Y955980D01*
X175468Y956099D01*
X176557Y956191D01*
X177648Y956257D01*
X178740Y956297D01*
X179832Y956310D01*
X180594Y956310D01*
X179832Y956310D02*
X180920Y956337D01*
X182009Y956338D01*
X183097Y956312D01*
X184184Y956259D01*
X185270Y956179D01*
X186353Y956073D01*
X187434Y955940D01*
X188511Y955781D01*
X189583Y955595D01*
X190651Y955383D01*
X191713Y955145D01*
X192769Y954881D01*
X193819Y954591D01*
X194861Y954276D01*
X195894Y953934D01*
X196919Y953568D01*
X197935Y953177D01*
X198941Y952761D01*
X199937Y952320D01*
X200921Y951855D01*
X201893Y951366D01*
X202854Y950853D01*
X203801Y950317D01*
X204735Y949758D01*
X205655Y949176D01*
X206560Y948571D01*
X207451Y947945D01*
X208325Y947297D01*
X209184Y946627D01*
X210025Y945937D01*
X210850Y945226D01*
X211657Y944496D01*
X212446Y943745D01*
X213216Y942976D01*
X213967Y942188D01*
X214698Y941382D01*
X215409Y940558D01*
X216100Y939716D01*
X216770Y938859D01*
X217419Y937984D01*
X218046Y937095D01*
X218652Y936190D01*
X219234Y935270D01*
X219794Y934337D01*
X220331Y933390D01*
X220845Y932430D01*
X221335Y931458D01*
X221801Y930474D01*
X222242Y929479D01*
X222659Y928474D01*
X223051Y927458D01*
X223418Y926433D01*
X223760Y925400D01*
X224077Y924358D01*
X224368Y923309D01*
X224633Y922253D01*
X224871Y921191D01*
X225084Y920124D01*
X225271Y919051D01*
X225431Y917974D01*
X225565Y916894D01*
X225672Y915811D01*
X225752Y914725D01*
X225806Y913638D01*
X225806Y617474D01*
D15*
X465660Y518886D02*
X465711Y518888D01*
X465762Y518894D01*
X465812Y518903D01*
X465862Y518916D01*
X465910Y518933D01*
X465957Y518954D01*
X466002Y518978D01*
X466045Y519005D01*
X466086Y519035D01*
X466125Y519069D01*
X466161Y519105D01*
X466195Y519144D01*
X466225Y519185D01*
X466252Y519228D01*
X466276Y519273D01*
X466297Y519320D01*
X466314Y519368D01*
X466327Y519418D01*
X466336Y519468D01*
X466342Y519519D01*
X466344Y519570D01*
X465406Y481548D02*
X465371Y481546D01*
X465337Y481541D01*
X465303Y481532D01*
X465271Y481519D01*
X465240Y481504D01*
X465211Y481485D01*
X465184Y481463D01*
X465159Y481438D01*
X465137Y481411D01*
X465118Y481382D01*
X465103Y481351D01*
X465090Y481319D01*
X465081Y481285D01*
X465076Y481251D01*
X465074Y481216D01*
D14*
X316230Y622046D02*
X316302Y620879D01*
X316346Y619710D01*
X316361Y618541D01*
X316348Y617372D01*
X316307Y616203D01*
X316238Y615036D01*
X316140Y613870D01*
X316014Y612708D01*
X315861Y611548D01*
X315679Y610393D01*
X315469Y609243D01*
X315232Y608098D01*
X314967Y606959D01*
X314675Y605827D01*
X314355Y604702D01*
X314008Y603585D01*
X313635Y602477D01*
X313234Y601378D01*
X312808Y600289D01*
X312355Y599211D01*
X311876Y598144D01*
X311372Y597089D01*
X310842Y596047D01*
X310287Y595017D01*
X309707Y594002D01*
X309103Y593000D01*
X308476Y592014D01*
X307824Y591043D01*
X307149Y590088D01*
X306451Y589149D01*
X305731Y588228D01*
X304989Y587324D01*
X304225Y586439D01*
X303440Y585572D01*
X302634Y584725D01*
X301808Y583897D01*
X300962Y583090D01*
X300097Y582303D01*
X299213Y581537D01*
X298311Y580793D01*
X297392Y580071D01*
X296455Y579371D01*
X295501Y578694D01*
X294531Y578040D01*
X293546Y577410D01*
X292546Y576804D01*
X291532Y576223D01*
X290504Y575666D01*
X289462Y575134D01*
X288408Y574627D01*
X287342Y574146D01*
X286265Y573691D01*
X285177Y573262D01*
X284079Y572859D01*
X282972Y572483D01*
X281856Y572134D01*
X280732Y571812D01*
X279600Y571517D01*
X278462Y571250D01*
X277317Y571010D01*
X276167Y570798D01*
X275012Y570614D01*
X273853Y570458D01*
X272691Y570330D01*
X271526Y570230D01*
X270421Y570243D01*
X269317Y570283D01*
X268214Y570350D01*
X267113Y570443D01*
X266015Y570563D01*
X264920Y570710D01*
X263829Y570883D01*
X262742Y571082D01*
X261660Y571307D01*
X260584Y571559D01*
X259515Y571836D01*
X258453Y572139D01*
X257398Y572468D01*
X256351Y572822D01*
X255313Y573201D01*
X254285Y573605D01*
X253267Y574034D01*
X252260Y574488D01*
X251263Y574965D01*
X250279Y575467D01*
X249307Y575992D01*
X248348Y576541D01*
X247402Y577112D01*
X246471Y577707D01*
X245554Y578323D01*
X244652Y578962D01*
X243767Y579622D01*
X242897Y580303D01*
X242044Y581005D01*
X241208Y581728D01*
X240390Y582471D01*
X239590Y583233D01*
X238809Y584014D01*
X238047Y584814D01*
X237304Y585632D01*
X236581Y586468D01*
X235879Y587321D01*
X235198Y588191D01*
X234538Y589076D01*
X233899Y589978D01*
X233283Y590895D01*
X232688Y591826D01*
X232117Y592772D01*
X231568Y593731D01*
X231043Y594703D01*
X230541Y595687D01*
X230064Y596684D01*
X229610Y597691D01*
X229181Y598709D01*
X228777Y599737D01*
X228398Y600775D01*
X228044Y601822D01*
X227715Y602877D01*
X227412Y603939D01*
X227135Y605008D01*
X226883Y606084D01*
X226658Y607166D01*
X226459Y608253D01*
X226286Y609344D01*
X226139Y610439D01*
X226019Y611537D01*
X225926Y612638D01*
X225859Y613741D01*
X225819Y614845D01*
X225806Y615950D01*
X316230Y622046D02*
X316230Y909320D01*
X316230Y908812D02*
X316243Y909904D01*
X316283Y910996D01*
X316349Y912087D01*
X316441Y913176D01*
X316560Y914262D01*
X316704Y915345D01*
X316875Y916424D01*
X317072Y917498D01*
X317295Y918568D01*
X317544Y919632D01*
X317818Y920690D01*
X318118Y921740D01*
X318443Y922783D01*
X318793Y923818D01*
X319168Y924844D01*
X319568Y925861D01*
X319992Y926868D01*
X320440Y927864D01*
X320913Y928850D01*
X321409Y929823D01*
X321928Y930784D01*
X322471Y931733D01*
X323036Y932668D01*
X323624Y933589D01*
X324233Y934495D01*
X324865Y935387D01*
X325518Y936263D01*
X326191Y937123D01*
X326886Y937967D01*
X327600Y938793D01*
X328335Y939602D01*
X329088Y940393D01*
X329861Y941166D01*
X330652Y941919D01*
X331461Y942654D01*
X332287Y943368D01*
X333131Y944063D01*
X333991Y944736D01*
X334867Y945389D01*
X335759Y946021D01*
X336665Y946630D01*
X337586Y947218D01*
X338521Y947783D01*
X339470Y948326D01*
X340431Y948845D01*
X341404Y949341D01*
X342390Y949814D01*
X343386Y950262D01*
X344393Y950686D01*
X345410Y951086D01*
X346436Y951461D01*
X347471Y951811D01*
X348514Y952136D01*
X349564Y952436D01*
X350622Y952710D01*
X351686Y952959D01*
X352756Y953182D01*
X353830Y953379D01*
X354909Y953550D01*
X355992Y953694D01*
X357078Y953813D01*
X358167Y953905D01*
X359258Y953971D01*
X360350Y954011D01*
X361442Y954024D01*
X362568Y954013D01*
X363694Y953976D01*
X364818Y953911D01*
X365941Y953818D01*
X367061Y953699D01*
X368178Y953553D01*
X369291Y953380D01*
X370399Y953180D01*
X371502Y952953D01*
X372600Y952700D01*
X373691Y952420D01*
X374775Y952114D01*
X375851Y951782D01*
X376919Y951424D01*
X377978Y951040D01*
X379027Y950631D01*
X380066Y950196D01*
X381095Y949737D01*
X382112Y949253D01*
X383117Y948744D01*
X384109Y948211D01*
X385088Y947655D01*
X386054Y947075D01*
X387005Y946471D01*
X387941Y945845D01*
X388862Y945197D01*
X389767Y944526D01*
X390656Y943834D01*
X391527Y943121D01*
X392381Y942386D01*
X393217Y941632D01*
X394035Y940857D01*
X394834Y940063D01*
X395613Y939249D01*
X396372Y938417D01*
X397111Y937567D01*
X397829Y936700D01*
X398526Y935815D01*
X399202Y934914D01*
X399855Y933996D01*
X400486Y933063D01*
X401095Y932116D01*
X401680Y931153D01*
X402242Y930177D01*
X402780Y929188D01*
X403294Y928185D01*
X403784Y927171D01*
X404249Y926145D01*
X404689Y925109D01*
X405104Y924061D01*
X405494Y923005D01*
X405857Y921939D01*
X406195Y920864D01*
X406507Y919782D01*
X406793Y918693D01*
X407052Y917596D01*
X407285Y916494D01*
X407491Y915387D01*
X407670Y914275D01*
X407823Y913159D01*
X407948Y912040D01*
X408046Y910918D01*
X408117Y909794D01*
X408161Y908668D01*
X408178Y907542D01*
X408178Y619760D01*
X408178Y620776D02*
X408191Y619671D01*
X408231Y618567D01*
X408298Y617464D01*
X408391Y616363D01*
X408511Y615265D01*
X408658Y614170D01*
X408831Y613079D01*
X409030Y611992D01*
X409255Y610910D01*
X409507Y609834D01*
X409784Y608765D01*
X410087Y607703D01*
X410416Y606648D01*
X410770Y605601D01*
X411149Y604563D01*
X411553Y603535D01*
X411982Y602517D01*
X412436Y601510D01*
X412913Y600513D01*
X413415Y599529D01*
X413940Y598557D01*
X414489Y597598D01*
X415060Y596652D01*
X415655Y595721D01*
X416271Y594804D01*
X416910Y593902D01*
X417570Y593017D01*
X418251Y592147D01*
X418953Y591294D01*
X419676Y590458D01*
X420419Y589640D01*
X421181Y588840D01*
X421962Y588059D01*
X422762Y587297D01*
X423580Y586554D01*
X424416Y585831D01*
X425269Y585129D01*
X426139Y584448D01*
X427024Y583788D01*
X427926Y583149D01*
X428843Y582533D01*
X429774Y581938D01*
X430720Y581367D01*
X431679Y580818D01*
X432651Y580293D01*
X433635Y579791D01*
X434632Y579314D01*
X435639Y578860D01*
X436657Y578431D01*
X437685Y578027D01*
X438723Y577648D01*
X439770Y577294D01*
X440825Y576965D01*
X441887Y576662D01*
X442956Y576385D01*
X444032Y576133D01*
X445114Y575908D01*
X446201Y575709D01*
X447292Y575536D01*
X448387Y575389D01*
X449485Y575269D01*
X450586Y575176D01*
X451689Y575109D01*
X452793Y575069D01*
X453898Y575056D01*
X466598Y575056D01*
X491490Y575056D01*
X491521Y575054D01*
X491551Y575049D01*
X491580Y575039D01*
X491608Y575027D01*
X491634Y575011D01*
X491658Y574992D01*
X491680Y574970D01*
X491699Y574946D01*
X491715Y574920D01*
X491727Y574892D01*
X491737Y574863D01*
X491742Y574833D01*
X491744Y574802D01*
D13*
X689864Y574802D01*
X689895Y574800D01*
X689925Y574795D01*
X689954Y574785D01*
X689982Y574773D01*
X690008Y574757D01*
X690032Y574738D01*
X690054Y574716D01*
X690073Y574692D01*
X690089Y574666D01*
X690101Y574638D01*
X690111Y574609D01*
X690116Y574579D01*
X690118Y574548D01*
X692328Y574575D01*
X694536Y574655D01*
X696741Y574788D01*
X698943Y574975D01*
X701140Y575215D01*
X703330Y575508D01*
X705513Y575853D01*
X707686Y576252D01*
X709849Y576702D01*
X712001Y577205D01*
X714140Y577760D01*
X716265Y578366D01*
X718375Y579023D01*
X720468Y579732D01*
X722543Y580490D01*
X724600Y581299D01*
X726636Y582157D01*
X728651Y583063D01*
X730643Y584019D01*
X732612Y585022D01*
X734556Y586072D01*
X736474Y587169D01*
X738365Y588313D01*
X740228Y589501D01*
X742062Y590734D01*
X743865Y592011D01*
X745637Y593332D01*
X747376Y594695D01*
X749082Y596099D01*
X750754Y597544D01*
X752390Y599029D01*
X753990Y600554D01*
X755552Y602116D01*
X757077Y603716D01*
X758562Y605352D01*
X760007Y607024D01*
X761411Y608730D01*
X762774Y610469D01*
X764095Y612241D01*
X765372Y614044D01*
X766605Y615878D01*
X767793Y617741D01*
X768937Y619632D01*
X770034Y621550D01*
X771084Y623494D01*
X772087Y625463D01*
X773043Y627455D01*
X773949Y629470D01*
X774807Y631506D01*
X775616Y633563D01*
X776374Y635638D01*
X777083Y637731D01*
X777740Y639841D01*
X778346Y641966D01*
X778901Y644105D01*
X779404Y646257D01*
X779854Y648420D01*
X780253Y650593D01*
X780598Y652776D01*
X780891Y654966D01*
X781131Y657163D01*
X781318Y659365D01*
X781451Y661570D01*
X781531Y663778D01*
X781558Y665988D01*
X781582Y668007D01*
X781656Y670025D01*
X781778Y672041D01*
X781948Y674053D01*
X782167Y676061D01*
X782435Y678062D01*
X782751Y680057D01*
X783115Y682043D01*
X783527Y684020D01*
X783986Y685987D01*
X784493Y687941D01*
X785047Y689883D01*
X785648Y691811D01*
X786295Y693724D01*
X786988Y695621D01*
X787727Y697500D01*
X788511Y699361D01*
X789340Y701203D01*
X790213Y703024D01*
X791130Y704823D01*
X792090Y706600D01*
X793093Y708353D01*
X794137Y710081D01*
X795224Y711783D01*
X796351Y713459D01*
X797518Y715107D01*
X798724Y716726D01*
X799970Y718316D01*
X801253Y719875D01*
X802574Y721403D01*
X803931Y722898D01*
X805324Y724360D01*
X806752Y725788D01*
X808214Y727181D01*
X809709Y728538D01*
X811237Y729859D01*
X812796Y731142D01*
X814386Y732388D01*
X816005Y733594D01*
X817653Y734761D01*
X819329Y735888D01*
X821031Y736975D01*
X822759Y738019D01*
X824512Y739022D01*
X826289Y739982D01*
X828088Y740899D01*
X829909Y741772D01*
X831751Y742601D01*
X833612Y743385D01*
X835491Y744124D01*
X837388Y744817D01*
X839301Y745464D01*
X841229Y746065D01*
X843171Y746619D01*
X845125Y747126D01*
X847092Y747585D01*
X849069Y747997D01*
X851055Y748361D01*
X853050Y748677D01*
X855051Y748945D01*
X857059Y749164D01*
X859071Y749334D01*
X861087Y749456D01*
X863105Y749530D01*
X865124Y749554D01*
X981964Y749554D01*
D14*
X134874Y447802D02*
X134861Y448911D01*
X134820Y450020D01*
X134753Y451127D01*
X134660Y452233D01*
X134539Y453336D01*
X134392Y454435D01*
X134219Y455531D01*
X134019Y456623D01*
X133792Y457709D01*
X133540Y458789D01*
X133261Y459863D01*
X132957Y460930D01*
X132627Y461989D01*
X132271Y463040D01*
X131891Y464082D01*
X131485Y465114D01*
X131054Y466137D01*
X130599Y467149D01*
X130119Y468149D01*
X129615Y469137D01*
X129088Y470113D01*
X128537Y471077D01*
X127963Y472026D01*
X127366Y472961D01*
X126747Y473882D01*
X126106Y474787D01*
X125443Y475677D01*
X124759Y476550D01*
X124054Y477407D01*
X123328Y478246D01*
X122582Y479067D01*
X121817Y479871D01*
X121033Y480655D01*
X120229Y481420D01*
X119408Y482166D01*
X118569Y482892D01*
X117712Y483597D01*
X116839Y484281D01*
X115949Y484944D01*
X115044Y485585D01*
X114123Y486204D01*
X113188Y486801D01*
X112239Y487375D01*
X111275Y487926D01*
X110299Y488453D01*
X109311Y488957D01*
X108311Y489437D01*
X107299Y489892D01*
X106276Y490323D01*
X105244Y490729D01*
X104202Y491109D01*
X103151Y491465D01*
X102092Y491795D01*
X101025Y492099D01*
X99951Y492378D01*
X98871Y492630D01*
X97785Y492857D01*
X96693Y493057D01*
X95597Y493230D01*
X94498Y493377D01*
X93395Y493498D01*
X92289Y493591D01*
X91182Y493658D01*
X90073Y493699D01*
X88964Y493712D01*
X134874Y447802D02*
X134874Y89408D01*
X134887Y88316D01*
X134927Y87224D01*
X134993Y86133D01*
X135085Y85044D01*
X135204Y83958D01*
X135348Y82875D01*
X135519Y81796D01*
X135716Y80722D01*
X135939Y79652D01*
X136188Y78588D01*
X136462Y77530D01*
X136762Y76480D01*
X137087Y75437D01*
X137437Y74402D01*
X137812Y73376D01*
X138212Y72359D01*
X138636Y71352D01*
X139084Y70356D01*
X139557Y69370D01*
X140053Y68397D01*
X140572Y67436D01*
X141115Y66487D01*
X141680Y65552D01*
X142268Y64631D01*
X142877Y63725D01*
X143509Y62833D01*
X144162Y61957D01*
X144835Y61097D01*
X145530Y60253D01*
X146244Y59427D01*
X146979Y58618D01*
X147732Y57827D01*
X148505Y57054D01*
X149296Y56301D01*
X150105Y55566D01*
X150931Y54852D01*
X151775Y54157D01*
X152635Y53484D01*
X153511Y52831D01*
X154403Y52199D01*
X155309Y51590D01*
X156230Y51002D01*
X157165Y50437D01*
X158114Y49894D01*
X159075Y49375D01*
X160048Y48879D01*
X161034Y48406D01*
X162030Y47958D01*
X163037Y47534D01*
X164054Y47134D01*
X165080Y46759D01*
X166115Y46409D01*
X167158Y46084D01*
X168208Y45784D01*
X169266Y45510D01*
X170330Y45261D01*
X171400Y45038D01*
X172474Y44841D01*
X173553Y44670D01*
X174636Y44526D01*
X175722Y44407D01*
X176811Y44315D01*
X177902Y44249D01*
X178994Y44209D01*
X180086Y44196D01*
X181191Y44209D01*
X182295Y44249D01*
X183398Y44316D01*
X184499Y44409D01*
X185597Y44529D01*
X186692Y44676D01*
X187783Y44849D01*
X188870Y45048D01*
X189952Y45273D01*
X191028Y45525D01*
X192097Y45802D01*
X193159Y46105D01*
X194214Y46434D01*
X195261Y46788D01*
X196299Y47167D01*
X197327Y47571D01*
X198345Y48000D01*
X199352Y48454D01*
X200349Y48931D01*
X201333Y49433D01*
X202305Y49958D01*
X203264Y50507D01*
X204210Y51078D01*
X205141Y51673D01*
X206058Y52289D01*
X206960Y52928D01*
X207845Y53588D01*
X208715Y54269D01*
X209568Y54971D01*
X210404Y55694D01*
X211222Y56437D01*
X212022Y57199D01*
X212803Y57980D01*
X213565Y58780D01*
X214308Y59598D01*
X215031Y60434D01*
X215733Y61287D01*
X216414Y62157D01*
X217074Y63042D01*
X217713Y63944D01*
X218329Y64861D01*
X218924Y65792D01*
X219495Y66738D01*
X220044Y67697D01*
X220569Y68669D01*
X221071Y69653D01*
X221548Y70650D01*
X222002Y71657D01*
X222431Y72675D01*
X222835Y73703D01*
X223214Y74741D01*
X223568Y75788D01*
X223897Y76843D01*
X224200Y77905D01*
X224477Y78974D01*
X224729Y80050D01*
X224954Y81132D01*
X225153Y82219D01*
X225326Y83310D01*
X225473Y84405D01*
X225593Y85503D01*
X225686Y86604D01*
X225753Y87707D01*
X225793Y88811D01*
X225806Y89916D01*
X225806Y386080D01*
X271780Y430276D02*
X272872Y430263D01*
X273964Y430223D01*
X275055Y430157D01*
X276144Y430065D01*
X277230Y429946D01*
X278313Y429802D01*
X279392Y429631D01*
X280466Y429434D01*
X281536Y429211D01*
X282600Y428962D01*
X283658Y428688D01*
X284708Y428388D01*
X285751Y428063D01*
X286786Y427713D01*
X287812Y427338D01*
X288829Y426938D01*
X289836Y426514D01*
X290832Y426066D01*
X291818Y425593D01*
X292791Y425097D01*
X293752Y424578D01*
X294701Y424035D01*
X295636Y423470D01*
X296557Y422882D01*
X297463Y422273D01*
X298355Y421641D01*
X299231Y420988D01*
X300091Y420315D01*
X300935Y419620D01*
X301761Y418906D01*
X302570Y418171D01*
X303361Y417418D01*
X304134Y416645D01*
X304887Y415854D01*
X305622Y415045D01*
X306336Y414219D01*
X307031Y413375D01*
X307704Y412515D01*
X308357Y411639D01*
X308989Y410747D01*
X309598Y409841D01*
X310186Y408920D01*
X310751Y407985D01*
X311294Y407036D01*
X311813Y406075D01*
X312309Y405102D01*
X312782Y404116D01*
X313230Y403120D01*
X313654Y402113D01*
X314054Y401096D01*
X314429Y400070D01*
X314779Y399035D01*
X315104Y397992D01*
X315404Y396942D01*
X315678Y395884D01*
X315927Y394820D01*
X316150Y393750D01*
X316347Y392676D01*
X316518Y391597D01*
X316662Y390514D01*
X316781Y389428D01*
X316873Y388339D01*
X316939Y387248D01*
X316979Y386156D01*
X316992Y385064D01*
X271780Y430276D02*
X270675Y430263D01*
X269571Y430223D01*
X268468Y430156D01*
X267367Y430063D01*
X266269Y429943D01*
X265174Y429796D01*
X264083Y429623D01*
X262996Y429424D01*
X261914Y429199D01*
X260838Y428947D01*
X259769Y428670D01*
X258707Y428367D01*
X257652Y428038D01*
X256605Y427684D01*
X255567Y427305D01*
X254539Y426901D01*
X253521Y426472D01*
X252514Y426018D01*
X251517Y425541D01*
X250533Y425039D01*
X249561Y424514D01*
X248602Y423965D01*
X247656Y423394D01*
X246725Y422799D01*
X245808Y422183D01*
X244906Y421544D01*
X244021Y420884D01*
X243151Y420203D01*
X242298Y419501D01*
X241462Y418778D01*
X240644Y418035D01*
X239844Y417273D01*
X239063Y416492D01*
X238301Y415692D01*
X237558Y414874D01*
X236835Y414038D01*
X236133Y413185D01*
X235452Y412315D01*
X234792Y411430D01*
X234153Y410528D01*
X233537Y409611D01*
X232942Y408680D01*
X232371Y407734D01*
X231822Y406775D01*
X231297Y405803D01*
X230795Y404819D01*
X230318Y403822D01*
X229864Y402815D01*
X229435Y401797D01*
X229031Y400769D01*
X228652Y399731D01*
X228298Y398684D01*
X227969Y397629D01*
X227666Y396567D01*
X227389Y395498D01*
X227137Y394422D01*
X226912Y393340D01*
X226713Y392253D01*
X226540Y391162D01*
X226393Y390067D01*
X226273Y388969D01*
X226180Y387868D01*
X226113Y386765D01*
X226073Y385661D01*
X226060Y384556D01*
X316992Y385064D02*
X316992Y97790D01*
X316992Y97536D02*
X317005Y96444D01*
X317045Y95352D01*
X317111Y94261D01*
X317203Y93172D01*
X317322Y92086D01*
X317466Y91003D01*
X317637Y89924D01*
X317834Y88850D01*
X318057Y87780D01*
X318306Y86716D01*
X318580Y85658D01*
X318880Y84608D01*
X319205Y83565D01*
X319555Y82530D01*
X319930Y81504D01*
X320330Y80487D01*
X320754Y79480D01*
X321202Y78484D01*
X321675Y77498D01*
X322171Y76525D01*
X322690Y75564D01*
X323233Y74615D01*
X323798Y73680D01*
X324386Y72759D01*
X324995Y71853D01*
X325627Y70961D01*
X326280Y70085D01*
X326953Y69225D01*
X327648Y68381D01*
X328362Y67555D01*
X329097Y66746D01*
X329850Y65955D01*
X330623Y65182D01*
X331414Y64429D01*
X332223Y63694D01*
X333049Y62980D01*
X333893Y62285D01*
X334753Y61612D01*
X335629Y60959D01*
X336521Y60327D01*
X337427Y59718D01*
X338348Y59130D01*
X339283Y58565D01*
X340232Y58022D01*
X341193Y57503D01*
X342166Y57007D01*
X343152Y56534D01*
X344148Y56086D01*
X345155Y55662D01*
X346172Y55262D01*
X347198Y54887D01*
X348233Y54537D01*
X349276Y54212D01*
X350326Y53912D01*
X351384Y53638D01*
X352448Y53389D01*
X353518Y53166D01*
X354592Y52969D01*
X355671Y52798D01*
X356754Y52654D01*
X357840Y52535D01*
X358929Y52443D01*
X360020Y52377D01*
X361112Y52337D01*
X362204Y52324D01*
X363291Y52306D01*
X364378Y52315D01*
X365464Y52350D01*
X366549Y52411D01*
X367632Y52499D01*
X368713Y52612D01*
X369791Y52752D01*
X370865Y52917D01*
X371935Y53109D01*
X373000Y53326D01*
X374059Y53569D01*
X375113Y53838D01*
X376159Y54132D01*
X377198Y54451D01*
X378229Y54795D01*
X379251Y55164D01*
X380264Y55558D01*
X381268Y55976D01*
X382261Y56418D01*
X383243Y56883D01*
X384213Y57373D01*
X385171Y57886D01*
X386117Y58421D01*
X387049Y58980D01*
X387968Y59561D01*
X388872Y60164D01*
X389762Y60788D01*
X390636Y61434D01*
X391494Y62101D01*
X392336Y62788D01*
X393161Y63496D01*
X393969Y64223D01*
X394759Y64969D01*
X395530Y65735D01*
X396283Y66519D01*
X397017Y67320D01*
X397731Y68140D01*
X398426Y68976D01*
X399099Y69829D01*
X399752Y70698D01*
X400384Y71582D01*
X400994Y72481D01*
X401583Y73395D01*
X402149Y74323D01*
X402692Y75264D01*
X403213Y76219D01*
X403710Y77185D01*
X404184Y78163D01*
X404634Y79152D01*
X405060Y80152D01*
X405462Y81162D01*
X405839Y82181D01*
X406192Y83209D01*
X406519Y84246D01*
X406822Y85290D01*
X407099Y86341D01*
X407351Y87398D01*
X407577Y88461D01*
X407777Y89529D01*
X407951Y90602D01*
X408100Y91679D01*
X408222Y92759D01*
X408318Y93841D01*
X408388Y94926D01*
X408432Y96012D01*
X408432Y379730D01*
X408445Y380835D01*
X408485Y381939D01*
X408552Y383042D01*
X408645Y384143D01*
X408765Y385241D01*
X408912Y386336D01*
X409085Y387427D01*
X409284Y388514D01*
X409509Y389596D01*
X409761Y390672D01*
X410038Y391741D01*
X410341Y392803D01*
X410670Y393858D01*
X411024Y394905D01*
X411403Y395943D01*
X411807Y396971D01*
X412236Y397989D01*
X412690Y398996D01*
X413167Y399993D01*
X413669Y400977D01*
X414194Y401949D01*
X414743Y402908D01*
X415314Y403854D01*
X415909Y404785D01*
X416525Y405702D01*
X417164Y406604D01*
X417824Y407489D01*
X418505Y408359D01*
X419207Y409212D01*
X419930Y410048D01*
X420673Y410866D01*
X421435Y411666D01*
X422216Y412447D01*
X423016Y413209D01*
X423834Y413952D01*
X424670Y414675D01*
X425523Y415377D01*
X426393Y416058D01*
X427278Y416718D01*
X428180Y417357D01*
X429097Y417973D01*
X430028Y418568D01*
X430974Y419139D01*
X431933Y419688D01*
X432905Y420213D01*
X433889Y420715D01*
X434886Y421192D01*
X435893Y421646D01*
X436911Y422075D01*
X437939Y422479D01*
X438977Y422858D01*
X440024Y423212D01*
X441079Y423541D01*
X442141Y423844D01*
X443210Y424121D01*
X444286Y424373D01*
X445368Y424598D01*
X446455Y424797D01*
X447546Y424970D01*
X448641Y425117D01*
X449739Y425237D01*
X450840Y425330D01*
X451943Y425397D01*
X453047Y425437D01*
X454152Y425450D01*
X465836Y425450D01*
X491744Y425450D01*
D13*
X491998Y425704D02*
X690118Y425704D01*
X690372Y425958D02*
X692582Y425931D01*
X694790Y425851D01*
X696995Y425718D01*
X699197Y425531D01*
X701394Y425291D01*
X703584Y424998D01*
X705767Y424653D01*
X707940Y424254D01*
X710103Y423804D01*
X712255Y423301D01*
X714394Y422746D01*
X716519Y422140D01*
X718629Y421483D01*
X720722Y420774D01*
X722797Y420016D01*
X724854Y419207D01*
X726890Y418349D01*
X728905Y417443D01*
X730897Y416487D01*
X732866Y415484D01*
X734810Y414434D01*
X736728Y413337D01*
X738619Y412193D01*
X740482Y411005D01*
X742316Y409772D01*
X744119Y408495D01*
X745891Y407174D01*
X747630Y405811D01*
X749336Y404407D01*
X751008Y402962D01*
X752644Y401477D01*
X754244Y399952D01*
X755806Y398390D01*
X757331Y396790D01*
X758816Y395154D01*
X760261Y393482D01*
X761665Y391776D01*
X763028Y390037D01*
X764349Y388265D01*
X765626Y386462D01*
X766859Y384628D01*
X768047Y382765D01*
X769191Y380874D01*
X770288Y378956D01*
X771338Y377012D01*
X772341Y375043D01*
X773297Y373051D01*
X774203Y371036D01*
X775061Y369000D01*
X775870Y366943D01*
X776628Y364868D01*
X777337Y362775D01*
X777994Y360665D01*
X778600Y358540D01*
X779155Y356401D01*
X779658Y354249D01*
X780108Y352086D01*
X780507Y349913D01*
X780852Y347730D01*
X781145Y345540D01*
X781385Y343343D01*
X781572Y341141D01*
X781705Y338936D01*
X781785Y336728D01*
X781812Y334518D01*
X781836Y332499D01*
X781910Y330481D01*
X782032Y328465D01*
X782202Y326453D01*
X782421Y324445D01*
X782689Y322444D01*
X783005Y320449D01*
X783369Y318463D01*
X783781Y316486D01*
X784240Y314519D01*
X784747Y312565D01*
X785301Y310623D01*
X785902Y308695D01*
X786549Y306782D01*
X787242Y304885D01*
X787981Y303006D01*
X788765Y301145D01*
X789594Y299303D01*
X790467Y297482D01*
X791384Y295683D01*
X792344Y293906D01*
X793347Y292153D01*
X794391Y290425D01*
X795478Y288723D01*
X796605Y287047D01*
X797772Y285399D01*
X798978Y283780D01*
X800224Y282190D01*
X801507Y280631D01*
X802828Y279103D01*
X804185Y277608D01*
X805578Y276146D01*
X807006Y274718D01*
X808468Y273325D01*
X809963Y271968D01*
X811491Y270647D01*
X813050Y269364D01*
X814640Y268118D01*
X816259Y266912D01*
X817907Y265745D01*
X819583Y264618D01*
X821285Y263531D01*
X823013Y262487D01*
X824766Y261484D01*
X826543Y260524D01*
X828342Y259607D01*
X830163Y258734D01*
X832005Y257905D01*
X833866Y257121D01*
X835745Y256382D01*
X837642Y255689D01*
X839555Y255042D01*
X841483Y254441D01*
X843425Y253887D01*
X845379Y253380D01*
X847346Y252921D01*
X849323Y252509D01*
X851309Y252145D01*
X853304Y251829D01*
X855305Y251561D01*
X857313Y251342D01*
X859325Y251172D01*
X861341Y251050D01*
X863359Y250976D01*
X865378Y250952D01*
X982218Y250952D01*
D15*
X466598Y519824D02*
X466596Y519765D01*
X466591Y519706D01*
X466581Y519648D01*
X466569Y519591D01*
X466552Y519534D01*
X466532Y519479D01*
X466509Y519425D01*
X466482Y519372D01*
X466452Y519321D01*
X466419Y519273D01*
X466383Y519226D01*
X466344Y519182D01*
X466302Y519140D01*
X466258Y519101D01*
X466211Y519065D01*
X466163Y519032D01*
X466112Y519002D01*
X466059Y518975D01*
X466005Y518952D01*
X465950Y518932D01*
X465893Y518915D01*
X465836Y518903D01*
X465778Y518893D01*
X465719Y518888D01*
X465660Y518886D01*
X466598Y519824D02*
X466598Y575056D01*
X465406Y481548D02*
X465446Y481546D01*
X465485Y481541D01*
X465524Y481532D01*
X465561Y481519D01*
X465598Y481503D01*
X465632Y481484D01*
X465665Y481461D01*
X465696Y481436D01*
X465724Y481408D01*
X465749Y481377D01*
X465772Y481344D01*
X465791Y481310D01*
X465807Y481273D01*
X465820Y481236D01*
X465829Y481197D01*
X465834Y481158D01*
X465836Y481118D01*
X465836Y425450D01*
D16*
X12700Y985520D03*
X12700Y888238D03*
X985520Y499110D03*
X12700Y790956D03*
X12700Y693674D03*
X12700Y596392D03*
X12700Y401828D03*
X12700Y304546D03*
X12700Y207264D03*
X12700Y109982D03*
X12700Y12700D03*
X109982Y12700D03*
X207264Y12700D03*
X304546Y12700D03*
X401828Y12700D03*
X499110Y12700D03*
X596392Y12700D03*
X693674Y12700D03*
X790956Y12700D03*
X888238Y12700D03*
X985520Y12700D03*
X985520Y109982D03*
X985520Y207264D03*
X985520Y304546D03*
X985520Y401828D03*
X985520Y596392D03*
X985520Y693674D03*
X985520Y790956D03*
X985520Y888238D03*
X985520Y985520D03*
X888238Y985520D03*
X790956Y985520D03*
X693674Y985520D03*
X596392Y985520D03*
X499110Y985520D03*
X401828Y985520D03*
X304546Y985520D03*
X207264Y985520D03*
X109982Y985520D03*
D17*
X12700Y985520D02*
X12700Y981710D01*
D18*
X12700Y543560D01*
D17*
X12192Y543052D01*
D18*
X12700Y454406D02*
X12700Y12700D01*
D17*
X12700Y454406D02*
X13462Y455168D01*
D18*
X12700Y12700D02*
X985520Y12700D01*
X985520Y207264D01*
X985520Y304546D02*
X985520Y693674D01*
X985520Y790956D02*
X985520Y985520D01*
X16510Y985520D01*
D17*
X12700Y981710D01*
D18*
X985520Y702818D02*
X985520Y693674D01*
D17*
X985520Y702818D02*
X986282Y703580D01*
D18*
X985520Y304292D02*
X985520Y296164D01*
X985266Y295910D01*
M02*
