G04 EAGLE Gerber X2 export*
%TF.Part,Single*%
%TF.FileFunction,Soldermask,Bot,1*%
%TF.FilePolarity,Negative*%
%TF.GenerationSoftware,Autodesk,EAGLE,8.7.1*%
%TF.CreationDate,2018-04-02T22:08:27Z*%
G75*
%MOMM*%
%FSLAX34Y34*%
%LPD*%
%AMOC8*
5,1,8,0,0,1.08239X$1,22.5*%
G01*
%ADD10C,3.467106*%
%ADD11R,5.105400X1.803400*%
%ADD12C,1.117600*%


D10*
X50800Y50800D03*
X944118Y50800D03*
X944118Y944118D03*
X50800Y944118D03*
D11*
X30191Y542735D03*
X30191Y457645D03*
X969609Y707455D03*
X969609Y792545D03*
X969609Y207755D03*
X969609Y292845D03*
D12*
X12700Y985520D03*
X12700Y888238D03*
X985520Y499110D03*
X12700Y790956D03*
X12700Y693674D03*
X12700Y596392D03*
X12700Y401828D03*
X12700Y304546D03*
X12700Y207264D03*
X12700Y109982D03*
X12700Y12700D03*
X109982Y12700D03*
X207264Y12700D03*
X304546Y12700D03*
X401828Y12700D03*
X499110Y12700D03*
X596392Y12700D03*
X693674Y12700D03*
X790956Y12700D03*
X888238Y12700D03*
X985520Y12700D03*
X985520Y109982D03*
X985520Y207264D03*
X985520Y304546D03*
X985520Y401828D03*
X985520Y596392D03*
X985520Y693674D03*
X985520Y790956D03*
X985520Y888238D03*
X985520Y985520D03*
X888238Y985520D03*
X790956Y985520D03*
X693674Y985520D03*
X596392Y985520D03*
X499110Y985520D03*
X401828Y985520D03*
X304546Y985520D03*
X207264Y985520D03*
X109982Y985520D03*
M02*
