G04 EAGLE Gerber X2 export*
G75*
%MOMM*%
%FSLAX34Y34*%
%LPD*%
%AMOC8*
5,1,8,0,0,1.08239X$1,22.5*%
G01*
%ADD10R,2.362200X1.498600*%
%ADD11R,4.902200X1.600200*%
%ADD12R,1.803400X1.295400*%
%ADD13C,1.536700*%
%ADD14C,0.381000*%
%ADD15C,2.984500*%
%ADD16C,0.914400*%
%ADD17C,1.016000*%

G36*
X344076Y677606D02*
X344076Y677606D01*
X344200Y677606D01*
X344270Y677621D01*
X344342Y677627D01*
X344460Y677661D01*
X344582Y677687D01*
X344647Y677715D01*
X344716Y677735D01*
X344825Y677794D01*
X344939Y677843D01*
X344997Y677885D01*
X345060Y677918D01*
X345155Y677997D01*
X345256Y678069D01*
X345305Y678121D01*
X345360Y678167D01*
X345437Y678264D01*
X345521Y678355D01*
X345558Y678416D01*
X345603Y678472D01*
X345659Y678583D01*
X345723Y678689D01*
X345746Y678756D01*
X345779Y678820D01*
X345811Y678939D01*
X345852Y679056D01*
X345861Y679127D01*
X345880Y679196D01*
X345882Y679282D01*
X345903Y679443D01*
X345890Y679622D01*
X345893Y679710D01*
X344429Y692879D01*
X347352Y705056D01*
X347354Y705070D01*
X347358Y705083D01*
X347379Y705263D01*
X347403Y705442D01*
X347402Y705456D01*
X347404Y705470D01*
X347388Y705651D01*
X347375Y705831D01*
X347371Y705845D01*
X347370Y705859D01*
X347318Y706032D01*
X347269Y706206D01*
X347262Y706218D01*
X347258Y706232D01*
X347172Y706390D01*
X347088Y706551D01*
X347079Y706562D01*
X347072Y706575D01*
X346956Y706712D01*
X346841Y706852D01*
X346830Y706861D01*
X346820Y706872D01*
X346678Y706984D01*
X346537Y707097D01*
X346524Y707104D01*
X346513Y707112D01*
X346351Y707192D01*
X346190Y707275D01*
X346177Y707279D01*
X346164Y707285D01*
X346108Y707297D01*
X345814Y707378D01*
X345722Y707384D01*
X345662Y707397D01*
X304662Y710897D01*
X304651Y710897D01*
X304641Y710899D01*
X304458Y710894D01*
X304272Y710891D01*
X304262Y710888D01*
X304252Y710888D01*
X304073Y710846D01*
X303892Y710805D01*
X303882Y710800D01*
X303872Y710798D01*
X303707Y710720D01*
X303537Y710643D01*
X303529Y710637D01*
X303519Y710632D01*
X303372Y710522D01*
X303223Y710413D01*
X303216Y710405D01*
X303208Y710398D01*
X303085Y710260D01*
X302962Y710123D01*
X302957Y710114D01*
X302950Y710106D01*
X302859Y709946D01*
X302766Y709786D01*
X302762Y709776D01*
X302757Y709767D01*
X302701Y709592D01*
X302642Y709417D01*
X302641Y709406D01*
X302637Y709396D01*
X302618Y709214D01*
X302596Y709030D01*
X302597Y709019D01*
X302596Y709009D01*
X302602Y708963D01*
X302630Y708641D01*
X302655Y708557D01*
X302663Y708499D01*
X305663Y697499D01*
X305677Y697463D01*
X305684Y697426D01*
X305747Y697281D01*
X305803Y697135D01*
X305824Y697103D01*
X305839Y697068D01*
X305930Y696940D01*
X306015Y696808D01*
X306042Y696781D01*
X306064Y696750D01*
X306129Y696693D01*
X306289Y696531D01*
X306394Y696461D01*
X306451Y696411D01*
X332951Y678911D01*
X332958Y678907D01*
X332964Y678903D01*
X333130Y678817D01*
X333296Y678731D01*
X333304Y678729D01*
X333311Y678725D01*
X333347Y678716D01*
X333671Y678624D01*
X333756Y678618D01*
X333811Y678605D01*
X343811Y677605D01*
X343882Y677605D01*
X343953Y677596D01*
X344076Y677606D01*
G37*
G36*
X304604Y290106D02*
X304604Y290106D01*
X304662Y290103D01*
X345662Y293603D01*
X345676Y293605D01*
X345690Y293605D01*
X345868Y293642D01*
X346045Y293675D01*
X346058Y293681D01*
X346072Y293684D01*
X346238Y293755D01*
X346405Y293825D01*
X346417Y293833D01*
X346430Y293838D01*
X346578Y293942D01*
X346727Y294044D01*
X346737Y294054D01*
X346749Y294063D01*
X346872Y294194D01*
X346998Y294324D01*
X347006Y294337D01*
X347015Y294347D01*
X347110Y294501D01*
X347206Y294654D01*
X347211Y294667D01*
X347219Y294680D01*
X347279Y294850D01*
X347343Y295019D01*
X347345Y295033D01*
X347350Y295047D01*
X347374Y295226D01*
X347402Y295404D01*
X347401Y295419D01*
X347403Y295433D01*
X347397Y295489D01*
X347381Y295794D01*
X347358Y295884D01*
X347352Y295944D01*
X344429Y308121D01*
X345893Y321290D01*
X345893Y321361D01*
X345903Y321432D01*
X345895Y321556D01*
X345896Y321680D01*
X345882Y321750D01*
X345877Y321821D01*
X345844Y321940D01*
X345820Y322062D01*
X345792Y322128D01*
X345772Y322196D01*
X345715Y322307D01*
X345667Y322420D01*
X345626Y322479D01*
X345593Y322543D01*
X345515Y322639D01*
X345445Y322741D01*
X345393Y322790D01*
X345348Y322845D01*
X345252Y322924D01*
X345162Y323009D01*
X345101Y323046D01*
X345046Y323092D01*
X344936Y323149D01*
X344830Y323214D01*
X344763Y323238D01*
X344700Y323271D01*
X344580Y323305D01*
X344464Y323347D01*
X344393Y323357D01*
X344324Y323376D01*
X344238Y323380D01*
X344078Y323403D01*
X343899Y323392D01*
X343811Y323395D01*
X333811Y322395D01*
X333803Y322393D01*
X333795Y322393D01*
X333613Y322354D01*
X333429Y322317D01*
X333422Y322313D01*
X333414Y322312D01*
X333381Y322296D01*
X333071Y322162D01*
X333001Y322113D01*
X332951Y322089D01*
X306451Y304589D01*
X306421Y304565D01*
X306388Y304546D01*
X306270Y304441D01*
X306149Y304342D01*
X306125Y304312D01*
X306097Y304287D01*
X306003Y304161D01*
X305904Y304039D01*
X305887Y304005D01*
X305864Y303974D01*
X305830Y303895D01*
X305726Y303692D01*
X305693Y303571D01*
X305663Y303501D01*
X302663Y292501D01*
X302661Y292491D01*
X302657Y292481D01*
X302629Y292299D01*
X302599Y292116D01*
X302600Y292106D01*
X302598Y292096D01*
X302608Y291913D01*
X302615Y291727D01*
X302618Y291717D01*
X302619Y291706D01*
X302665Y291528D01*
X302711Y291349D01*
X302715Y291340D01*
X302718Y291329D01*
X302800Y291164D01*
X302881Y290998D01*
X302887Y290990D01*
X302892Y290981D01*
X303006Y290836D01*
X303118Y290689D01*
X303126Y290683D01*
X303133Y290674D01*
X303274Y290556D01*
X303414Y290436D01*
X303424Y290430D01*
X303431Y290424D01*
X303594Y290336D01*
X303756Y290247D01*
X303765Y290244D01*
X303775Y290239D01*
X303953Y290186D01*
X304128Y290132D01*
X304138Y290131D01*
X304149Y290128D01*
X304195Y290126D01*
X304516Y290096D01*
X304604Y290106D01*
G37*
G36*
X842056Y669801D02*
X842056Y669801D01*
X842063Y669801D01*
X842176Y669827D01*
X842290Y669852D01*
X842296Y669855D01*
X842302Y669857D01*
X842401Y669919D01*
X842501Y669978D01*
X842505Y669983D01*
X842511Y669987D01*
X842585Y670077D01*
X842661Y670165D01*
X842663Y670171D01*
X842668Y670177D01*
X842709Y670284D01*
X842753Y670393D01*
X842754Y670401D01*
X842756Y670406D01*
X842756Y670426D01*
X842771Y670560D01*
X842771Y697230D01*
X842770Y697239D01*
X842770Y697243D01*
X842766Y697264D01*
X842753Y697345D01*
X842736Y697460D01*
X842733Y697466D01*
X842732Y697473D01*
X842678Y697575D01*
X842624Y697679D01*
X842620Y697684D01*
X842616Y697690D01*
X842532Y697770D01*
X842449Y697852D01*
X842443Y697855D01*
X842438Y697860D01*
X842332Y697909D01*
X842228Y697959D01*
X842221Y697960D01*
X842215Y697963D01*
X842100Y697976D01*
X841984Y697991D01*
X841976Y697990D01*
X841971Y697990D01*
X841952Y697986D01*
X841818Y697967D01*
X812608Y690347D01*
X812566Y690328D01*
X812520Y690318D01*
X812454Y690278D01*
X812383Y690247D01*
X812349Y690216D01*
X812309Y690192D01*
X812259Y690133D01*
X812202Y690081D01*
X812179Y690040D01*
X812149Y690005D01*
X812120Y689933D01*
X812083Y689865D01*
X812075Y689820D01*
X812057Y689777D01*
X812042Y689642D01*
X812039Y689623D01*
X812040Y689618D01*
X812039Y689610D01*
X812039Y678180D01*
X812046Y678134D01*
X812044Y678088D01*
X812066Y678014D01*
X812079Y677937D01*
X812100Y677896D01*
X812113Y677852D01*
X812157Y677788D01*
X812194Y677720D01*
X812227Y677688D01*
X812254Y677650D01*
X812316Y677604D01*
X812372Y677551D01*
X812414Y677531D01*
X812451Y677503D01*
X812577Y677455D01*
X812595Y677447D01*
X812600Y677446D01*
X812608Y677443D01*
X841818Y669823D01*
X841934Y669813D01*
X842049Y669800D01*
X842056Y669801D01*
G37*
G36*
X840777Y320550D02*
X840777Y320550D01*
X840779Y320550D01*
X840897Y320575D01*
X841016Y320600D01*
X841018Y320602D01*
X841020Y320602D01*
X841124Y320665D01*
X841228Y320725D01*
X841229Y320727D01*
X841231Y320728D01*
X841310Y320821D01*
X841389Y320911D01*
X841389Y320913D01*
X841391Y320915D01*
X841437Y321030D01*
X841482Y321139D01*
X841482Y321141D01*
X841483Y321143D01*
X841501Y321310D01*
X841501Y347980D01*
X841501Y347982D01*
X841501Y347984D01*
X841500Y347992D01*
X841500Y347993D01*
X841498Y348003D01*
X841481Y348104D01*
X841462Y348223D01*
X841460Y348225D01*
X841460Y348227D01*
X841403Y348333D01*
X841346Y348440D01*
X841345Y348442D01*
X841344Y348444D01*
X841256Y348526D01*
X841168Y348610D01*
X841166Y348610D01*
X841165Y348612D01*
X841055Y348662D01*
X840945Y348713D01*
X840943Y348713D01*
X840941Y348714D01*
X840818Y348727D01*
X840701Y348740D01*
X840698Y348740D01*
X840696Y348740D01*
X840531Y348712D01*
X813861Y341092D01*
X813827Y341076D01*
X813790Y341068D01*
X813716Y341024D01*
X813638Y340987D01*
X813611Y340961D01*
X813579Y340942D01*
X813523Y340876D01*
X813461Y340817D01*
X813444Y340783D01*
X813419Y340755D01*
X813387Y340675D01*
X813347Y340599D01*
X813341Y340562D01*
X813327Y340527D01*
X813309Y340360D01*
X813309Y328930D01*
X813315Y328893D01*
X813312Y328855D01*
X813335Y328772D01*
X813349Y328687D01*
X813366Y328654D01*
X813376Y328618D01*
X813423Y328546D01*
X813464Y328470D01*
X813491Y328444D01*
X813512Y328413D01*
X813580Y328360D01*
X813642Y328301D01*
X813676Y328285D01*
X813706Y328262D01*
X813861Y328198D01*
X840531Y320578D01*
X840533Y320578D01*
X840535Y320577D01*
X840654Y320564D01*
X840775Y320550D01*
X840777Y320550D01*
G37*
G36*
X837221Y184914D02*
X837221Y184914D01*
X837223Y184914D01*
X837341Y184939D01*
X837460Y184964D01*
X837462Y184966D01*
X837464Y184966D01*
X837568Y185029D01*
X837672Y185089D01*
X837673Y185091D01*
X837675Y185092D01*
X837754Y185185D01*
X837833Y185275D01*
X837833Y185277D01*
X837835Y185279D01*
X837881Y185394D01*
X837926Y185503D01*
X837926Y185505D01*
X837927Y185507D01*
X837945Y185674D01*
X837945Y212344D01*
X837945Y212346D01*
X837945Y212348D01*
X837944Y212356D01*
X837944Y212357D01*
X837942Y212367D01*
X837925Y212468D01*
X837906Y212587D01*
X837904Y212589D01*
X837904Y212591D01*
X837847Y212697D01*
X837790Y212804D01*
X837789Y212806D01*
X837788Y212808D01*
X837700Y212890D01*
X837612Y212974D01*
X837610Y212974D01*
X837609Y212976D01*
X837499Y213026D01*
X837389Y213077D01*
X837387Y213077D01*
X837385Y213078D01*
X837262Y213091D01*
X837145Y213104D01*
X837142Y213104D01*
X837140Y213104D01*
X836975Y213076D01*
X810305Y205456D01*
X810271Y205440D01*
X810234Y205432D01*
X810160Y205388D01*
X810082Y205351D01*
X810055Y205325D01*
X810023Y205306D01*
X809967Y205240D01*
X809905Y205181D01*
X809888Y205147D01*
X809863Y205119D01*
X809831Y205039D01*
X809791Y204963D01*
X809785Y204926D01*
X809771Y204891D01*
X809753Y204724D01*
X809753Y193294D01*
X809759Y193257D01*
X809756Y193219D01*
X809779Y193136D01*
X809793Y193051D01*
X809810Y193018D01*
X809820Y192982D01*
X809867Y192910D01*
X809908Y192834D01*
X809935Y192808D01*
X809956Y192777D01*
X810024Y192724D01*
X810086Y192665D01*
X810120Y192649D01*
X810150Y192626D01*
X810305Y192562D01*
X836975Y184942D01*
X836977Y184942D01*
X836979Y184941D01*
X837098Y184928D01*
X837219Y184914D01*
X837221Y184914D01*
G37*
G36*
X836957Y787911D02*
X836957Y787911D01*
X836969Y787910D01*
X837077Y787933D01*
X837186Y787953D01*
X837197Y787959D01*
X837210Y787962D01*
X837305Y788019D01*
X837401Y788072D01*
X837410Y788082D01*
X837421Y788088D01*
X837493Y788172D01*
X837567Y788254D01*
X837573Y788265D01*
X837581Y788275D01*
X837622Y788378D01*
X837667Y788479D01*
X837668Y788491D01*
X837673Y788503D01*
X837691Y788670D01*
X837691Y815340D01*
X837690Y815349D01*
X837690Y815353D01*
X837690Y815356D01*
X837691Y815365D01*
X837669Y815474D01*
X837652Y815583D01*
X837646Y815594D01*
X837643Y815607D01*
X837588Y815703D01*
X837536Y815800D01*
X837527Y815809D01*
X837521Y815820D01*
X837438Y815893D01*
X837358Y815970D01*
X837346Y815975D01*
X837337Y815983D01*
X837235Y816027D01*
X837135Y816073D01*
X837122Y816075D01*
X837111Y816080D01*
X837000Y816088D01*
X836891Y816100D01*
X836878Y816098D01*
X836865Y816099D01*
X836701Y816066D01*
X812571Y808446D01*
X812547Y808434D01*
X812520Y808428D01*
X812437Y808379D01*
X812351Y808335D01*
X812332Y808316D01*
X812309Y808302D01*
X812246Y808229D01*
X812179Y808160D01*
X812167Y808135D01*
X812149Y808115D01*
X812113Y808025D01*
X812071Y807939D01*
X812067Y807912D01*
X812057Y807887D01*
X812039Y807720D01*
X812039Y796290D01*
X812043Y796263D01*
X812041Y796236D01*
X812063Y796143D01*
X812079Y796047D01*
X812091Y796023D01*
X812097Y795997D01*
X812149Y795915D01*
X812194Y795830D01*
X812213Y795811D01*
X812227Y795788D01*
X812302Y795727D01*
X812372Y795661D01*
X812396Y795649D01*
X812417Y795632D01*
X812571Y795564D01*
X836701Y787944D01*
X836713Y787942D01*
X836725Y787937D01*
X836835Y787925D01*
X836944Y787909D01*
X836957Y787911D01*
G37*
D10*
X18442Y500500D03*
D11*
X30291Y457955D03*
X30291Y543045D03*
D10*
X981458Y801800D03*
D11*
X969609Y844345D03*
X969609Y759255D03*
D10*
X981358Y684600D03*
D11*
X969509Y727145D03*
X969509Y642055D03*
D10*
X981158Y199700D03*
D11*
X969309Y242245D03*
X969309Y157155D03*
D10*
X981258Y334900D03*
D11*
X969409Y377445D03*
X969409Y292355D03*
D12*
X338246Y477158D03*
X338500Y514496D03*
X814546Y718858D03*
X814800Y756196D03*
X815046Y242358D03*
X815300Y279696D03*
D13*
X87000Y508000D02*
X26511Y507559D01*
X87000Y508000D02*
X88106Y508007D01*
X89211Y508041D01*
X90315Y508102D01*
X91417Y508189D01*
X92516Y508303D01*
X93613Y508444D01*
X94706Y508611D01*
X95795Y508804D01*
X96878Y509024D01*
X97956Y509269D01*
X99028Y509541D01*
X100093Y509838D01*
X101150Y510162D01*
X102199Y510510D01*
X103240Y510884D01*
X104271Y511283D01*
X105292Y511707D01*
X106303Y512155D01*
X107302Y512627D01*
X108290Y513124D01*
X109265Y513644D01*
X110228Y514188D01*
X111177Y514755D01*
X112113Y515344D01*
X113033Y515956D01*
X113939Y516590D01*
X114829Y517246D01*
X115703Y517923D01*
X116561Y518621D01*
X117401Y519340D01*
X118224Y520078D01*
X119028Y520836D01*
X119814Y521614D01*
X120581Y522410D01*
X121329Y523225D01*
X122056Y524057D01*
X122764Y524907D01*
X123450Y525773D01*
X124116Y526656D01*
X124760Y527555D01*
X125382Y528469D01*
X125982Y529398D01*
X126559Y530341D01*
X127113Y531298D01*
X127644Y532267D01*
X128151Y533250D01*
X128634Y534244D01*
X129094Y535250D01*
X129529Y536266D01*
X129939Y537293D01*
X130324Y538329D01*
X130684Y539375D01*
X131019Y540428D01*
X131328Y541490D01*
X131611Y542558D01*
X131869Y543634D01*
X132100Y544715D01*
X132305Y545801D01*
X132484Y546892D01*
X132637Y547987D01*
X132763Y549086D01*
X132862Y550187D01*
X132935Y551290D01*
X132981Y552395D01*
X133000Y553500D01*
D14*
X814800Y756196D02*
X814800Y797200D01*
X814546Y718858D02*
X814800Y681700D01*
X814802Y681674D01*
X814807Y681648D01*
X814815Y681623D01*
X814827Y681600D01*
X814841Y681578D01*
X814859Y681559D01*
X814878Y681541D01*
X814900Y681527D01*
X814923Y681515D01*
X814948Y681507D01*
X814974Y681502D01*
X815000Y681500D01*
D13*
X62500Y601000D02*
X61436Y600976D01*
X60372Y600978D01*
X59309Y601006D01*
X58246Y601060D01*
X57185Y601140D01*
X56127Y601245D01*
X55071Y601375D01*
X54018Y601531D01*
X52970Y601712D01*
X51926Y601919D01*
X50888Y602151D01*
X49856Y602408D01*
X48830Y602690D01*
X47811Y602996D01*
X46800Y603327D01*
X45797Y603682D01*
X44803Y604062D01*
X43818Y604465D01*
X42844Y604892D01*
X41880Y605342D01*
X40927Y605816D01*
X39987Y606313D01*
X39058Y606832D01*
X38142Y607373D01*
X37239Y607936D01*
X36351Y608521D01*
X35476Y609127D01*
X34617Y609755D01*
X33773Y610402D01*
X32945Y611071D01*
X32133Y611758D01*
X31339Y612466D01*
X30561Y613192D01*
X29801Y613937D01*
X29060Y614700D01*
X28337Y615480D01*
X27633Y616278D01*
X26949Y617093D01*
X26285Y617924D01*
X25640Y618770D01*
X25017Y619632D01*
X24415Y620509D01*
X23833Y621401D01*
X23274Y622306D01*
X22737Y623224D01*
X22222Y624155D01*
X21729Y625098D01*
X21260Y626053D01*
X20814Y627018D01*
X20391Y627995D01*
X19992Y628981D01*
X19617Y629977D01*
X19266Y630981D01*
X18939Y631993D01*
X18637Y633014D01*
X18360Y634041D01*
X18107Y635074D01*
X17880Y636114D01*
X17678Y637158D01*
X17501Y638207D01*
X17350Y639260D01*
X17224Y640317D01*
X17123Y641376D01*
X17049Y642437D01*
X17000Y643500D01*
X92500Y601000D02*
X93562Y600903D01*
X94622Y600780D01*
X95678Y600631D01*
X96730Y600457D01*
X97778Y600257D01*
X98821Y600033D01*
X99858Y599783D01*
X100888Y599508D01*
X101912Y599208D01*
X102928Y598884D01*
X103936Y598535D01*
X104935Y598162D01*
X105925Y597765D01*
X106906Y597344D01*
X107875Y596900D01*
X108834Y596432D01*
X109781Y595941D01*
X110716Y595428D01*
X111638Y594892D01*
X112547Y594334D01*
X113442Y593754D01*
X114323Y593152D01*
X115189Y592530D01*
X116040Y591887D01*
X116875Y591223D01*
X117694Y590540D01*
X118496Y589836D01*
X119281Y589114D01*
X120048Y588373D01*
X120797Y587614D01*
X121528Y586836D01*
X122239Y586042D01*
X122931Y585230D01*
X123603Y584402D01*
X124255Y583558D01*
X124887Y582698D01*
X125497Y581823D01*
X126086Y580934D01*
X126654Y580031D01*
X127200Y579114D01*
X127723Y578185D01*
X128223Y577243D01*
X128701Y576289D01*
X129156Y575324D01*
X129587Y574349D01*
X129994Y573363D01*
X130377Y572368D01*
X130737Y571363D01*
X131072Y570351D01*
X131382Y569330D01*
X131667Y568302D01*
X131928Y567268D01*
X132164Y566228D01*
X132374Y565182D01*
X132559Y564132D01*
X132719Y563077D01*
X132853Y562019D01*
X132961Y560958D01*
X133044Y559894D01*
X133101Y558829D01*
X133132Y557763D01*
X133138Y556696D01*
X133118Y555630D01*
X133072Y554564D01*
X133000Y553500D01*
X108500Y919500D02*
X108493Y920606D01*
X108459Y921711D01*
X108398Y922815D01*
X108311Y923917D01*
X108197Y925016D01*
X108056Y926113D01*
X107889Y927206D01*
X107696Y928295D01*
X107476Y929378D01*
X107231Y930456D01*
X106959Y931528D01*
X106662Y932593D01*
X106338Y933650D01*
X105990Y934699D01*
X105616Y935740D01*
X105217Y936771D01*
X104793Y937792D01*
X104345Y938803D01*
X103873Y939802D01*
X103376Y940790D01*
X102856Y941765D01*
X102312Y942728D01*
X101745Y943677D01*
X101156Y944613D01*
X100544Y945533D01*
X99910Y946439D01*
X99254Y947329D01*
X98577Y948203D01*
X97879Y949061D01*
X97160Y949901D01*
X96422Y950724D01*
X95664Y951528D01*
X94886Y952314D01*
X94090Y953081D01*
X93275Y953829D01*
X92443Y954556D01*
X91593Y955264D01*
X90727Y955950D01*
X89844Y956616D01*
X88945Y957260D01*
X88031Y957882D01*
X87102Y958482D01*
X86159Y959059D01*
X85202Y959613D01*
X84233Y960144D01*
X83250Y960651D01*
X82256Y961134D01*
X81250Y961594D01*
X80234Y962029D01*
X79207Y962439D01*
X78171Y962824D01*
X77125Y963184D01*
X76072Y963519D01*
X75010Y963828D01*
X73942Y964111D01*
X72866Y964369D01*
X71785Y964600D01*
X70699Y964805D01*
X69608Y964984D01*
X68513Y965137D01*
X67414Y965263D01*
X66313Y965362D01*
X65210Y965435D01*
X64105Y965481D01*
X63000Y965500D01*
X108500Y919500D02*
X108500Y694000D01*
X17000Y920000D02*
X17019Y921105D01*
X17065Y922210D01*
X17138Y923313D01*
X17237Y924414D01*
X17363Y925513D01*
X17516Y926608D01*
X17695Y927699D01*
X17900Y928785D01*
X18131Y929866D01*
X18389Y930942D01*
X18672Y932010D01*
X18981Y933072D01*
X19316Y934125D01*
X19676Y935171D01*
X20061Y936207D01*
X20471Y937234D01*
X20906Y938250D01*
X21366Y939256D01*
X21849Y940250D01*
X22356Y941233D01*
X22887Y942202D01*
X23441Y943159D01*
X24018Y944102D01*
X24618Y945031D01*
X25240Y945945D01*
X25884Y946844D01*
X26550Y947727D01*
X27236Y948593D01*
X27944Y949443D01*
X28671Y950275D01*
X29419Y951090D01*
X30186Y951886D01*
X30972Y952664D01*
X31776Y953422D01*
X32599Y954160D01*
X33439Y954879D01*
X34297Y955577D01*
X35171Y956254D01*
X36061Y956910D01*
X36967Y957544D01*
X37887Y958156D01*
X38823Y958745D01*
X39772Y959312D01*
X40735Y959856D01*
X41710Y960376D01*
X42698Y960873D01*
X43697Y961345D01*
X44708Y961793D01*
X45729Y962217D01*
X46760Y962616D01*
X47801Y962990D01*
X48850Y963338D01*
X49907Y963662D01*
X50972Y963959D01*
X52044Y964231D01*
X53122Y964476D01*
X54205Y964696D01*
X55294Y964889D01*
X56387Y965056D01*
X57484Y965197D01*
X58583Y965311D01*
X59685Y965398D01*
X60789Y965459D01*
X61894Y965493D01*
X63000Y965500D01*
X150500Y648500D02*
X151605Y648481D01*
X152710Y648435D01*
X153813Y648362D01*
X154914Y648263D01*
X156013Y648137D01*
X157108Y647984D01*
X158199Y647805D01*
X159285Y647600D01*
X160366Y647369D01*
X161442Y647111D01*
X162510Y646828D01*
X163572Y646519D01*
X164625Y646184D01*
X165671Y645824D01*
X166707Y645439D01*
X167734Y645029D01*
X168750Y644594D01*
X169756Y644134D01*
X170750Y643651D01*
X171733Y643144D01*
X172702Y642613D01*
X173659Y642059D01*
X174602Y641482D01*
X175531Y640882D01*
X176445Y640260D01*
X177344Y639616D01*
X178227Y638950D01*
X179093Y638264D01*
X179943Y637556D01*
X180775Y636829D01*
X181590Y636081D01*
X182386Y635314D01*
X183164Y634528D01*
X183922Y633724D01*
X184660Y632901D01*
X185379Y632061D01*
X186077Y631203D01*
X186754Y630329D01*
X187410Y629439D01*
X188044Y628533D01*
X188656Y627613D01*
X189245Y626677D01*
X189812Y625728D01*
X190356Y624765D01*
X190876Y623790D01*
X191373Y622802D01*
X191845Y621803D01*
X192293Y620792D01*
X192717Y619771D01*
X193116Y618740D01*
X193490Y617699D01*
X193838Y616650D01*
X194162Y615593D01*
X194459Y614528D01*
X194731Y613456D01*
X194976Y612378D01*
X195196Y611295D01*
X195389Y610206D01*
X195556Y609113D01*
X195697Y608016D01*
X195811Y606917D01*
X195898Y605815D01*
X195959Y604711D01*
X195993Y603606D01*
X196000Y602500D01*
X196000Y573000D02*
X196014Y571864D01*
X196055Y570729D01*
X196123Y569596D01*
X196219Y568464D01*
X196343Y567335D01*
X196493Y566209D01*
X196671Y565087D01*
X196876Y563970D01*
X197107Y562858D01*
X197366Y561752D01*
X197651Y560653D01*
X197962Y559561D01*
X198300Y558476D01*
X198664Y557400D01*
X199054Y556334D01*
X199470Y555277D01*
X199911Y554230D01*
X200377Y553194D01*
X200868Y552170D01*
X201384Y551158D01*
X201924Y550159D01*
X202487Y549173D01*
X203075Y548201D01*
X203686Y547243D01*
X204320Y546301D01*
X204976Y545374D01*
X205655Y544463D01*
X206355Y543569D01*
X207077Y542692D01*
X207820Y541833D01*
X208583Y540992D01*
X209367Y540170D01*
X210170Y539367D01*
X210992Y538583D01*
X211833Y537820D01*
X212692Y537077D01*
X213569Y536355D01*
X214463Y535655D01*
X215374Y534976D01*
X216301Y534320D01*
X217243Y533686D01*
X218201Y533075D01*
X219173Y532487D01*
X220159Y531924D01*
X221158Y531384D01*
X222170Y530868D01*
X223194Y530377D01*
X224230Y529911D01*
X225277Y529470D01*
X226334Y529054D01*
X227400Y528664D01*
X228476Y528300D01*
X229561Y527962D01*
X230653Y527651D01*
X231752Y527366D01*
X232858Y527107D01*
X233970Y526876D01*
X235087Y526671D01*
X236209Y526493D01*
X237335Y526343D01*
X238464Y526219D01*
X239596Y526123D01*
X240729Y526055D01*
X241864Y526014D01*
X243000Y526000D01*
X244136Y526025D01*
X245270Y526079D01*
X246403Y526159D01*
X247534Y526267D01*
X248662Y526403D01*
X249786Y526565D01*
X250906Y526755D01*
X252021Y526971D01*
X253130Y527215D01*
X254233Y527485D01*
X255330Y527782D01*
X256419Y528105D01*
X257499Y528455D01*
X258571Y528830D01*
X259634Y529231D01*
X260687Y529658D01*
X261729Y530110D01*
X262759Y530587D01*
X263778Y531089D01*
X264785Y531616D01*
X265778Y532166D01*
X266758Y532741D01*
X267724Y533339D01*
X268675Y533960D01*
X269611Y534604D01*
X270531Y535270D01*
X271434Y535958D01*
X272321Y536668D01*
X273190Y537399D01*
X274041Y538151D01*
X274874Y538924D01*
X275688Y539716D01*
X276483Y540528D01*
X277257Y541358D01*
X278012Y542207D01*
X278746Y543074D01*
X279458Y543959D01*
X280149Y544860D01*
X280818Y545778D01*
X281465Y546712D01*
X282088Y547661D01*
X282689Y548625D01*
X283266Y549604D01*
X283820Y550596D01*
X284349Y551601D01*
X284854Y552618D01*
X285334Y553647D01*
X285789Y554688D01*
X286219Y555740D01*
X286623Y556801D01*
X287002Y557872D01*
X287354Y558952D01*
X287681Y560040D01*
X287981Y561135D01*
X288254Y562238D01*
X288501Y563346D01*
X288721Y564461D01*
X288914Y565580D01*
X289079Y566704D01*
X289218Y567831D01*
X289329Y568961D01*
X289413Y570094D01*
X289470Y571229D01*
X289499Y572364D01*
X289500Y573500D01*
X289000Y606000D02*
X288993Y607106D01*
X288959Y608211D01*
X288898Y609315D01*
X288811Y610417D01*
X288697Y611516D01*
X288556Y612613D01*
X288389Y613706D01*
X288196Y614795D01*
X287976Y615878D01*
X287731Y616956D01*
X287459Y618028D01*
X287162Y619093D01*
X286838Y620150D01*
X286490Y621199D01*
X286116Y622240D01*
X285717Y623271D01*
X285293Y624292D01*
X284845Y625303D01*
X284373Y626302D01*
X283876Y627290D01*
X283356Y628265D01*
X282812Y629228D01*
X282245Y630177D01*
X281656Y631113D01*
X281044Y632033D01*
X280410Y632939D01*
X279754Y633829D01*
X279077Y634703D01*
X278379Y635561D01*
X277660Y636401D01*
X276922Y637224D01*
X276164Y638028D01*
X275386Y638814D01*
X274590Y639581D01*
X273775Y640329D01*
X272943Y641056D01*
X272093Y641764D01*
X271227Y642450D01*
X270344Y643116D01*
X269445Y643760D01*
X268531Y644382D01*
X267602Y644982D01*
X266659Y645559D01*
X265702Y646113D01*
X264733Y646644D01*
X263750Y647151D01*
X262756Y647634D01*
X261750Y648094D01*
X260734Y648529D01*
X259707Y648939D01*
X258671Y649324D01*
X257625Y649684D01*
X256572Y650019D01*
X255510Y650328D01*
X254442Y650611D01*
X253366Y650869D01*
X252285Y651100D01*
X251199Y651305D01*
X250108Y651484D01*
X249013Y651637D01*
X247914Y651763D01*
X246813Y651862D01*
X245710Y651935D01*
X244605Y651981D01*
X243500Y652000D01*
X246500Y651500D02*
X245395Y651519D01*
X244290Y651565D01*
X243187Y651638D01*
X242086Y651737D01*
X240987Y651863D01*
X239892Y652016D01*
X238801Y652195D01*
X237715Y652400D01*
X236634Y652631D01*
X235558Y652889D01*
X234490Y653172D01*
X233428Y653481D01*
X232375Y653816D01*
X231329Y654176D01*
X230293Y654561D01*
X229266Y654971D01*
X228250Y655406D01*
X227244Y655866D01*
X226250Y656349D01*
X225267Y656856D01*
X224298Y657387D01*
X223341Y657941D01*
X222398Y658518D01*
X221469Y659118D01*
X220555Y659740D01*
X219656Y660384D01*
X218773Y661050D01*
X217907Y661736D01*
X217057Y662444D01*
X216225Y663171D01*
X215410Y663919D01*
X214614Y664686D01*
X213836Y665472D01*
X213078Y666276D01*
X212340Y667099D01*
X211621Y667939D01*
X210923Y668797D01*
X210246Y669671D01*
X209590Y670561D01*
X208956Y671467D01*
X208344Y672387D01*
X207755Y673323D01*
X207188Y674272D01*
X206644Y675235D01*
X206124Y676210D01*
X205627Y677198D01*
X205155Y678197D01*
X204707Y679208D01*
X204283Y680229D01*
X203884Y681260D01*
X203510Y682301D01*
X203162Y683350D01*
X202838Y684407D01*
X202541Y685472D01*
X202269Y686544D01*
X202024Y687622D01*
X201804Y688705D01*
X201611Y689794D01*
X201444Y690887D01*
X201303Y691984D01*
X201189Y693083D01*
X201102Y694185D01*
X201041Y695289D01*
X201007Y696394D01*
X201000Y697500D01*
X201000Y916500D02*
X201019Y917605D01*
X201065Y918710D01*
X201138Y919813D01*
X201237Y920914D01*
X201363Y922013D01*
X201516Y923108D01*
X201695Y924199D01*
X201900Y925285D01*
X202131Y926366D01*
X202389Y927442D01*
X202672Y928510D01*
X202981Y929572D01*
X203316Y930625D01*
X203676Y931671D01*
X204061Y932707D01*
X204471Y933734D01*
X204906Y934750D01*
X205366Y935756D01*
X205849Y936750D01*
X206356Y937733D01*
X206887Y938702D01*
X207441Y939659D01*
X208018Y940602D01*
X208618Y941531D01*
X209240Y942445D01*
X209884Y943344D01*
X210550Y944227D01*
X211236Y945093D01*
X211944Y945943D01*
X212671Y946775D01*
X213419Y947590D01*
X214186Y948386D01*
X214972Y949164D01*
X215776Y949922D01*
X216599Y950660D01*
X217439Y951379D01*
X218297Y952077D01*
X219171Y952754D01*
X220061Y953410D01*
X220967Y954044D01*
X221887Y954656D01*
X222823Y955245D01*
X223772Y955812D01*
X224735Y956356D01*
X225710Y956876D01*
X226698Y957373D01*
X227697Y957845D01*
X228708Y958293D01*
X229729Y958717D01*
X230760Y959116D01*
X231801Y959490D01*
X232850Y959838D01*
X233907Y960162D01*
X234972Y960459D01*
X236044Y960731D01*
X237122Y960976D01*
X238205Y961196D01*
X239294Y961389D01*
X240387Y961556D01*
X241484Y961697D01*
X242583Y961811D01*
X243685Y961898D01*
X244789Y961959D01*
X245894Y961993D01*
X247000Y962000D01*
X248105Y961981D01*
X249210Y961935D01*
X250313Y961862D01*
X251414Y961763D01*
X252513Y961637D01*
X253608Y961484D01*
X254699Y961305D01*
X255785Y961100D01*
X256866Y960869D01*
X257942Y960611D01*
X259010Y960328D01*
X260072Y960019D01*
X261125Y959684D01*
X262171Y959324D01*
X263207Y958939D01*
X264234Y958529D01*
X265250Y958094D01*
X266256Y957634D01*
X267250Y957151D01*
X268233Y956644D01*
X269202Y956113D01*
X270159Y955559D01*
X271102Y954982D01*
X272031Y954382D01*
X272945Y953760D01*
X273844Y953116D01*
X274727Y952450D01*
X275593Y951764D01*
X276443Y951056D01*
X277275Y950329D01*
X278090Y949581D01*
X278886Y948814D01*
X279664Y948028D01*
X280422Y947224D01*
X281160Y946401D01*
X281879Y945561D01*
X282577Y944703D01*
X283254Y943829D01*
X283910Y942939D01*
X284544Y942033D01*
X285156Y941113D01*
X285745Y940177D01*
X286312Y939228D01*
X286856Y938265D01*
X287376Y937290D01*
X287873Y936302D01*
X288345Y935303D01*
X288793Y934292D01*
X289217Y933271D01*
X289616Y932240D01*
X289990Y931199D01*
X290338Y930150D01*
X290662Y929093D01*
X290959Y928028D01*
X291231Y926956D01*
X291476Y925878D01*
X291696Y924795D01*
X291889Y923706D01*
X292056Y922613D01*
X292197Y921516D01*
X292311Y920417D01*
X292398Y919315D01*
X292459Y918211D01*
X292493Y917106D01*
X292500Y916000D01*
X292500Y739500D01*
X338000Y700500D02*
X339088Y700489D01*
X340175Y700504D01*
X341262Y700546D01*
X342348Y700614D01*
X343431Y700708D01*
X344512Y700828D01*
X345590Y700974D01*
X346664Y701146D01*
X347734Y701344D01*
X348798Y701568D01*
X349857Y701818D01*
X350909Y702093D01*
X351955Y702394D01*
X352993Y702719D01*
X354022Y703070D01*
X355043Y703445D01*
X356055Y703845D01*
X357056Y704269D01*
X358047Y704718D01*
X359027Y705190D01*
X359995Y705686D01*
X360951Y706205D01*
X361894Y706746D01*
X362824Y707311D01*
X363740Y707898D01*
X364641Y708507D01*
X365528Y709137D01*
X366399Y709789D01*
X367254Y710461D01*
X368092Y711154D01*
X368913Y711867D01*
X369717Y712600D01*
X370503Y713351D01*
X371271Y714122D01*
X372020Y714911D01*
X372749Y715718D01*
X373459Y716542D01*
X374149Y717383D01*
X374818Y718241D01*
X375466Y719114D01*
X376093Y720003D01*
X376698Y720907D01*
X377282Y721825D01*
X377842Y722757D01*
X378381Y723702D01*
X378896Y724660D01*
X379388Y725630D01*
X379856Y726612D01*
X380301Y727605D01*
X380721Y728608D01*
X381117Y729621D01*
X381488Y730643D01*
X381835Y731674D01*
X382157Y732713D01*
X382453Y733760D01*
X382724Y734813D01*
X382969Y735873D01*
X383189Y736938D01*
X383383Y738009D01*
X383551Y739083D01*
X383693Y740162D01*
X383809Y741243D01*
X383899Y742327D01*
X383963Y743413D01*
X384000Y744500D01*
X337000Y686000D02*
X338105Y685981D01*
X339210Y685935D01*
X340313Y685862D01*
X341414Y685763D01*
X342513Y685637D01*
X343608Y685484D01*
X344699Y685305D01*
X345785Y685100D01*
X346866Y684869D01*
X347942Y684611D01*
X349010Y684328D01*
X350072Y684019D01*
X351125Y683684D01*
X352171Y683324D01*
X353207Y682939D01*
X354234Y682529D01*
X355250Y682094D01*
X356256Y681634D01*
X357250Y681151D01*
X358233Y680644D01*
X359202Y680113D01*
X360159Y679559D01*
X361102Y678982D01*
X362031Y678382D01*
X362945Y677760D01*
X363844Y677116D01*
X364727Y676450D01*
X365593Y675764D01*
X366443Y675056D01*
X367275Y674329D01*
X368090Y673581D01*
X368886Y672814D01*
X369664Y672028D01*
X370422Y671224D01*
X371160Y670401D01*
X371879Y669561D01*
X372577Y668703D01*
X373254Y667829D01*
X373910Y666939D01*
X374544Y666033D01*
X375156Y665113D01*
X375745Y664177D01*
X376312Y663228D01*
X376856Y662265D01*
X377376Y661290D01*
X377873Y660302D01*
X378345Y659303D01*
X378793Y658292D01*
X379217Y657271D01*
X379616Y656240D01*
X379990Y655199D01*
X380338Y654150D01*
X380662Y653093D01*
X380959Y652028D01*
X381231Y650956D01*
X381476Y649878D01*
X381696Y648795D01*
X381889Y647706D01*
X382056Y646613D01*
X382197Y645516D01*
X382311Y644417D01*
X382398Y643315D01*
X382459Y642211D01*
X382493Y641106D01*
X382500Y640000D01*
X382500Y554000D01*
X384000Y942000D02*
X384007Y943106D01*
X384041Y944211D01*
X384102Y945315D01*
X384189Y946417D01*
X384303Y947516D01*
X384444Y948613D01*
X384611Y949706D01*
X384804Y950795D01*
X385024Y951878D01*
X385269Y952956D01*
X385541Y954028D01*
X385838Y955093D01*
X386162Y956150D01*
X386510Y957199D01*
X386884Y958240D01*
X387283Y959271D01*
X387707Y960292D01*
X388155Y961303D01*
X388627Y962302D01*
X389124Y963290D01*
X389644Y964265D01*
X390188Y965228D01*
X390755Y966177D01*
X391344Y967113D01*
X391956Y968033D01*
X392590Y968939D01*
X393246Y969829D01*
X393923Y970703D01*
X394621Y971561D01*
X395340Y972401D01*
X396078Y973224D01*
X396836Y974028D01*
X397614Y974814D01*
X398410Y975581D01*
X399225Y976329D01*
X400057Y977056D01*
X400907Y977764D01*
X401773Y978450D01*
X402656Y979116D01*
X403555Y979760D01*
X404469Y980382D01*
X405398Y980982D01*
X406341Y981559D01*
X407298Y982113D01*
X408267Y982644D01*
X409250Y983151D01*
X410244Y983634D01*
X411250Y984094D01*
X412266Y984529D01*
X413293Y984939D01*
X414329Y985324D01*
X415375Y985684D01*
X416428Y986019D01*
X417490Y986328D01*
X418558Y986611D01*
X419634Y986869D01*
X420715Y987100D01*
X421801Y987305D01*
X422892Y987484D01*
X423987Y987637D01*
X425086Y987763D01*
X426187Y987862D01*
X427290Y987935D01*
X428395Y987981D01*
X429500Y988000D01*
X384000Y942000D02*
X384000Y742500D01*
X429500Y988000D02*
X916500Y988000D01*
X917605Y987981D01*
X918710Y987935D01*
X919813Y987862D01*
X920914Y987763D01*
X922013Y987637D01*
X923108Y987484D01*
X924199Y987305D01*
X925285Y987100D01*
X926366Y986869D01*
X927442Y986611D01*
X928510Y986328D01*
X929572Y986019D01*
X930625Y985684D01*
X931671Y985324D01*
X932707Y984939D01*
X933734Y984529D01*
X934750Y984094D01*
X935756Y983634D01*
X936750Y983151D01*
X937733Y982644D01*
X938702Y982113D01*
X939659Y981559D01*
X940602Y980982D01*
X941531Y980382D01*
X942445Y979760D01*
X943344Y979116D01*
X944227Y978450D01*
X945093Y977764D01*
X945943Y977056D01*
X946775Y976329D01*
X947590Y975581D01*
X948386Y974814D01*
X949164Y974028D01*
X949922Y973224D01*
X950660Y972401D01*
X951379Y971561D01*
X952077Y970703D01*
X952754Y969829D01*
X953410Y968939D01*
X954044Y968033D01*
X954656Y967113D01*
X955245Y966177D01*
X955812Y965228D01*
X956356Y964265D01*
X956876Y963290D01*
X957373Y962302D01*
X957845Y961303D01*
X958293Y960292D01*
X958717Y959271D01*
X959116Y958240D01*
X959490Y957199D01*
X959838Y956150D01*
X960162Y955093D01*
X960459Y954028D01*
X960731Y952956D01*
X960976Y951878D01*
X961196Y950795D01*
X961389Y949706D01*
X961556Y948613D01*
X961697Y947516D01*
X961811Y946417D01*
X961898Y945315D01*
X961959Y944211D01*
X961993Y943106D01*
X962000Y942000D01*
X961986Y940864D01*
X961945Y939729D01*
X961877Y938596D01*
X961781Y937464D01*
X961657Y936335D01*
X961507Y935209D01*
X961329Y934087D01*
X961124Y932970D01*
X960893Y931858D01*
X960634Y930752D01*
X960349Y929653D01*
X960038Y928561D01*
X959700Y927476D01*
X959336Y926400D01*
X958946Y925334D01*
X958530Y924277D01*
X958089Y923230D01*
X957623Y922194D01*
X957132Y921170D01*
X956616Y920158D01*
X956076Y919159D01*
X955513Y918173D01*
X954925Y917201D01*
X954314Y916243D01*
X953680Y915301D01*
X953024Y914374D01*
X952345Y913463D01*
X951645Y912569D01*
X950923Y911692D01*
X950180Y910833D01*
X949417Y909992D01*
X948633Y909170D01*
X947830Y908367D01*
X947008Y907583D01*
X946167Y906820D01*
X945308Y906077D01*
X944431Y905355D01*
X943537Y904655D01*
X942626Y903976D01*
X941699Y903320D01*
X940757Y902686D01*
X939799Y902075D01*
X938827Y901487D01*
X937841Y900924D01*
X936842Y900384D01*
X935830Y899868D01*
X934806Y899377D01*
X933770Y898911D01*
X932723Y898470D01*
X931666Y898054D01*
X930600Y897664D01*
X929524Y897300D01*
X928439Y896962D01*
X927347Y896651D01*
X926248Y896366D01*
X925142Y896107D01*
X924030Y895876D01*
X922913Y895671D01*
X921791Y895493D01*
X920665Y895343D01*
X919536Y895219D01*
X918404Y895123D01*
X917271Y895055D01*
X916136Y895014D01*
X915000Y895000D01*
X461500Y895000D01*
X462500Y895000D02*
X461364Y894986D01*
X460229Y894945D01*
X459096Y894877D01*
X457964Y894781D01*
X456835Y894657D01*
X455709Y894507D01*
X454587Y894329D01*
X453470Y894124D01*
X452358Y893893D01*
X451252Y893634D01*
X450153Y893349D01*
X449061Y893038D01*
X447976Y892700D01*
X446900Y892336D01*
X445834Y891946D01*
X444777Y891530D01*
X443730Y891089D01*
X442694Y890623D01*
X441670Y890132D01*
X440658Y889616D01*
X439659Y889076D01*
X438673Y888513D01*
X437701Y887925D01*
X436743Y887314D01*
X435801Y886680D01*
X434874Y886024D01*
X433963Y885345D01*
X433069Y884645D01*
X432192Y883923D01*
X431333Y883180D01*
X430492Y882417D01*
X429670Y881633D01*
X428867Y880830D01*
X428083Y880008D01*
X427320Y879167D01*
X426577Y878308D01*
X425855Y877431D01*
X425155Y876537D01*
X424476Y875626D01*
X423820Y874699D01*
X423186Y873757D01*
X422575Y872799D01*
X421987Y871827D01*
X421424Y870841D01*
X420884Y869842D01*
X420368Y868830D01*
X419877Y867806D01*
X419411Y866770D01*
X418970Y865723D01*
X418554Y864666D01*
X418164Y863600D01*
X417800Y862524D01*
X417462Y861439D01*
X417151Y860347D01*
X416866Y859248D01*
X416607Y858142D01*
X416376Y857030D01*
X416171Y855913D01*
X415993Y854791D01*
X415843Y853665D01*
X415719Y852536D01*
X415623Y851404D01*
X415555Y850271D01*
X415514Y849136D01*
X415500Y848000D01*
X415570Y846817D01*
X415669Y845635D01*
X415797Y844457D01*
X415953Y843282D01*
X416139Y842111D01*
X416353Y840945D01*
X416595Y839784D01*
X416866Y838630D01*
X417166Y837483D01*
X417493Y836344D01*
X417848Y835213D01*
X418231Y834091D01*
X418641Y832979D01*
X419079Y831877D01*
X419543Y830786D01*
X420034Y829707D01*
X420552Y828640D01*
X421095Y827587D01*
X421664Y826547D01*
X422258Y825521D01*
X422878Y824510D01*
X423522Y823515D01*
X424190Y822536D01*
X424882Y821573D01*
X425597Y820628D01*
X426336Y819701D01*
X427097Y818792D01*
X427880Y817902D01*
X428685Y817031D01*
X429510Y816180D01*
X430357Y815350D01*
X431223Y814541D01*
X432110Y813754D01*
X433015Y812988D01*
X433938Y812245D01*
X434880Y811525D01*
X435839Y810828D01*
X436815Y810155D01*
X437807Y809506D01*
X438815Y808882D01*
X439837Y808282D01*
X440875Y807708D01*
X441926Y807160D01*
X442990Y806637D01*
X444066Y806141D01*
X445155Y805671D01*
X446254Y805228D01*
X447364Y804812D01*
X448484Y804424D01*
X449614Y804063D01*
X450751Y803730D01*
X451897Y803425D01*
X453050Y803148D01*
X454209Y802900D01*
X455374Y802680D01*
X456544Y802489D01*
X457718Y802326D01*
X458896Y802193D01*
X460077Y802088D01*
X461260Y802012D01*
X462444Y801966D01*
X463630Y801948D01*
X464815Y801960D01*
X466000Y802000D01*
X842000Y802000D01*
X429500Y523500D02*
X428364Y523514D01*
X427229Y523555D01*
X426096Y523623D01*
X424964Y523719D01*
X423835Y523843D01*
X422709Y523993D01*
X421587Y524171D01*
X420470Y524376D01*
X419358Y524607D01*
X418252Y524866D01*
X417153Y525151D01*
X416061Y525462D01*
X414976Y525800D01*
X413900Y526164D01*
X412834Y526554D01*
X411777Y526970D01*
X410730Y527411D01*
X409694Y527877D01*
X408670Y528368D01*
X407658Y528884D01*
X406659Y529424D01*
X405673Y529987D01*
X404701Y530575D01*
X403743Y531186D01*
X402801Y531820D01*
X401874Y532476D01*
X400963Y533155D01*
X400069Y533855D01*
X399192Y534577D01*
X398333Y535320D01*
X397492Y536083D01*
X396670Y536867D01*
X395867Y537670D01*
X395083Y538492D01*
X394320Y539333D01*
X393577Y540192D01*
X392855Y541069D01*
X392155Y541963D01*
X391476Y542874D01*
X390820Y543801D01*
X390186Y544743D01*
X389575Y545701D01*
X388987Y546673D01*
X388424Y547659D01*
X387884Y548658D01*
X387368Y549670D01*
X386877Y550694D01*
X386411Y551730D01*
X385970Y552777D01*
X385554Y553834D01*
X385164Y554900D01*
X384800Y555976D01*
X384462Y557061D01*
X384151Y558153D01*
X383866Y559252D01*
X383607Y560358D01*
X383376Y561470D01*
X383171Y562587D01*
X382993Y563709D01*
X382843Y564835D01*
X382719Y565964D01*
X382623Y567096D01*
X382555Y568229D01*
X382514Y569364D01*
X382500Y570500D01*
X431000Y523500D02*
X918500Y522500D01*
X919605Y522519D01*
X920710Y522565D01*
X921813Y522638D01*
X922914Y522737D01*
X924013Y522863D01*
X925108Y523016D01*
X926199Y523195D01*
X927285Y523400D01*
X928366Y523631D01*
X929442Y523889D01*
X930510Y524172D01*
X931572Y524481D01*
X932625Y524816D01*
X933671Y525176D01*
X934707Y525561D01*
X935734Y525971D01*
X936750Y526406D01*
X937756Y526866D01*
X938750Y527349D01*
X939733Y527856D01*
X940702Y528387D01*
X941659Y528941D01*
X942602Y529518D01*
X943531Y530118D01*
X944445Y530740D01*
X945344Y531384D01*
X946227Y532050D01*
X947093Y532736D01*
X947943Y533444D01*
X948775Y534171D01*
X949590Y534919D01*
X950386Y535686D01*
X951164Y536472D01*
X951922Y537276D01*
X952660Y538099D01*
X953379Y538939D01*
X954077Y539797D01*
X954754Y540671D01*
X955410Y541561D01*
X956044Y542467D01*
X956656Y543387D01*
X957245Y544323D01*
X957812Y545272D01*
X958356Y546235D01*
X958876Y547210D01*
X959373Y548198D01*
X959845Y549197D01*
X960293Y550208D01*
X960717Y551229D01*
X961116Y552260D01*
X961490Y553301D01*
X961838Y554350D01*
X962162Y555407D01*
X962459Y556472D01*
X962731Y557544D01*
X962976Y558622D01*
X963196Y559705D01*
X963389Y560794D01*
X963556Y561887D01*
X963697Y562984D01*
X963811Y564083D01*
X963898Y565185D01*
X963959Y566289D01*
X963993Y567394D01*
X964000Y568500D01*
X963986Y569636D01*
X963945Y570771D01*
X963877Y571904D01*
X963781Y573036D01*
X963657Y574165D01*
X963507Y575291D01*
X963329Y576413D01*
X963124Y577530D01*
X962893Y578642D01*
X962634Y579748D01*
X962349Y580847D01*
X962038Y581939D01*
X961700Y583024D01*
X961336Y584100D01*
X960946Y585166D01*
X960530Y586223D01*
X960089Y587270D01*
X959623Y588306D01*
X959132Y589330D01*
X958616Y590342D01*
X958076Y591341D01*
X957513Y592327D01*
X956925Y593299D01*
X956314Y594257D01*
X955680Y595199D01*
X955024Y596126D01*
X954345Y597037D01*
X953645Y597931D01*
X952923Y598808D01*
X952180Y599667D01*
X951417Y600508D01*
X950633Y601330D01*
X949830Y602133D01*
X949008Y602917D01*
X948167Y603680D01*
X947308Y604423D01*
X946431Y605145D01*
X945537Y605845D01*
X944626Y606524D01*
X943699Y607180D01*
X942757Y607814D01*
X941799Y608425D01*
X940827Y609013D01*
X939841Y609576D01*
X938842Y610116D01*
X937830Y610632D01*
X936806Y611123D01*
X935770Y611589D01*
X934723Y612030D01*
X933666Y612446D01*
X932600Y612836D01*
X931524Y613200D01*
X930439Y613538D01*
X929347Y613849D01*
X928248Y614134D01*
X927142Y614393D01*
X926030Y614624D01*
X924913Y614829D01*
X923791Y615007D01*
X922665Y615157D01*
X921536Y615281D01*
X920404Y615377D01*
X919271Y615445D01*
X918136Y615486D01*
X917000Y615500D01*
X463000Y616500D01*
X467500Y616500D02*
X466364Y616514D01*
X465229Y616555D01*
X464096Y616623D01*
X462964Y616719D01*
X461835Y616843D01*
X460709Y616993D01*
X459587Y617171D01*
X458470Y617376D01*
X457358Y617607D01*
X456252Y617866D01*
X455153Y618151D01*
X454061Y618462D01*
X452976Y618800D01*
X451900Y619164D01*
X450834Y619554D01*
X449777Y619970D01*
X448730Y620411D01*
X447694Y620877D01*
X446670Y621368D01*
X445658Y621884D01*
X444659Y622424D01*
X443673Y622987D01*
X442701Y623575D01*
X441743Y624186D01*
X440801Y624820D01*
X439874Y625476D01*
X438963Y626155D01*
X438069Y626855D01*
X437192Y627577D01*
X436333Y628320D01*
X435492Y629083D01*
X434670Y629867D01*
X433867Y630670D01*
X433083Y631492D01*
X432320Y632333D01*
X431577Y633192D01*
X430855Y634069D01*
X430155Y634963D01*
X429476Y635874D01*
X428820Y636801D01*
X428186Y637743D01*
X427575Y638701D01*
X426987Y639673D01*
X426424Y640659D01*
X425884Y641658D01*
X425368Y642670D01*
X424877Y643694D01*
X424411Y644730D01*
X423970Y645777D01*
X423554Y646834D01*
X423164Y647900D01*
X422800Y648976D01*
X422462Y650061D01*
X422151Y651153D01*
X421866Y652252D01*
X421607Y653358D01*
X421376Y654470D01*
X421171Y655587D01*
X420993Y656709D01*
X420843Y657835D01*
X420719Y658964D01*
X420623Y660096D01*
X420555Y661229D01*
X420514Y662364D01*
X420500Y663500D01*
X420500Y731000D01*
X420519Y732105D01*
X420565Y733210D01*
X420638Y734313D01*
X420737Y735414D01*
X420863Y736513D01*
X421016Y737608D01*
X421195Y738699D01*
X421400Y739785D01*
X421631Y740866D01*
X421889Y741942D01*
X422172Y743010D01*
X422481Y744072D01*
X422816Y745125D01*
X423176Y746171D01*
X423561Y747207D01*
X423971Y748234D01*
X424406Y749250D01*
X424866Y750256D01*
X425349Y751250D01*
X425856Y752233D01*
X426387Y753202D01*
X426941Y754159D01*
X427518Y755102D01*
X428118Y756031D01*
X428740Y756945D01*
X429384Y757844D01*
X430050Y758727D01*
X430736Y759593D01*
X431444Y760443D01*
X432171Y761275D01*
X432919Y762090D01*
X433686Y762886D01*
X434472Y763664D01*
X435276Y764422D01*
X436099Y765160D01*
X436939Y765879D01*
X437797Y766577D01*
X438671Y767254D01*
X439561Y767910D01*
X440467Y768544D01*
X441387Y769156D01*
X442323Y769745D01*
X443272Y770312D01*
X444235Y770856D01*
X445210Y771376D01*
X446198Y771873D01*
X447197Y772345D01*
X448208Y772793D01*
X449229Y773217D01*
X450260Y773616D01*
X451301Y773990D01*
X452350Y774338D01*
X453407Y774662D01*
X454472Y774959D01*
X455544Y775231D01*
X456622Y775476D01*
X457705Y775696D01*
X458794Y775889D01*
X459887Y776056D01*
X460984Y776197D01*
X462083Y776311D01*
X463185Y776398D01*
X464289Y776459D01*
X465394Y776493D01*
X466500Y776500D01*
X467648Y776511D01*
X468796Y776493D01*
X469943Y776448D01*
X471089Y776375D01*
X472233Y776275D01*
X473374Y776147D01*
X474511Y775991D01*
X475645Y775808D01*
X476773Y775597D01*
X477897Y775360D01*
X479014Y775095D01*
X480124Y774803D01*
X481227Y774485D01*
X482322Y774140D01*
X483409Y773768D01*
X484486Y773371D01*
X485553Y772947D01*
X486610Y772498D01*
X487655Y772024D01*
X488689Y771524D01*
X489710Y771000D01*
X490719Y770451D01*
X491714Y769878D01*
X492694Y769281D01*
X493660Y768660D01*
X494611Y768016D01*
X495546Y767350D01*
X496464Y766661D01*
X497366Y765950D01*
X498250Y765218D01*
X499116Y764464D01*
X499964Y763690D01*
X500793Y762895D01*
X501602Y762081D01*
X502391Y761247D01*
X503161Y760395D01*
X503909Y759524D01*
X504636Y758635D01*
X505341Y757729D01*
X506024Y756806D01*
X506685Y755867D01*
X507322Y754913D01*
X507937Y753943D01*
X508528Y752958D01*
X509095Y751960D01*
X509638Y750948D01*
X510156Y749924D01*
X510649Y748887D01*
X511117Y747838D01*
X511559Y746779D01*
X511976Y745709D01*
X512367Y744630D01*
X512731Y743541D01*
X513069Y742444D01*
X513381Y741339D01*
X513666Y740226D01*
X513923Y739107D01*
X514154Y737983D01*
X514358Y736853D01*
X514534Y735718D01*
X514682Y734580D01*
X514803Y733438D01*
X514897Y732294D01*
X514962Y731148D01*
X515000Y730000D01*
X515007Y728894D01*
X515041Y727789D01*
X515102Y726685D01*
X515189Y725583D01*
X515303Y724484D01*
X515444Y723387D01*
X515611Y722294D01*
X515804Y721205D01*
X516024Y720122D01*
X516269Y719044D01*
X516541Y717972D01*
X516838Y716907D01*
X517162Y715850D01*
X517510Y714801D01*
X517884Y713760D01*
X518283Y712729D01*
X518707Y711708D01*
X519155Y710697D01*
X519627Y709698D01*
X520124Y708710D01*
X520644Y707735D01*
X521188Y706772D01*
X521755Y705823D01*
X522344Y704887D01*
X522956Y703967D01*
X523590Y703061D01*
X524246Y702171D01*
X524923Y701297D01*
X525621Y700439D01*
X526340Y699599D01*
X527078Y698776D01*
X527836Y697972D01*
X528614Y697186D01*
X529410Y696419D01*
X530225Y695671D01*
X531057Y694944D01*
X531907Y694236D01*
X532773Y693550D01*
X533656Y692884D01*
X534555Y692240D01*
X535469Y691618D01*
X536398Y691018D01*
X537341Y690441D01*
X538298Y689887D01*
X539267Y689356D01*
X540250Y688849D01*
X541244Y688366D01*
X542250Y687906D01*
X543266Y687471D01*
X544293Y687061D01*
X545329Y686676D01*
X546375Y686316D01*
X547428Y685981D01*
X548490Y685672D01*
X549558Y685389D01*
X550634Y685131D01*
X551715Y684900D01*
X552801Y684695D01*
X553892Y684516D01*
X554987Y684363D01*
X556086Y684237D01*
X557187Y684138D01*
X558290Y684065D01*
X559395Y684019D01*
X560500Y684000D01*
X846500Y684000D01*
D15*
X982000Y684000D01*
D13*
X154000Y648500D02*
X152895Y648519D01*
X151790Y648565D01*
X150687Y648638D01*
X149586Y648737D01*
X148487Y648863D01*
X147392Y649016D01*
X146301Y649195D01*
X145215Y649400D01*
X144134Y649631D01*
X143058Y649889D01*
X141990Y650172D01*
X140928Y650481D01*
X139875Y650816D01*
X138829Y651176D01*
X137793Y651561D01*
X136766Y651971D01*
X135750Y652406D01*
X134744Y652866D01*
X133750Y653349D01*
X132767Y653856D01*
X131798Y654387D01*
X130841Y654941D01*
X129898Y655518D01*
X128969Y656118D01*
X128055Y656740D01*
X127156Y657384D01*
X126273Y658050D01*
X125407Y658736D01*
X124557Y659444D01*
X123725Y660171D01*
X122910Y660919D01*
X122114Y661686D01*
X121336Y662472D01*
X120578Y663276D01*
X119840Y664099D01*
X119121Y664939D01*
X118423Y665797D01*
X117746Y666671D01*
X117090Y667561D01*
X116456Y668467D01*
X115844Y669387D01*
X115255Y670323D01*
X114688Y671272D01*
X114144Y672235D01*
X113624Y673210D01*
X113127Y674198D01*
X112655Y675197D01*
X112207Y676208D01*
X111783Y677229D01*
X111384Y678260D01*
X111010Y679301D01*
X110662Y680350D01*
X110338Y681407D01*
X110041Y682472D01*
X109769Y683544D01*
X109524Y684622D01*
X109304Y685705D01*
X109111Y686794D01*
X108944Y687887D01*
X108803Y688984D01*
X108689Y690083D01*
X108602Y691185D01*
X108541Y692289D01*
X108507Y693394D01*
X108500Y694500D01*
X292500Y739500D02*
X292507Y738394D01*
X292541Y737289D01*
X292602Y736185D01*
X292689Y735083D01*
X292803Y733984D01*
X292944Y732887D01*
X293111Y731794D01*
X293304Y730705D01*
X293524Y729622D01*
X293769Y728544D01*
X294041Y727472D01*
X294338Y726407D01*
X294662Y725350D01*
X295010Y724301D01*
X295384Y723260D01*
X295783Y722229D01*
X296207Y721208D01*
X296655Y720197D01*
X297127Y719198D01*
X297624Y718210D01*
X298144Y717235D01*
X298688Y716272D01*
X299255Y715323D01*
X299844Y714387D01*
X300456Y713467D01*
X301090Y712561D01*
X301746Y711671D01*
X302423Y710797D01*
X303121Y709939D01*
X303840Y709099D01*
X304578Y708276D01*
X305336Y707472D01*
X306114Y706686D01*
X306910Y705919D01*
X307725Y705171D01*
X308557Y704444D01*
X309407Y703736D01*
X310273Y703050D01*
X311156Y702384D01*
X312055Y701740D01*
X312969Y701118D01*
X313898Y700518D01*
X314841Y699941D01*
X315798Y699387D01*
X316767Y698856D01*
X317750Y698349D01*
X318744Y697866D01*
X319750Y697406D01*
X320766Y696971D01*
X321793Y696561D01*
X322829Y696176D01*
X323875Y695816D01*
X324928Y695481D01*
X325990Y695172D01*
X327058Y694889D01*
X328134Y694631D01*
X329215Y694400D01*
X330301Y694195D01*
X331392Y694016D01*
X332487Y693863D01*
X333586Y693737D01*
X334687Y693638D01*
X335790Y693565D01*
X336895Y693519D01*
X338000Y693500D01*
D15*
X25000Y500500D02*
X18442Y500500D01*
D13*
X62500Y601000D02*
X92500Y601000D01*
D15*
X842000Y802000D02*
X982000Y802000D01*
D13*
X196000Y602500D02*
X196000Y573000D01*
X289000Y571000D02*
X289000Y606000D01*
X87000Y493000D02*
X26511Y493441D01*
X87000Y493000D02*
X88106Y492993D01*
X89211Y492959D01*
X90315Y492898D01*
X91417Y492811D01*
X92516Y492697D01*
X93613Y492556D01*
X94706Y492389D01*
X95795Y492196D01*
X96878Y491976D01*
X97956Y491731D01*
X99028Y491459D01*
X100093Y491162D01*
X101150Y490838D01*
X102199Y490490D01*
X103240Y490116D01*
X104271Y489717D01*
X105292Y489293D01*
X106303Y488845D01*
X107302Y488373D01*
X108290Y487876D01*
X109265Y487356D01*
X110228Y486812D01*
X111177Y486245D01*
X112113Y485656D01*
X113033Y485044D01*
X113939Y484410D01*
X114829Y483754D01*
X115703Y483077D01*
X116561Y482379D01*
X117401Y481660D01*
X118224Y480922D01*
X119028Y480164D01*
X119814Y479386D01*
X120581Y478590D01*
X121329Y477775D01*
X122056Y476943D01*
X122764Y476093D01*
X123450Y475227D01*
X124116Y474344D01*
X124760Y473445D01*
X125382Y472531D01*
X125982Y471602D01*
X126559Y470659D01*
X127113Y469702D01*
X127644Y468733D01*
X128151Y467750D01*
X128634Y466756D01*
X129094Y465750D01*
X129529Y464734D01*
X129939Y463707D01*
X130324Y462671D01*
X130684Y461625D01*
X131019Y460572D01*
X131328Y459510D01*
X131611Y458442D01*
X131869Y457366D01*
X132100Y456285D01*
X132305Y455199D01*
X132484Y454108D01*
X132637Y453013D01*
X132763Y451914D01*
X132862Y450813D01*
X132935Y449710D01*
X132981Y448605D01*
X133000Y447500D01*
D14*
X814800Y244800D02*
X814800Y203800D01*
X814800Y282100D02*
X814800Y331800D01*
D13*
X62500Y400000D02*
X61395Y399981D01*
X60290Y399935D01*
X59187Y399862D01*
X58086Y399763D01*
X56987Y399637D01*
X55892Y399484D01*
X54801Y399305D01*
X53715Y399100D01*
X52634Y398869D01*
X51558Y398611D01*
X50490Y398328D01*
X49428Y398019D01*
X48375Y397684D01*
X47329Y397324D01*
X46293Y396939D01*
X45266Y396529D01*
X44250Y396094D01*
X43244Y395634D01*
X42250Y395151D01*
X41267Y394644D01*
X40298Y394113D01*
X39341Y393559D01*
X38398Y392982D01*
X37469Y392382D01*
X36555Y391760D01*
X35656Y391116D01*
X34773Y390450D01*
X33907Y389764D01*
X33057Y389056D01*
X32225Y388329D01*
X31410Y387581D01*
X30614Y386814D01*
X29836Y386028D01*
X29078Y385224D01*
X28340Y384401D01*
X27621Y383561D01*
X26923Y382703D01*
X26246Y381829D01*
X25590Y380939D01*
X24956Y380033D01*
X24344Y379113D01*
X23755Y378177D01*
X23188Y377228D01*
X22644Y376265D01*
X22124Y375290D01*
X21627Y374302D01*
X21155Y373303D01*
X20707Y372292D01*
X20283Y371271D01*
X19884Y370240D01*
X19510Y369199D01*
X19162Y368150D01*
X18838Y367093D01*
X18541Y366028D01*
X18269Y364956D01*
X18024Y363878D01*
X17804Y362795D01*
X17611Y361706D01*
X17444Y360613D01*
X17303Y359516D01*
X17189Y358417D01*
X17102Y357315D01*
X17041Y356211D01*
X17007Y355106D01*
X17000Y354000D01*
X92500Y400000D02*
X93562Y400097D01*
X94622Y400220D01*
X95678Y400369D01*
X96730Y400543D01*
X97778Y400743D01*
X98821Y400967D01*
X99858Y401217D01*
X100888Y401492D01*
X101912Y401792D01*
X102928Y402116D01*
X103936Y402465D01*
X104935Y402838D01*
X105925Y403235D01*
X106906Y403656D01*
X107875Y404100D01*
X108834Y404568D01*
X109781Y405059D01*
X110716Y405572D01*
X111638Y406108D01*
X112547Y406666D01*
X113442Y407246D01*
X114323Y407848D01*
X115189Y408470D01*
X116040Y409113D01*
X116875Y409777D01*
X117694Y410460D01*
X118496Y411164D01*
X119281Y411886D01*
X120048Y412627D01*
X120797Y413386D01*
X121528Y414164D01*
X122239Y414958D01*
X122931Y415770D01*
X123603Y416598D01*
X124255Y417442D01*
X124887Y418302D01*
X125497Y419177D01*
X126086Y420066D01*
X126654Y420969D01*
X127200Y421886D01*
X127723Y422815D01*
X128223Y423757D01*
X128701Y424711D01*
X129156Y425676D01*
X129587Y426651D01*
X129994Y427637D01*
X130377Y428632D01*
X130737Y429637D01*
X131072Y430649D01*
X131382Y431670D01*
X131667Y432698D01*
X131928Y433732D01*
X132164Y434772D01*
X132374Y435818D01*
X132559Y436868D01*
X132719Y437923D01*
X132853Y438981D01*
X132961Y440042D01*
X133044Y441106D01*
X133101Y442171D01*
X133132Y443237D01*
X133138Y444304D01*
X133118Y445370D01*
X133072Y446436D01*
X133000Y447500D01*
X108500Y77000D02*
X108493Y75894D01*
X108459Y74789D01*
X108398Y73685D01*
X108311Y72583D01*
X108197Y71484D01*
X108056Y70387D01*
X107889Y69294D01*
X107696Y68205D01*
X107476Y67122D01*
X107231Y66044D01*
X106959Y64972D01*
X106662Y63907D01*
X106338Y62850D01*
X105990Y61801D01*
X105616Y60760D01*
X105217Y59729D01*
X104793Y58708D01*
X104345Y57697D01*
X103873Y56698D01*
X103376Y55710D01*
X102856Y54735D01*
X102312Y53772D01*
X101745Y52823D01*
X101156Y51887D01*
X100544Y50967D01*
X99910Y50061D01*
X99254Y49171D01*
X98577Y48297D01*
X97879Y47439D01*
X97160Y46599D01*
X96422Y45776D01*
X95664Y44972D01*
X94886Y44186D01*
X94090Y43419D01*
X93275Y42671D01*
X92443Y41944D01*
X91593Y41236D01*
X90727Y40550D01*
X89844Y39884D01*
X88945Y39240D01*
X88031Y38618D01*
X87102Y38018D01*
X86159Y37441D01*
X85202Y36887D01*
X84233Y36356D01*
X83250Y35849D01*
X82256Y35366D01*
X81250Y34906D01*
X80234Y34471D01*
X79207Y34061D01*
X78171Y33676D01*
X77125Y33316D01*
X76072Y32981D01*
X75010Y32672D01*
X73942Y32389D01*
X72866Y32131D01*
X71785Y31900D01*
X70699Y31695D01*
X69608Y31516D01*
X68513Y31363D01*
X67414Y31237D01*
X66313Y31138D01*
X65210Y31065D01*
X64105Y31019D01*
X63000Y31000D01*
X108500Y77000D02*
X108500Y307000D01*
X17000Y76500D02*
X17019Y75395D01*
X17065Y74290D01*
X17138Y73187D01*
X17237Y72086D01*
X17363Y70987D01*
X17516Y69892D01*
X17695Y68801D01*
X17900Y67715D01*
X18131Y66634D01*
X18389Y65558D01*
X18672Y64490D01*
X18981Y63428D01*
X19316Y62375D01*
X19676Y61329D01*
X20061Y60293D01*
X20471Y59266D01*
X20906Y58250D01*
X21366Y57244D01*
X21849Y56250D01*
X22356Y55267D01*
X22887Y54298D01*
X23441Y53341D01*
X24018Y52398D01*
X24618Y51469D01*
X25240Y50555D01*
X25884Y49656D01*
X26550Y48773D01*
X27236Y47907D01*
X27944Y47057D01*
X28671Y46225D01*
X29419Y45410D01*
X30186Y44614D01*
X30972Y43836D01*
X31776Y43078D01*
X32599Y42340D01*
X33439Y41621D01*
X34297Y40923D01*
X35171Y40246D01*
X36061Y39590D01*
X36967Y38956D01*
X37887Y38344D01*
X38823Y37755D01*
X39772Y37188D01*
X40735Y36644D01*
X41710Y36124D01*
X42698Y35627D01*
X43697Y35155D01*
X44708Y34707D01*
X45729Y34283D01*
X46760Y33884D01*
X47801Y33510D01*
X48850Y33162D01*
X49907Y32838D01*
X50972Y32541D01*
X52044Y32269D01*
X53122Y32024D01*
X54205Y31804D01*
X55294Y31611D01*
X56387Y31444D01*
X57484Y31303D01*
X58583Y31189D01*
X59685Y31102D01*
X60789Y31041D01*
X61894Y31007D01*
X63000Y31000D01*
X150500Y352500D02*
X151605Y352519D01*
X152710Y352565D01*
X153813Y352638D01*
X154914Y352737D01*
X156013Y352863D01*
X157108Y353016D01*
X158199Y353195D01*
X159285Y353400D01*
X160366Y353631D01*
X161442Y353889D01*
X162510Y354172D01*
X163572Y354481D01*
X164625Y354816D01*
X165671Y355176D01*
X166707Y355561D01*
X167734Y355971D01*
X168750Y356406D01*
X169756Y356866D01*
X170750Y357349D01*
X171733Y357856D01*
X172702Y358387D01*
X173659Y358941D01*
X174602Y359518D01*
X175531Y360118D01*
X176445Y360740D01*
X177344Y361384D01*
X178227Y362050D01*
X179093Y362736D01*
X179943Y363444D01*
X180775Y364171D01*
X181590Y364919D01*
X182386Y365686D01*
X183164Y366472D01*
X183922Y367276D01*
X184660Y368099D01*
X185379Y368939D01*
X186077Y369797D01*
X186754Y370671D01*
X187410Y371561D01*
X188044Y372467D01*
X188656Y373387D01*
X189245Y374323D01*
X189812Y375272D01*
X190356Y376235D01*
X190876Y377210D01*
X191373Y378198D01*
X191845Y379197D01*
X192293Y380208D01*
X192717Y381229D01*
X193116Y382260D01*
X193490Y383301D01*
X193838Y384350D01*
X194162Y385407D01*
X194459Y386472D01*
X194731Y387544D01*
X194976Y388622D01*
X195196Y389705D01*
X195389Y390794D01*
X195556Y391887D01*
X195697Y392984D01*
X195811Y394083D01*
X195898Y395185D01*
X195959Y396289D01*
X195993Y397394D01*
X196000Y398500D01*
X243500Y349000D02*
X244605Y349019D01*
X245710Y349065D01*
X246813Y349138D01*
X247914Y349237D01*
X249013Y349363D01*
X250108Y349516D01*
X251199Y349695D01*
X252285Y349900D01*
X253366Y350131D01*
X254442Y350389D01*
X255510Y350672D01*
X256572Y350981D01*
X257625Y351316D01*
X258671Y351676D01*
X259707Y352061D01*
X260734Y352471D01*
X261750Y352906D01*
X262756Y353366D01*
X263750Y353849D01*
X264733Y354356D01*
X265702Y354887D01*
X266659Y355441D01*
X267602Y356018D01*
X268531Y356618D01*
X269445Y357240D01*
X270344Y357884D01*
X271227Y358550D01*
X272093Y359236D01*
X272943Y359944D01*
X273775Y360671D01*
X274590Y361419D01*
X275386Y362186D01*
X276164Y362972D01*
X276922Y363776D01*
X277660Y364599D01*
X278379Y365439D01*
X279077Y366297D01*
X279754Y367171D01*
X280410Y368061D01*
X281044Y368967D01*
X281656Y369887D01*
X282245Y370823D01*
X282812Y371772D01*
X283356Y372735D01*
X283876Y373710D01*
X284373Y374698D01*
X284845Y375697D01*
X285293Y376708D01*
X285717Y377729D01*
X286116Y378760D01*
X286490Y379801D01*
X286838Y380850D01*
X287162Y381907D01*
X287459Y382972D01*
X287731Y384044D01*
X287976Y385122D01*
X288196Y386205D01*
X288389Y387294D01*
X288556Y388387D01*
X288697Y389484D01*
X288811Y390583D01*
X288898Y391685D01*
X288959Y392789D01*
X288993Y393894D01*
X289000Y395000D01*
X246500Y349500D02*
X245395Y349481D01*
X244290Y349435D01*
X243187Y349362D01*
X242086Y349263D01*
X240987Y349137D01*
X239892Y348984D01*
X238801Y348805D01*
X237715Y348600D01*
X236634Y348369D01*
X235558Y348111D01*
X234490Y347828D01*
X233428Y347519D01*
X232375Y347184D01*
X231329Y346824D01*
X230293Y346439D01*
X229266Y346029D01*
X228250Y345594D01*
X227244Y345134D01*
X226250Y344651D01*
X225267Y344144D01*
X224298Y343613D01*
X223341Y343059D01*
X222398Y342482D01*
X221469Y341882D01*
X220555Y341260D01*
X219656Y340616D01*
X218773Y339950D01*
X217907Y339264D01*
X217057Y338556D01*
X216225Y337829D01*
X215410Y337081D01*
X214614Y336314D01*
X213836Y335528D01*
X213078Y334724D01*
X212340Y333901D01*
X211621Y333061D01*
X210923Y332203D01*
X210246Y331329D01*
X209590Y330439D01*
X208956Y329533D01*
X208344Y328613D01*
X207755Y327677D01*
X207188Y326728D01*
X206644Y325765D01*
X206124Y324790D01*
X205627Y323802D01*
X205155Y322803D01*
X204707Y321792D01*
X204283Y320771D01*
X203884Y319740D01*
X203510Y318699D01*
X203162Y317650D01*
X202838Y316593D01*
X202541Y315528D01*
X202269Y314456D01*
X202024Y313378D01*
X201804Y312295D01*
X201611Y311206D01*
X201444Y310113D01*
X201303Y309016D01*
X201189Y307917D01*
X201102Y306815D01*
X201041Y305711D01*
X201007Y304606D01*
X201000Y303500D01*
X201000Y78000D02*
X201019Y76895D01*
X201065Y75790D01*
X201138Y74687D01*
X201237Y73586D01*
X201363Y72487D01*
X201516Y71392D01*
X201695Y70301D01*
X201900Y69215D01*
X202131Y68134D01*
X202389Y67058D01*
X202672Y65990D01*
X202981Y64928D01*
X203316Y63875D01*
X203676Y62829D01*
X204061Y61793D01*
X204471Y60766D01*
X204906Y59750D01*
X205366Y58744D01*
X205849Y57750D01*
X206356Y56767D01*
X206887Y55798D01*
X207441Y54841D01*
X208018Y53898D01*
X208618Y52969D01*
X209240Y52055D01*
X209884Y51156D01*
X210550Y50273D01*
X211236Y49407D01*
X211944Y48557D01*
X212671Y47725D01*
X213419Y46910D01*
X214186Y46114D01*
X214972Y45336D01*
X215776Y44578D01*
X216599Y43840D01*
X217439Y43121D01*
X218297Y42423D01*
X219171Y41746D01*
X220061Y41090D01*
X220967Y40456D01*
X221887Y39844D01*
X222823Y39255D01*
X223772Y38688D01*
X224735Y38144D01*
X225710Y37624D01*
X226698Y37127D01*
X227697Y36655D01*
X228708Y36207D01*
X229729Y35783D01*
X230760Y35384D01*
X231801Y35010D01*
X232850Y34662D01*
X233907Y34338D01*
X234972Y34041D01*
X236044Y33769D01*
X237122Y33524D01*
X238205Y33304D01*
X239294Y33111D01*
X240387Y32944D01*
X241484Y32803D01*
X242583Y32689D01*
X243685Y32602D01*
X244789Y32541D01*
X245894Y32507D01*
X247000Y32500D01*
X248105Y32519D01*
X249210Y32565D01*
X250313Y32638D01*
X251414Y32737D01*
X252513Y32863D01*
X253608Y33016D01*
X254699Y33195D01*
X255785Y33400D01*
X256866Y33631D01*
X257942Y33889D01*
X259010Y34172D01*
X260072Y34481D01*
X261125Y34816D01*
X262171Y35176D01*
X263207Y35561D01*
X264234Y35971D01*
X265250Y36406D01*
X266256Y36866D01*
X267250Y37349D01*
X268233Y37856D01*
X269202Y38387D01*
X270159Y38941D01*
X271102Y39518D01*
X272031Y40118D01*
X272945Y40740D01*
X273844Y41384D01*
X274727Y42050D01*
X275593Y42736D01*
X276443Y43444D01*
X277275Y44171D01*
X278090Y44919D01*
X278886Y45686D01*
X279664Y46472D01*
X280422Y47276D01*
X281160Y48099D01*
X281879Y48939D01*
X282577Y49797D01*
X283254Y50671D01*
X283910Y51561D01*
X284544Y52467D01*
X285156Y53387D01*
X285745Y54323D01*
X286312Y55272D01*
X286856Y56235D01*
X287376Y57210D01*
X287873Y58198D01*
X288345Y59197D01*
X288793Y60208D01*
X289217Y61229D01*
X289616Y62260D01*
X289990Y63301D01*
X290338Y64350D01*
X290662Y65407D01*
X290959Y66472D01*
X291231Y67544D01*
X291476Y68622D01*
X291696Y69705D01*
X291889Y70794D01*
X292056Y71887D01*
X292197Y72984D01*
X292311Y74083D01*
X292398Y75185D01*
X292459Y76289D01*
X292493Y77394D01*
X292500Y78500D01*
X292500Y261500D01*
X338000Y300500D02*
X339088Y300511D01*
X340175Y300496D01*
X341262Y300454D01*
X342348Y300386D01*
X343431Y300292D01*
X344512Y300172D01*
X345590Y300026D01*
X346664Y299854D01*
X347734Y299656D01*
X348798Y299432D01*
X349857Y299182D01*
X350909Y298907D01*
X351955Y298606D01*
X352993Y298281D01*
X354022Y297930D01*
X355043Y297555D01*
X356055Y297155D01*
X357056Y296731D01*
X358047Y296282D01*
X359027Y295810D01*
X359995Y295314D01*
X360951Y294795D01*
X361894Y294254D01*
X362824Y293689D01*
X363740Y293102D01*
X364641Y292493D01*
X365528Y291863D01*
X366399Y291211D01*
X367254Y290539D01*
X368092Y289846D01*
X368913Y289133D01*
X369717Y288400D01*
X370503Y287649D01*
X371271Y286878D01*
X372020Y286089D01*
X372749Y285282D01*
X373459Y284458D01*
X374149Y283617D01*
X374818Y282759D01*
X375466Y281886D01*
X376093Y280997D01*
X376698Y280093D01*
X377282Y279175D01*
X377842Y278243D01*
X378381Y277298D01*
X378896Y276340D01*
X379388Y275370D01*
X379856Y274388D01*
X380301Y273395D01*
X380721Y272392D01*
X381117Y271379D01*
X381488Y270357D01*
X381835Y269326D01*
X382157Y268287D01*
X382453Y267240D01*
X382724Y266187D01*
X382969Y265127D01*
X383189Y264062D01*
X383383Y262991D01*
X383551Y261917D01*
X383693Y260838D01*
X383809Y259757D01*
X383899Y258673D01*
X383963Y257587D01*
X384000Y256500D01*
X337000Y315000D02*
X338105Y315019D01*
X339210Y315065D01*
X340313Y315138D01*
X341414Y315237D01*
X342513Y315363D01*
X343608Y315516D01*
X344699Y315695D01*
X345785Y315900D01*
X346866Y316131D01*
X347942Y316389D01*
X349010Y316672D01*
X350072Y316981D01*
X351125Y317316D01*
X352171Y317676D01*
X353207Y318061D01*
X354234Y318471D01*
X355250Y318906D01*
X356256Y319366D01*
X357250Y319849D01*
X358233Y320356D01*
X359202Y320887D01*
X360159Y321441D01*
X361102Y322018D01*
X362031Y322618D01*
X362945Y323240D01*
X363844Y323884D01*
X364727Y324550D01*
X365593Y325236D01*
X366443Y325944D01*
X367275Y326671D01*
X368090Y327419D01*
X368886Y328186D01*
X369664Y328972D01*
X370422Y329776D01*
X371160Y330599D01*
X371879Y331439D01*
X372577Y332297D01*
X373254Y333171D01*
X373910Y334061D01*
X374544Y334967D01*
X375156Y335887D01*
X375745Y336823D01*
X376312Y337772D01*
X376856Y338735D01*
X377376Y339710D01*
X377873Y340698D01*
X378345Y341697D01*
X378793Y342708D01*
X379217Y343729D01*
X379616Y344760D01*
X379990Y345801D01*
X380338Y346850D01*
X380662Y347907D01*
X380959Y348972D01*
X381231Y350044D01*
X381476Y351122D01*
X381696Y352205D01*
X381889Y353294D01*
X382056Y354387D01*
X382197Y355484D01*
X382311Y356583D01*
X382398Y357685D01*
X382459Y358789D01*
X382493Y359894D01*
X382500Y361000D01*
X384000Y59000D02*
X384007Y57894D01*
X384041Y56789D01*
X384102Y55685D01*
X384189Y54583D01*
X384303Y53484D01*
X384444Y52387D01*
X384611Y51294D01*
X384804Y50205D01*
X385024Y49122D01*
X385269Y48044D01*
X385541Y46972D01*
X385838Y45907D01*
X386162Y44850D01*
X386510Y43801D01*
X386884Y42760D01*
X387283Y41729D01*
X387707Y40708D01*
X388155Y39697D01*
X388627Y38698D01*
X389124Y37710D01*
X389644Y36735D01*
X390188Y35772D01*
X390755Y34823D01*
X391344Y33887D01*
X391956Y32967D01*
X392590Y32061D01*
X393246Y31171D01*
X393923Y30297D01*
X394621Y29439D01*
X395340Y28599D01*
X396078Y27776D01*
X396836Y26972D01*
X397614Y26186D01*
X398410Y25419D01*
X399225Y24671D01*
X400057Y23944D01*
X400907Y23236D01*
X401773Y22550D01*
X402656Y21884D01*
X403555Y21240D01*
X404469Y20618D01*
X405398Y20018D01*
X406341Y19441D01*
X407298Y18887D01*
X408267Y18356D01*
X409250Y17849D01*
X410244Y17366D01*
X411250Y16906D01*
X412266Y16471D01*
X413293Y16061D01*
X414329Y15676D01*
X415375Y15316D01*
X416428Y14981D01*
X417490Y14672D01*
X418558Y14389D01*
X419634Y14131D01*
X420715Y13900D01*
X421801Y13695D01*
X422892Y13516D01*
X423987Y13363D01*
X425086Y13237D01*
X426187Y13138D01*
X427290Y13065D01*
X428395Y13019D01*
X429500Y13000D01*
X384000Y59000D02*
X384000Y256500D01*
X429500Y13000D02*
X920000Y13000D01*
X921105Y13019D01*
X922210Y13065D01*
X923313Y13138D01*
X924414Y13237D01*
X925513Y13363D01*
X926608Y13516D01*
X927699Y13695D01*
X928785Y13900D01*
X929866Y14131D01*
X930942Y14389D01*
X932010Y14672D01*
X933072Y14981D01*
X934125Y15316D01*
X935171Y15676D01*
X936207Y16061D01*
X937234Y16471D01*
X938250Y16906D01*
X939256Y17366D01*
X940250Y17849D01*
X941233Y18356D01*
X942202Y18887D01*
X943159Y19441D01*
X944102Y20018D01*
X945031Y20618D01*
X945945Y21240D01*
X946844Y21884D01*
X947727Y22550D01*
X948593Y23236D01*
X949443Y23944D01*
X950275Y24671D01*
X951090Y25419D01*
X951886Y26186D01*
X952664Y26972D01*
X953422Y27776D01*
X954160Y28599D01*
X954879Y29439D01*
X955577Y30297D01*
X956254Y31171D01*
X956910Y32061D01*
X957544Y32967D01*
X958156Y33887D01*
X958745Y34823D01*
X959312Y35772D01*
X959856Y36735D01*
X960376Y37710D01*
X960873Y38698D01*
X961345Y39697D01*
X961793Y40708D01*
X962217Y41729D01*
X962616Y42760D01*
X962990Y43801D01*
X963338Y44850D01*
X963662Y45907D01*
X963959Y46972D01*
X964231Y48044D01*
X964476Y49122D01*
X964696Y50205D01*
X964889Y51294D01*
X965056Y52387D01*
X965197Y53484D01*
X965311Y54583D01*
X965398Y55685D01*
X965459Y56789D01*
X965493Y57894D01*
X965500Y59000D01*
X965486Y60136D01*
X965445Y61271D01*
X965377Y62404D01*
X965281Y63536D01*
X965157Y64665D01*
X965007Y65791D01*
X964829Y66913D01*
X964624Y68030D01*
X964393Y69142D01*
X964134Y70248D01*
X963849Y71347D01*
X963538Y72439D01*
X963200Y73524D01*
X962836Y74600D01*
X962446Y75666D01*
X962030Y76723D01*
X961589Y77770D01*
X961123Y78806D01*
X960632Y79830D01*
X960116Y80842D01*
X959576Y81841D01*
X959013Y82827D01*
X958425Y83799D01*
X957814Y84757D01*
X957180Y85699D01*
X956524Y86626D01*
X955845Y87537D01*
X955145Y88431D01*
X954423Y89308D01*
X953680Y90167D01*
X952917Y91008D01*
X952133Y91830D01*
X951330Y92633D01*
X950508Y93417D01*
X949667Y94180D01*
X948808Y94923D01*
X947931Y95645D01*
X947037Y96345D01*
X946126Y97024D01*
X945199Y97680D01*
X944257Y98314D01*
X943299Y98925D01*
X942327Y99513D01*
X941341Y100076D01*
X940342Y100616D01*
X939330Y101132D01*
X938306Y101623D01*
X937270Y102089D01*
X936223Y102530D01*
X935166Y102946D01*
X934100Y103336D01*
X933024Y103700D01*
X931939Y104038D01*
X930847Y104349D01*
X929748Y104634D01*
X928642Y104893D01*
X927530Y105124D01*
X926413Y105329D01*
X925291Y105507D01*
X924165Y105657D01*
X923036Y105781D01*
X921904Y105877D01*
X920771Y105945D01*
X919636Y105986D01*
X918500Y106000D01*
X461500Y106000D01*
X462500Y106000D02*
X461364Y106014D01*
X460229Y106055D01*
X459096Y106123D01*
X457964Y106219D01*
X456835Y106343D01*
X455709Y106493D01*
X454587Y106671D01*
X453470Y106876D01*
X452358Y107107D01*
X451252Y107366D01*
X450153Y107651D01*
X449061Y107962D01*
X447976Y108300D01*
X446900Y108664D01*
X445834Y109054D01*
X444777Y109470D01*
X443730Y109911D01*
X442694Y110377D01*
X441670Y110868D01*
X440658Y111384D01*
X439659Y111924D01*
X438673Y112487D01*
X437701Y113075D01*
X436743Y113686D01*
X435801Y114320D01*
X434874Y114976D01*
X433963Y115655D01*
X433069Y116355D01*
X432192Y117077D01*
X431333Y117820D01*
X430492Y118583D01*
X429670Y119367D01*
X428867Y120170D01*
X428083Y120992D01*
X427320Y121833D01*
X426577Y122692D01*
X425855Y123569D01*
X425155Y124463D01*
X424476Y125374D01*
X423820Y126301D01*
X423186Y127243D01*
X422575Y128201D01*
X421987Y129173D01*
X421424Y130159D01*
X420884Y131158D01*
X420368Y132170D01*
X419877Y133194D01*
X419411Y134230D01*
X418970Y135277D01*
X418554Y136334D01*
X418164Y137400D01*
X417800Y138476D01*
X417462Y139561D01*
X417151Y140653D01*
X416866Y141752D01*
X416607Y142858D01*
X416376Y143970D01*
X416171Y145087D01*
X415993Y146209D01*
X415843Y147335D01*
X415719Y148464D01*
X415623Y149596D01*
X415555Y150729D01*
X415514Y151864D01*
X415500Y153000D01*
X415569Y154165D01*
X415665Y155328D01*
X415790Y156489D01*
X415943Y157646D01*
X416123Y158799D01*
X416332Y159948D01*
X416568Y161091D01*
X416832Y162228D01*
X417123Y163358D01*
X417441Y164481D01*
X417786Y165596D01*
X418158Y166703D01*
X418557Y167800D01*
X418982Y168887D01*
X419434Y169963D01*
X419911Y171029D01*
X420414Y172082D01*
X420942Y173123D01*
X421495Y174151D01*
X422073Y175165D01*
X422675Y176165D01*
X423301Y177150D01*
X423951Y178120D01*
X424624Y179073D01*
X425320Y180011D01*
X426038Y180931D01*
X426778Y181833D01*
X427540Y182717D01*
X428323Y183583D01*
X429127Y184430D01*
X429951Y185256D01*
X430794Y186063D01*
X431657Y186849D01*
X432539Y187614D01*
X433439Y188357D01*
X434356Y189079D01*
X435291Y189778D01*
X436242Y190454D01*
X437210Y191107D01*
X438193Y191737D01*
X439191Y192342D01*
X440203Y192924D01*
X441229Y193480D01*
X442268Y194012D01*
X443320Y194518D01*
X444383Y194999D01*
X445458Y195454D01*
X446544Y195883D01*
X447639Y196286D01*
X448744Y196662D01*
X449858Y197011D01*
X450980Y197333D01*
X452109Y197628D01*
X453245Y197896D01*
X454388Y198136D01*
X455535Y198348D01*
X456688Y198533D01*
X457845Y198690D01*
X459005Y198818D01*
X460168Y198919D01*
X461333Y198991D01*
X462499Y199036D01*
X463666Y199052D01*
X464833Y199040D01*
X466000Y199000D01*
X842000Y199000D01*
X429500Y492000D02*
X428364Y491986D01*
X427229Y491945D01*
X426096Y491877D01*
X424964Y491781D01*
X423835Y491657D01*
X422709Y491507D01*
X421587Y491329D01*
X420470Y491124D01*
X419358Y490893D01*
X418252Y490634D01*
X417153Y490349D01*
X416061Y490038D01*
X414976Y489700D01*
X413900Y489336D01*
X412834Y488946D01*
X411777Y488530D01*
X410730Y488089D01*
X409694Y487623D01*
X408670Y487132D01*
X407658Y486616D01*
X406659Y486076D01*
X405673Y485513D01*
X404701Y484925D01*
X403743Y484314D01*
X402801Y483680D01*
X401874Y483024D01*
X400963Y482345D01*
X400069Y481645D01*
X399192Y480923D01*
X398333Y480180D01*
X397492Y479417D01*
X396670Y478633D01*
X395867Y477830D01*
X395083Y477008D01*
X394320Y476167D01*
X393577Y475308D01*
X392855Y474431D01*
X392155Y473537D01*
X391476Y472626D01*
X390820Y471699D01*
X390186Y470757D01*
X389575Y469799D01*
X388987Y468827D01*
X388424Y467841D01*
X387884Y466842D01*
X387368Y465830D01*
X386877Y464806D01*
X386411Y463770D01*
X385970Y462723D01*
X385554Y461666D01*
X385164Y460600D01*
X384800Y459524D01*
X384462Y458439D01*
X384151Y457347D01*
X383866Y456248D01*
X383607Y455142D01*
X383376Y454030D01*
X383171Y452913D01*
X382993Y451791D01*
X382843Y450665D01*
X382719Y449536D01*
X382623Y448404D01*
X382555Y447271D01*
X382514Y446136D01*
X382500Y445000D01*
X431000Y492000D02*
X918500Y492000D01*
X919605Y491981D01*
X920710Y491935D01*
X921813Y491862D01*
X922914Y491763D01*
X924013Y491637D01*
X925108Y491484D01*
X926199Y491305D01*
X927285Y491100D01*
X928366Y490869D01*
X929442Y490611D01*
X930510Y490328D01*
X931572Y490019D01*
X932625Y489684D01*
X933671Y489324D01*
X934707Y488939D01*
X935734Y488529D01*
X936750Y488094D01*
X937756Y487634D01*
X938750Y487151D01*
X939733Y486644D01*
X940702Y486113D01*
X941659Y485559D01*
X942602Y484982D01*
X943531Y484382D01*
X944445Y483760D01*
X945344Y483116D01*
X946227Y482450D01*
X947093Y481764D01*
X947943Y481056D01*
X948775Y480329D01*
X949590Y479581D01*
X950386Y478814D01*
X951164Y478028D01*
X951922Y477224D01*
X952660Y476401D01*
X953379Y475561D01*
X954077Y474703D01*
X954754Y473829D01*
X955410Y472939D01*
X956044Y472033D01*
X956656Y471113D01*
X957245Y470177D01*
X957812Y469228D01*
X958356Y468265D01*
X958876Y467290D01*
X959373Y466302D01*
X959845Y465303D01*
X960293Y464292D01*
X960717Y463271D01*
X961116Y462240D01*
X961490Y461199D01*
X961838Y460150D01*
X962162Y459093D01*
X962459Y458028D01*
X962731Y456956D01*
X962976Y455878D01*
X963196Y454795D01*
X963389Y453706D01*
X963556Y452613D01*
X963697Y451516D01*
X963811Y450417D01*
X963898Y449315D01*
X963959Y448211D01*
X963993Y447106D01*
X964000Y446000D01*
X963986Y444864D01*
X963945Y443729D01*
X963877Y442596D01*
X963781Y441464D01*
X963657Y440335D01*
X963507Y439209D01*
X963329Y438087D01*
X963124Y436970D01*
X962893Y435858D01*
X962634Y434752D01*
X962349Y433653D01*
X962038Y432561D01*
X961700Y431476D01*
X961336Y430400D01*
X960946Y429334D01*
X960530Y428277D01*
X960089Y427230D01*
X959623Y426194D01*
X959132Y425170D01*
X958616Y424158D01*
X958076Y423159D01*
X957513Y422173D01*
X956925Y421201D01*
X956314Y420243D01*
X955680Y419301D01*
X955024Y418374D01*
X954345Y417463D01*
X953645Y416569D01*
X952923Y415692D01*
X952180Y414833D01*
X951417Y413992D01*
X950633Y413170D01*
X949830Y412367D01*
X949008Y411583D01*
X948167Y410820D01*
X947308Y410077D01*
X946431Y409355D01*
X945537Y408655D01*
X944626Y407976D01*
X943699Y407320D01*
X942757Y406686D01*
X941799Y406075D01*
X940827Y405487D01*
X939841Y404924D01*
X938842Y404384D01*
X937830Y403868D01*
X936806Y403377D01*
X935770Y402911D01*
X934723Y402470D01*
X933666Y402054D01*
X932600Y401664D01*
X931524Y401300D01*
X930439Y400962D01*
X929347Y400651D01*
X928248Y400366D01*
X927142Y400107D01*
X926030Y399876D01*
X924913Y399671D01*
X923791Y399493D01*
X922665Y399343D01*
X921536Y399219D01*
X920404Y399123D01*
X919271Y399055D01*
X918136Y399014D01*
X917000Y399000D01*
X467500Y399000D01*
X466364Y398986D01*
X465229Y398945D01*
X464096Y398877D01*
X462964Y398781D01*
X461835Y398657D01*
X460709Y398507D01*
X459587Y398329D01*
X458470Y398124D01*
X457358Y397893D01*
X456252Y397634D01*
X455153Y397349D01*
X454061Y397038D01*
X452976Y396700D01*
X451900Y396336D01*
X450834Y395946D01*
X449777Y395530D01*
X448730Y395089D01*
X447694Y394623D01*
X446670Y394132D01*
X445658Y393616D01*
X444659Y393076D01*
X443673Y392513D01*
X442701Y391925D01*
X441743Y391314D01*
X440801Y390680D01*
X439874Y390024D01*
X438963Y389345D01*
X438069Y388645D01*
X437192Y387923D01*
X436333Y387180D01*
X435492Y386417D01*
X434670Y385633D01*
X433867Y384830D01*
X433083Y384008D01*
X432320Y383167D01*
X431577Y382308D01*
X430855Y381431D01*
X430155Y380537D01*
X429476Y379626D01*
X428820Y378699D01*
X428186Y377757D01*
X427575Y376799D01*
X426987Y375827D01*
X426424Y374841D01*
X425884Y373842D01*
X425368Y372830D01*
X424877Y371806D01*
X424411Y370770D01*
X423970Y369723D01*
X423554Y368666D01*
X423164Y367600D01*
X422800Y366524D01*
X422462Y365439D01*
X422151Y364347D01*
X421866Y363248D01*
X421607Y362142D01*
X421376Y361030D01*
X421171Y359913D01*
X420993Y358791D01*
X420843Y357665D01*
X420719Y356536D01*
X420623Y355404D01*
X420555Y354271D01*
X420514Y353136D01*
X420500Y352000D01*
X419000Y287500D01*
X419019Y286395D01*
X419065Y285290D01*
X419138Y284187D01*
X419237Y283086D01*
X419363Y281987D01*
X419516Y280892D01*
X419695Y279801D01*
X419900Y278715D01*
X420131Y277634D01*
X420389Y276558D01*
X420672Y275490D01*
X420981Y274428D01*
X421316Y273375D01*
X421676Y272329D01*
X422061Y271293D01*
X422471Y270266D01*
X422906Y269250D01*
X423366Y268244D01*
X423849Y267250D01*
X424356Y266267D01*
X424887Y265298D01*
X425441Y264341D01*
X426018Y263398D01*
X426618Y262469D01*
X427240Y261555D01*
X427884Y260656D01*
X428550Y259773D01*
X429236Y258907D01*
X429944Y258057D01*
X430671Y257225D01*
X431419Y256410D01*
X432186Y255614D01*
X432972Y254836D01*
X433776Y254078D01*
X434599Y253340D01*
X435439Y252621D01*
X436297Y251923D01*
X437171Y251246D01*
X438061Y250590D01*
X438967Y249956D01*
X439887Y249344D01*
X440823Y248755D01*
X441772Y248188D01*
X442735Y247644D01*
X443710Y247124D01*
X444698Y246627D01*
X445697Y246155D01*
X446708Y245707D01*
X447729Y245283D01*
X448760Y244884D01*
X449801Y244510D01*
X450850Y244162D01*
X451907Y243838D01*
X452972Y243541D01*
X454044Y243269D01*
X455122Y243024D01*
X456205Y242804D01*
X457294Y242611D01*
X458387Y242444D01*
X459484Y242303D01*
X460583Y242189D01*
X461685Y242102D01*
X462789Y242041D01*
X463894Y242007D01*
X465000Y242000D01*
X466148Y241989D01*
X467296Y242007D01*
X468443Y242052D01*
X469589Y242125D01*
X470733Y242225D01*
X471874Y242353D01*
X473011Y242509D01*
X474145Y242692D01*
X475273Y242903D01*
X476397Y243140D01*
X477514Y243405D01*
X478624Y243697D01*
X479727Y244015D01*
X480822Y244360D01*
X481909Y244732D01*
X482986Y245129D01*
X484053Y245553D01*
X485110Y246002D01*
X486155Y246476D01*
X487189Y246976D01*
X488210Y247500D01*
X489219Y248049D01*
X490214Y248622D01*
X491194Y249219D01*
X492160Y249840D01*
X493111Y250484D01*
X494046Y251150D01*
X494964Y251839D01*
X495866Y252550D01*
X496750Y253282D01*
X497616Y254036D01*
X498464Y254810D01*
X499293Y255605D01*
X500102Y256419D01*
X500891Y257253D01*
X501661Y258105D01*
X502409Y258976D01*
X503136Y259865D01*
X503841Y260771D01*
X504524Y261694D01*
X505185Y262633D01*
X505822Y263587D01*
X506437Y264557D01*
X507028Y265542D01*
X507595Y266540D01*
X508138Y267552D01*
X508656Y268576D01*
X509149Y269613D01*
X509617Y270662D01*
X510059Y271721D01*
X510476Y272791D01*
X510867Y273870D01*
X511231Y274959D01*
X511569Y276056D01*
X511881Y277161D01*
X512166Y278274D01*
X512423Y279393D01*
X512654Y280517D01*
X512858Y281647D01*
X513034Y282782D01*
X513182Y283920D01*
X513303Y285062D01*
X513397Y286206D01*
X513462Y287352D01*
X513500Y288500D01*
X513507Y289606D01*
X513541Y290711D01*
X513602Y291815D01*
X513689Y292917D01*
X513803Y294016D01*
X513944Y295113D01*
X514111Y296206D01*
X514304Y297295D01*
X514524Y298378D01*
X514769Y299456D01*
X515041Y300528D01*
X515338Y301593D01*
X515662Y302650D01*
X516010Y303699D01*
X516384Y304740D01*
X516783Y305771D01*
X517207Y306792D01*
X517655Y307803D01*
X518127Y308802D01*
X518624Y309790D01*
X519144Y310765D01*
X519688Y311728D01*
X520255Y312677D01*
X520844Y313613D01*
X521456Y314533D01*
X522090Y315439D01*
X522746Y316329D01*
X523423Y317203D01*
X524121Y318061D01*
X524840Y318901D01*
X525578Y319724D01*
X526336Y320528D01*
X527114Y321314D01*
X527910Y322081D01*
X528725Y322829D01*
X529557Y323556D01*
X530407Y324264D01*
X531273Y324950D01*
X532156Y325616D01*
X533055Y326260D01*
X533969Y326882D01*
X534898Y327482D01*
X535841Y328059D01*
X536798Y328613D01*
X537767Y329144D01*
X538750Y329651D01*
X539744Y330134D01*
X540750Y330594D01*
X541766Y331029D01*
X542793Y331439D01*
X543829Y331824D01*
X544875Y332184D01*
X545928Y332519D01*
X546990Y332828D01*
X548058Y333111D01*
X549134Y333369D01*
X550215Y333600D01*
X551301Y333805D01*
X552392Y333984D01*
X553487Y334137D01*
X554586Y334263D01*
X555687Y334362D01*
X556790Y334435D01*
X557895Y334481D01*
X559000Y334500D01*
X845000Y334500D01*
D15*
X980500Y334500D01*
D13*
X154000Y352500D02*
X152895Y352481D01*
X151790Y352435D01*
X150687Y352362D01*
X149586Y352263D01*
X148487Y352137D01*
X147392Y351984D01*
X146301Y351805D01*
X145215Y351600D01*
X144134Y351369D01*
X143058Y351111D01*
X141990Y350828D01*
X140928Y350519D01*
X139875Y350184D01*
X138829Y349824D01*
X137793Y349439D01*
X136766Y349029D01*
X135750Y348594D01*
X134744Y348134D01*
X133750Y347651D01*
X132767Y347144D01*
X131798Y346613D01*
X130841Y346059D01*
X129898Y345482D01*
X128969Y344882D01*
X128055Y344260D01*
X127156Y343616D01*
X126273Y342950D01*
X125407Y342264D01*
X124557Y341556D01*
X123725Y340829D01*
X122910Y340081D01*
X122114Y339314D01*
X121336Y338528D01*
X120578Y337724D01*
X119840Y336901D01*
X119121Y336061D01*
X118423Y335203D01*
X117746Y334329D01*
X117090Y333439D01*
X116456Y332533D01*
X115844Y331613D01*
X115255Y330677D01*
X114688Y329728D01*
X114144Y328765D01*
X113624Y327790D01*
X113127Y326802D01*
X112655Y325803D01*
X112207Y324792D01*
X111783Y323771D01*
X111384Y322740D01*
X111010Y321699D01*
X110662Y320650D01*
X110338Y319593D01*
X110041Y318528D01*
X109769Y317456D01*
X109524Y316378D01*
X109304Y315295D01*
X109111Y314206D01*
X108944Y313113D01*
X108803Y312016D01*
X108689Y310917D01*
X108602Y309815D01*
X108541Y308711D01*
X108507Y307606D01*
X108500Y306500D01*
X292500Y261500D02*
X292507Y262606D01*
X292541Y263711D01*
X292602Y264815D01*
X292689Y265917D01*
X292803Y267016D01*
X292944Y268113D01*
X293111Y269206D01*
X293304Y270295D01*
X293524Y271378D01*
X293769Y272456D01*
X294041Y273528D01*
X294338Y274593D01*
X294662Y275650D01*
X295010Y276699D01*
X295384Y277740D01*
X295783Y278771D01*
X296207Y279792D01*
X296655Y280803D01*
X297127Y281802D01*
X297624Y282790D01*
X298144Y283765D01*
X298688Y284728D01*
X299255Y285677D01*
X299844Y286613D01*
X300456Y287533D01*
X301090Y288439D01*
X301746Y289329D01*
X302423Y290203D01*
X303121Y291061D01*
X303840Y291901D01*
X304578Y292724D01*
X305336Y293528D01*
X306114Y294314D01*
X306910Y295081D01*
X307725Y295829D01*
X308557Y296556D01*
X309407Y297264D01*
X310273Y297950D01*
X311156Y298616D01*
X312055Y299260D01*
X312969Y299882D01*
X313898Y300482D01*
X314841Y301059D01*
X315798Y301613D01*
X316767Y302144D01*
X317750Y302651D01*
X318744Y303134D01*
X319750Y303594D01*
X320766Y304029D01*
X321793Y304439D01*
X322829Y304824D01*
X323875Y305184D01*
X324928Y305519D01*
X325990Y305828D01*
X327058Y306111D01*
X328134Y306369D01*
X329215Y306600D01*
X330301Y306805D01*
X331392Y306984D01*
X332487Y307137D01*
X333586Y307263D01*
X334687Y307362D01*
X335790Y307435D01*
X336895Y307481D01*
X338000Y307500D01*
X92500Y400000D02*
X62500Y400000D01*
D15*
X842000Y199000D02*
X982000Y199000D01*
D13*
X382500Y361000D02*
X382500Y445000D01*
D14*
X292500Y673500D02*
X292500Y739500D01*
X292500Y673500D02*
X339000Y627000D01*
X339000Y514996D01*
X338500Y514496D01*
X292500Y313000D02*
X292500Y247000D01*
X292500Y313000D02*
X339000Y359500D01*
X339000Y471504D01*
D13*
X17000Y354000D02*
X17000Y76500D01*
X201000Y78000D02*
X201000Y303500D01*
X17000Y643500D02*
X17000Y920000D01*
X201000Y916500D02*
X201000Y697500D01*
D16*
X12700Y985520D03*
X985520Y499110D03*
X12700Y596392D03*
X12700Y401828D03*
X109982Y12700D03*
X207264Y12700D03*
X985520Y12700D03*
X985520Y109982D03*
X985520Y401828D03*
X985520Y596392D03*
X985520Y888238D03*
X985520Y985520D03*
X304546Y985520D03*
X207264Y985520D03*
X109982Y985520D03*
X304546Y12700D03*
X12700Y12700D03*
D17*
X12700Y985520D02*
X304546Y985520D01*
X12700Y596392D02*
X12700Y544300D01*
X13000Y544000D01*
X12700Y455800D02*
X12700Y401828D01*
X12700Y455800D02*
X12000Y456500D01*
X12700Y12700D02*
X304546Y12700D01*
X985520Y12700D02*
X985520Y155020D01*
X988000Y157500D01*
X969309Y242245D02*
X969309Y292255D01*
X969409Y292355D01*
X985520Y378980D02*
X985520Y401828D01*
X985520Y378980D02*
X986000Y378500D01*
X985520Y401828D02*
X985520Y638020D01*
X986000Y638500D01*
X969509Y727145D02*
X969509Y759155D01*
X969609Y759255D01*
X985520Y843020D02*
X985520Y985520D01*
X985520Y843020D02*
X985000Y842500D01*
D13*
X289000Y427000D02*
X288986Y428136D01*
X288945Y429271D01*
X288877Y430404D01*
X288781Y431536D01*
X288657Y432665D01*
X288507Y433791D01*
X288329Y434913D01*
X288124Y436030D01*
X287893Y437142D01*
X287634Y438248D01*
X287349Y439347D01*
X287038Y440439D01*
X286700Y441524D01*
X286336Y442600D01*
X285946Y443666D01*
X285530Y444723D01*
X285089Y445770D01*
X284623Y446806D01*
X284132Y447830D01*
X283616Y448842D01*
X283076Y449841D01*
X282513Y450827D01*
X281925Y451799D01*
X281314Y452757D01*
X280680Y453699D01*
X280024Y454626D01*
X279345Y455537D01*
X278645Y456431D01*
X277923Y457308D01*
X277180Y458167D01*
X276417Y459008D01*
X275633Y459830D01*
X274830Y460633D01*
X274008Y461417D01*
X273167Y462180D01*
X272308Y462923D01*
X271431Y463645D01*
X270537Y464345D01*
X269626Y465024D01*
X268699Y465680D01*
X267757Y466314D01*
X266799Y466925D01*
X265827Y467513D01*
X264841Y468076D01*
X263842Y468616D01*
X262830Y469132D01*
X261806Y469623D01*
X260770Y470089D01*
X259723Y470530D01*
X258666Y470946D01*
X257600Y471336D01*
X256524Y471700D01*
X255439Y472038D01*
X254347Y472349D01*
X253248Y472634D01*
X252142Y472893D01*
X251030Y473124D01*
X249913Y473329D01*
X248791Y473507D01*
X247665Y473657D01*
X246536Y473781D01*
X245404Y473877D01*
X244271Y473945D01*
X243136Y473986D01*
X242000Y474000D01*
X240864Y473975D01*
X239730Y473921D01*
X238597Y473841D01*
X237466Y473733D01*
X236338Y473597D01*
X235214Y473435D01*
X234094Y473245D01*
X232979Y473029D01*
X231870Y472785D01*
X230767Y472515D01*
X229670Y472218D01*
X228581Y471895D01*
X227501Y471545D01*
X226429Y471170D01*
X225366Y470769D01*
X224313Y470342D01*
X223271Y469890D01*
X222241Y469413D01*
X221222Y468911D01*
X220215Y468384D01*
X219222Y467834D01*
X218242Y467259D01*
X217276Y466661D01*
X216325Y466040D01*
X215389Y465396D01*
X214469Y464730D01*
X213566Y464042D01*
X212679Y463332D01*
X211810Y462601D01*
X210959Y461849D01*
X210126Y461076D01*
X209312Y460284D01*
X208517Y459472D01*
X207743Y458642D01*
X206988Y457793D01*
X206254Y456926D01*
X205542Y456041D01*
X204851Y455140D01*
X204182Y454222D01*
X203535Y453288D01*
X202912Y452339D01*
X202311Y451375D01*
X201734Y450396D01*
X201180Y449404D01*
X200651Y448399D01*
X200146Y447382D01*
X199666Y446353D01*
X199211Y445312D01*
X198781Y444260D01*
X198377Y443199D01*
X197998Y442128D01*
X197646Y441048D01*
X197319Y439960D01*
X197019Y438865D01*
X196746Y437762D01*
X196499Y436654D01*
X196279Y435539D01*
X196086Y434420D01*
X195921Y433296D01*
X195782Y432169D01*
X195671Y431039D01*
X195587Y429906D01*
X195530Y428771D01*
X195501Y427636D01*
X195500Y426500D01*
X289000Y427000D02*
X289000Y397500D01*
X196000Y394000D02*
X196000Y429000D01*
M02*
