M48
;GenerationSoftware,Autodesk,EAGLE,8.7.1*%
;CreationDate,2018-04-02T22:06:04Z*%
FMAT,2
ICI,OFF
METRIC,TZ,000.000
T2C0.508
T1C3.264
%
G90
M71
T1
X6350Y7620
X91440Y57404
X6350Y92202
T2
X1270Y98552
X98552Y49911
X1270Y59639
X1270Y40183
X10998Y1270
X20726Y1270
X98552Y1270
X98552Y10998
X98552Y40183
X98552Y59639
X98552Y88824
X98552Y98552
X30455Y98552
X20726Y98552
X10998Y98552
X30455Y1270
X1270Y1270
M30