G04 EAGLE Gerber X2 export*
G75*
%MOMM*%
%FSLAX34Y34*%
%LPD*%
%AMOC8*
5,1,8,0,0,1.08239X$1,22.5*%
G01*
%ADD10C,0.177800*%
%ADD11C,0.101600*%
%ADD12C,0.152400*%
%ADD13C,0.127000*%


D10*
X672389Y166889D02*
X672389Y180111D01*
X676062Y180111D01*
X676182Y180109D01*
X676302Y180103D01*
X676422Y180093D01*
X676541Y180080D01*
X676660Y180062D01*
X676779Y180040D01*
X676896Y180015D01*
X677013Y179986D01*
X677128Y179953D01*
X677243Y179916D01*
X677356Y179876D01*
X677468Y179831D01*
X677578Y179784D01*
X677687Y179732D01*
X677793Y179677D01*
X677899Y179619D01*
X678002Y179557D01*
X678103Y179492D01*
X678201Y179424D01*
X678298Y179352D01*
X678392Y179277D01*
X678484Y179200D01*
X678573Y179119D01*
X678659Y179035D01*
X678743Y178949D01*
X678824Y178860D01*
X678901Y178768D01*
X678976Y178674D01*
X679048Y178577D01*
X679116Y178479D01*
X679181Y178378D01*
X679243Y178275D01*
X679301Y178169D01*
X679356Y178063D01*
X679408Y177954D01*
X679455Y177844D01*
X679500Y177732D01*
X679540Y177619D01*
X679577Y177504D01*
X679610Y177389D01*
X679639Y177272D01*
X679664Y177155D01*
X679686Y177036D01*
X679704Y176917D01*
X679717Y176798D01*
X679727Y176678D01*
X679733Y176558D01*
X679735Y176438D01*
X679733Y176318D01*
X679727Y176198D01*
X679717Y176078D01*
X679704Y175959D01*
X679686Y175840D01*
X679664Y175721D01*
X679639Y175604D01*
X679610Y175487D01*
X679577Y175372D01*
X679540Y175257D01*
X679500Y175144D01*
X679455Y175032D01*
X679408Y174922D01*
X679356Y174813D01*
X679301Y174707D01*
X679243Y174602D01*
X679181Y174498D01*
X679116Y174397D01*
X679048Y174299D01*
X678976Y174202D01*
X678901Y174108D01*
X678824Y174016D01*
X678743Y173927D01*
X678659Y173841D01*
X678573Y173757D01*
X678484Y173676D01*
X678392Y173599D01*
X678298Y173524D01*
X678201Y173452D01*
X678103Y173384D01*
X678002Y173319D01*
X677899Y173257D01*
X677793Y173199D01*
X677687Y173144D01*
X677578Y173092D01*
X677468Y173045D01*
X677356Y173000D01*
X677243Y172960D01*
X677128Y172923D01*
X677013Y172890D01*
X676896Y172861D01*
X676779Y172836D01*
X676660Y172814D01*
X676541Y172796D01*
X676422Y172783D01*
X676302Y172773D01*
X676182Y172767D01*
X676062Y172765D01*
X672389Y172765D01*
X676796Y172765D02*
X679735Y166889D01*
X686264Y166889D02*
X686264Y180111D01*
X692141Y180111D01*
X692141Y174235D02*
X686264Y174235D01*
X708638Y166889D02*
X708745Y166891D01*
X708852Y166897D01*
X708959Y166907D01*
X709066Y166920D01*
X709172Y166938D01*
X709277Y166959D01*
X709381Y166985D01*
X709484Y167014D01*
X709587Y167046D01*
X709688Y167083D01*
X709787Y167123D01*
X709885Y167167D01*
X709981Y167214D01*
X710076Y167265D01*
X710169Y167319D01*
X710259Y167377D01*
X710348Y167438D01*
X710434Y167502D01*
X710517Y167569D01*
X710599Y167639D01*
X710677Y167712D01*
X710753Y167788D01*
X710826Y167866D01*
X710896Y167948D01*
X710963Y168031D01*
X711027Y168118D01*
X711088Y168206D01*
X711146Y168296D01*
X711200Y168389D01*
X711251Y168484D01*
X711298Y168580D01*
X711342Y168678D01*
X711382Y168777D01*
X711419Y168878D01*
X711451Y168981D01*
X711480Y169084D01*
X711506Y169188D01*
X711527Y169293D01*
X711545Y169399D01*
X711558Y169506D01*
X711568Y169613D01*
X711574Y169720D01*
X711576Y169827D01*
X708638Y166889D02*
X708485Y166891D01*
X708332Y166897D01*
X708179Y166906D01*
X708026Y166919D01*
X707874Y166936D01*
X707722Y166957D01*
X707571Y166981D01*
X707421Y167010D01*
X707271Y167041D01*
X707122Y167077D01*
X706974Y167116D01*
X706827Y167159D01*
X706681Y167206D01*
X706536Y167256D01*
X706393Y167309D01*
X706251Y167366D01*
X706110Y167427D01*
X705971Y167491D01*
X705833Y167559D01*
X705698Y167630D01*
X705564Y167704D01*
X705432Y167781D01*
X705301Y167862D01*
X705173Y167946D01*
X705047Y168033D01*
X704924Y168123D01*
X704802Y168216D01*
X704683Y168312D01*
X704566Y168411D01*
X704452Y168513D01*
X704340Y168618D01*
X704231Y168725D01*
X704599Y177173D02*
X704601Y177280D01*
X704607Y177387D01*
X704617Y177494D01*
X704630Y177601D01*
X704648Y177707D01*
X704669Y177812D01*
X704695Y177916D01*
X704724Y178019D01*
X704756Y178122D01*
X704793Y178223D01*
X704833Y178322D01*
X704877Y178420D01*
X704924Y178516D01*
X704975Y178611D01*
X705029Y178704D01*
X705087Y178794D01*
X705148Y178883D01*
X705212Y178969D01*
X705279Y179052D01*
X705349Y179134D01*
X705422Y179212D01*
X705498Y179288D01*
X705576Y179361D01*
X705658Y179431D01*
X705741Y179498D01*
X705827Y179562D01*
X705916Y179623D01*
X706006Y179681D01*
X706099Y179735D01*
X706194Y179786D01*
X706290Y179833D01*
X706388Y179877D01*
X706487Y179917D01*
X706588Y179954D01*
X706691Y179986D01*
X706794Y180015D01*
X706898Y180041D01*
X707003Y180062D01*
X707109Y180080D01*
X707216Y180093D01*
X707323Y180103D01*
X707430Y180109D01*
X707537Y180111D01*
X707685Y180109D01*
X707832Y180103D01*
X707980Y180093D01*
X708127Y180079D01*
X708273Y180062D01*
X708419Y180040D01*
X708565Y180014D01*
X708710Y179985D01*
X708854Y179951D01*
X708996Y179914D01*
X709138Y179873D01*
X709279Y179828D01*
X709419Y179780D01*
X709557Y179727D01*
X709693Y179671D01*
X709829Y179612D01*
X709962Y179549D01*
X710094Y179482D01*
X710224Y179411D01*
X710352Y179338D01*
X710478Y179261D01*
X710601Y179180D01*
X710723Y179096D01*
X710842Y179009D01*
X706067Y174602D02*
X705976Y174658D01*
X705887Y174717D01*
X705800Y174779D01*
X705716Y174845D01*
X705634Y174913D01*
X705554Y174984D01*
X705477Y175058D01*
X705402Y175135D01*
X705331Y175214D01*
X705262Y175296D01*
X705197Y175380D01*
X705134Y175467D01*
X705074Y175556D01*
X705018Y175646D01*
X704965Y175739D01*
X704915Y175834D01*
X704869Y175930D01*
X704826Y176028D01*
X704787Y176127D01*
X704752Y176228D01*
X704720Y176330D01*
X704691Y176433D01*
X704667Y176537D01*
X704646Y176642D01*
X704629Y176747D01*
X704615Y176853D01*
X704606Y176960D01*
X704600Y177066D01*
X704598Y177173D01*
X710107Y172398D02*
X710198Y172342D01*
X710287Y172283D01*
X710374Y172221D01*
X710458Y172155D01*
X710541Y172087D01*
X710620Y172016D01*
X710697Y171942D01*
X710772Y171865D01*
X710843Y171786D01*
X710912Y171704D01*
X710978Y171620D01*
X711040Y171533D01*
X711100Y171444D01*
X711156Y171354D01*
X711209Y171261D01*
X711259Y171166D01*
X711305Y171070D01*
X711348Y170972D01*
X711387Y170873D01*
X711422Y170772D01*
X711454Y170670D01*
X711483Y170567D01*
X711507Y170463D01*
X711528Y170358D01*
X711545Y170253D01*
X711559Y170147D01*
X711568Y170040D01*
X711574Y169934D01*
X711576Y169827D01*
X710107Y172398D02*
X706067Y174602D01*
X717979Y180111D02*
X717979Y166889D01*
X717979Y180111D02*
X721652Y180111D01*
X721772Y180109D01*
X721892Y180103D01*
X722012Y180093D01*
X722131Y180080D01*
X722250Y180062D01*
X722369Y180040D01*
X722486Y180015D01*
X722603Y179986D01*
X722718Y179953D01*
X722833Y179916D01*
X722946Y179876D01*
X723058Y179831D01*
X723168Y179784D01*
X723277Y179732D01*
X723383Y179677D01*
X723489Y179619D01*
X723592Y179557D01*
X723693Y179492D01*
X723791Y179424D01*
X723888Y179352D01*
X723982Y179277D01*
X724074Y179200D01*
X724163Y179119D01*
X724249Y179035D01*
X724333Y178949D01*
X724414Y178860D01*
X724491Y178768D01*
X724566Y178674D01*
X724638Y178577D01*
X724706Y178479D01*
X724771Y178378D01*
X724833Y178275D01*
X724891Y178169D01*
X724946Y178063D01*
X724998Y177954D01*
X725045Y177844D01*
X725090Y177732D01*
X725130Y177619D01*
X725167Y177504D01*
X725200Y177389D01*
X725229Y177272D01*
X725254Y177155D01*
X725276Y177036D01*
X725294Y176917D01*
X725307Y176798D01*
X725317Y176678D01*
X725323Y176558D01*
X725325Y176438D01*
X725323Y176318D01*
X725317Y176198D01*
X725307Y176078D01*
X725294Y175959D01*
X725276Y175840D01*
X725254Y175721D01*
X725229Y175604D01*
X725200Y175487D01*
X725167Y175372D01*
X725130Y175257D01*
X725090Y175144D01*
X725045Y175032D01*
X724998Y174922D01*
X724946Y174813D01*
X724891Y174707D01*
X724833Y174602D01*
X724771Y174498D01*
X724706Y174397D01*
X724638Y174299D01*
X724566Y174202D01*
X724491Y174108D01*
X724414Y174016D01*
X724333Y173927D01*
X724249Y173841D01*
X724163Y173757D01*
X724074Y173676D01*
X723982Y173599D01*
X723888Y173524D01*
X723791Y173452D01*
X723693Y173384D01*
X723592Y173319D01*
X723489Y173257D01*
X723383Y173199D01*
X723277Y173144D01*
X723168Y173092D01*
X723058Y173045D01*
X722946Y173000D01*
X722833Y172960D01*
X722718Y172923D01*
X722603Y172890D01*
X722486Y172861D01*
X722369Y172836D01*
X722250Y172814D01*
X722131Y172796D01*
X722012Y172783D01*
X721892Y172773D01*
X721772Y172767D01*
X721652Y172765D01*
X717979Y172765D01*
X731264Y166889D02*
X731264Y180111D01*
X731264Y166889D02*
X737141Y166889D01*
X743454Y166889D02*
X743454Y180111D01*
X741985Y166889D02*
X744923Y166889D01*
X744923Y180111D02*
X741985Y180111D01*
X753354Y180111D02*
X753354Y166889D01*
X749681Y180111D02*
X757026Y180111D01*
X765054Y180111D02*
X765054Y166889D01*
X761381Y180111D02*
X768726Y180111D01*
X774464Y166889D02*
X780340Y166889D01*
X774464Y166889D02*
X774464Y180111D01*
X780340Y180111D01*
X778871Y174235D02*
X774464Y174235D01*
X786239Y180111D02*
X786239Y166889D01*
X786239Y180111D02*
X789911Y180111D01*
X790031Y180109D01*
X790151Y180103D01*
X790271Y180093D01*
X790390Y180080D01*
X790509Y180062D01*
X790628Y180040D01*
X790745Y180015D01*
X790862Y179986D01*
X790977Y179953D01*
X791092Y179916D01*
X791205Y179876D01*
X791317Y179831D01*
X791427Y179784D01*
X791536Y179732D01*
X791642Y179677D01*
X791748Y179619D01*
X791851Y179557D01*
X791952Y179492D01*
X792050Y179424D01*
X792147Y179352D01*
X792241Y179277D01*
X792333Y179200D01*
X792422Y179119D01*
X792508Y179035D01*
X792592Y178949D01*
X792673Y178860D01*
X792750Y178768D01*
X792825Y178674D01*
X792897Y178577D01*
X792965Y178479D01*
X793030Y178378D01*
X793092Y178275D01*
X793150Y178169D01*
X793205Y178063D01*
X793257Y177954D01*
X793304Y177844D01*
X793349Y177732D01*
X793389Y177619D01*
X793426Y177504D01*
X793459Y177389D01*
X793488Y177272D01*
X793513Y177155D01*
X793535Y177036D01*
X793553Y176917D01*
X793566Y176798D01*
X793576Y176678D01*
X793582Y176558D01*
X793584Y176438D01*
X793582Y176318D01*
X793576Y176198D01*
X793566Y176078D01*
X793553Y175959D01*
X793535Y175840D01*
X793513Y175721D01*
X793488Y175604D01*
X793459Y175487D01*
X793426Y175372D01*
X793389Y175257D01*
X793349Y175144D01*
X793304Y175032D01*
X793257Y174922D01*
X793205Y174813D01*
X793150Y174707D01*
X793092Y174602D01*
X793030Y174498D01*
X792965Y174397D01*
X792897Y174299D01*
X792825Y174202D01*
X792750Y174108D01*
X792673Y174016D01*
X792592Y173927D01*
X792508Y173841D01*
X792422Y173757D01*
X792333Y173676D01*
X792241Y173599D01*
X792147Y173524D01*
X792050Y173452D01*
X791952Y173384D01*
X791851Y173319D01*
X791748Y173257D01*
X791642Y173199D01*
X791536Y173144D01*
X791427Y173092D01*
X791317Y173045D01*
X791205Y173000D01*
X791092Y172960D01*
X790977Y172923D01*
X790862Y172890D01*
X790745Y172861D01*
X790628Y172836D01*
X790509Y172814D01*
X790390Y172796D01*
X790271Y172783D01*
X790151Y172773D01*
X790031Y172767D01*
X789911Y172765D01*
X786239Y172765D01*
X790646Y172765D02*
X793584Y166889D01*
X806215Y166889D02*
X812092Y175704D01*
X806215Y175704D02*
X812092Y166889D01*
X817631Y169827D02*
X820569Y180111D01*
X817631Y169827D02*
X824976Y169827D01*
X822773Y172765D02*
X822773Y166889D01*
X838496Y172031D02*
X847311Y172031D01*
X864871Y180112D02*
X864984Y180110D01*
X865097Y180104D01*
X865209Y180095D01*
X865321Y180081D01*
X865433Y180064D01*
X865544Y180043D01*
X865654Y180018D01*
X865763Y179989D01*
X865871Y179957D01*
X865978Y179921D01*
X866084Y179882D01*
X866188Y179838D01*
X866291Y179792D01*
X866392Y179741D01*
X866491Y179688D01*
X866589Y179631D01*
X866684Y179570D01*
X866778Y179507D01*
X866869Y179440D01*
X866957Y179371D01*
X867044Y179298D01*
X867128Y179222D01*
X867209Y179144D01*
X867287Y179063D01*
X867363Y178979D01*
X867436Y178892D01*
X867505Y178804D01*
X867572Y178713D01*
X867635Y178619D01*
X867696Y178524D01*
X867753Y178426D01*
X867806Y178327D01*
X867857Y178226D01*
X867903Y178123D01*
X867947Y178019D01*
X867986Y177913D01*
X868022Y177806D01*
X868054Y177698D01*
X868083Y177589D01*
X868108Y177479D01*
X868129Y177368D01*
X868146Y177256D01*
X868160Y177144D01*
X868169Y177032D01*
X868175Y176919D01*
X868177Y176806D01*
X864871Y180111D02*
X864744Y180109D01*
X864617Y180103D01*
X864490Y180094D01*
X864364Y180081D01*
X864238Y180063D01*
X864112Y180043D01*
X863987Y180018D01*
X863863Y179990D01*
X863740Y179958D01*
X863618Y179922D01*
X863497Y179883D01*
X863378Y179840D01*
X863259Y179793D01*
X863142Y179743D01*
X863027Y179690D01*
X862913Y179633D01*
X862801Y179573D01*
X862691Y179509D01*
X862583Y179442D01*
X862477Y179372D01*
X862373Y179299D01*
X862271Y179222D01*
X862172Y179143D01*
X862075Y179061D01*
X861981Y178976D01*
X861889Y178888D01*
X861799Y178797D01*
X861713Y178704D01*
X861629Y178608D01*
X861549Y178510D01*
X861471Y178409D01*
X861396Y178306D01*
X861325Y178201D01*
X861256Y178094D01*
X861191Y177985D01*
X861129Y177873D01*
X861071Y177761D01*
X861016Y177646D01*
X860964Y177530D01*
X860916Y177412D01*
X860872Y177293D01*
X860831Y177172D01*
X867075Y174235D02*
X867157Y174315D01*
X867236Y174399D01*
X867313Y174484D01*
X867387Y174573D01*
X867458Y174663D01*
X867526Y174756D01*
X867590Y174851D01*
X867652Y174948D01*
X867711Y175047D01*
X867766Y175148D01*
X867818Y175250D01*
X867867Y175355D01*
X867912Y175460D01*
X867954Y175567D01*
X867992Y175676D01*
X868027Y175785D01*
X868058Y175896D01*
X868086Y176008D01*
X868110Y176120D01*
X868131Y176233D01*
X868147Y176347D01*
X868160Y176461D01*
X868170Y176576D01*
X868175Y176691D01*
X868177Y176806D01*
X867074Y174235D02*
X860831Y166889D01*
X868176Y166889D01*
X874331Y173500D02*
X874334Y173760D01*
X874343Y174020D01*
X874359Y174280D01*
X874381Y174539D01*
X874409Y174798D01*
X874443Y175055D01*
X874483Y175312D01*
X874529Y175568D01*
X874582Y175823D01*
X874640Y176077D01*
X874705Y176329D01*
X874775Y176579D01*
X874852Y176828D01*
X874934Y177074D01*
X875022Y177319D01*
X875116Y177562D01*
X875216Y177802D01*
X875322Y178039D01*
X875433Y178275D01*
X875432Y178274D02*
X875467Y178370D01*
X875505Y178465D01*
X875547Y178558D01*
X875593Y178650D01*
X875642Y178739D01*
X875694Y178827D01*
X875750Y178913D01*
X875808Y178997D01*
X875870Y179078D01*
X875935Y179157D01*
X876003Y179233D01*
X876073Y179307D01*
X876147Y179378D01*
X876223Y179447D01*
X876301Y179512D01*
X876382Y179575D01*
X876465Y179634D01*
X876550Y179690D01*
X876638Y179743D01*
X876727Y179793D01*
X876818Y179839D01*
X876911Y179882D01*
X877005Y179921D01*
X877101Y179957D01*
X877198Y179989D01*
X877296Y180017D01*
X877395Y180042D01*
X877495Y180063D01*
X877596Y180080D01*
X877697Y180094D01*
X877799Y180103D01*
X877901Y180109D01*
X878003Y180111D01*
X878105Y180109D01*
X878207Y180103D01*
X878309Y180094D01*
X878410Y180080D01*
X878511Y180063D01*
X878611Y180042D01*
X878710Y180017D01*
X878808Y179989D01*
X878905Y179957D01*
X879001Y179921D01*
X879095Y179882D01*
X879188Y179839D01*
X879279Y179793D01*
X879368Y179743D01*
X879456Y179690D01*
X879541Y179634D01*
X879624Y179575D01*
X879705Y179512D01*
X879783Y179447D01*
X879859Y179378D01*
X879933Y179307D01*
X880003Y179233D01*
X880071Y179157D01*
X880136Y179078D01*
X880198Y178997D01*
X880256Y178913D01*
X880312Y178827D01*
X880364Y178739D01*
X880413Y178650D01*
X880459Y178558D01*
X880501Y178465D01*
X880539Y178371D01*
X880574Y178275D01*
X880685Y178039D01*
X880791Y177802D01*
X880891Y177562D01*
X880985Y177319D01*
X881073Y177074D01*
X881155Y176828D01*
X881232Y176579D01*
X881302Y176329D01*
X881367Y176077D01*
X881425Y175823D01*
X881478Y175568D01*
X881524Y175312D01*
X881564Y175055D01*
X881598Y174798D01*
X881626Y174539D01*
X881648Y174280D01*
X881664Y174020D01*
X881673Y173760D01*
X881676Y173500D01*
X874331Y173500D02*
X874334Y173240D01*
X874343Y172980D01*
X874359Y172720D01*
X874381Y172461D01*
X874409Y172202D01*
X874443Y171945D01*
X874483Y171688D01*
X874529Y171432D01*
X874582Y171177D01*
X874640Y170923D01*
X874705Y170671D01*
X874775Y170421D01*
X874852Y170172D01*
X874934Y169926D01*
X875022Y169681D01*
X875116Y169439D01*
X875216Y169198D01*
X875322Y168961D01*
X875433Y168725D01*
X875432Y168725D02*
X875467Y168629D01*
X875505Y168535D01*
X875547Y168442D01*
X875593Y168350D01*
X875642Y168261D01*
X875694Y168173D01*
X875750Y168087D01*
X875808Y168003D01*
X875870Y167922D01*
X875935Y167843D01*
X876003Y167767D01*
X876073Y167693D01*
X876147Y167622D01*
X876223Y167553D01*
X876301Y167488D01*
X876382Y167425D01*
X876465Y167366D01*
X876550Y167310D01*
X876638Y167257D01*
X876727Y167207D01*
X876818Y167161D01*
X876911Y167118D01*
X877005Y167079D01*
X877101Y167043D01*
X877198Y167011D01*
X877296Y166983D01*
X877395Y166958D01*
X877495Y166937D01*
X877596Y166920D01*
X877697Y166906D01*
X877799Y166897D01*
X877901Y166891D01*
X878003Y166889D01*
X880574Y168725D02*
X880685Y168961D01*
X880791Y169198D01*
X880891Y169439D01*
X880985Y169681D01*
X881073Y169926D01*
X881155Y170172D01*
X881232Y170421D01*
X881302Y170671D01*
X881367Y170923D01*
X881425Y171177D01*
X881478Y171432D01*
X881524Y171688D01*
X881564Y171945D01*
X881598Y172202D01*
X881626Y172461D01*
X881648Y172720D01*
X881664Y172980D01*
X881673Y173240D01*
X881676Y173500D01*
X880574Y168725D02*
X880539Y168629D01*
X880501Y168535D01*
X880459Y168442D01*
X880413Y168350D01*
X880364Y168261D01*
X880312Y168173D01*
X880256Y168087D01*
X880198Y168003D01*
X880136Y167922D01*
X880071Y167843D01*
X880003Y167767D01*
X879933Y167693D01*
X879859Y167622D01*
X879783Y167553D01*
X879705Y167488D01*
X879624Y167425D01*
X879541Y167366D01*
X879456Y167310D01*
X879368Y167257D01*
X879279Y167207D01*
X879188Y167161D01*
X879095Y167118D01*
X879001Y167079D01*
X878905Y167043D01*
X878808Y167011D01*
X878710Y166983D01*
X878611Y166958D01*
X878511Y166937D01*
X878410Y166920D01*
X878309Y166906D01*
X878207Y166897D01*
X878105Y166891D01*
X878003Y166889D01*
X875065Y169827D02*
X880942Y177173D01*
X887831Y173500D02*
X887834Y173760D01*
X887843Y174020D01*
X887859Y174280D01*
X887881Y174539D01*
X887909Y174798D01*
X887943Y175055D01*
X887983Y175312D01*
X888029Y175568D01*
X888082Y175823D01*
X888140Y176077D01*
X888205Y176329D01*
X888275Y176579D01*
X888352Y176828D01*
X888434Y177074D01*
X888522Y177319D01*
X888616Y177562D01*
X888716Y177802D01*
X888822Y178039D01*
X888933Y178275D01*
X888932Y178274D02*
X888967Y178370D01*
X889005Y178465D01*
X889047Y178558D01*
X889093Y178650D01*
X889142Y178739D01*
X889194Y178827D01*
X889250Y178913D01*
X889308Y178997D01*
X889370Y179078D01*
X889435Y179157D01*
X889503Y179233D01*
X889573Y179307D01*
X889647Y179378D01*
X889723Y179447D01*
X889801Y179512D01*
X889882Y179575D01*
X889965Y179634D01*
X890050Y179690D01*
X890138Y179743D01*
X890227Y179793D01*
X890318Y179839D01*
X890411Y179882D01*
X890505Y179921D01*
X890601Y179957D01*
X890698Y179989D01*
X890796Y180017D01*
X890895Y180042D01*
X890995Y180063D01*
X891096Y180080D01*
X891197Y180094D01*
X891299Y180103D01*
X891401Y180109D01*
X891503Y180111D01*
X891605Y180109D01*
X891707Y180103D01*
X891809Y180094D01*
X891910Y180080D01*
X892011Y180063D01*
X892111Y180042D01*
X892210Y180017D01*
X892308Y179989D01*
X892405Y179957D01*
X892501Y179921D01*
X892595Y179882D01*
X892688Y179839D01*
X892779Y179793D01*
X892868Y179743D01*
X892956Y179690D01*
X893041Y179634D01*
X893124Y179575D01*
X893205Y179512D01*
X893283Y179447D01*
X893359Y179378D01*
X893433Y179307D01*
X893503Y179233D01*
X893571Y179157D01*
X893636Y179078D01*
X893698Y178997D01*
X893756Y178913D01*
X893812Y178827D01*
X893864Y178739D01*
X893913Y178650D01*
X893959Y178558D01*
X894001Y178465D01*
X894039Y178371D01*
X894074Y178275D01*
X894185Y178039D01*
X894291Y177802D01*
X894391Y177562D01*
X894485Y177319D01*
X894573Y177074D01*
X894655Y176828D01*
X894732Y176579D01*
X894802Y176329D01*
X894867Y176077D01*
X894925Y175823D01*
X894978Y175568D01*
X895024Y175312D01*
X895064Y175055D01*
X895098Y174798D01*
X895126Y174539D01*
X895148Y174280D01*
X895164Y174020D01*
X895173Y173760D01*
X895176Y173500D01*
X887831Y173500D02*
X887834Y173240D01*
X887843Y172980D01*
X887859Y172720D01*
X887881Y172461D01*
X887909Y172202D01*
X887943Y171945D01*
X887983Y171688D01*
X888029Y171432D01*
X888082Y171177D01*
X888140Y170923D01*
X888205Y170671D01*
X888275Y170421D01*
X888352Y170172D01*
X888434Y169926D01*
X888522Y169681D01*
X888616Y169439D01*
X888716Y169198D01*
X888822Y168961D01*
X888933Y168725D01*
X888932Y168725D02*
X888967Y168629D01*
X889005Y168535D01*
X889047Y168442D01*
X889093Y168350D01*
X889142Y168261D01*
X889194Y168173D01*
X889250Y168087D01*
X889308Y168003D01*
X889370Y167922D01*
X889435Y167843D01*
X889503Y167767D01*
X889573Y167693D01*
X889647Y167622D01*
X889723Y167553D01*
X889801Y167488D01*
X889882Y167425D01*
X889965Y167366D01*
X890050Y167310D01*
X890138Y167257D01*
X890227Y167207D01*
X890318Y167161D01*
X890411Y167118D01*
X890505Y167079D01*
X890601Y167043D01*
X890698Y167011D01*
X890796Y166983D01*
X890895Y166958D01*
X890995Y166937D01*
X891096Y166920D01*
X891197Y166906D01*
X891299Y166897D01*
X891401Y166891D01*
X891503Y166889D01*
X894074Y168725D02*
X894185Y168961D01*
X894291Y169198D01*
X894391Y169439D01*
X894485Y169681D01*
X894573Y169926D01*
X894655Y170172D01*
X894732Y170421D01*
X894802Y170671D01*
X894867Y170923D01*
X894925Y171177D01*
X894978Y171432D01*
X895024Y171688D01*
X895064Y171945D01*
X895098Y172202D01*
X895126Y172461D01*
X895148Y172720D01*
X895164Y172980D01*
X895173Y173240D01*
X895176Y173500D01*
X894074Y168725D02*
X894039Y168629D01*
X894001Y168535D01*
X893959Y168442D01*
X893913Y168350D01*
X893864Y168261D01*
X893812Y168173D01*
X893756Y168087D01*
X893698Y168003D01*
X893636Y167922D01*
X893571Y167843D01*
X893503Y167767D01*
X893433Y167693D01*
X893359Y167622D01*
X893283Y167553D01*
X893205Y167488D01*
X893124Y167425D01*
X893041Y167366D01*
X892956Y167310D01*
X892868Y167257D01*
X892779Y167207D01*
X892688Y167161D01*
X892595Y167118D01*
X892501Y167079D01*
X892405Y167043D01*
X892308Y167011D01*
X892210Y166983D01*
X892111Y166958D01*
X892011Y166937D01*
X891910Y166920D01*
X891809Y166906D01*
X891707Y166897D01*
X891605Y166891D01*
X891503Y166889D01*
X888565Y169827D02*
X894442Y177173D01*
X901946Y180111D02*
X901946Y166889D01*
X906353Y172765D02*
X901946Y180111D01*
X906353Y172765D02*
X910761Y180111D01*
X910761Y166889D01*
X917981Y166889D02*
X917981Y180111D01*
X917981Y174235D02*
X925326Y174235D01*
X925326Y180111D02*
X925326Y166889D01*
X931315Y175704D02*
X937192Y175704D01*
X931315Y166889D01*
X937192Y166889D01*
X679235Y157306D02*
X679233Y157419D01*
X679227Y157532D01*
X679218Y157644D01*
X679204Y157756D01*
X679187Y157868D01*
X679166Y157979D01*
X679141Y158089D01*
X679112Y158198D01*
X679080Y158306D01*
X679044Y158413D01*
X679005Y158519D01*
X678961Y158623D01*
X678915Y158726D01*
X678864Y158827D01*
X678811Y158926D01*
X678754Y159024D01*
X678693Y159119D01*
X678630Y159213D01*
X678563Y159304D01*
X678494Y159392D01*
X678421Y159479D01*
X678345Y159563D01*
X678267Y159644D01*
X678186Y159722D01*
X678102Y159798D01*
X678015Y159871D01*
X677927Y159940D01*
X677836Y160007D01*
X677742Y160070D01*
X677647Y160131D01*
X677549Y160188D01*
X677450Y160241D01*
X677349Y160292D01*
X677246Y160338D01*
X677142Y160382D01*
X677036Y160421D01*
X676929Y160457D01*
X676821Y160489D01*
X676712Y160518D01*
X676602Y160543D01*
X676491Y160564D01*
X676379Y160581D01*
X676267Y160595D01*
X676155Y160604D01*
X676042Y160610D01*
X675929Y160612D01*
X675929Y160611D02*
X675802Y160609D01*
X675675Y160603D01*
X675548Y160594D01*
X675422Y160581D01*
X675296Y160563D01*
X675170Y160543D01*
X675045Y160518D01*
X674921Y160490D01*
X674798Y160458D01*
X674676Y160422D01*
X674555Y160383D01*
X674436Y160340D01*
X674317Y160293D01*
X674200Y160243D01*
X674085Y160190D01*
X673971Y160133D01*
X673859Y160073D01*
X673749Y160009D01*
X673641Y159942D01*
X673535Y159872D01*
X673431Y159799D01*
X673329Y159722D01*
X673230Y159643D01*
X673133Y159561D01*
X673039Y159476D01*
X672947Y159388D01*
X672857Y159297D01*
X672771Y159204D01*
X672687Y159108D01*
X672607Y159010D01*
X672529Y158909D01*
X672454Y158806D01*
X672383Y158701D01*
X672314Y158594D01*
X672249Y158485D01*
X672187Y158373D01*
X672129Y158261D01*
X672074Y158146D01*
X672022Y158030D01*
X671974Y157912D01*
X671930Y157793D01*
X671889Y157672D01*
X678133Y154735D02*
X678215Y154815D01*
X678294Y154899D01*
X678371Y154984D01*
X678445Y155073D01*
X678516Y155163D01*
X678584Y155256D01*
X678648Y155351D01*
X678710Y155448D01*
X678769Y155547D01*
X678824Y155648D01*
X678876Y155750D01*
X678925Y155855D01*
X678970Y155960D01*
X679012Y156067D01*
X679050Y156176D01*
X679085Y156285D01*
X679116Y156396D01*
X679144Y156508D01*
X679168Y156620D01*
X679189Y156733D01*
X679205Y156847D01*
X679218Y156961D01*
X679228Y157076D01*
X679233Y157191D01*
X679235Y157306D01*
X678133Y154735D02*
X671889Y147389D01*
X679235Y147389D01*
X685389Y154000D02*
X685392Y154260D01*
X685401Y154520D01*
X685417Y154780D01*
X685439Y155039D01*
X685467Y155298D01*
X685501Y155555D01*
X685541Y155812D01*
X685587Y156068D01*
X685640Y156323D01*
X685698Y156577D01*
X685763Y156829D01*
X685833Y157079D01*
X685910Y157328D01*
X685992Y157574D01*
X686080Y157819D01*
X686174Y158062D01*
X686274Y158302D01*
X686380Y158539D01*
X686491Y158775D01*
X686491Y158774D02*
X686526Y158870D01*
X686564Y158965D01*
X686606Y159058D01*
X686652Y159150D01*
X686701Y159239D01*
X686753Y159327D01*
X686809Y159413D01*
X686867Y159497D01*
X686929Y159578D01*
X686994Y159657D01*
X687062Y159733D01*
X687132Y159807D01*
X687206Y159878D01*
X687282Y159947D01*
X687360Y160012D01*
X687441Y160075D01*
X687524Y160134D01*
X687609Y160190D01*
X687697Y160243D01*
X687786Y160293D01*
X687877Y160339D01*
X687970Y160382D01*
X688064Y160421D01*
X688160Y160457D01*
X688257Y160489D01*
X688355Y160517D01*
X688454Y160542D01*
X688554Y160563D01*
X688655Y160580D01*
X688756Y160594D01*
X688858Y160603D01*
X688960Y160609D01*
X689062Y160611D01*
X689164Y160609D01*
X689266Y160603D01*
X689368Y160594D01*
X689469Y160580D01*
X689570Y160563D01*
X689670Y160542D01*
X689769Y160517D01*
X689867Y160489D01*
X689964Y160457D01*
X690060Y160421D01*
X690154Y160382D01*
X690247Y160339D01*
X690338Y160293D01*
X690427Y160243D01*
X690515Y160190D01*
X690600Y160134D01*
X690683Y160075D01*
X690764Y160012D01*
X690842Y159947D01*
X690918Y159878D01*
X690992Y159807D01*
X691062Y159733D01*
X691130Y159657D01*
X691195Y159578D01*
X691257Y159497D01*
X691315Y159413D01*
X691371Y159327D01*
X691423Y159239D01*
X691472Y159150D01*
X691518Y159058D01*
X691560Y158965D01*
X691598Y158871D01*
X691633Y158775D01*
X691744Y158539D01*
X691850Y158302D01*
X691950Y158062D01*
X692044Y157819D01*
X692132Y157574D01*
X692214Y157328D01*
X692291Y157079D01*
X692361Y156829D01*
X692426Y156577D01*
X692484Y156323D01*
X692537Y156068D01*
X692583Y155812D01*
X692623Y155555D01*
X692657Y155298D01*
X692685Y155039D01*
X692707Y154780D01*
X692723Y154520D01*
X692732Y154260D01*
X692735Y154000D01*
X685389Y154000D02*
X685392Y153740D01*
X685401Y153480D01*
X685417Y153220D01*
X685439Y152961D01*
X685467Y152702D01*
X685501Y152445D01*
X685541Y152188D01*
X685587Y151932D01*
X685640Y151677D01*
X685698Y151423D01*
X685763Y151171D01*
X685833Y150921D01*
X685910Y150672D01*
X685992Y150426D01*
X686080Y150181D01*
X686174Y149939D01*
X686274Y149698D01*
X686380Y149461D01*
X686491Y149225D01*
X686526Y149129D01*
X686564Y149035D01*
X686606Y148942D01*
X686652Y148850D01*
X686701Y148761D01*
X686753Y148673D01*
X686809Y148587D01*
X686867Y148503D01*
X686929Y148422D01*
X686994Y148343D01*
X687062Y148267D01*
X687132Y148193D01*
X687206Y148122D01*
X687282Y148053D01*
X687360Y147988D01*
X687441Y147925D01*
X687524Y147866D01*
X687609Y147810D01*
X687697Y147757D01*
X687786Y147707D01*
X687877Y147661D01*
X687970Y147618D01*
X688064Y147579D01*
X688160Y147543D01*
X688257Y147511D01*
X688355Y147483D01*
X688454Y147458D01*
X688554Y147437D01*
X688655Y147420D01*
X688756Y147406D01*
X688858Y147397D01*
X688960Y147391D01*
X689062Y147389D01*
X691632Y149225D02*
X691743Y149461D01*
X691849Y149698D01*
X691949Y149939D01*
X692043Y150181D01*
X692131Y150426D01*
X692213Y150672D01*
X692290Y150921D01*
X692360Y151171D01*
X692425Y151423D01*
X692483Y151677D01*
X692536Y151932D01*
X692582Y152188D01*
X692622Y152445D01*
X692656Y152702D01*
X692684Y152961D01*
X692706Y153220D01*
X692722Y153480D01*
X692731Y153740D01*
X692734Y154000D01*
X691633Y149225D02*
X691598Y149129D01*
X691560Y149035D01*
X691518Y148942D01*
X691472Y148850D01*
X691423Y148761D01*
X691371Y148673D01*
X691315Y148587D01*
X691257Y148503D01*
X691195Y148422D01*
X691130Y148343D01*
X691062Y148267D01*
X690992Y148193D01*
X690918Y148122D01*
X690842Y148053D01*
X690764Y147988D01*
X690683Y147925D01*
X690600Y147866D01*
X690515Y147810D01*
X690427Y147757D01*
X690338Y147707D01*
X690247Y147661D01*
X690154Y147618D01*
X690060Y147579D01*
X689964Y147543D01*
X689867Y147511D01*
X689769Y147483D01*
X689670Y147458D01*
X689570Y147437D01*
X689469Y147420D01*
X689368Y147406D01*
X689266Y147397D01*
X689164Y147391D01*
X689062Y147389D01*
X686124Y150327D02*
X692000Y157673D01*
X698889Y157673D02*
X702562Y160611D01*
X702562Y147389D01*
X706234Y147389D02*
X698889Y147389D01*
X712389Y151062D02*
X712391Y151182D01*
X712397Y151302D01*
X712407Y151422D01*
X712420Y151541D01*
X712438Y151660D01*
X712460Y151779D01*
X712485Y151896D01*
X712514Y152013D01*
X712547Y152128D01*
X712584Y152243D01*
X712624Y152356D01*
X712669Y152468D01*
X712716Y152578D01*
X712768Y152687D01*
X712823Y152793D01*
X712881Y152899D01*
X712943Y153002D01*
X713008Y153103D01*
X713076Y153201D01*
X713148Y153298D01*
X713223Y153392D01*
X713300Y153484D01*
X713381Y153573D01*
X713465Y153659D01*
X713551Y153743D01*
X713640Y153824D01*
X713732Y153901D01*
X713826Y153976D01*
X713923Y154048D01*
X714021Y154116D01*
X714122Y154181D01*
X714226Y154243D01*
X714331Y154301D01*
X714437Y154356D01*
X714546Y154408D01*
X714656Y154455D01*
X714768Y154500D01*
X714881Y154540D01*
X714996Y154577D01*
X715111Y154610D01*
X715228Y154639D01*
X715345Y154664D01*
X715464Y154686D01*
X715583Y154704D01*
X715702Y154717D01*
X715822Y154727D01*
X715942Y154733D01*
X716062Y154735D01*
X716182Y154733D01*
X716302Y154727D01*
X716422Y154717D01*
X716541Y154704D01*
X716660Y154686D01*
X716779Y154664D01*
X716896Y154639D01*
X717013Y154610D01*
X717128Y154577D01*
X717243Y154540D01*
X717356Y154500D01*
X717468Y154455D01*
X717578Y154408D01*
X717687Y154356D01*
X717793Y154301D01*
X717899Y154243D01*
X718002Y154181D01*
X718103Y154116D01*
X718201Y154048D01*
X718298Y153976D01*
X718392Y153901D01*
X718484Y153824D01*
X718573Y153743D01*
X718659Y153659D01*
X718743Y153573D01*
X718824Y153484D01*
X718901Y153392D01*
X718976Y153298D01*
X719048Y153201D01*
X719116Y153103D01*
X719181Y153002D01*
X719243Y152899D01*
X719301Y152793D01*
X719356Y152687D01*
X719408Y152578D01*
X719455Y152468D01*
X719500Y152356D01*
X719540Y152243D01*
X719577Y152128D01*
X719610Y152013D01*
X719639Y151896D01*
X719664Y151779D01*
X719686Y151660D01*
X719704Y151541D01*
X719717Y151422D01*
X719727Y151302D01*
X719733Y151182D01*
X719735Y151062D01*
X719733Y150942D01*
X719727Y150822D01*
X719717Y150702D01*
X719704Y150583D01*
X719686Y150464D01*
X719664Y150345D01*
X719639Y150228D01*
X719610Y150111D01*
X719577Y149996D01*
X719540Y149881D01*
X719500Y149768D01*
X719455Y149656D01*
X719408Y149546D01*
X719356Y149437D01*
X719301Y149331D01*
X719243Y149226D01*
X719181Y149122D01*
X719116Y149021D01*
X719048Y148923D01*
X718976Y148826D01*
X718901Y148732D01*
X718824Y148640D01*
X718743Y148551D01*
X718659Y148465D01*
X718573Y148381D01*
X718484Y148300D01*
X718392Y148223D01*
X718298Y148148D01*
X718201Y148076D01*
X718103Y148008D01*
X718002Y147943D01*
X717899Y147881D01*
X717793Y147823D01*
X717687Y147768D01*
X717578Y147716D01*
X717468Y147669D01*
X717356Y147624D01*
X717243Y147584D01*
X717128Y147547D01*
X717013Y147514D01*
X716896Y147485D01*
X716779Y147460D01*
X716660Y147438D01*
X716541Y147420D01*
X716422Y147407D01*
X716302Y147397D01*
X716182Y147391D01*
X716062Y147389D01*
X715942Y147391D01*
X715822Y147397D01*
X715702Y147407D01*
X715583Y147420D01*
X715464Y147438D01*
X715345Y147460D01*
X715228Y147485D01*
X715111Y147514D01*
X714996Y147547D01*
X714881Y147584D01*
X714768Y147624D01*
X714656Y147669D01*
X714546Y147716D01*
X714437Y147768D01*
X714331Y147823D01*
X714226Y147881D01*
X714122Y147943D01*
X714021Y148008D01*
X713923Y148076D01*
X713826Y148148D01*
X713732Y148223D01*
X713640Y148300D01*
X713551Y148381D01*
X713465Y148465D01*
X713381Y148551D01*
X713300Y148640D01*
X713223Y148732D01*
X713148Y148826D01*
X713076Y148923D01*
X713008Y149021D01*
X712943Y149122D01*
X712881Y149226D01*
X712823Y149331D01*
X712768Y149437D01*
X712716Y149546D01*
X712669Y149656D01*
X712624Y149768D01*
X712584Y149881D01*
X712547Y149996D01*
X712514Y150111D01*
X712485Y150228D01*
X712460Y150345D01*
X712438Y150464D01*
X712420Y150583D01*
X712407Y150702D01*
X712397Y150822D01*
X712391Y150942D01*
X712389Y151062D01*
X713124Y157673D02*
X713126Y157780D01*
X713132Y157887D01*
X713142Y157994D01*
X713155Y158101D01*
X713173Y158207D01*
X713194Y158312D01*
X713220Y158416D01*
X713249Y158519D01*
X713281Y158622D01*
X713318Y158723D01*
X713358Y158822D01*
X713402Y158920D01*
X713449Y159016D01*
X713500Y159111D01*
X713554Y159204D01*
X713612Y159294D01*
X713673Y159383D01*
X713737Y159469D01*
X713804Y159552D01*
X713874Y159634D01*
X713947Y159712D01*
X714023Y159788D01*
X714101Y159861D01*
X714183Y159931D01*
X714266Y159998D01*
X714352Y160062D01*
X714441Y160123D01*
X714531Y160181D01*
X714624Y160235D01*
X714719Y160286D01*
X714815Y160333D01*
X714913Y160377D01*
X715012Y160417D01*
X715113Y160454D01*
X715216Y160486D01*
X715319Y160515D01*
X715423Y160541D01*
X715528Y160562D01*
X715634Y160580D01*
X715741Y160593D01*
X715848Y160603D01*
X715955Y160609D01*
X716062Y160611D01*
X716169Y160609D01*
X716276Y160603D01*
X716383Y160593D01*
X716490Y160580D01*
X716596Y160562D01*
X716701Y160541D01*
X716805Y160515D01*
X716908Y160486D01*
X717011Y160454D01*
X717112Y160417D01*
X717211Y160377D01*
X717309Y160333D01*
X717405Y160286D01*
X717500Y160235D01*
X717593Y160181D01*
X717683Y160123D01*
X717772Y160062D01*
X717858Y159998D01*
X717941Y159931D01*
X718023Y159861D01*
X718101Y159788D01*
X718177Y159712D01*
X718250Y159634D01*
X718320Y159552D01*
X718387Y159469D01*
X718451Y159383D01*
X718512Y159294D01*
X718570Y159204D01*
X718624Y159111D01*
X718675Y159016D01*
X718722Y158920D01*
X718766Y158822D01*
X718806Y158723D01*
X718843Y158622D01*
X718875Y158519D01*
X718904Y158416D01*
X718930Y158312D01*
X718951Y158207D01*
X718969Y158101D01*
X718982Y157994D01*
X718992Y157887D01*
X718998Y157780D01*
X719000Y157673D01*
X718998Y157566D01*
X718992Y157459D01*
X718982Y157352D01*
X718969Y157245D01*
X718951Y157139D01*
X718930Y157034D01*
X718904Y156930D01*
X718875Y156827D01*
X718843Y156724D01*
X718806Y156623D01*
X718766Y156524D01*
X718722Y156426D01*
X718675Y156330D01*
X718624Y156235D01*
X718570Y156142D01*
X718512Y156052D01*
X718451Y155963D01*
X718387Y155877D01*
X718320Y155794D01*
X718250Y155712D01*
X718177Y155634D01*
X718101Y155558D01*
X718023Y155485D01*
X717941Y155415D01*
X717858Y155348D01*
X717772Y155284D01*
X717683Y155223D01*
X717593Y155165D01*
X717500Y155111D01*
X717405Y155060D01*
X717309Y155013D01*
X717211Y154969D01*
X717112Y154929D01*
X717011Y154892D01*
X716908Y154860D01*
X716805Y154831D01*
X716701Y154805D01*
X716596Y154784D01*
X716490Y154766D01*
X716383Y154753D01*
X716276Y154743D01*
X716169Y154737D01*
X716062Y154735D01*
X715955Y154737D01*
X715848Y154743D01*
X715741Y154753D01*
X715634Y154766D01*
X715528Y154784D01*
X715423Y154805D01*
X715319Y154831D01*
X715216Y154860D01*
X715113Y154892D01*
X715012Y154929D01*
X714913Y154969D01*
X714815Y155013D01*
X714719Y155060D01*
X714624Y155111D01*
X714531Y155165D01*
X714441Y155223D01*
X714352Y155284D01*
X714266Y155348D01*
X714183Y155415D01*
X714101Y155485D01*
X714023Y155558D01*
X713947Y155634D01*
X713874Y155712D01*
X713804Y155794D01*
X713737Y155877D01*
X713673Y155963D01*
X713612Y156052D01*
X713554Y156142D01*
X713500Y156235D01*
X713449Y156330D01*
X713402Y156426D01*
X713358Y156524D01*
X713318Y156623D01*
X713281Y156724D01*
X713249Y156827D01*
X713220Y156930D01*
X713194Y157034D01*
X713173Y157139D01*
X713155Y157245D01*
X713142Y157352D01*
X713132Y157459D01*
X713126Y157566D01*
X713124Y157673D01*
X733539Y160611D02*
X733539Y151062D01*
X733541Y150942D01*
X733547Y150822D01*
X733557Y150702D01*
X733570Y150583D01*
X733588Y150464D01*
X733610Y150345D01*
X733635Y150228D01*
X733664Y150111D01*
X733697Y149996D01*
X733734Y149881D01*
X733774Y149768D01*
X733819Y149656D01*
X733866Y149546D01*
X733918Y149437D01*
X733973Y149331D01*
X734031Y149226D01*
X734093Y149122D01*
X734158Y149021D01*
X734226Y148923D01*
X734298Y148826D01*
X734373Y148732D01*
X734450Y148640D01*
X734531Y148551D01*
X734615Y148465D01*
X734701Y148381D01*
X734790Y148300D01*
X734882Y148223D01*
X734976Y148148D01*
X735073Y148076D01*
X735171Y148008D01*
X735272Y147943D01*
X735376Y147881D01*
X735481Y147823D01*
X735587Y147768D01*
X735696Y147716D01*
X735806Y147669D01*
X735918Y147624D01*
X736031Y147584D01*
X736146Y147547D01*
X736261Y147514D01*
X736378Y147485D01*
X736495Y147460D01*
X736614Y147438D01*
X736733Y147420D01*
X736852Y147407D01*
X736972Y147397D01*
X737092Y147391D01*
X737212Y147389D01*
X737332Y147391D01*
X737452Y147397D01*
X737572Y147407D01*
X737691Y147420D01*
X737810Y147438D01*
X737929Y147460D01*
X738046Y147485D01*
X738163Y147514D01*
X738278Y147547D01*
X738393Y147584D01*
X738506Y147624D01*
X738618Y147669D01*
X738728Y147716D01*
X738837Y147768D01*
X738943Y147823D01*
X739049Y147881D01*
X739152Y147943D01*
X739253Y148008D01*
X739351Y148076D01*
X739448Y148148D01*
X739542Y148223D01*
X739634Y148300D01*
X739723Y148381D01*
X739809Y148465D01*
X739893Y148551D01*
X739974Y148640D01*
X740051Y148732D01*
X740126Y148826D01*
X740198Y148923D01*
X740266Y149021D01*
X740331Y149122D01*
X740393Y149226D01*
X740451Y149331D01*
X740506Y149437D01*
X740558Y149546D01*
X740605Y149656D01*
X740650Y149768D01*
X740690Y149881D01*
X740727Y149996D01*
X740760Y150111D01*
X740789Y150228D01*
X740814Y150345D01*
X740836Y150464D01*
X740854Y150583D01*
X740867Y150702D01*
X740877Y150822D01*
X740883Y150942D01*
X740885Y151062D01*
X740884Y151062D02*
X740884Y160611D01*
X747085Y160611D02*
X750023Y147389D01*
X752962Y156204D01*
X755900Y147389D01*
X758838Y160611D01*
X768262Y160611D02*
X763854Y147389D01*
X772669Y147389D02*
X768262Y160611D01*
X771567Y150695D02*
X764956Y150695D01*
X780862Y147389D02*
X780862Y160611D01*
X784534Y160611D02*
X777189Y160611D01*
X790272Y147389D02*
X796148Y147389D01*
X790272Y147389D02*
X790272Y160611D01*
X796148Y160611D01*
X794679Y154735D02*
X790272Y154735D01*
X802047Y160611D02*
X802047Y147389D01*
X802047Y160611D02*
X805719Y160611D01*
X805839Y160609D01*
X805959Y160603D01*
X806079Y160593D01*
X806198Y160580D01*
X806317Y160562D01*
X806436Y160540D01*
X806553Y160515D01*
X806670Y160486D01*
X806785Y160453D01*
X806900Y160416D01*
X807013Y160376D01*
X807125Y160331D01*
X807235Y160284D01*
X807344Y160232D01*
X807450Y160177D01*
X807556Y160119D01*
X807659Y160057D01*
X807760Y159992D01*
X807858Y159924D01*
X807955Y159852D01*
X808049Y159777D01*
X808141Y159700D01*
X808230Y159619D01*
X808316Y159535D01*
X808400Y159449D01*
X808481Y159360D01*
X808558Y159268D01*
X808633Y159174D01*
X808705Y159077D01*
X808773Y158979D01*
X808838Y158878D01*
X808900Y158775D01*
X808958Y158669D01*
X809013Y158563D01*
X809065Y158454D01*
X809112Y158344D01*
X809157Y158232D01*
X809197Y158119D01*
X809234Y158004D01*
X809267Y157889D01*
X809296Y157772D01*
X809321Y157655D01*
X809343Y157536D01*
X809361Y157417D01*
X809374Y157298D01*
X809384Y157178D01*
X809390Y157058D01*
X809392Y156938D01*
X809390Y156818D01*
X809384Y156698D01*
X809374Y156578D01*
X809361Y156459D01*
X809343Y156340D01*
X809321Y156221D01*
X809296Y156104D01*
X809267Y155987D01*
X809234Y155872D01*
X809197Y155757D01*
X809157Y155644D01*
X809112Y155532D01*
X809065Y155422D01*
X809013Y155313D01*
X808958Y155207D01*
X808900Y155102D01*
X808838Y154998D01*
X808773Y154897D01*
X808705Y154799D01*
X808633Y154702D01*
X808558Y154608D01*
X808481Y154516D01*
X808400Y154427D01*
X808316Y154341D01*
X808230Y154257D01*
X808141Y154176D01*
X808049Y154099D01*
X807955Y154024D01*
X807858Y153952D01*
X807760Y153884D01*
X807659Y153819D01*
X807556Y153757D01*
X807450Y153699D01*
X807344Y153644D01*
X807235Y153592D01*
X807125Y153545D01*
X807013Y153500D01*
X806900Y153460D01*
X806785Y153423D01*
X806670Y153390D01*
X806553Y153361D01*
X806436Y153336D01*
X806317Y153314D01*
X806198Y153296D01*
X806079Y153283D01*
X805959Y153273D01*
X805839Y153267D01*
X805719Y153265D01*
X802047Y153265D01*
X806454Y153265D02*
X809392Y147389D01*
X815922Y147389D02*
X815922Y160611D01*
X815922Y147389D02*
X821798Y147389D01*
X827139Y151062D02*
X827139Y156938D01*
X827138Y156938D02*
X827140Y157058D01*
X827146Y157178D01*
X827156Y157298D01*
X827169Y157417D01*
X827187Y157536D01*
X827209Y157655D01*
X827234Y157772D01*
X827263Y157889D01*
X827296Y158004D01*
X827333Y158119D01*
X827373Y158232D01*
X827418Y158344D01*
X827465Y158454D01*
X827517Y158563D01*
X827572Y158669D01*
X827630Y158775D01*
X827692Y158878D01*
X827757Y158979D01*
X827825Y159077D01*
X827897Y159174D01*
X827972Y159268D01*
X828049Y159360D01*
X828130Y159449D01*
X828214Y159535D01*
X828300Y159619D01*
X828389Y159700D01*
X828481Y159777D01*
X828575Y159852D01*
X828672Y159924D01*
X828770Y159992D01*
X828871Y160057D01*
X828975Y160119D01*
X829080Y160177D01*
X829186Y160232D01*
X829295Y160284D01*
X829405Y160331D01*
X829517Y160376D01*
X829630Y160416D01*
X829745Y160453D01*
X829860Y160486D01*
X829977Y160515D01*
X830094Y160540D01*
X830213Y160562D01*
X830332Y160580D01*
X830451Y160593D01*
X830571Y160603D01*
X830691Y160609D01*
X830811Y160611D01*
X830931Y160609D01*
X831051Y160603D01*
X831171Y160593D01*
X831290Y160580D01*
X831409Y160562D01*
X831528Y160540D01*
X831645Y160515D01*
X831762Y160486D01*
X831877Y160453D01*
X831992Y160416D01*
X832105Y160376D01*
X832217Y160331D01*
X832327Y160284D01*
X832436Y160232D01*
X832542Y160177D01*
X832648Y160119D01*
X832751Y160057D01*
X832852Y159992D01*
X832950Y159924D01*
X833047Y159852D01*
X833141Y159777D01*
X833233Y159700D01*
X833322Y159619D01*
X833408Y159535D01*
X833492Y159449D01*
X833573Y159360D01*
X833650Y159268D01*
X833725Y159174D01*
X833797Y159077D01*
X833865Y158979D01*
X833930Y158878D01*
X833992Y158775D01*
X834050Y158669D01*
X834105Y158563D01*
X834157Y158454D01*
X834204Y158344D01*
X834249Y158232D01*
X834289Y158119D01*
X834326Y158004D01*
X834359Y157889D01*
X834388Y157772D01*
X834413Y157655D01*
X834435Y157536D01*
X834453Y157417D01*
X834466Y157298D01*
X834476Y157178D01*
X834482Y157058D01*
X834484Y156938D01*
X834484Y151062D01*
X834482Y150942D01*
X834476Y150822D01*
X834466Y150702D01*
X834453Y150583D01*
X834435Y150464D01*
X834413Y150345D01*
X834388Y150228D01*
X834359Y150111D01*
X834326Y149996D01*
X834289Y149881D01*
X834249Y149768D01*
X834204Y149656D01*
X834157Y149546D01*
X834105Y149437D01*
X834050Y149331D01*
X833992Y149226D01*
X833930Y149122D01*
X833865Y149021D01*
X833797Y148923D01*
X833725Y148826D01*
X833650Y148732D01*
X833573Y148640D01*
X833492Y148551D01*
X833408Y148465D01*
X833322Y148381D01*
X833233Y148300D01*
X833141Y148223D01*
X833047Y148148D01*
X832950Y148076D01*
X832852Y148008D01*
X832751Y147943D01*
X832648Y147881D01*
X832542Y147823D01*
X832436Y147768D01*
X832327Y147716D01*
X832217Y147669D01*
X832105Y147624D01*
X831992Y147584D01*
X831877Y147547D01*
X831762Y147514D01*
X831645Y147485D01*
X831528Y147460D01*
X831409Y147438D01*
X831290Y147420D01*
X831171Y147407D01*
X831051Y147397D01*
X830931Y147391D01*
X830811Y147389D01*
X830691Y147391D01*
X830571Y147397D01*
X830451Y147407D01*
X830332Y147420D01*
X830213Y147438D01*
X830094Y147460D01*
X829977Y147485D01*
X829860Y147514D01*
X829745Y147547D01*
X829630Y147584D01*
X829517Y147624D01*
X829405Y147669D01*
X829295Y147716D01*
X829186Y147768D01*
X829080Y147823D01*
X828975Y147881D01*
X828871Y147943D01*
X828770Y148008D01*
X828672Y148076D01*
X828575Y148148D01*
X828481Y148223D01*
X828389Y148300D01*
X828300Y148381D01*
X828214Y148465D01*
X828130Y148551D01*
X828049Y148640D01*
X827972Y148732D01*
X827897Y148826D01*
X827825Y148923D01*
X827757Y149021D01*
X827692Y149122D01*
X827630Y149226D01*
X827572Y149331D01*
X827517Y149437D01*
X827465Y149546D01*
X827418Y149656D01*
X827373Y149768D01*
X827333Y149881D01*
X827296Y149996D01*
X827263Y150111D01*
X827234Y150228D01*
X827209Y150345D01*
X827187Y150464D01*
X827169Y150583D01*
X827156Y150702D01*
X827146Y150822D01*
X827140Y150942D01*
X827138Y151062D01*
X840639Y151062D02*
X840639Y156938D01*
X840638Y156938D02*
X840640Y157058D01*
X840646Y157178D01*
X840656Y157298D01*
X840669Y157417D01*
X840687Y157536D01*
X840709Y157655D01*
X840734Y157772D01*
X840763Y157889D01*
X840796Y158004D01*
X840833Y158119D01*
X840873Y158232D01*
X840918Y158344D01*
X840965Y158454D01*
X841017Y158563D01*
X841072Y158669D01*
X841130Y158775D01*
X841192Y158878D01*
X841257Y158979D01*
X841325Y159077D01*
X841397Y159174D01*
X841472Y159268D01*
X841549Y159360D01*
X841630Y159449D01*
X841714Y159535D01*
X841800Y159619D01*
X841889Y159700D01*
X841981Y159777D01*
X842075Y159852D01*
X842172Y159924D01*
X842270Y159992D01*
X842371Y160057D01*
X842475Y160119D01*
X842580Y160177D01*
X842686Y160232D01*
X842795Y160284D01*
X842905Y160331D01*
X843017Y160376D01*
X843130Y160416D01*
X843245Y160453D01*
X843360Y160486D01*
X843477Y160515D01*
X843594Y160540D01*
X843713Y160562D01*
X843832Y160580D01*
X843951Y160593D01*
X844071Y160603D01*
X844191Y160609D01*
X844311Y160611D01*
X844431Y160609D01*
X844551Y160603D01*
X844671Y160593D01*
X844790Y160580D01*
X844909Y160562D01*
X845028Y160540D01*
X845145Y160515D01*
X845262Y160486D01*
X845377Y160453D01*
X845492Y160416D01*
X845605Y160376D01*
X845717Y160331D01*
X845827Y160284D01*
X845936Y160232D01*
X846042Y160177D01*
X846148Y160119D01*
X846251Y160057D01*
X846352Y159992D01*
X846450Y159924D01*
X846547Y159852D01*
X846641Y159777D01*
X846733Y159700D01*
X846822Y159619D01*
X846908Y159535D01*
X846992Y159449D01*
X847073Y159360D01*
X847150Y159268D01*
X847225Y159174D01*
X847297Y159077D01*
X847365Y158979D01*
X847430Y158878D01*
X847492Y158775D01*
X847550Y158669D01*
X847605Y158563D01*
X847657Y158454D01*
X847704Y158344D01*
X847749Y158232D01*
X847789Y158119D01*
X847826Y158004D01*
X847859Y157889D01*
X847888Y157772D01*
X847913Y157655D01*
X847935Y157536D01*
X847953Y157417D01*
X847966Y157298D01*
X847976Y157178D01*
X847982Y157058D01*
X847984Y156938D01*
X847984Y151062D01*
X847982Y150942D01*
X847976Y150822D01*
X847966Y150702D01*
X847953Y150583D01*
X847935Y150464D01*
X847913Y150345D01*
X847888Y150228D01*
X847859Y150111D01*
X847826Y149996D01*
X847789Y149881D01*
X847749Y149768D01*
X847704Y149656D01*
X847657Y149546D01*
X847605Y149437D01*
X847550Y149331D01*
X847492Y149226D01*
X847430Y149122D01*
X847365Y149021D01*
X847297Y148923D01*
X847225Y148826D01*
X847150Y148732D01*
X847073Y148640D01*
X846992Y148551D01*
X846908Y148465D01*
X846822Y148381D01*
X846733Y148300D01*
X846641Y148223D01*
X846547Y148148D01*
X846450Y148076D01*
X846352Y148008D01*
X846251Y147943D01*
X846148Y147881D01*
X846042Y147823D01*
X845936Y147768D01*
X845827Y147716D01*
X845717Y147669D01*
X845605Y147624D01*
X845492Y147584D01*
X845377Y147547D01*
X845262Y147514D01*
X845145Y147485D01*
X845028Y147460D01*
X844909Y147438D01*
X844790Y147420D01*
X844671Y147407D01*
X844551Y147397D01*
X844431Y147391D01*
X844311Y147389D01*
X844191Y147391D01*
X844071Y147397D01*
X843951Y147407D01*
X843832Y147420D01*
X843713Y147438D01*
X843594Y147460D01*
X843477Y147485D01*
X843360Y147514D01*
X843245Y147547D01*
X843130Y147584D01*
X843017Y147624D01*
X842905Y147669D01*
X842795Y147716D01*
X842686Y147768D01*
X842580Y147823D01*
X842475Y147881D01*
X842371Y147943D01*
X842270Y148008D01*
X842172Y148076D01*
X842075Y148148D01*
X841981Y148223D01*
X841889Y148300D01*
X841800Y148381D01*
X841714Y148465D01*
X841630Y148551D01*
X841549Y148640D01*
X841472Y148732D01*
X841397Y148826D01*
X841325Y148923D01*
X841257Y149021D01*
X841192Y149122D01*
X841130Y149226D01*
X841072Y149331D01*
X841017Y149437D01*
X840965Y149546D01*
X840918Y149656D01*
X840873Y149768D01*
X840833Y149881D01*
X840796Y149996D01*
X840763Y150111D01*
X840734Y150228D01*
X840709Y150345D01*
X840687Y150464D01*
X840669Y150583D01*
X840656Y150702D01*
X840646Y150822D01*
X840640Y150942D01*
X840638Y151062D01*
X853523Y145920D02*
X859400Y162080D01*
X865911Y160611D02*
X865911Y147389D01*
X864442Y147389D02*
X867381Y147389D01*
X867381Y160611D02*
X864442Y160611D01*
X874016Y156938D02*
X874016Y151062D01*
X874016Y156938D02*
X874018Y157058D01*
X874024Y157178D01*
X874034Y157298D01*
X874047Y157417D01*
X874065Y157536D01*
X874087Y157655D01*
X874112Y157772D01*
X874141Y157889D01*
X874174Y158004D01*
X874211Y158119D01*
X874251Y158232D01*
X874296Y158344D01*
X874343Y158454D01*
X874395Y158563D01*
X874450Y158669D01*
X874508Y158775D01*
X874570Y158878D01*
X874635Y158979D01*
X874703Y159077D01*
X874775Y159174D01*
X874850Y159268D01*
X874927Y159360D01*
X875008Y159449D01*
X875092Y159535D01*
X875178Y159619D01*
X875267Y159700D01*
X875359Y159777D01*
X875453Y159852D01*
X875550Y159924D01*
X875648Y159992D01*
X875749Y160057D01*
X875853Y160119D01*
X875958Y160177D01*
X876064Y160232D01*
X876173Y160284D01*
X876283Y160331D01*
X876395Y160376D01*
X876508Y160416D01*
X876623Y160453D01*
X876738Y160486D01*
X876855Y160515D01*
X876972Y160540D01*
X877091Y160562D01*
X877210Y160580D01*
X877329Y160593D01*
X877449Y160603D01*
X877569Y160609D01*
X877689Y160611D01*
X877809Y160609D01*
X877929Y160603D01*
X878049Y160593D01*
X878168Y160580D01*
X878287Y160562D01*
X878406Y160540D01*
X878523Y160515D01*
X878640Y160486D01*
X878755Y160453D01*
X878870Y160416D01*
X878983Y160376D01*
X879095Y160331D01*
X879205Y160284D01*
X879314Y160232D01*
X879420Y160177D01*
X879526Y160119D01*
X879629Y160057D01*
X879730Y159992D01*
X879828Y159924D01*
X879925Y159852D01*
X880019Y159777D01*
X880111Y159700D01*
X880200Y159619D01*
X880286Y159535D01*
X880370Y159449D01*
X880451Y159360D01*
X880528Y159268D01*
X880603Y159174D01*
X880675Y159077D01*
X880743Y158979D01*
X880808Y158878D01*
X880870Y158775D01*
X880928Y158669D01*
X880983Y158563D01*
X881035Y158454D01*
X881082Y158344D01*
X881127Y158232D01*
X881167Y158119D01*
X881204Y158004D01*
X881237Y157889D01*
X881266Y157772D01*
X881291Y157655D01*
X881313Y157536D01*
X881331Y157417D01*
X881344Y157298D01*
X881354Y157178D01*
X881360Y157058D01*
X881362Y156938D01*
X881362Y151062D01*
X881360Y150942D01*
X881354Y150822D01*
X881344Y150702D01*
X881331Y150583D01*
X881313Y150464D01*
X881291Y150345D01*
X881266Y150228D01*
X881237Y150111D01*
X881204Y149996D01*
X881167Y149881D01*
X881127Y149768D01*
X881082Y149656D01*
X881035Y149546D01*
X880983Y149437D01*
X880928Y149331D01*
X880870Y149226D01*
X880808Y149122D01*
X880743Y149021D01*
X880675Y148923D01*
X880603Y148826D01*
X880528Y148732D01*
X880451Y148640D01*
X880370Y148551D01*
X880286Y148465D01*
X880200Y148381D01*
X880111Y148300D01*
X880019Y148223D01*
X879925Y148148D01*
X879828Y148076D01*
X879730Y148008D01*
X879629Y147943D01*
X879526Y147881D01*
X879420Y147823D01*
X879314Y147768D01*
X879205Y147716D01*
X879095Y147669D01*
X878983Y147624D01*
X878870Y147584D01*
X878755Y147547D01*
X878640Y147514D01*
X878523Y147485D01*
X878406Y147460D01*
X878287Y147438D01*
X878168Y147420D01*
X878049Y147407D01*
X877929Y147397D01*
X877809Y147391D01*
X877689Y147389D01*
X877569Y147391D01*
X877449Y147397D01*
X877329Y147407D01*
X877210Y147420D01*
X877091Y147438D01*
X876972Y147460D01*
X876855Y147485D01*
X876738Y147514D01*
X876623Y147547D01*
X876508Y147584D01*
X876395Y147624D01*
X876283Y147669D01*
X876173Y147716D01*
X876064Y147768D01*
X875958Y147823D01*
X875853Y147881D01*
X875749Y147943D01*
X875648Y148008D01*
X875550Y148076D01*
X875453Y148148D01*
X875359Y148223D01*
X875267Y148300D01*
X875178Y148381D01*
X875092Y148465D01*
X875008Y148551D01*
X874927Y148640D01*
X874850Y148732D01*
X874775Y148826D01*
X874703Y148923D01*
X874635Y149021D01*
X874570Y149122D01*
X874508Y149226D01*
X874450Y149331D01*
X874395Y149437D01*
X874343Y149546D01*
X874296Y149656D01*
X874251Y149768D01*
X874211Y149881D01*
X874174Y149996D01*
X874141Y150111D01*
X874112Y150228D01*
X874087Y150345D01*
X874065Y150464D01*
X874047Y150583D01*
X874034Y150702D01*
X874024Y150822D01*
X874018Y150942D01*
X874016Y151062D01*
X879893Y150327D02*
X882831Y147389D01*
X889878Y147389D02*
X892816Y147389D01*
X889878Y147389D02*
X889771Y147391D01*
X889664Y147397D01*
X889557Y147407D01*
X889450Y147420D01*
X889344Y147438D01*
X889239Y147459D01*
X889135Y147485D01*
X889032Y147514D01*
X888929Y147546D01*
X888828Y147583D01*
X888729Y147623D01*
X888631Y147667D01*
X888535Y147714D01*
X888440Y147765D01*
X888347Y147819D01*
X888257Y147877D01*
X888168Y147938D01*
X888082Y148002D01*
X887999Y148069D01*
X887917Y148139D01*
X887839Y148212D01*
X887763Y148288D01*
X887690Y148366D01*
X887620Y148448D01*
X887553Y148531D01*
X887489Y148617D01*
X887428Y148706D01*
X887370Y148796D01*
X887316Y148889D01*
X887265Y148984D01*
X887218Y149080D01*
X887174Y149178D01*
X887134Y149277D01*
X887097Y149378D01*
X887065Y149481D01*
X887036Y149584D01*
X887010Y149688D01*
X886989Y149793D01*
X886971Y149899D01*
X886958Y150006D01*
X886948Y150113D01*
X886942Y150220D01*
X886940Y150327D01*
X886940Y157673D01*
X886942Y157780D01*
X886948Y157887D01*
X886958Y157994D01*
X886971Y158101D01*
X886989Y158207D01*
X887010Y158312D01*
X887036Y158416D01*
X887065Y158519D01*
X887097Y158622D01*
X887134Y158723D01*
X887174Y158822D01*
X887218Y158920D01*
X887265Y159016D01*
X887316Y159111D01*
X887370Y159204D01*
X887428Y159294D01*
X887489Y159382D01*
X887553Y159469D01*
X887620Y159552D01*
X887690Y159634D01*
X887763Y159712D01*
X887839Y159788D01*
X887917Y159861D01*
X887999Y159931D01*
X888082Y159998D01*
X888168Y160062D01*
X888257Y160123D01*
X888347Y160181D01*
X888440Y160235D01*
X888535Y160286D01*
X888631Y160333D01*
X888729Y160377D01*
X888828Y160417D01*
X888929Y160454D01*
X889032Y160486D01*
X889135Y160515D01*
X889239Y160541D01*
X889344Y160562D01*
X889450Y160580D01*
X889557Y160593D01*
X889664Y160603D01*
X889771Y160609D01*
X889878Y160611D01*
X892816Y160611D01*
X669074Y78827D02*
X669072Y78720D01*
X669066Y78613D01*
X669056Y78506D01*
X669043Y78399D01*
X669025Y78293D01*
X669004Y78188D01*
X668978Y78084D01*
X668949Y77981D01*
X668917Y77878D01*
X668880Y77777D01*
X668840Y77678D01*
X668796Y77580D01*
X668749Y77484D01*
X668698Y77389D01*
X668644Y77296D01*
X668586Y77206D01*
X668525Y77118D01*
X668461Y77031D01*
X668394Y76948D01*
X668324Y76866D01*
X668251Y76788D01*
X668175Y76712D01*
X668097Y76639D01*
X668015Y76569D01*
X667932Y76502D01*
X667846Y76438D01*
X667757Y76377D01*
X667667Y76319D01*
X667574Y76265D01*
X667479Y76214D01*
X667383Y76167D01*
X667285Y76123D01*
X667186Y76083D01*
X667085Y76046D01*
X666982Y76014D01*
X666879Y75985D01*
X666775Y75959D01*
X666670Y75938D01*
X666564Y75920D01*
X666457Y75907D01*
X666350Y75897D01*
X666243Y75891D01*
X666136Y75889D01*
X665983Y75891D01*
X665830Y75897D01*
X665677Y75906D01*
X665524Y75919D01*
X665372Y75936D01*
X665220Y75957D01*
X665069Y75981D01*
X664919Y76010D01*
X664769Y76041D01*
X664620Y76077D01*
X664472Y76116D01*
X664325Y76159D01*
X664179Y76206D01*
X664034Y76256D01*
X663891Y76309D01*
X663749Y76366D01*
X663608Y76427D01*
X663469Y76491D01*
X663331Y76559D01*
X663196Y76630D01*
X663062Y76704D01*
X662930Y76781D01*
X662799Y76862D01*
X662671Y76946D01*
X662545Y77033D01*
X662422Y77123D01*
X662300Y77216D01*
X662181Y77312D01*
X662064Y77411D01*
X661950Y77513D01*
X661838Y77618D01*
X661729Y77725D01*
X662097Y86173D02*
X662099Y86280D01*
X662105Y86387D01*
X662115Y86494D01*
X662128Y86601D01*
X662146Y86707D01*
X662167Y86812D01*
X662193Y86916D01*
X662222Y87019D01*
X662254Y87122D01*
X662291Y87223D01*
X662331Y87322D01*
X662375Y87420D01*
X662422Y87516D01*
X662473Y87611D01*
X662527Y87704D01*
X662585Y87794D01*
X662646Y87883D01*
X662710Y87969D01*
X662777Y88052D01*
X662847Y88134D01*
X662920Y88212D01*
X662996Y88288D01*
X663074Y88361D01*
X663156Y88431D01*
X663239Y88498D01*
X663325Y88562D01*
X663414Y88623D01*
X663504Y88681D01*
X663597Y88735D01*
X663692Y88786D01*
X663788Y88833D01*
X663886Y88877D01*
X663985Y88917D01*
X664086Y88954D01*
X664189Y88986D01*
X664292Y89015D01*
X664396Y89041D01*
X664501Y89062D01*
X664607Y89080D01*
X664714Y89093D01*
X664821Y89103D01*
X664928Y89109D01*
X665035Y89111D01*
X665183Y89109D01*
X665330Y89103D01*
X665478Y89093D01*
X665625Y89079D01*
X665771Y89062D01*
X665917Y89040D01*
X666063Y89014D01*
X666208Y88985D01*
X666352Y88951D01*
X666494Y88914D01*
X666636Y88873D01*
X666777Y88828D01*
X666917Y88780D01*
X667055Y88727D01*
X667191Y88671D01*
X667327Y88612D01*
X667460Y88549D01*
X667592Y88482D01*
X667722Y88411D01*
X667850Y88338D01*
X667976Y88261D01*
X668099Y88180D01*
X668221Y88096D01*
X668340Y88009D01*
X663565Y83602D02*
X663474Y83658D01*
X663385Y83717D01*
X663298Y83779D01*
X663214Y83845D01*
X663132Y83913D01*
X663052Y83984D01*
X662975Y84058D01*
X662900Y84135D01*
X662829Y84214D01*
X662760Y84296D01*
X662695Y84380D01*
X662632Y84467D01*
X662572Y84556D01*
X662516Y84646D01*
X662463Y84739D01*
X662413Y84834D01*
X662367Y84930D01*
X662324Y85028D01*
X662285Y85127D01*
X662250Y85228D01*
X662218Y85330D01*
X662189Y85433D01*
X662165Y85537D01*
X662144Y85642D01*
X662127Y85747D01*
X662113Y85853D01*
X662104Y85960D01*
X662098Y86066D01*
X662096Y86173D01*
X667605Y81398D02*
X667696Y81342D01*
X667785Y81283D01*
X667872Y81221D01*
X667956Y81155D01*
X668039Y81087D01*
X668118Y81016D01*
X668195Y80942D01*
X668270Y80865D01*
X668341Y80786D01*
X668410Y80704D01*
X668476Y80620D01*
X668538Y80533D01*
X668598Y80444D01*
X668654Y80354D01*
X668707Y80261D01*
X668757Y80166D01*
X668803Y80070D01*
X668846Y79972D01*
X668885Y79873D01*
X668920Y79772D01*
X668952Y79670D01*
X668981Y79567D01*
X669005Y79463D01*
X669026Y79358D01*
X669043Y79253D01*
X669057Y79147D01*
X669066Y79040D01*
X669072Y78934D01*
X669074Y78827D01*
X667605Y81398D02*
X663565Y83602D01*
X675262Y75889D02*
X681139Y75889D01*
X675262Y75889D02*
X675262Y89111D01*
X681139Y89111D01*
X679669Y83235D02*
X675262Y83235D01*
X686929Y89111D02*
X686929Y75889D01*
X694274Y75889D02*
X686929Y89111D01*
X694274Y89111D02*
X694274Y75889D01*
X701577Y75889D02*
X701577Y89111D01*
X708923Y89111D02*
X701577Y81031D01*
X704515Y83969D02*
X708923Y75889D01*
X714379Y79562D02*
X714379Y85438D01*
X714381Y85558D01*
X714387Y85678D01*
X714397Y85798D01*
X714410Y85917D01*
X714428Y86036D01*
X714450Y86155D01*
X714475Y86272D01*
X714504Y86389D01*
X714537Y86504D01*
X714574Y86619D01*
X714614Y86732D01*
X714659Y86844D01*
X714706Y86954D01*
X714758Y87063D01*
X714813Y87169D01*
X714871Y87275D01*
X714933Y87378D01*
X714998Y87479D01*
X715066Y87577D01*
X715138Y87674D01*
X715213Y87768D01*
X715290Y87860D01*
X715371Y87949D01*
X715455Y88035D01*
X715541Y88119D01*
X715630Y88200D01*
X715722Y88277D01*
X715816Y88352D01*
X715913Y88424D01*
X716011Y88492D01*
X716112Y88557D01*
X716216Y88619D01*
X716321Y88677D01*
X716427Y88732D01*
X716536Y88784D01*
X716646Y88831D01*
X716758Y88876D01*
X716871Y88916D01*
X716986Y88953D01*
X717101Y88986D01*
X717218Y89015D01*
X717335Y89040D01*
X717454Y89062D01*
X717573Y89080D01*
X717692Y89093D01*
X717812Y89103D01*
X717932Y89109D01*
X718052Y89111D01*
X718172Y89109D01*
X718292Y89103D01*
X718412Y89093D01*
X718531Y89080D01*
X718650Y89062D01*
X718769Y89040D01*
X718886Y89015D01*
X719003Y88986D01*
X719118Y88953D01*
X719233Y88916D01*
X719346Y88876D01*
X719458Y88831D01*
X719568Y88784D01*
X719677Y88732D01*
X719783Y88677D01*
X719889Y88619D01*
X719992Y88557D01*
X720093Y88492D01*
X720191Y88424D01*
X720288Y88352D01*
X720382Y88277D01*
X720474Y88200D01*
X720563Y88119D01*
X720649Y88035D01*
X720733Y87949D01*
X720814Y87860D01*
X720891Y87768D01*
X720966Y87674D01*
X721038Y87577D01*
X721106Y87479D01*
X721171Y87378D01*
X721233Y87275D01*
X721291Y87169D01*
X721346Y87063D01*
X721398Y86954D01*
X721445Y86844D01*
X721490Y86732D01*
X721530Y86619D01*
X721567Y86504D01*
X721600Y86389D01*
X721629Y86272D01*
X721654Y86155D01*
X721676Y86036D01*
X721694Y85917D01*
X721707Y85798D01*
X721717Y85678D01*
X721723Y85558D01*
X721725Y85438D01*
X721724Y85438D02*
X721724Y79562D01*
X721725Y79562D02*
X721723Y79442D01*
X721717Y79322D01*
X721707Y79202D01*
X721694Y79083D01*
X721676Y78964D01*
X721654Y78845D01*
X721629Y78728D01*
X721600Y78611D01*
X721567Y78496D01*
X721530Y78381D01*
X721490Y78268D01*
X721445Y78156D01*
X721398Y78046D01*
X721346Y77937D01*
X721291Y77831D01*
X721233Y77726D01*
X721171Y77622D01*
X721106Y77521D01*
X721038Y77423D01*
X720966Y77326D01*
X720891Y77232D01*
X720814Y77140D01*
X720733Y77051D01*
X720649Y76965D01*
X720563Y76881D01*
X720474Y76800D01*
X720382Y76723D01*
X720288Y76648D01*
X720191Y76576D01*
X720093Y76508D01*
X719992Y76443D01*
X719889Y76381D01*
X719783Y76323D01*
X719677Y76268D01*
X719568Y76216D01*
X719458Y76169D01*
X719346Y76124D01*
X719233Y76084D01*
X719118Y76047D01*
X719003Y76014D01*
X718886Y75985D01*
X718769Y75960D01*
X718650Y75938D01*
X718531Y75920D01*
X718412Y75907D01*
X718292Y75897D01*
X718172Y75891D01*
X718052Y75889D01*
X717932Y75891D01*
X717812Y75897D01*
X717692Y75907D01*
X717573Y75920D01*
X717454Y75938D01*
X717335Y75960D01*
X717218Y75985D01*
X717101Y76014D01*
X716986Y76047D01*
X716871Y76084D01*
X716758Y76124D01*
X716646Y76169D01*
X716536Y76216D01*
X716427Y76268D01*
X716321Y76323D01*
X716216Y76381D01*
X716112Y76443D01*
X716011Y76508D01*
X715913Y76576D01*
X715816Y76648D01*
X715722Y76723D01*
X715630Y76800D01*
X715541Y76881D01*
X715455Y76965D01*
X715371Y77051D01*
X715290Y77140D01*
X715213Y77232D01*
X715138Y77326D01*
X715066Y77423D01*
X714998Y77521D01*
X714933Y77622D01*
X714871Y77725D01*
X714813Y77831D01*
X714758Y77937D01*
X714706Y78046D01*
X714659Y78156D01*
X714614Y78268D01*
X714574Y78381D01*
X714537Y78496D01*
X714504Y78611D01*
X714475Y78728D01*
X714450Y78845D01*
X714428Y78964D01*
X714410Y79083D01*
X714397Y79202D01*
X714387Y79322D01*
X714381Y79442D01*
X714379Y79562D01*
X737852Y75889D02*
X737852Y89111D01*
X741524Y89111D02*
X734179Y89111D01*
X747337Y89111D02*
X747337Y75889D01*
X747337Y89111D02*
X751009Y89111D01*
X751129Y89109D01*
X751249Y89103D01*
X751369Y89093D01*
X751488Y89080D01*
X751607Y89062D01*
X751726Y89040D01*
X751843Y89015D01*
X751960Y88986D01*
X752075Y88953D01*
X752190Y88916D01*
X752303Y88876D01*
X752415Y88831D01*
X752525Y88784D01*
X752634Y88732D01*
X752740Y88677D01*
X752846Y88619D01*
X752949Y88557D01*
X753050Y88492D01*
X753148Y88424D01*
X753245Y88352D01*
X753339Y88277D01*
X753431Y88200D01*
X753520Y88119D01*
X753606Y88035D01*
X753690Y87949D01*
X753771Y87860D01*
X753848Y87768D01*
X753923Y87674D01*
X753995Y87577D01*
X754063Y87479D01*
X754128Y87378D01*
X754190Y87275D01*
X754248Y87169D01*
X754303Y87063D01*
X754355Y86954D01*
X754402Y86844D01*
X754447Y86732D01*
X754487Y86619D01*
X754524Y86504D01*
X754557Y86389D01*
X754586Y86272D01*
X754611Y86155D01*
X754633Y86036D01*
X754651Y85917D01*
X754664Y85798D01*
X754674Y85678D01*
X754680Y85558D01*
X754682Y85438D01*
X754680Y85318D01*
X754674Y85198D01*
X754664Y85078D01*
X754651Y84959D01*
X754633Y84840D01*
X754611Y84721D01*
X754586Y84604D01*
X754557Y84487D01*
X754524Y84372D01*
X754487Y84257D01*
X754447Y84144D01*
X754402Y84032D01*
X754355Y83922D01*
X754303Y83813D01*
X754248Y83707D01*
X754190Y83602D01*
X754128Y83498D01*
X754063Y83397D01*
X753995Y83299D01*
X753923Y83202D01*
X753848Y83108D01*
X753771Y83016D01*
X753690Y82927D01*
X753606Y82841D01*
X753520Y82757D01*
X753431Y82676D01*
X753339Y82599D01*
X753245Y82524D01*
X753148Y82452D01*
X753050Y82384D01*
X752949Y82319D01*
X752846Y82257D01*
X752740Y82199D01*
X752634Y82144D01*
X752525Y82092D01*
X752415Y82045D01*
X752303Y82000D01*
X752190Y81960D01*
X752075Y81923D01*
X751960Y81890D01*
X751843Y81861D01*
X751726Y81836D01*
X751607Y81814D01*
X751488Y81796D01*
X751369Y81783D01*
X751249Y81773D01*
X751129Y81767D01*
X751009Y81765D01*
X747337Y81765D01*
X751744Y81765D02*
X754682Y75889D01*
X759994Y75889D02*
X764402Y89111D01*
X768809Y75889D01*
X767707Y79195D02*
X761096Y79195D01*
X774927Y75889D02*
X774927Y89111D01*
X778600Y89111D01*
X778720Y89109D01*
X778840Y89103D01*
X778960Y89093D01*
X779079Y89080D01*
X779198Y89062D01*
X779317Y89040D01*
X779434Y89015D01*
X779551Y88986D01*
X779666Y88953D01*
X779781Y88916D01*
X779894Y88876D01*
X780006Y88831D01*
X780116Y88784D01*
X780225Y88732D01*
X780331Y88677D01*
X780437Y88619D01*
X780540Y88557D01*
X780641Y88492D01*
X780739Y88424D01*
X780836Y88352D01*
X780930Y88277D01*
X781022Y88200D01*
X781111Y88119D01*
X781197Y88035D01*
X781281Y87949D01*
X781362Y87860D01*
X781439Y87768D01*
X781514Y87674D01*
X781586Y87577D01*
X781654Y87479D01*
X781719Y87378D01*
X781781Y87275D01*
X781839Y87169D01*
X781894Y87063D01*
X781946Y86954D01*
X781993Y86844D01*
X782038Y86732D01*
X782078Y86619D01*
X782115Y86504D01*
X782148Y86389D01*
X782177Y86272D01*
X782202Y86155D01*
X782224Y86036D01*
X782242Y85917D01*
X782255Y85798D01*
X782265Y85678D01*
X782271Y85558D01*
X782273Y85438D01*
X782271Y85318D01*
X782265Y85198D01*
X782255Y85078D01*
X782242Y84959D01*
X782224Y84840D01*
X782202Y84721D01*
X782177Y84604D01*
X782148Y84487D01*
X782115Y84372D01*
X782078Y84257D01*
X782038Y84144D01*
X781993Y84032D01*
X781946Y83922D01*
X781894Y83813D01*
X781839Y83707D01*
X781781Y83602D01*
X781719Y83498D01*
X781654Y83397D01*
X781586Y83299D01*
X781514Y83202D01*
X781439Y83108D01*
X781362Y83016D01*
X781281Y82927D01*
X781197Y82841D01*
X781111Y82757D01*
X781022Y82676D01*
X780930Y82599D01*
X780836Y82524D01*
X780739Y82452D01*
X780641Y82384D01*
X780540Y82319D01*
X780437Y82257D01*
X780331Y82199D01*
X780225Y82144D01*
X780116Y82092D01*
X780006Y82045D01*
X779894Y82000D01*
X779781Y81960D01*
X779666Y81923D01*
X779551Y81890D01*
X779434Y81861D01*
X779317Y81836D01*
X779198Y81814D01*
X779079Y81796D01*
X778960Y81783D01*
X778840Y81773D01*
X778720Y81767D01*
X778600Y81765D01*
X774927Y81765D01*
X788427Y75889D02*
X788427Y89111D01*
X792100Y89111D01*
X792220Y89109D01*
X792340Y89103D01*
X792460Y89093D01*
X792579Y89080D01*
X792698Y89062D01*
X792817Y89040D01*
X792934Y89015D01*
X793051Y88986D01*
X793166Y88953D01*
X793281Y88916D01*
X793394Y88876D01*
X793506Y88831D01*
X793616Y88784D01*
X793725Y88732D01*
X793831Y88677D01*
X793937Y88619D01*
X794040Y88557D01*
X794141Y88492D01*
X794239Y88424D01*
X794336Y88352D01*
X794430Y88277D01*
X794522Y88200D01*
X794611Y88119D01*
X794697Y88035D01*
X794781Y87949D01*
X794862Y87860D01*
X794939Y87768D01*
X795014Y87674D01*
X795086Y87577D01*
X795154Y87479D01*
X795219Y87378D01*
X795281Y87275D01*
X795339Y87169D01*
X795394Y87063D01*
X795446Y86954D01*
X795493Y86844D01*
X795538Y86732D01*
X795578Y86619D01*
X795615Y86504D01*
X795648Y86389D01*
X795677Y86272D01*
X795702Y86155D01*
X795724Y86036D01*
X795742Y85917D01*
X795755Y85798D01*
X795765Y85678D01*
X795771Y85558D01*
X795773Y85438D01*
X795771Y85318D01*
X795765Y85198D01*
X795755Y85078D01*
X795742Y84959D01*
X795724Y84840D01*
X795702Y84721D01*
X795677Y84604D01*
X795648Y84487D01*
X795615Y84372D01*
X795578Y84257D01*
X795538Y84144D01*
X795493Y84032D01*
X795446Y83922D01*
X795394Y83813D01*
X795339Y83707D01*
X795281Y83602D01*
X795219Y83498D01*
X795154Y83397D01*
X795086Y83299D01*
X795014Y83202D01*
X794939Y83108D01*
X794862Y83016D01*
X794781Y82927D01*
X794697Y82841D01*
X794611Y82757D01*
X794522Y82676D01*
X794430Y82599D01*
X794336Y82524D01*
X794239Y82452D01*
X794141Y82384D01*
X794040Y82319D01*
X793937Y82257D01*
X793831Y82199D01*
X793725Y82144D01*
X793616Y82092D01*
X793506Y82045D01*
X793394Y82000D01*
X793281Y81960D01*
X793166Y81923D01*
X793051Y81890D01*
X792934Y81861D01*
X792817Y81836D01*
X792698Y81814D01*
X792579Y81796D01*
X792460Y81783D01*
X792340Y81773D01*
X792220Y81767D01*
X792100Y81765D01*
X788427Y81765D01*
X801712Y75889D02*
X807588Y75889D01*
X801712Y75889D02*
X801712Y89111D01*
X807588Y89111D01*
X806119Y83235D02*
X801712Y83235D01*
X813379Y89111D02*
X813379Y75889D01*
X813379Y89111D02*
X817051Y89111D01*
X817171Y89109D01*
X817291Y89103D01*
X817411Y89093D01*
X817530Y89080D01*
X817649Y89062D01*
X817768Y89040D01*
X817885Y89015D01*
X818002Y88986D01*
X818117Y88953D01*
X818232Y88916D01*
X818345Y88876D01*
X818457Y88831D01*
X818567Y88784D01*
X818676Y88732D01*
X818782Y88677D01*
X818888Y88619D01*
X818991Y88557D01*
X819092Y88492D01*
X819190Y88424D01*
X819287Y88352D01*
X819381Y88277D01*
X819473Y88200D01*
X819562Y88119D01*
X819648Y88035D01*
X819732Y87949D01*
X819813Y87860D01*
X819890Y87768D01*
X819965Y87674D01*
X820037Y87577D01*
X820105Y87479D01*
X820170Y87378D01*
X820232Y87275D01*
X820290Y87169D01*
X820345Y87063D01*
X820397Y86954D01*
X820444Y86844D01*
X820489Y86732D01*
X820529Y86619D01*
X820566Y86504D01*
X820599Y86389D01*
X820628Y86272D01*
X820653Y86155D01*
X820675Y86036D01*
X820693Y85917D01*
X820706Y85798D01*
X820716Y85678D01*
X820722Y85558D01*
X820724Y85438D01*
X820724Y79562D01*
X820722Y79442D01*
X820716Y79322D01*
X820706Y79202D01*
X820693Y79083D01*
X820675Y78964D01*
X820653Y78845D01*
X820628Y78728D01*
X820599Y78611D01*
X820566Y78496D01*
X820529Y78381D01*
X820489Y78268D01*
X820444Y78156D01*
X820397Y78046D01*
X820345Y77937D01*
X820290Y77831D01*
X820232Y77726D01*
X820170Y77622D01*
X820105Y77521D01*
X820037Y77423D01*
X819965Y77326D01*
X819890Y77232D01*
X819813Y77140D01*
X819732Y77051D01*
X819648Y76965D01*
X819562Y76881D01*
X819473Y76800D01*
X819381Y76723D01*
X819287Y76648D01*
X819190Y76576D01*
X819092Y76508D01*
X818991Y76443D01*
X818888Y76381D01*
X818782Y76323D01*
X818676Y76268D01*
X818567Y76216D01*
X818457Y76169D01*
X818345Y76124D01*
X818232Y76084D01*
X818117Y76047D01*
X818002Y76014D01*
X817885Y75985D01*
X817768Y75960D01*
X817649Y75938D01*
X817530Y75920D01*
X817411Y75907D01*
X817291Y75897D01*
X817171Y75891D01*
X817051Y75889D01*
X813379Y75889D01*
X835501Y75889D02*
X835501Y89111D01*
X834032Y75889D02*
X836971Y75889D01*
X836971Y89111D02*
X834032Y89111D01*
X842629Y85438D02*
X842629Y79562D01*
X842628Y85438D02*
X842630Y85558D01*
X842636Y85678D01*
X842646Y85798D01*
X842659Y85917D01*
X842677Y86036D01*
X842699Y86155D01*
X842724Y86272D01*
X842753Y86389D01*
X842786Y86504D01*
X842823Y86619D01*
X842863Y86732D01*
X842908Y86844D01*
X842955Y86954D01*
X843007Y87063D01*
X843062Y87169D01*
X843120Y87275D01*
X843182Y87378D01*
X843247Y87479D01*
X843315Y87577D01*
X843387Y87674D01*
X843462Y87768D01*
X843539Y87860D01*
X843620Y87949D01*
X843704Y88035D01*
X843790Y88119D01*
X843879Y88200D01*
X843971Y88277D01*
X844065Y88352D01*
X844162Y88424D01*
X844260Y88492D01*
X844361Y88557D01*
X844465Y88619D01*
X844570Y88677D01*
X844676Y88732D01*
X844785Y88784D01*
X844895Y88831D01*
X845007Y88876D01*
X845120Y88916D01*
X845235Y88953D01*
X845350Y88986D01*
X845467Y89015D01*
X845584Y89040D01*
X845703Y89062D01*
X845822Y89080D01*
X845941Y89093D01*
X846061Y89103D01*
X846181Y89109D01*
X846301Y89111D01*
X846421Y89109D01*
X846541Y89103D01*
X846661Y89093D01*
X846780Y89080D01*
X846899Y89062D01*
X847018Y89040D01*
X847135Y89015D01*
X847252Y88986D01*
X847367Y88953D01*
X847482Y88916D01*
X847595Y88876D01*
X847707Y88831D01*
X847817Y88784D01*
X847926Y88732D01*
X848032Y88677D01*
X848138Y88619D01*
X848241Y88557D01*
X848342Y88492D01*
X848440Y88424D01*
X848537Y88352D01*
X848631Y88277D01*
X848723Y88200D01*
X848812Y88119D01*
X848898Y88035D01*
X848982Y87949D01*
X849063Y87860D01*
X849140Y87768D01*
X849215Y87674D01*
X849287Y87577D01*
X849355Y87479D01*
X849420Y87378D01*
X849482Y87275D01*
X849540Y87169D01*
X849595Y87063D01*
X849647Y86954D01*
X849694Y86844D01*
X849739Y86732D01*
X849779Y86619D01*
X849816Y86504D01*
X849849Y86389D01*
X849878Y86272D01*
X849903Y86155D01*
X849925Y86036D01*
X849943Y85917D01*
X849956Y85798D01*
X849966Y85678D01*
X849972Y85558D01*
X849974Y85438D01*
X849974Y79562D01*
X849972Y79442D01*
X849966Y79322D01*
X849956Y79202D01*
X849943Y79083D01*
X849925Y78964D01*
X849903Y78845D01*
X849878Y78728D01*
X849849Y78611D01*
X849816Y78496D01*
X849779Y78381D01*
X849739Y78268D01*
X849694Y78156D01*
X849647Y78046D01*
X849595Y77937D01*
X849540Y77831D01*
X849482Y77726D01*
X849420Y77622D01*
X849355Y77521D01*
X849287Y77423D01*
X849215Y77326D01*
X849140Y77232D01*
X849063Y77140D01*
X848982Y77051D01*
X848898Y76965D01*
X848812Y76881D01*
X848723Y76800D01*
X848631Y76723D01*
X848537Y76648D01*
X848440Y76576D01*
X848342Y76508D01*
X848241Y76443D01*
X848138Y76381D01*
X848032Y76323D01*
X847926Y76268D01*
X847817Y76216D01*
X847707Y76169D01*
X847595Y76124D01*
X847482Y76084D01*
X847367Y76047D01*
X847252Y76014D01*
X847135Y75985D01*
X847018Y75960D01*
X846899Y75938D01*
X846780Y75920D01*
X846661Y75907D01*
X846541Y75897D01*
X846421Y75891D01*
X846301Y75889D01*
X846181Y75891D01*
X846061Y75897D01*
X845941Y75907D01*
X845822Y75920D01*
X845703Y75938D01*
X845584Y75960D01*
X845467Y75985D01*
X845350Y76014D01*
X845235Y76047D01*
X845120Y76084D01*
X845007Y76124D01*
X844895Y76169D01*
X844785Y76216D01*
X844676Y76268D01*
X844570Y76323D01*
X844465Y76381D01*
X844361Y76443D01*
X844260Y76508D01*
X844162Y76576D01*
X844065Y76648D01*
X843971Y76723D01*
X843879Y76800D01*
X843790Y76881D01*
X843704Y76965D01*
X843620Y77051D01*
X843539Y77140D01*
X843462Y77232D01*
X843387Y77326D01*
X843315Y77423D01*
X843247Y77521D01*
X843182Y77622D01*
X843120Y77725D01*
X843062Y77831D01*
X843007Y77937D01*
X842955Y78046D01*
X842908Y78156D01*
X842863Y78268D01*
X842823Y78381D01*
X842786Y78496D01*
X842753Y78611D01*
X842724Y78728D01*
X842699Y78845D01*
X842677Y78964D01*
X842659Y79083D01*
X842646Y79202D01*
X842636Y79322D01*
X842630Y79442D01*
X842628Y79562D01*
X856579Y75889D02*
X856579Y89111D01*
X863924Y75889D01*
X863924Y89111D01*
X883320Y83235D02*
X885524Y83235D01*
X885524Y75889D01*
X881117Y75889D01*
X881010Y75891D01*
X880903Y75897D01*
X880796Y75907D01*
X880689Y75920D01*
X880583Y75938D01*
X880478Y75959D01*
X880374Y75985D01*
X880271Y76014D01*
X880168Y76046D01*
X880067Y76083D01*
X879968Y76123D01*
X879870Y76167D01*
X879774Y76214D01*
X879679Y76265D01*
X879586Y76319D01*
X879496Y76377D01*
X879407Y76438D01*
X879321Y76502D01*
X879238Y76569D01*
X879156Y76639D01*
X879078Y76712D01*
X879002Y76788D01*
X878929Y76866D01*
X878859Y76948D01*
X878792Y77031D01*
X878728Y77117D01*
X878667Y77206D01*
X878609Y77296D01*
X878555Y77389D01*
X878504Y77484D01*
X878457Y77580D01*
X878413Y77678D01*
X878373Y77777D01*
X878336Y77878D01*
X878304Y77981D01*
X878275Y78084D01*
X878249Y78188D01*
X878228Y78293D01*
X878210Y78399D01*
X878197Y78506D01*
X878187Y78613D01*
X878181Y78720D01*
X878179Y78827D01*
X878179Y86173D01*
X878181Y86280D01*
X878187Y86387D01*
X878197Y86494D01*
X878210Y86601D01*
X878228Y86707D01*
X878249Y86812D01*
X878275Y86916D01*
X878304Y87019D01*
X878336Y87122D01*
X878373Y87223D01*
X878413Y87322D01*
X878457Y87420D01*
X878504Y87516D01*
X878555Y87611D01*
X878609Y87704D01*
X878667Y87794D01*
X878728Y87882D01*
X878792Y87969D01*
X878859Y88052D01*
X878929Y88134D01*
X879002Y88212D01*
X879078Y88288D01*
X879156Y88361D01*
X879238Y88431D01*
X879321Y88498D01*
X879407Y88562D01*
X879496Y88623D01*
X879586Y88681D01*
X879679Y88735D01*
X879774Y88786D01*
X879870Y88833D01*
X879968Y88877D01*
X880067Y88917D01*
X880168Y88954D01*
X880271Y88986D01*
X880374Y89015D01*
X880478Y89041D01*
X880583Y89062D01*
X880689Y89080D01*
X880796Y89093D01*
X880903Y89103D01*
X881010Y89109D01*
X881117Y89111D01*
X885524Y89111D01*
X892686Y89111D02*
X892686Y75889D01*
X892686Y89111D02*
X896359Y89111D01*
X896479Y89109D01*
X896599Y89103D01*
X896719Y89093D01*
X896838Y89080D01*
X896957Y89062D01*
X897076Y89040D01*
X897193Y89015D01*
X897310Y88986D01*
X897425Y88953D01*
X897540Y88916D01*
X897653Y88876D01*
X897765Y88831D01*
X897875Y88784D01*
X897984Y88732D01*
X898090Y88677D01*
X898196Y88619D01*
X898299Y88557D01*
X898400Y88492D01*
X898498Y88424D01*
X898595Y88352D01*
X898689Y88277D01*
X898781Y88200D01*
X898870Y88119D01*
X898956Y88035D01*
X899040Y87949D01*
X899121Y87860D01*
X899198Y87768D01*
X899273Y87674D01*
X899345Y87577D01*
X899413Y87479D01*
X899478Y87378D01*
X899540Y87275D01*
X899598Y87169D01*
X899653Y87063D01*
X899705Y86954D01*
X899752Y86844D01*
X899797Y86732D01*
X899837Y86619D01*
X899874Y86504D01*
X899907Y86389D01*
X899936Y86272D01*
X899961Y86155D01*
X899983Y86036D01*
X900001Y85917D01*
X900014Y85798D01*
X900024Y85678D01*
X900030Y85558D01*
X900032Y85438D01*
X900030Y85318D01*
X900024Y85198D01*
X900014Y85078D01*
X900001Y84959D01*
X899983Y84840D01*
X899961Y84721D01*
X899936Y84604D01*
X899907Y84487D01*
X899874Y84372D01*
X899837Y84257D01*
X899797Y84144D01*
X899752Y84032D01*
X899705Y83922D01*
X899653Y83813D01*
X899598Y83707D01*
X899540Y83602D01*
X899478Y83498D01*
X899413Y83397D01*
X899345Y83299D01*
X899273Y83202D01*
X899198Y83108D01*
X899121Y83016D01*
X899040Y82927D01*
X898956Y82841D01*
X898870Y82757D01*
X898781Y82676D01*
X898689Y82599D01*
X898595Y82524D01*
X898498Y82452D01*
X898400Y82384D01*
X898299Y82319D01*
X898196Y82257D01*
X898090Y82199D01*
X897984Y82144D01*
X897875Y82092D01*
X897765Y82045D01*
X897653Y82000D01*
X897540Y81960D01*
X897425Y81923D01*
X897310Y81890D01*
X897193Y81861D01*
X897076Y81836D01*
X896957Y81814D01*
X896838Y81796D01*
X896719Y81783D01*
X896599Y81773D01*
X896479Y81767D01*
X896359Y81765D01*
X892686Y81765D01*
X897094Y81765D02*
X900032Y75889D01*
X906078Y79562D02*
X906078Y85438D01*
X906080Y85558D01*
X906086Y85678D01*
X906096Y85798D01*
X906109Y85917D01*
X906127Y86036D01*
X906149Y86155D01*
X906174Y86272D01*
X906203Y86389D01*
X906236Y86504D01*
X906273Y86619D01*
X906313Y86732D01*
X906358Y86844D01*
X906405Y86954D01*
X906457Y87063D01*
X906512Y87169D01*
X906570Y87275D01*
X906632Y87378D01*
X906697Y87479D01*
X906765Y87577D01*
X906837Y87674D01*
X906912Y87768D01*
X906989Y87860D01*
X907070Y87949D01*
X907154Y88035D01*
X907240Y88119D01*
X907329Y88200D01*
X907421Y88277D01*
X907515Y88352D01*
X907612Y88424D01*
X907710Y88492D01*
X907811Y88557D01*
X907915Y88619D01*
X908020Y88677D01*
X908126Y88732D01*
X908235Y88784D01*
X908345Y88831D01*
X908457Y88876D01*
X908570Y88916D01*
X908685Y88953D01*
X908800Y88986D01*
X908917Y89015D01*
X909034Y89040D01*
X909153Y89062D01*
X909272Y89080D01*
X909391Y89093D01*
X909511Y89103D01*
X909631Y89109D01*
X909751Y89111D01*
X909871Y89109D01*
X909991Y89103D01*
X910111Y89093D01*
X910230Y89080D01*
X910349Y89062D01*
X910468Y89040D01*
X910585Y89015D01*
X910702Y88986D01*
X910817Y88953D01*
X910932Y88916D01*
X911045Y88876D01*
X911157Y88831D01*
X911267Y88784D01*
X911376Y88732D01*
X911482Y88677D01*
X911588Y88619D01*
X911691Y88557D01*
X911792Y88492D01*
X911890Y88424D01*
X911987Y88352D01*
X912081Y88277D01*
X912173Y88200D01*
X912262Y88119D01*
X912348Y88035D01*
X912432Y87949D01*
X912513Y87860D01*
X912590Y87768D01*
X912665Y87674D01*
X912737Y87577D01*
X912805Y87479D01*
X912870Y87378D01*
X912932Y87275D01*
X912990Y87169D01*
X913045Y87063D01*
X913097Y86954D01*
X913144Y86844D01*
X913189Y86732D01*
X913229Y86619D01*
X913266Y86504D01*
X913299Y86389D01*
X913328Y86272D01*
X913353Y86155D01*
X913375Y86036D01*
X913393Y85917D01*
X913406Y85798D01*
X913416Y85678D01*
X913422Y85558D01*
X913424Y85438D01*
X913424Y79562D01*
X913422Y79442D01*
X913416Y79322D01*
X913406Y79202D01*
X913393Y79083D01*
X913375Y78964D01*
X913353Y78845D01*
X913328Y78728D01*
X913299Y78611D01*
X913266Y78496D01*
X913229Y78381D01*
X913189Y78268D01*
X913144Y78156D01*
X913097Y78046D01*
X913045Y77937D01*
X912990Y77831D01*
X912932Y77726D01*
X912870Y77622D01*
X912805Y77521D01*
X912737Y77423D01*
X912665Y77326D01*
X912590Y77232D01*
X912513Y77140D01*
X912432Y77051D01*
X912348Y76965D01*
X912262Y76881D01*
X912173Y76800D01*
X912081Y76723D01*
X911987Y76648D01*
X911890Y76576D01*
X911792Y76508D01*
X911691Y76443D01*
X911588Y76381D01*
X911482Y76323D01*
X911376Y76268D01*
X911267Y76216D01*
X911157Y76169D01*
X911045Y76124D01*
X910932Y76084D01*
X910817Y76047D01*
X910702Y76014D01*
X910585Y75985D01*
X910468Y75960D01*
X910349Y75938D01*
X910230Y75920D01*
X910111Y75907D01*
X909991Y75897D01*
X909871Y75891D01*
X909751Y75889D01*
X909631Y75891D01*
X909511Y75897D01*
X909391Y75907D01*
X909272Y75920D01*
X909153Y75938D01*
X909034Y75960D01*
X908917Y75985D01*
X908800Y76014D01*
X908685Y76047D01*
X908570Y76084D01*
X908457Y76124D01*
X908345Y76169D01*
X908235Y76216D01*
X908126Y76268D01*
X908020Y76323D01*
X907915Y76381D01*
X907811Y76443D01*
X907710Y76508D01*
X907612Y76576D01*
X907515Y76648D01*
X907421Y76723D01*
X907329Y76800D01*
X907240Y76881D01*
X907154Y76965D01*
X907070Y77051D01*
X906989Y77140D01*
X906912Y77232D01*
X906837Y77326D01*
X906765Y77423D01*
X906697Y77521D01*
X906632Y77622D01*
X906570Y77725D01*
X906512Y77831D01*
X906457Y77937D01*
X906405Y78046D01*
X906358Y78156D01*
X906313Y78268D01*
X906273Y78381D01*
X906236Y78496D01*
X906203Y78611D01*
X906174Y78728D01*
X906149Y78845D01*
X906127Y78964D01*
X906109Y79083D01*
X906096Y79202D01*
X906086Y79322D01*
X906080Y79442D01*
X906078Y79562D01*
X920028Y79562D02*
X920028Y89111D01*
X920028Y79562D02*
X920030Y79442D01*
X920036Y79322D01*
X920046Y79202D01*
X920059Y79083D01*
X920077Y78964D01*
X920099Y78845D01*
X920124Y78728D01*
X920153Y78611D01*
X920186Y78496D01*
X920223Y78381D01*
X920263Y78268D01*
X920308Y78156D01*
X920355Y78046D01*
X920407Y77937D01*
X920462Y77831D01*
X920520Y77725D01*
X920582Y77622D01*
X920647Y77521D01*
X920715Y77423D01*
X920787Y77326D01*
X920862Y77232D01*
X920939Y77140D01*
X921020Y77051D01*
X921104Y76965D01*
X921190Y76881D01*
X921279Y76800D01*
X921371Y76723D01*
X921465Y76648D01*
X921562Y76576D01*
X921660Y76508D01*
X921761Y76443D01*
X921865Y76381D01*
X921970Y76323D01*
X922076Y76268D01*
X922185Y76216D01*
X922295Y76169D01*
X922407Y76124D01*
X922520Y76084D01*
X922635Y76047D01*
X922750Y76014D01*
X922867Y75985D01*
X922984Y75960D01*
X923103Y75938D01*
X923222Y75920D01*
X923341Y75907D01*
X923461Y75897D01*
X923581Y75891D01*
X923701Y75889D01*
X923821Y75891D01*
X923941Y75897D01*
X924061Y75907D01*
X924180Y75920D01*
X924299Y75938D01*
X924418Y75960D01*
X924535Y75985D01*
X924652Y76014D01*
X924767Y76047D01*
X924882Y76084D01*
X924995Y76124D01*
X925107Y76169D01*
X925217Y76216D01*
X925326Y76268D01*
X925432Y76323D01*
X925538Y76381D01*
X925641Y76443D01*
X925742Y76508D01*
X925840Y76576D01*
X925937Y76648D01*
X926031Y76723D01*
X926123Y76800D01*
X926212Y76881D01*
X926298Y76965D01*
X926382Y77051D01*
X926463Y77140D01*
X926540Y77232D01*
X926615Y77326D01*
X926687Y77423D01*
X926755Y77521D01*
X926820Y77622D01*
X926882Y77726D01*
X926940Y77831D01*
X926995Y77937D01*
X927047Y78046D01*
X927094Y78156D01*
X927139Y78268D01*
X927179Y78381D01*
X927216Y78496D01*
X927249Y78611D01*
X927278Y78728D01*
X927303Y78845D01*
X927325Y78964D01*
X927343Y79083D01*
X927356Y79202D01*
X927366Y79322D01*
X927372Y79442D01*
X927374Y79562D01*
X927374Y89111D01*
X934677Y89111D02*
X934677Y75889D01*
X934677Y89111D02*
X938349Y89111D01*
X938469Y89109D01*
X938589Y89103D01*
X938709Y89093D01*
X938828Y89080D01*
X938947Y89062D01*
X939066Y89040D01*
X939183Y89015D01*
X939300Y88986D01*
X939415Y88953D01*
X939530Y88916D01*
X939643Y88876D01*
X939755Y88831D01*
X939865Y88784D01*
X939974Y88732D01*
X940080Y88677D01*
X940186Y88619D01*
X940289Y88557D01*
X940390Y88492D01*
X940488Y88424D01*
X940585Y88352D01*
X940679Y88277D01*
X940771Y88200D01*
X940860Y88119D01*
X940946Y88035D01*
X941030Y87949D01*
X941111Y87860D01*
X941188Y87768D01*
X941263Y87674D01*
X941335Y87577D01*
X941403Y87479D01*
X941468Y87378D01*
X941530Y87275D01*
X941588Y87169D01*
X941643Y87063D01*
X941695Y86954D01*
X941742Y86844D01*
X941787Y86732D01*
X941827Y86619D01*
X941864Y86504D01*
X941897Y86389D01*
X941926Y86272D01*
X941951Y86155D01*
X941973Y86036D01*
X941991Y85917D01*
X942004Y85798D01*
X942014Y85678D01*
X942020Y85558D01*
X942022Y85438D01*
X942020Y85318D01*
X942014Y85198D01*
X942004Y85078D01*
X941991Y84959D01*
X941973Y84840D01*
X941951Y84721D01*
X941926Y84604D01*
X941897Y84487D01*
X941864Y84372D01*
X941827Y84257D01*
X941787Y84144D01*
X941742Y84032D01*
X941695Y83922D01*
X941643Y83813D01*
X941588Y83707D01*
X941530Y83602D01*
X941468Y83498D01*
X941403Y83397D01*
X941335Y83299D01*
X941263Y83202D01*
X941188Y83108D01*
X941111Y83016D01*
X941030Y82927D01*
X940946Y82841D01*
X940860Y82757D01*
X940771Y82676D01*
X940679Y82599D01*
X940585Y82524D01*
X940488Y82452D01*
X940390Y82384D01*
X940289Y82319D01*
X940186Y82257D01*
X940080Y82199D01*
X939974Y82144D01*
X939865Y82092D01*
X939755Y82045D01*
X939643Y82000D01*
X939530Y81960D01*
X939415Y81923D01*
X939300Y81890D01*
X939183Y81861D01*
X939066Y81836D01*
X938947Y81814D01*
X938828Y81796D01*
X938709Y81783D01*
X938589Y81773D01*
X938469Y81767D01*
X938349Y81765D01*
X934677Y81765D01*
X666402Y64235D02*
X662729Y64235D01*
X666402Y64235D02*
X666522Y64233D01*
X666642Y64227D01*
X666762Y64217D01*
X666881Y64204D01*
X667000Y64186D01*
X667119Y64164D01*
X667236Y64139D01*
X667353Y64110D01*
X667468Y64077D01*
X667583Y64040D01*
X667696Y64000D01*
X667808Y63955D01*
X667918Y63908D01*
X668027Y63856D01*
X668133Y63801D01*
X668239Y63743D01*
X668342Y63681D01*
X668443Y63616D01*
X668541Y63548D01*
X668638Y63476D01*
X668732Y63401D01*
X668824Y63324D01*
X668913Y63243D01*
X668999Y63159D01*
X669083Y63073D01*
X669164Y62984D01*
X669241Y62892D01*
X669316Y62798D01*
X669388Y62701D01*
X669456Y62603D01*
X669521Y62502D01*
X669583Y62399D01*
X669641Y62293D01*
X669696Y62187D01*
X669748Y62078D01*
X669795Y61968D01*
X669840Y61856D01*
X669880Y61743D01*
X669917Y61628D01*
X669950Y61513D01*
X669979Y61396D01*
X670004Y61279D01*
X670026Y61160D01*
X670044Y61041D01*
X670057Y60922D01*
X670067Y60802D01*
X670073Y60682D01*
X670075Y60562D01*
X670073Y60442D01*
X670067Y60322D01*
X670057Y60202D01*
X670044Y60083D01*
X670026Y59964D01*
X670004Y59845D01*
X669979Y59728D01*
X669950Y59611D01*
X669917Y59496D01*
X669880Y59381D01*
X669840Y59268D01*
X669795Y59156D01*
X669748Y59046D01*
X669696Y58937D01*
X669641Y58831D01*
X669583Y58726D01*
X669521Y58622D01*
X669456Y58521D01*
X669388Y58423D01*
X669316Y58326D01*
X669241Y58232D01*
X669164Y58140D01*
X669083Y58051D01*
X668999Y57965D01*
X668913Y57881D01*
X668824Y57800D01*
X668732Y57723D01*
X668638Y57648D01*
X668541Y57576D01*
X668443Y57508D01*
X668342Y57443D01*
X668239Y57381D01*
X668133Y57323D01*
X668027Y57268D01*
X667918Y57216D01*
X667808Y57169D01*
X667696Y57124D01*
X667583Y57084D01*
X667468Y57047D01*
X667353Y57014D01*
X667236Y56985D01*
X667119Y56960D01*
X667000Y56938D01*
X666881Y56920D01*
X666762Y56907D01*
X666642Y56897D01*
X666522Y56891D01*
X666402Y56889D01*
X662729Y56889D01*
X662729Y70111D01*
X666402Y70111D01*
X666509Y70109D01*
X666616Y70103D01*
X666723Y70093D01*
X666830Y70080D01*
X666936Y70062D01*
X667041Y70041D01*
X667145Y70015D01*
X667248Y69986D01*
X667351Y69954D01*
X667452Y69917D01*
X667551Y69877D01*
X667649Y69833D01*
X667745Y69786D01*
X667840Y69735D01*
X667933Y69681D01*
X668023Y69623D01*
X668112Y69562D01*
X668198Y69498D01*
X668281Y69431D01*
X668363Y69361D01*
X668441Y69288D01*
X668517Y69212D01*
X668590Y69134D01*
X668660Y69052D01*
X668727Y68969D01*
X668791Y68883D01*
X668852Y68794D01*
X668910Y68704D01*
X668964Y68611D01*
X669015Y68516D01*
X669062Y68420D01*
X669106Y68322D01*
X669146Y68223D01*
X669183Y68122D01*
X669215Y68019D01*
X669244Y67916D01*
X669270Y67812D01*
X669291Y67707D01*
X669309Y67601D01*
X669322Y67494D01*
X669332Y67387D01*
X669338Y67280D01*
X669340Y67173D01*
X669338Y67066D01*
X669332Y66959D01*
X669322Y66852D01*
X669309Y66745D01*
X669291Y66639D01*
X669270Y66534D01*
X669244Y66430D01*
X669215Y66327D01*
X669183Y66224D01*
X669146Y66123D01*
X669106Y66024D01*
X669062Y65926D01*
X669015Y65830D01*
X668964Y65735D01*
X668910Y65642D01*
X668852Y65552D01*
X668791Y65463D01*
X668727Y65377D01*
X668660Y65294D01*
X668590Y65212D01*
X668517Y65134D01*
X668441Y65058D01*
X668363Y64985D01*
X668281Y64915D01*
X668198Y64848D01*
X668112Y64784D01*
X668023Y64723D01*
X667933Y64665D01*
X667840Y64611D01*
X667745Y64560D01*
X667649Y64513D01*
X667551Y64469D01*
X667452Y64429D01*
X667351Y64392D01*
X667248Y64360D01*
X667145Y64331D01*
X667041Y64305D01*
X666936Y64284D01*
X666830Y64266D01*
X666723Y64253D01*
X666616Y64243D01*
X666509Y64237D01*
X666402Y64235D01*
X676089Y70111D02*
X676089Y56889D01*
X676089Y70111D02*
X679761Y70111D01*
X679881Y70109D01*
X680001Y70103D01*
X680121Y70093D01*
X680240Y70080D01*
X680359Y70062D01*
X680478Y70040D01*
X680595Y70015D01*
X680712Y69986D01*
X680827Y69953D01*
X680942Y69916D01*
X681055Y69876D01*
X681167Y69831D01*
X681277Y69784D01*
X681386Y69732D01*
X681492Y69677D01*
X681598Y69619D01*
X681701Y69557D01*
X681802Y69492D01*
X681900Y69424D01*
X681997Y69352D01*
X682091Y69277D01*
X682183Y69200D01*
X682272Y69119D01*
X682358Y69035D01*
X682442Y68949D01*
X682523Y68860D01*
X682600Y68768D01*
X682675Y68674D01*
X682747Y68577D01*
X682815Y68479D01*
X682880Y68378D01*
X682942Y68275D01*
X683000Y68169D01*
X683055Y68063D01*
X683107Y67954D01*
X683154Y67844D01*
X683199Y67732D01*
X683239Y67619D01*
X683276Y67504D01*
X683309Y67389D01*
X683338Y67272D01*
X683363Y67155D01*
X683385Y67036D01*
X683403Y66917D01*
X683416Y66798D01*
X683426Y66678D01*
X683432Y66558D01*
X683434Y66438D01*
X683432Y66318D01*
X683426Y66198D01*
X683416Y66078D01*
X683403Y65959D01*
X683385Y65840D01*
X683363Y65721D01*
X683338Y65604D01*
X683309Y65487D01*
X683276Y65372D01*
X683239Y65257D01*
X683199Y65144D01*
X683154Y65032D01*
X683107Y64922D01*
X683055Y64813D01*
X683000Y64707D01*
X682942Y64602D01*
X682880Y64498D01*
X682815Y64397D01*
X682747Y64299D01*
X682675Y64202D01*
X682600Y64108D01*
X682523Y64016D01*
X682442Y63927D01*
X682358Y63841D01*
X682272Y63757D01*
X682183Y63676D01*
X682091Y63599D01*
X681997Y63524D01*
X681900Y63452D01*
X681802Y63384D01*
X681701Y63319D01*
X681598Y63257D01*
X681492Y63199D01*
X681386Y63144D01*
X681277Y63092D01*
X681167Y63045D01*
X681055Y63000D01*
X680942Y62960D01*
X680827Y62923D01*
X680712Y62890D01*
X680595Y62861D01*
X680478Y62836D01*
X680359Y62814D01*
X680240Y62796D01*
X680121Y62783D01*
X680001Y62773D01*
X679881Y62767D01*
X679761Y62765D01*
X676089Y62765D01*
X680496Y62765D02*
X683434Y56889D01*
X689964Y56889D02*
X695840Y56889D01*
X689964Y56889D02*
X689964Y70111D01*
X695840Y70111D01*
X694371Y64235D02*
X689964Y64235D01*
X701631Y70111D02*
X701631Y56889D01*
X708976Y56889D02*
X701631Y70111D01*
X708976Y70111D02*
X708976Y56889D01*
X716031Y56889D02*
X716031Y70111D01*
X719703Y70111D01*
X719823Y70109D01*
X719943Y70103D01*
X720063Y70093D01*
X720182Y70080D01*
X720301Y70062D01*
X720420Y70040D01*
X720537Y70015D01*
X720654Y69986D01*
X720769Y69953D01*
X720884Y69916D01*
X720997Y69876D01*
X721109Y69831D01*
X721219Y69784D01*
X721328Y69732D01*
X721434Y69677D01*
X721540Y69619D01*
X721643Y69557D01*
X721744Y69492D01*
X721842Y69424D01*
X721939Y69352D01*
X722033Y69277D01*
X722125Y69200D01*
X722214Y69119D01*
X722300Y69035D01*
X722384Y68949D01*
X722465Y68860D01*
X722542Y68768D01*
X722617Y68674D01*
X722689Y68577D01*
X722757Y68479D01*
X722822Y68378D01*
X722884Y68275D01*
X722942Y68169D01*
X722997Y68063D01*
X723049Y67954D01*
X723096Y67844D01*
X723141Y67732D01*
X723181Y67619D01*
X723218Y67504D01*
X723251Y67389D01*
X723280Y67272D01*
X723305Y67155D01*
X723327Y67036D01*
X723345Y66917D01*
X723358Y66798D01*
X723368Y66678D01*
X723374Y66558D01*
X723376Y66438D01*
X723376Y60562D01*
X723374Y60442D01*
X723368Y60322D01*
X723358Y60202D01*
X723345Y60083D01*
X723327Y59964D01*
X723305Y59845D01*
X723280Y59728D01*
X723251Y59611D01*
X723218Y59496D01*
X723181Y59381D01*
X723141Y59268D01*
X723096Y59156D01*
X723049Y59046D01*
X722997Y58937D01*
X722942Y58831D01*
X722884Y58726D01*
X722822Y58622D01*
X722757Y58521D01*
X722689Y58423D01*
X722617Y58326D01*
X722542Y58232D01*
X722465Y58140D01*
X722384Y58051D01*
X722300Y57965D01*
X722214Y57881D01*
X722125Y57800D01*
X722033Y57723D01*
X721939Y57648D01*
X721842Y57576D01*
X721744Y57508D01*
X721643Y57443D01*
X721540Y57381D01*
X721434Y57323D01*
X721328Y57268D01*
X721219Y57216D01*
X721109Y57169D01*
X720997Y57124D01*
X720884Y57084D01*
X720769Y57047D01*
X720654Y57014D01*
X720537Y56985D01*
X720420Y56960D01*
X720301Y56938D01*
X720182Y56920D01*
X720063Y56907D01*
X719943Y56897D01*
X719823Y56891D01*
X719703Y56889D01*
X716031Y56889D01*
X729246Y56889D02*
X733653Y70111D01*
X738061Y56889D01*
X736959Y60195D02*
X730348Y60195D01*
X743931Y56889D02*
X743931Y70111D01*
X751276Y56889D01*
X751276Y70111D01*
X765779Y64235D02*
X769452Y64235D01*
X769572Y64233D01*
X769692Y64227D01*
X769812Y64217D01*
X769931Y64204D01*
X770050Y64186D01*
X770169Y64164D01*
X770286Y64139D01*
X770403Y64110D01*
X770518Y64077D01*
X770633Y64040D01*
X770746Y64000D01*
X770858Y63955D01*
X770968Y63908D01*
X771077Y63856D01*
X771183Y63801D01*
X771289Y63743D01*
X771392Y63681D01*
X771493Y63616D01*
X771591Y63548D01*
X771688Y63476D01*
X771782Y63401D01*
X771874Y63324D01*
X771963Y63243D01*
X772049Y63159D01*
X772133Y63073D01*
X772214Y62984D01*
X772291Y62892D01*
X772366Y62798D01*
X772438Y62701D01*
X772506Y62603D01*
X772571Y62502D01*
X772633Y62399D01*
X772691Y62293D01*
X772746Y62187D01*
X772798Y62078D01*
X772845Y61968D01*
X772890Y61856D01*
X772930Y61743D01*
X772967Y61628D01*
X773000Y61513D01*
X773029Y61396D01*
X773054Y61279D01*
X773076Y61160D01*
X773094Y61041D01*
X773107Y60922D01*
X773117Y60802D01*
X773123Y60682D01*
X773125Y60562D01*
X773123Y60442D01*
X773117Y60322D01*
X773107Y60202D01*
X773094Y60083D01*
X773076Y59964D01*
X773054Y59845D01*
X773029Y59728D01*
X773000Y59611D01*
X772967Y59496D01*
X772930Y59381D01*
X772890Y59268D01*
X772845Y59156D01*
X772798Y59046D01*
X772746Y58937D01*
X772691Y58831D01*
X772633Y58726D01*
X772571Y58622D01*
X772506Y58521D01*
X772438Y58423D01*
X772366Y58326D01*
X772291Y58232D01*
X772214Y58140D01*
X772133Y58051D01*
X772049Y57965D01*
X771963Y57881D01*
X771874Y57800D01*
X771782Y57723D01*
X771688Y57648D01*
X771591Y57576D01*
X771493Y57508D01*
X771392Y57443D01*
X771289Y57381D01*
X771183Y57323D01*
X771077Y57268D01*
X770968Y57216D01*
X770858Y57169D01*
X770746Y57124D01*
X770633Y57084D01*
X770518Y57047D01*
X770403Y57014D01*
X770286Y56985D01*
X770169Y56960D01*
X770050Y56938D01*
X769931Y56920D01*
X769812Y56907D01*
X769692Y56897D01*
X769572Y56891D01*
X769452Y56889D01*
X765779Y56889D01*
X765779Y70111D01*
X769452Y70111D01*
X769559Y70109D01*
X769666Y70103D01*
X769773Y70093D01*
X769880Y70080D01*
X769986Y70062D01*
X770091Y70041D01*
X770195Y70015D01*
X770298Y69986D01*
X770401Y69954D01*
X770502Y69917D01*
X770601Y69877D01*
X770699Y69833D01*
X770795Y69786D01*
X770890Y69735D01*
X770983Y69681D01*
X771073Y69623D01*
X771162Y69562D01*
X771248Y69498D01*
X771331Y69431D01*
X771413Y69361D01*
X771491Y69288D01*
X771567Y69212D01*
X771640Y69134D01*
X771710Y69052D01*
X771777Y68969D01*
X771841Y68883D01*
X771902Y68794D01*
X771960Y68704D01*
X772014Y68611D01*
X772065Y68516D01*
X772112Y68420D01*
X772156Y68322D01*
X772196Y68223D01*
X772233Y68122D01*
X772265Y68019D01*
X772294Y67916D01*
X772320Y67812D01*
X772341Y67707D01*
X772359Y67601D01*
X772372Y67494D01*
X772382Y67387D01*
X772388Y67280D01*
X772390Y67173D01*
X772388Y67066D01*
X772382Y66959D01*
X772372Y66852D01*
X772359Y66745D01*
X772341Y66639D01*
X772320Y66534D01*
X772294Y66430D01*
X772265Y66327D01*
X772233Y66224D01*
X772196Y66123D01*
X772156Y66024D01*
X772112Y65926D01*
X772065Y65830D01*
X772014Y65735D01*
X771960Y65642D01*
X771902Y65552D01*
X771841Y65463D01*
X771777Y65377D01*
X771710Y65294D01*
X771640Y65212D01*
X771567Y65134D01*
X771491Y65058D01*
X771413Y64985D01*
X771331Y64915D01*
X771248Y64848D01*
X771162Y64784D01*
X771073Y64723D01*
X770983Y64665D01*
X770890Y64611D01*
X770795Y64560D01*
X770699Y64513D01*
X770601Y64469D01*
X770502Y64429D01*
X770401Y64392D01*
X770298Y64360D01*
X770195Y64331D01*
X770091Y64305D01*
X769986Y64284D01*
X769880Y64266D01*
X769773Y64253D01*
X769666Y64243D01*
X769559Y64237D01*
X769452Y64235D01*
X779139Y70111D02*
X779139Y56889D01*
X779139Y70111D02*
X782811Y70111D01*
X782931Y70109D01*
X783051Y70103D01*
X783171Y70093D01*
X783290Y70080D01*
X783409Y70062D01*
X783528Y70040D01*
X783645Y70015D01*
X783762Y69986D01*
X783877Y69953D01*
X783992Y69916D01*
X784105Y69876D01*
X784217Y69831D01*
X784327Y69784D01*
X784436Y69732D01*
X784542Y69677D01*
X784648Y69619D01*
X784751Y69557D01*
X784852Y69492D01*
X784950Y69424D01*
X785047Y69352D01*
X785141Y69277D01*
X785233Y69200D01*
X785322Y69119D01*
X785408Y69035D01*
X785492Y68949D01*
X785573Y68860D01*
X785650Y68768D01*
X785725Y68674D01*
X785797Y68577D01*
X785865Y68479D01*
X785930Y68378D01*
X785992Y68275D01*
X786050Y68169D01*
X786105Y68063D01*
X786157Y67954D01*
X786204Y67844D01*
X786249Y67732D01*
X786289Y67619D01*
X786326Y67504D01*
X786359Y67389D01*
X786388Y67272D01*
X786413Y67155D01*
X786435Y67036D01*
X786453Y66917D01*
X786466Y66798D01*
X786476Y66678D01*
X786482Y66558D01*
X786484Y66438D01*
X786482Y66318D01*
X786476Y66198D01*
X786466Y66078D01*
X786453Y65959D01*
X786435Y65840D01*
X786413Y65721D01*
X786388Y65604D01*
X786359Y65487D01*
X786326Y65372D01*
X786289Y65257D01*
X786249Y65144D01*
X786204Y65032D01*
X786157Y64922D01*
X786105Y64813D01*
X786050Y64707D01*
X785992Y64602D01*
X785930Y64498D01*
X785865Y64397D01*
X785797Y64299D01*
X785725Y64202D01*
X785650Y64108D01*
X785573Y64016D01*
X785492Y63927D01*
X785408Y63841D01*
X785322Y63757D01*
X785233Y63676D01*
X785141Y63599D01*
X785047Y63524D01*
X784950Y63452D01*
X784852Y63384D01*
X784751Y63319D01*
X784648Y63257D01*
X784542Y63199D01*
X784436Y63144D01*
X784327Y63092D01*
X784217Y63045D01*
X784105Y63000D01*
X783992Y62960D01*
X783877Y62923D01*
X783762Y62890D01*
X783645Y62861D01*
X783528Y62836D01*
X783409Y62814D01*
X783290Y62796D01*
X783171Y62783D01*
X783051Y62773D01*
X782931Y62767D01*
X782811Y62765D01*
X779139Y62765D01*
X783546Y62765D02*
X786484Y56889D01*
X791796Y56889D02*
X796203Y70111D01*
X800611Y56889D01*
X799509Y60195D02*
X792898Y60195D01*
X806646Y56889D02*
X806646Y70111D01*
X811053Y62765D01*
X815461Y70111D01*
X815461Y56889D01*
X822846Y56889D02*
X822846Y70111D01*
X827253Y62765D01*
X831661Y70111D01*
X831661Y56889D01*
X837696Y56889D02*
X842103Y70111D01*
X846511Y56889D01*
X845409Y60195D02*
X838798Y60195D01*
X852380Y56889D02*
X852380Y70111D01*
X859726Y56889D01*
X859726Y70111D01*
X873530Y56889D02*
X877203Y56889D01*
X877323Y56891D01*
X877443Y56897D01*
X877563Y56907D01*
X877682Y56920D01*
X877801Y56938D01*
X877920Y56960D01*
X878037Y56985D01*
X878154Y57014D01*
X878269Y57047D01*
X878384Y57084D01*
X878497Y57124D01*
X878609Y57169D01*
X878719Y57216D01*
X878828Y57268D01*
X878934Y57323D01*
X879040Y57381D01*
X879143Y57443D01*
X879244Y57508D01*
X879342Y57576D01*
X879439Y57648D01*
X879533Y57723D01*
X879625Y57800D01*
X879714Y57881D01*
X879800Y57965D01*
X879884Y58051D01*
X879965Y58140D01*
X880042Y58232D01*
X880117Y58326D01*
X880189Y58423D01*
X880257Y58521D01*
X880322Y58622D01*
X880384Y58726D01*
X880442Y58831D01*
X880497Y58937D01*
X880549Y59046D01*
X880596Y59156D01*
X880641Y59268D01*
X880681Y59381D01*
X880718Y59496D01*
X880751Y59611D01*
X880780Y59728D01*
X880805Y59845D01*
X880827Y59964D01*
X880845Y60083D01*
X880858Y60202D01*
X880868Y60322D01*
X880874Y60442D01*
X880876Y60562D01*
X880874Y60682D01*
X880868Y60802D01*
X880858Y60922D01*
X880845Y61041D01*
X880827Y61160D01*
X880805Y61279D01*
X880780Y61396D01*
X880751Y61513D01*
X880718Y61628D01*
X880681Y61743D01*
X880641Y61856D01*
X880596Y61968D01*
X880549Y62078D01*
X880497Y62187D01*
X880442Y62293D01*
X880384Y62399D01*
X880322Y62502D01*
X880257Y62603D01*
X880189Y62701D01*
X880117Y62798D01*
X880042Y62892D01*
X879965Y62984D01*
X879884Y63073D01*
X879800Y63159D01*
X879714Y63243D01*
X879625Y63324D01*
X879533Y63401D01*
X879439Y63476D01*
X879342Y63548D01*
X879244Y63616D01*
X879143Y63681D01*
X879040Y63743D01*
X878934Y63801D01*
X878828Y63856D01*
X878719Y63908D01*
X878609Y63955D01*
X878497Y64000D01*
X878384Y64040D01*
X878269Y64077D01*
X878154Y64110D01*
X878037Y64139D01*
X877920Y64164D01*
X877801Y64186D01*
X877682Y64204D01*
X877563Y64217D01*
X877443Y64227D01*
X877323Y64233D01*
X877203Y64235D01*
X877938Y70111D02*
X873530Y70111D01*
X877938Y70111D02*
X878045Y70109D01*
X878152Y70103D01*
X878259Y70093D01*
X878366Y70080D01*
X878472Y70062D01*
X878577Y70041D01*
X878681Y70015D01*
X878784Y69986D01*
X878887Y69954D01*
X878988Y69917D01*
X879087Y69877D01*
X879185Y69833D01*
X879281Y69786D01*
X879376Y69735D01*
X879469Y69681D01*
X879559Y69623D01*
X879648Y69562D01*
X879734Y69498D01*
X879817Y69431D01*
X879899Y69361D01*
X879977Y69288D01*
X880053Y69212D01*
X880126Y69134D01*
X880196Y69052D01*
X880263Y68969D01*
X880327Y68883D01*
X880388Y68794D01*
X880446Y68704D01*
X880500Y68611D01*
X880551Y68516D01*
X880598Y68420D01*
X880642Y68322D01*
X880682Y68223D01*
X880719Y68122D01*
X880751Y68019D01*
X880780Y67916D01*
X880806Y67812D01*
X880827Y67707D01*
X880845Y67601D01*
X880858Y67494D01*
X880868Y67387D01*
X880874Y67280D01*
X880876Y67173D01*
X880874Y67066D01*
X880868Y66959D01*
X880858Y66852D01*
X880845Y66745D01*
X880827Y66639D01*
X880806Y66534D01*
X880780Y66430D01*
X880751Y66327D01*
X880719Y66224D01*
X880682Y66123D01*
X880642Y66024D01*
X880598Y65926D01*
X880551Y65830D01*
X880500Y65735D01*
X880446Y65642D01*
X880388Y65552D01*
X880327Y65463D01*
X880263Y65377D01*
X880196Y65294D01*
X880126Y65212D01*
X880053Y65134D01*
X879977Y65058D01*
X879899Y64985D01*
X879817Y64915D01*
X879734Y64848D01*
X879648Y64784D01*
X879559Y64723D01*
X879469Y64665D01*
X879376Y64611D01*
X879281Y64560D01*
X879185Y64513D01*
X879087Y64469D01*
X878988Y64429D01*
X878887Y64392D01*
X878784Y64360D01*
X878681Y64331D01*
X878577Y64305D01*
X878472Y64284D01*
X878366Y64266D01*
X878259Y64253D01*
X878152Y64243D01*
X878045Y64237D01*
X877938Y64235D01*
X875000Y64235D01*
X886415Y55420D02*
X892291Y71580D01*
X901870Y70112D02*
X901983Y70110D01*
X902096Y70104D01*
X902208Y70095D01*
X902320Y70081D01*
X902432Y70064D01*
X902543Y70043D01*
X902653Y70018D01*
X902762Y69989D01*
X902870Y69957D01*
X902977Y69921D01*
X903083Y69882D01*
X903187Y69838D01*
X903290Y69792D01*
X903391Y69741D01*
X903490Y69688D01*
X903588Y69631D01*
X903683Y69570D01*
X903777Y69507D01*
X903868Y69440D01*
X903956Y69371D01*
X904043Y69298D01*
X904127Y69222D01*
X904208Y69144D01*
X904286Y69063D01*
X904362Y68979D01*
X904435Y68892D01*
X904504Y68804D01*
X904571Y68713D01*
X904634Y68619D01*
X904695Y68524D01*
X904752Y68426D01*
X904805Y68327D01*
X904856Y68226D01*
X904902Y68123D01*
X904946Y68019D01*
X904985Y67913D01*
X905021Y67806D01*
X905053Y67698D01*
X905082Y67589D01*
X905107Y67479D01*
X905128Y67368D01*
X905145Y67256D01*
X905159Y67144D01*
X905168Y67032D01*
X905174Y66919D01*
X905176Y66806D01*
X901870Y70111D02*
X901743Y70109D01*
X901616Y70103D01*
X901489Y70094D01*
X901363Y70081D01*
X901237Y70063D01*
X901111Y70043D01*
X900986Y70018D01*
X900862Y69990D01*
X900739Y69958D01*
X900617Y69922D01*
X900496Y69883D01*
X900377Y69840D01*
X900258Y69793D01*
X900141Y69743D01*
X900026Y69690D01*
X899912Y69633D01*
X899800Y69573D01*
X899690Y69509D01*
X899582Y69442D01*
X899476Y69372D01*
X899372Y69299D01*
X899270Y69222D01*
X899171Y69143D01*
X899074Y69061D01*
X898980Y68976D01*
X898888Y68888D01*
X898798Y68797D01*
X898712Y68704D01*
X898628Y68608D01*
X898548Y68510D01*
X898470Y68409D01*
X898395Y68306D01*
X898324Y68201D01*
X898255Y68094D01*
X898190Y67985D01*
X898128Y67873D01*
X898070Y67761D01*
X898015Y67646D01*
X897963Y67530D01*
X897915Y67412D01*
X897871Y67293D01*
X897830Y67172D01*
X904074Y64235D02*
X904156Y64315D01*
X904235Y64399D01*
X904312Y64484D01*
X904386Y64573D01*
X904457Y64663D01*
X904525Y64756D01*
X904589Y64851D01*
X904651Y64948D01*
X904710Y65047D01*
X904765Y65148D01*
X904817Y65250D01*
X904866Y65355D01*
X904911Y65460D01*
X904953Y65567D01*
X904991Y65676D01*
X905026Y65785D01*
X905057Y65896D01*
X905085Y66008D01*
X905109Y66120D01*
X905130Y66233D01*
X905146Y66347D01*
X905159Y66461D01*
X905169Y66576D01*
X905174Y66691D01*
X905176Y66806D01*
X904074Y64235D02*
X897830Y56889D01*
X905176Y56889D01*
X911330Y63500D02*
X911333Y63760D01*
X911342Y64020D01*
X911358Y64280D01*
X911380Y64539D01*
X911408Y64798D01*
X911442Y65055D01*
X911482Y65312D01*
X911528Y65568D01*
X911581Y65823D01*
X911639Y66077D01*
X911704Y66329D01*
X911774Y66579D01*
X911851Y66828D01*
X911933Y67074D01*
X912021Y67319D01*
X912115Y67562D01*
X912215Y67802D01*
X912321Y68039D01*
X912432Y68275D01*
X912432Y68274D02*
X912467Y68370D01*
X912505Y68465D01*
X912547Y68558D01*
X912593Y68650D01*
X912642Y68739D01*
X912694Y68827D01*
X912750Y68913D01*
X912808Y68997D01*
X912870Y69078D01*
X912935Y69157D01*
X913003Y69233D01*
X913073Y69307D01*
X913147Y69378D01*
X913223Y69447D01*
X913301Y69512D01*
X913382Y69575D01*
X913465Y69634D01*
X913550Y69690D01*
X913638Y69743D01*
X913727Y69793D01*
X913818Y69839D01*
X913911Y69882D01*
X914005Y69921D01*
X914101Y69957D01*
X914198Y69989D01*
X914296Y70017D01*
X914395Y70042D01*
X914495Y70063D01*
X914596Y70080D01*
X914697Y70094D01*
X914799Y70103D01*
X914901Y70109D01*
X915003Y70111D01*
X915105Y70109D01*
X915207Y70103D01*
X915309Y70094D01*
X915410Y70080D01*
X915511Y70063D01*
X915611Y70042D01*
X915710Y70017D01*
X915808Y69989D01*
X915905Y69957D01*
X916001Y69921D01*
X916095Y69882D01*
X916188Y69839D01*
X916279Y69793D01*
X916368Y69743D01*
X916456Y69690D01*
X916541Y69634D01*
X916624Y69575D01*
X916705Y69512D01*
X916783Y69447D01*
X916859Y69378D01*
X916933Y69307D01*
X917003Y69233D01*
X917071Y69157D01*
X917136Y69078D01*
X917198Y68997D01*
X917256Y68913D01*
X917312Y68827D01*
X917364Y68739D01*
X917413Y68650D01*
X917459Y68558D01*
X917501Y68465D01*
X917539Y68371D01*
X917574Y68275D01*
X917685Y68039D01*
X917791Y67802D01*
X917891Y67562D01*
X917985Y67319D01*
X918073Y67074D01*
X918155Y66828D01*
X918232Y66579D01*
X918302Y66329D01*
X918367Y66077D01*
X918425Y65823D01*
X918478Y65568D01*
X918524Y65312D01*
X918564Y65055D01*
X918598Y64798D01*
X918626Y64539D01*
X918648Y64280D01*
X918664Y64020D01*
X918673Y63760D01*
X918676Y63500D01*
X911331Y63500D02*
X911334Y63240D01*
X911343Y62980D01*
X911359Y62720D01*
X911381Y62461D01*
X911409Y62202D01*
X911443Y61945D01*
X911483Y61688D01*
X911529Y61432D01*
X911582Y61177D01*
X911640Y60923D01*
X911705Y60671D01*
X911775Y60421D01*
X911852Y60172D01*
X911934Y59926D01*
X912022Y59681D01*
X912116Y59439D01*
X912216Y59198D01*
X912322Y58961D01*
X912433Y58725D01*
X912432Y58725D02*
X912467Y58629D01*
X912505Y58535D01*
X912547Y58442D01*
X912593Y58350D01*
X912642Y58261D01*
X912694Y58173D01*
X912750Y58087D01*
X912808Y58003D01*
X912870Y57922D01*
X912935Y57843D01*
X913003Y57767D01*
X913073Y57693D01*
X913147Y57622D01*
X913223Y57553D01*
X913301Y57488D01*
X913382Y57425D01*
X913465Y57366D01*
X913550Y57310D01*
X913638Y57257D01*
X913727Y57207D01*
X913818Y57161D01*
X913911Y57118D01*
X914005Y57079D01*
X914101Y57043D01*
X914198Y57011D01*
X914296Y56983D01*
X914395Y56958D01*
X914495Y56937D01*
X914596Y56920D01*
X914697Y56906D01*
X914799Y56897D01*
X914901Y56891D01*
X915003Y56889D01*
X917574Y58725D02*
X917685Y58961D01*
X917791Y59198D01*
X917891Y59439D01*
X917985Y59681D01*
X918073Y59926D01*
X918155Y60172D01*
X918232Y60421D01*
X918302Y60671D01*
X918367Y60923D01*
X918425Y61177D01*
X918478Y61432D01*
X918524Y61688D01*
X918564Y61945D01*
X918598Y62202D01*
X918626Y62461D01*
X918648Y62720D01*
X918664Y62980D01*
X918673Y63240D01*
X918676Y63500D01*
X917574Y58725D02*
X917539Y58629D01*
X917501Y58535D01*
X917459Y58442D01*
X917413Y58350D01*
X917364Y58261D01*
X917312Y58173D01*
X917256Y58087D01*
X917198Y58003D01*
X917136Y57922D01*
X917071Y57843D01*
X917003Y57767D01*
X916933Y57693D01*
X916859Y57622D01*
X916783Y57553D01*
X916705Y57488D01*
X916624Y57425D01*
X916541Y57366D01*
X916456Y57310D01*
X916368Y57257D01*
X916279Y57207D01*
X916188Y57161D01*
X916095Y57118D01*
X916001Y57079D01*
X915905Y57043D01*
X915808Y57011D01*
X915710Y56983D01*
X915611Y56958D01*
X915511Y56937D01*
X915410Y56920D01*
X915309Y56906D01*
X915207Y56897D01*
X915105Y56891D01*
X915003Y56889D01*
X912065Y59827D02*
X917941Y67173D01*
X924830Y67173D02*
X928503Y70111D01*
X928503Y56889D01*
X924830Y56889D02*
X932176Y56889D01*
X938330Y60562D02*
X938332Y60682D01*
X938338Y60802D01*
X938348Y60922D01*
X938361Y61041D01*
X938379Y61160D01*
X938401Y61279D01*
X938426Y61396D01*
X938455Y61513D01*
X938488Y61628D01*
X938525Y61743D01*
X938565Y61856D01*
X938610Y61968D01*
X938657Y62078D01*
X938709Y62187D01*
X938764Y62293D01*
X938822Y62398D01*
X938884Y62502D01*
X938949Y62603D01*
X939017Y62701D01*
X939089Y62798D01*
X939164Y62892D01*
X939241Y62984D01*
X939322Y63073D01*
X939406Y63159D01*
X939492Y63243D01*
X939581Y63324D01*
X939673Y63401D01*
X939767Y63476D01*
X939864Y63548D01*
X939962Y63616D01*
X940063Y63681D01*
X940167Y63743D01*
X940272Y63801D01*
X940378Y63856D01*
X940487Y63908D01*
X940597Y63955D01*
X940709Y64000D01*
X940822Y64040D01*
X940937Y64077D01*
X941052Y64110D01*
X941169Y64139D01*
X941286Y64164D01*
X941405Y64186D01*
X941524Y64204D01*
X941643Y64217D01*
X941763Y64227D01*
X941883Y64233D01*
X942003Y64235D01*
X942123Y64233D01*
X942243Y64227D01*
X942363Y64217D01*
X942482Y64204D01*
X942601Y64186D01*
X942720Y64164D01*
X942837Y64139D01*
X942954Y64110D01*
X943069Y64077D01*
X943184Y64040D01*
X943297Y64000D01*
X943409Y63955D01*
X943519Y63908D01*
X943628Y63856D01*
X943734Y63801D01*
X943840Y63743D01*
X943943Y63681D01*
X944044Y63616D01*
X944142Y63548D01*
X944239Y63476D01*
X944333Y63401D01*
X944425Y63324D01*
X944514Y63243D01*
X944600Y63159D01*
X944684Y63073D01*
X944765Y62984D01*
X944842Y62892D01*
X944917Y62798D01*
X944989Y62701D01*
X945057Y62603D01*
X945122Y62502D01*
X945184Y62399D01*
X945242Y62293D01*
X945297Y62187D01*
X945349Y62078D01*
X945396Y61968D01*
X945441Y61856D01*
X945481Y61743D01*
X945518Y61628D01*
X945551Y61513D01*
X945580Y61396D01*
X945605Y61279D01*
X945627Y61160D01*
X945645Y61041D01*
X945658Y60922D01*
X945668Y60802D01*
X945674Y60682D01*
X945676Y60562D01*
X945674Y60442D01*
X945668Y60322D01*
X945658Y60202D01*
X945645Y60083D01*
X945627Y59964D01*
X945605Y59845D01*
X945580Y59728D01*
X945551Y59611D01*
X945518Y59496D01*
X945481Y59381D01*
X945441Y59268D01*
X945396Y59156D01*
X945349Y59046D01*
X945297Y58937D01*
X945242Y58831D01*
X945184Y58726D01*
X945122Y58622D01*
X945057Y58521D01*
X944989Y58423D01*
X944917Y58326D01*
X944842Y58232D01*
X944765Y58140D01*
X944684Y58051D01*
X944600Y57965D01*
X944514Y57881D01*
X944425Y57800D01*
X944333Y57723D01*
X944239Y57648D01*
X944142Y57576D01*
X944044Y57508D01*
X943943Y57443D01*
X943840Y57381D01*
X943734Y57323D01*
X943628Y57268D01*
X943519Y57216D01*
X943409Y57169D01*
X943297Y57124D01*
X943184Y57084D01*
X943069Y57047D01*
X942954Y57014D01*
X942837Y56985D01*
X942720Y56960D01*
X942601Y56938D01*
X942482Y56920D01*
X942363Y56907D01*
X942243Y56897D01*
X942123Y56891D01*
X942003Y56889D01*
X941883Y56891D01*
X941763Y56897D01*
X941643Y56907D01*
X941524Y56920D01*
X941405Y56938D01*
X941286Y56960D01*
X941169Y56985D01*
X941052Y57014D01*
X940937Y57047D01*
X940822Y57084D01*
X940709Y57124D01*
X940597Y57169D01*
X940487Y57216D01*
X940378Y57268D01*
X940272Y57323D01*
X940167Y57381D01*
X940063Y57443D01*
X939962Y57508D01*
X939864Y57576D01*
X939767Y57648D01*
X939673Y57723D01*
X939581Y57800D01*
X939492Y57881D01*
X939406Y57965D01*
X939322Y58051D01*
X939241Y58140D01*
X939164Y58232D01*
X939089Y58326D01*
X939017Y58423D01*
X938949Y58521D01*
X938884Y58622D01*
X938822Y58725D01*
X938764Y58831D01*
X938709Y58937D01*
X938657Y59046D01*
X938610Y59156D01*
X938565Y59268D01*
X938525Y59381D01*
X938488Y59496D01*
X938455Y59611D01*
X938426Y59728D01*
X938401Y59845D01*
X938379Y59964D01*
X938361Y60083D01*
X938348Y60202D01*
X938338Y60322D01*
X938332Y60442D01*
X938330Y60562D01*
X939065Y67173D02*
X939067Y67280D01*
X939073Y67387D01*
X939083Y67494D01*
X939096Y67601D01*
X939114Y67707D01*
X939135Y67812D01*
X939161Y67916D01*
X939190Y68019D01*
X939222Y68122D01*
X939259Y68223D01*
X939299Y68322D01*
X939343Y68420D01*
X939390Y68516D01*
X939441Y68611D01*
X939495Y68704D01*
X939553Y68794D01*
X939614Y68883D01*
X939678Y68969D01*
X939745Y69052D01*
X939815Y69134D01*
X939888Y69212D01*
X939964Y69288D01*
X940042Y69361D01*
X940124Y69431D01*
X940207Y69498D01*
X940293Y69562D01*
X940382Y69623D01*
X940472Y69681D01*
X940565Y69735D01*
X940660Y69786D01*
X940756Y69833D01*
X940854Y69877D01*
X940953Y69917D01*
X941054Y69954D01*
X941157Y69986D01*
X941260Y70015D01*
X941364Y70041D01*
X941469Y70062D01*
X941575Y70080D01*
X941682Y70093D01*
X941789Y70103D01*
X941896Y70109D01*
X942003Y70111D01*
X942110Y70109D01*
X942217Y70103D01*
X942324Y70093D01*
X942431Y70080D01*
X942537Y70062D01*
X942642Y70041D01*
X942746Y70015D01*
X942849Y69986D01*
X942952Y69954D01*
X943053Y69917D01*
X943152Y69877D01*
X943250Y69833D01*
X943346Y69786D01*
X943441Y69735D01*
X943534Y69681D01*
X943624Y69623D01*
X943713Y69562D01*
X943799Y69498D01*
X943882Y69431D01*
X943964Y69361D01*
X944042Y69288D01*
X944118Y69212D01*
X944191Y69134D01*
X944261Y69052D01*
X944328Y68969D01*
X944392Y68883D01*
X944453Y68794D01*
X944511Y68704D01*
X944565Y68611D01*
X944616Y68516D01*
X944663Y68420D01*
X944707Y68322D01*
X944747Y68223D01*
X944784Y68122D01*
X944816Y68019D01*
X944845Y67916D01*
X944871Y67812D01*
X944892Y67707D01*
X944910Y67601D01*
X944923Y67494D01*
X944933Y67387D01*
X944939Y67280D01*
X944941Y67173D01*
X944939Y67066D01*
X944933Y66959D01*
X944923Y66852D01*
X944910Y66745D01*
X944892Y66639D01*
X944871Y66534D01*
X944845Y66430D01*
X944816Y66327D01*
X944784Y66224D01*
X944747Y66123D01*
X944707Y66024D01*
X944663Y65926D01*
X944616Y65830D01*
X944565Y65735D01*
X944511Y65642D01*
X944453Y65552D01*
X944392Y65463D01*
X944328Y65377D01*
X944261Y65294D01*
X944191Y65212D01*
X944118Y65134D01*
X944042Y65058D01*
X943964Y64985D01*
X943882Y64915D01*
X943799Y64848D01*
X943713Y64784D01*
X943624Y64723D01*
X943534Y64665D01*
X943441Y64611D01*
X943346Y64560D01*
X943250Y64513D01*
X943152Y64469D01*
X943053Y64429D01*
X942952Y64392D01*
X942849Y64360D01*
X942746Y64331D01*
X942642Y64305D01*
X942537Y64284D01*
X942431Y64266D01*
X942324Y64253D01*
X942217Y64243D01*
X942110Y64237D01*
X942003Y64235D01*
X941896Y64237D01*
X941789Y64243D01*
X941682Y64253D01*
X941575Y64266D01*
X941469Y64284D01*
X941364Y64305D01*
X941260Y64331D01*
X941157Y64360D01*
X941054Y64392D01*
X940953Y64429D01*
X940854Y64469D01*
X940756Y64513D01*
X940660Y64560D01*
X940565Y64611D01*
X940472Y64665D01*
X940382Y64723D01*
X940293Y64784D01*
X940207Y64848D01*
X940124Y64915D01*
X940042Y64985D01*
X939964Y65058D01*
X939888Y65134D01*
X939815Y65212D01*
X939745Y65294D01*
X939678Y65377D01*
X939614Y65463D01*
X939553Y65552D01*
X939495Y65642D01*
X939441Y65735D01*
X939390Y65830D01*
X939343Y65926D01*
X939299Y66024D01*
X939259Y66123D01*
X939222Y66224D01*
X939190Y66327D01*
X939161Y66430D01*
X939135Y66534D01*
X939114Y66639D01*
X939096Y66745D01*
X939083Y66852D01*
X939073Y66959D01*
X939067Y67066D01*
X939065Y67173D01*
D11*
X36806Y562508D02*
X36806Y574192D01*
X35508Y562508D02*
X38104Y562508D01*
X38104Y574192D02*
X35508Y574192D01*
X43086Y574192D02*
X43086Y562508D01*
X49577Y562508D02*
X43086Y574192D01*
X49577Y574192D02*
X49577Y562508D01*
X55447Y562508D02*
X55447Y574192D01*
X58693Y574192D01*
X58806Y574190D01*
X58919Y574184D01*
X59032Y574174D01*
X59145Y574160D01*
X59257Y574143D01*
X59368Y574121D01*
X59478Y574096D01*
X59588Y574066D01*
X59696Y574033D01*
X59803Y573996D01*
X59909Y573956D01*
X60013Y573911D01*
X60116Y573863D01*
X60217Y573812D01*
X60316Y573757D01*
X60413Y573699D01*
X60508Y573637D01*
X60601Y573572D01*
X60691Y573504D01*
X60779Y573433D01*
X60865Y573358D01*
X60948Y573281D01*
X61028Y573201D01*
X61105Y573118D01*
X61180Y573032D01*
X61251Y572944D01*
X61319Y572854D01*
X61384Y572761D01*
X61446Y572666D01*
X61504Y572569D01*
X61559Y572470D01*
X61610Y572369D01*
X61658Y572266D01*
X61703Y572162D01*
X61743Y572056D01*
X61780Y571949D01*
X61813Y571841D01*
X61843Y571731D01*
X61868Y571621D01*
X61890Y571510D01*
X61907Y571398D01*
X61921Y571285D01*
X61931Y571172D01*
X61937Y571059D01*
X61939Y570946D01*
X61937Y570833D01*
X61931Y570720D01*
X61921Y570607D01*
X61907Y570494D01*
X61890Y570382D01*
X61868Y570271D01*
X61843Y570161D01*
X61813Y570051D01*
X61780Y569943D01*
X61743Y569836D01*
X61703Y569730D01*
X61658Y569626D01*
X61610Y569523D01*
X61559Y569422D01*
X61504Y569323D01*
X61446Y569226D01*
X61384Y569131D01*
X61319Y569038D01*
X61251Y568948D01*
X61180Y568860D01*
X61105Y568774D01*
X61028Y568691D01*
X60948Y568611D01*
X60865Y568534D01*
X60779Y568459D01*
X60691Y568388D01*
X60601Y568320D01*
X60508Y568255D01*
X60413Y568193D01*
X60316Y568135D01*
X60217Y568080D01*
X60116Y568029D01*
X60013Y567981D01*
X59909Y567936D01*
X59803Y567896D01*
X59696Y567859D01*
X59588Y567826D01*
X59478Y567796D01*
X59368Y567771D01*
X59257Y567749D01*
X59145Y567732D01*
X59032Y567718D01*
X58919Y567708D01*
X58806Y567702D01*
X58693Y567700D01*
X58693Y567701D02*
X55447Y567701D01*
X66708Y565754D02*
X66708Y574192D01*
X66707Y565754D02*
X66709Y565641D01*
X66715Y565528D01*
X66725Y565415D01*
X66739Y565302D01*
X66756Y565190D01*
X66778Y565079D01*
X66803Y564969D01*
X66833Y564859D01*
X66866Y564751D01*
X66903Y564644D01*
X66943Y564538D01*
X66988Y564434D01*
X67036Y564331D01*
X67087Y564230D01*
X67142Y564131D01*
X67200Y564034D01*
X67262Y563939D01*
X67327Y563846D01*
X67395Y563756D01*
X67466Y563668D01*
X67541Y563582D01*
X67618Y563499D01*
X67698Y563419D01*
X67781Y563342D01*
X67867Y563267D01*
X67955Y563196D01*
X68045Y563128D01*
X68138Y563063D01*
X68233Y563001D01*
X68330Y562943D01*
X68429Y562888D01*
X68530Y562837D01*
X68633Y562789D01*
X68737Y562744D01*
X68843Y562704D01*
X68950Y562667D01*
X69058Y562634D01*
X69168Y562604D01*
X69278Y562579D01*
X69389Y562557D01*
X69501Y562540D01*
X69614Y562526D01*
X69727Y562516D01*
X69840Y562510D01*
X69953Y562508D01*
X70066Y562510D01*
X70179Y562516D01*
X70292Y562526D01*
X70405Y562540D01*
X70517Y562557D01*
X70628Y562579D01*
X70738Y562604D01*
X70848Y562634D01*
X70956Y562667D01*
X71063Y562704D01*
X71169Y562744D01*
X71273Y562789D01*
X71376Y562837D01*
X71477Y562888D01*
X71576Y562943D01*
X71673Y563001D01*
X71768Y563063D01*
X71861Y563128D01*
X71951Y563196D01*
X72039Y563267D01*
X72125Y563342D01*
X72208Y563419D01*
X72288Y563499D01*
X72365Y563582D01*
X72440Y563668D01*
X72511Y563756D01*
X72579Y563846D01*
X72644Y563939D01*
X72706Y564034D01*
X72764Y564131D01*
X72819Y564230D01*
X72870Y564331D01*
X72918Y564434D01*
X72963Y564538D01*
X73003Y564644D01*
X73040Y564751D01*
X73073Y564859D01*
X73103Y564969D01*
X73128Y565079D01*
X73150Y565190D01*
X73167Y565302D01*
X73181Y565415D01*
X73191Y565528D01*
X73197Y565641D01*
X73199Y565754D01*
X73199Y574192D01*
X81002Y574192D02*
X81002Y562508D01*
X77757Y574192D02*
X84248Y574192D01*
X291008Y492008D02*
X294903Y492008D01*
X295002Y492010D01*
X295102Y492016D01*
X295201Y492025D01*
X295299Y492038D01*
X295397Y492055D01*
X295495Y492076D01*
X295591Y492101D01*
X295686Y492129D01*
X295780Y492161D01*
X295873Y492196D01*
X295965Y492235D01*
X296055Y492278D01*
X296143Y492323D01*
X296230Y492373D01*
X296314Y492425D01*
X296397Y492481D01*
X296477Y492539D01*
X296555Y492601D01*
X296630Y492666D01*
X296703Y492734D01*
X296773Y492804D01*
X296841Y492877D01*
X296906Y492952D01*
X296968Y493030D01*
X297026Y493110D01*
X297082Y493193D01*
X297134Y493277D01*
X297184Y493364D01*
X297229Y493452D01*
X297272Y493542D01*
X297311Y493634D01*
X297346Y493727D01*
X297378Y493821D01*
X297406Y493916D01*
X297431Y494012D01*
X297452Y494110D01*
X297469Y494208D01*
X297482Y494306D01*
X297491Y494405D01*
X297497Y494505D01*
X297499Y494604D01*
X297499Y495903D01*
X297497Y496002D01*
X297491Y496102D01*
X297482Y496201D01*
X297469Y496299D01*
X297452Y496397D01*
X297431Y496495D01*
X297406Y496591D01*
X297378Y496686D01*
X297346Y496780D01*
X297311Y496873D01*
X297272Y496965D01*
X297229Y497055D01*
X297184Y497143D01*
X297134Y497230D01*
X297082Y497314D01*
X297026Y497397D01*
X296968Y497477D01*
X296906Y497555D01*
X296841Y497630D01*
X296773Y497703D01*
X296703Y497773D01*
X296630Y497841D01*
X296555Y497906D01*
X296477Y497968D01*
X296397Y498026D01*
X296314Y498082D01*
X296230Y498134D01*
X296143Y498184D01*
X296055Y498229D01*
X295965Y498272D01*
X295873Y498311D01*
X295780Y498346D01*
X295686Y498378D01*
X295591Y498406D01*
X295495Y498431D01*
X295397Y498452D01*
X295299Y498469D01*
X295201Y498482D01*
X295102Y498491D01*
X295002Y498497D01*
X294903Y498499D01*
X291008Y498499D01*
X291008Y503692D01*
X297499Y503692D01*
X303412Y502069D02*
X303313Y501861D01*
X303220Y501651D01*
X303132Y501439D01*
X303049Y501225D01*
X302971Y501008D01*
X302898Y500790D01*
X302830Y500571D01*
X302768Y500349D01*
X302711Y500127D01*
X302659Y499903D01*
X302613Y499678D01*
X302572Y499452D01*
X302537Y499224D01*
X302507Y498997D01*
X302482Y498768D01*
X302463Y498539D01*
X302449Y498310D01*
X302441Y498080D01*
X302438Y497850D01*
X303412Y502069D02*
X303445Y502159D01*
X303481Y502248D01*
X303521Y502336D01*
X303565Y502421D01*
X303612Y502505D01*
X303662Y502587D01*
X303716Y502667D01*
X303772Y502744D01*
X303832Y502820D01*
X303895Y502893D01*
X303960Y502963D01*
X304029Y503031D01*
X304100Y503095D01*
X304173Y503157D01*
X304249Y503216D01*
X304327Y503272D01*
X304408Y503325D01*
X304490Y503374D01*
X304574Y503420D01*
X304661Y503463D01*
X304748Y503502D01*
X304838Y503538D01*
X304928Y503570D01*
X305020Y503598D01*
X305113Y503623D01*
X305207Y503644D01*
X305301Y503661D01*
X305396Y503675D01*
X305492Y503684D01*
X305588Y503690D01*
X305684Y503692D01*
X305780Y503690D01*
X305876Y503684D01*
X305972Y503675D01*
X306067Y503661D01*
X306161Y503644D01*
X306255Y503623D01*
X306348Y503598D01*
X306440Y503570D01*
X306530Y503538D01*
X306620Y503502D01*
X306707Y503463D01*
X306794Y503420D01*
X306878Y503374D01*
X306960Y503325D01*
X307041Y503272D01*
X307119Y503216D01*
X307195Y503157D01*
X307268Y503095D01*
X307339Y503031D01*
X307408Y502963D01*
X307473Y502893D01*
X307536Y502820D01*
X307596Y502744D01*
X307652Y502667D01*
X307706Y502587D01*
X307756Y502505D01*
X307803Y502421D01*
X307847Y502336D01*
X307887Y502248D01*
X307923Y502159D01*
X307956Y502069D01*
X308055Y501862D01*
X308148Y501652D01*
X308236Y501439D01*
X308319Y501225D01*
X308397Y501009D01*
X308470Y500791D01*
X308538Y500571D01*
X308600Y500350D01*
X308657Y500127D01*
X308709Y499903D01*
X308755Y499678D01*
X308796Y499452D01*
X308831Y499225D01*
X308861Y498997D01*
X308886Y498768D01*
X308905Y498539D01*
X308919Y498310D01*
X308927Y498080D01*
X308930Y497850D01*
X302438Y497850D02*
X302441Y497620D01*
X302449Y497390D01*
X302463Y497161D01*
X302482Y496932D01*
X302507Y496703D01*
X302537Y496475D01*
X302572Y496248D01*
X302613Y496022D01*
X302659Y495797D01*
X302711Y495573D01*
X302768Y495350D01*
X302830Y495129D01*
X302898Y494909D01*
X302971Y494691D01*
X303049Y494475D01*
X303132Y494261D01*
X303220Y494049D01*
X303313Y493838D01*
X303412Y493631D01*
X303445Y493541D01*
X303481Y493452D01*
X303522Y493364D01*
X303565Y493279D01*
X303612Y493195D01*
X303662Y493113D01*
X303716Y493033D01*
X303772Y492956D01*
X303832Y492880D01*
X303895Y492807D01*
X303960Y492737D01*
X304029Y492669D01*
X304100Y492605D01*
X304173Y492543D01*
X304249Y492484D01*
X304327Y492428D01*
X304408Y492375D01*
X304490Y492326D01*
X304574Y492280D01*
X304661Y492237D01*
X304748Y492198D01*
X304838Y492162D01*
X304928Y492130D01*
X305020Y492102D01*
X305113Y492077D01*
X305207Y492056D01*
X305301Y492039D01*
X305396Y492025D01*
X305492Y492016D01*
X305588Y492010D01*
X305684Y492008D01*
X307955Y493631D02*
X308054Y493838D01*
X308147Y494049D01*
X308235Y494261D01*
X308318Y494475D01*
X308396Y494691D01*
X308469Y494909D01*
X308537Y495129D01*
X308599Y495350D01*
X308656Y495573D01*
X308708Y495797D01*
X308754Y496022D01*
X308795Y496248D01*
X308830Y496475D01*
X308860Y496703D01*
X308885Y496932D01*
X308904Y497161D01*
X308918Y497390D01*
X308926Y497620D01*
X308929Y497850D01*
X307956Y493631D02*
X307923Y493541D01*
X307887Y493452D01*
X307847Y493364D01*
X307803Y493279D01*
X307756Y493195D01*
X307706Y493113D01*
X307652Y493033D01*
X307596Y492956D01*
X307536Y492880D01*
X307473Y492807D01*
X307408Y492737D01*
X307339Y492669D01*
X307268Y492605D01*
X307195Y492543D01*
X307119Y492484D01*
X307041Y492428D01*
X306960Y492375D01*
X306878Y492326D01*
X306794Y492280D01*
X306707Y492237D01*
X306620Y492198D01*
X306530Y492162D01*
X306440Y492130D01*
X306348Y492102D01*
X306255Y492077D01*
X306161Y492056D01*
X306067Y492039D01*
X305972Y492025D01*
X305876Y492016D01*
X305780Y492010D01*
X305684Y492008D01*
X303087Y494604D02*
X308280Y501096D01*
X313981Y499797D02*
X313983Y499919D01*
X313989Y500042D01*
X313998Y500164D01*
X314012Y500285D01*
X314029Y500406D01*
X314050Y500527D01*
X314075Y500647D01*
X314103Y500766D01*
X314136Y500884D01*
X314172Y501001D01*
X314211Y501116D01*
X314255Y501231D01*
X314301Y501344D01*
X314352Y501455D01*
X314406Y501565D01*
X314463Y501673D01*
X314523Y501780D01*
X314587Y501884D01*
X314655Y501986D01*
X314725Y502086D01*
X314798Y502184D01*
X314875Y502280D01*
X314954Y502373D01*
X315037Y502463D01*
X315122Y502551D01*
X315210Y502636D01*
X315300Y502719D01*
X315393Y502798D01*
X315489Y502875D01*
X315587Y502948D01*
X315687Y503018D01*
X315789Y503086D01*
X315893Y503150D01*
X316000Y503210D01*
X316108Y503267D01*
X316218Y503321D01*
X316329Y503372D01*
X316442Y503418D01*
X316557Y503462D01*
X316672Y503501D01*
X316789Y503537D01*
X316907Y503570D01*
X317026Y503598D01*
X317146Y503623D01*
X317267Y503644D01*
X317388Y503661D01*
X317509Y503675D01*
X317631Y503684D01*
X317754Y503690D01*
X317876Y503692D01*
X313981Y499797D02*
X313981Y498499D01*
X313983Y498379D01*
X313989Y498258D01*
X313999Y498138D01*
X314013Y498019D01*
X314030Y497899D01*
X314052Y497781D01*
X314077Y497663D01*
X314107Y497546D01*
X314140Y497430D01*
X314177Y497316D01*
X314217Y497202D01*
X314261Y497090D01*
X314309Y496980D01*
X314361Y496871D01*
X314416Y496764D01*
X314475Y496659D01*
X314537Y496555D01*
X314602Y496454D01*
X314670Y496355D01*
X314742Y496258D01*
X314817Y496164D01*
X314895Y496072D01*
X314976Y495983D01*
X315060Y495897D01*
X315147Y495813D01*
X315236Y495732D01*
X315328Y495654D01*
X315422Y495579D01*
X315519Y495508D01*
X315618Y495439D01*
X315719Y495374D01*
X315823Y495312D01*
X315928Y495254D01*
X315928Y492008D01*
X313981Y492008D01*
X321771Y499797D02*
X321769Y499919D01*
X321763Y500042D01*
X321754Y500164D01*
X321740Y500285D01*
X321723Y500406D01*
X321702Y500527D01*
X321677Y500647D01*
X321649Y500766D01*
X321616Y500884D01*
X321580Y501001D01*
X321541Y501116D01*
X321497Y501231D01*
X321451Y501344D01*
X321400Y501455D01*
X321346Y501565D01*
X321289Y501673D01*
X321229Y501780D01*
X321165Y501884D01*
X321097Y501986D01*
X321027Y502086D01*
X320954Y502184D01*
X320877Y502280D01*
X320798Y502373D01*
X320715Y502463D01*
X320630Y502551D01*
X320542Y502636D01*
X320452Y502719D01*
X320359Y502798D01*
X320263Y502875D01*
X320165Y502948D01*
X320065Y503018D01*
X319963Y503086D01*
X319859Y503150D01*
X319752Y503210D01*
X319644Y503267D01*
X319534Y503321D01*
X319423Y503372D01*
X319310Y503418D01*
X319195Y503462D01*
X319080Y503501D01*
X318963Y503537D01*
X318845Y503570D01*
X318726Y503598D01*
X318606Y503623D01*
X318485Y503644D01*
X318364Y503661D01*
X318243Y503675D01*
X318121Y503684D01*
X317998Y503690D01*
X317876Y503692D01*
X321770Y499797D02*
X321770Y498499D01*
X321768Y498379D01*
X321762Y498258D01*
X321752Y498138D01*
X321738Y498019D01*
X321721Y497899D01*
X321699Y497781D01*
X321674Y497663D01*
X321644Y497546D01*
X321611Y497430D01*
X321574Y497316D01*
X321534Y497202D01*
X321490Y497090D01*
X321442Y496980D01*
X321390Y496871D01*
X321335Y496764D01*
X321276Y496659D01*
X321214Y496555D01*
X321149Y496454D01*
X321081Y496355D01*
X321009Y496258D01*
X320934Y496164D01*
X320856Y496072D01*
X320775Y495983D01*
X320691Y495897D01*
X320604Y495813D01*
X320515Y495732D01*
X320423Y495654D01*
X320329Y495579D01*
X320232Y495508D01*
X320133Y495439D01*
X320032Y495374D01*
X319928Y495312D01*
X319823Y495254D01*
X319823Y492008D01*
X321770Y492008D01*
X765008Y734508D02*
X768903Y734508D01*
X769002Y734510D01*
X769102Y734516D01*
X769201Y734525D01*
X769299Y734538D01*
X769397Y734555D01*
X769495Y734576D01*
X769591Y734601D01*
X769686Y734629D01*
X769780Y734661D01*
X769873Y734696D01*
X769965Y734735D01*
X770055Y734778D01*
X770143Y734823D01*
X770230Y734873D01*
X770314Y734925D01*
X770397Y734981D01*
X770477Y735039D01*
X770555Y735101D01*
X770630Y735166D01*
X770703Y735234D01*
X770773Y735304D01*
X770841Y735377D01*
X770906Y735452D01*
X770968Y735530D01*
X771026Y735610D01*
X771082Y735693D01*
X771134Y735777D01*
X771184Y735864D01*
X771229Y735952D01*
X771272Y736042D01*
X771311Y736134D01*
X771346Y736227D01*
X771378Y736321D01*
X771406Y736416D01*
X771431Y736512D01*
X771452Y736610D01*
X771469Y736708D01*
X771482Y736806D01*
X771491Y736905D01*
X771497Y737005D01*
X771499Y737104D01*
X771499Y738403D01*
X771497Y738502D01*
X771491Y738602D01*
X771482Y738701D01*
X771469Y738799D01*
X771452Y738897D01*
X771431Y738995D01*
X771406Y739091D01*
X771378Y739186D01*
X771346Y739280D01*
X771311Y739373D01*
X771272Y739465D01*
X771229Y739555D01*
X771184Y739643D01*
X771134Y739730D01*
X771082Y739814D01*
X771026Y739897D01*
X770968Y739977D01*
X770906Y740055D01*
X770841Y740130D01*
X770773Y740203D01*
X770703Y740273D01*
X770630Y740341D01*
X770555Y740406D01*
X770477Y740468D01*
X770397Y740526D01*
X770314Y740582D01*
X770230Y740634D01*
X770143Y740684D01*
X770055Y740729D01*
X769965Y740772D01*
X769873Y740811D01*
X769780Y740846D01*
X769686Y740878D01*
X769591Y740906D01*
X769495Y740931D01*
X769397Y740952D01*
X769299Y740969D01*
X769201Y740982D01*
X769102Y740991D01*
X769002Y740997D01*
X768903Y740999D01*
X765008Y740999D01*
X765008Y746192D01*
X771499Y746192D01*
X777412Y744569D02*
X777313Y744361D01*
X777220Y744151D01*
X777132Y743939D01*
X777049Y743725D01*
X776971Y743508D01*
X776898Y743290D01*
X776830Y743071D01*
X776768Y742849D01*
X776711Y742627D01*
X776659Y742403D01*
X776613Y742178D01*
X776572Y741952D01*
X776537Y741724D01*
X776507Y741497D01*
X776482Y741268D01*
X776463Y741039D01*
X776449Y740810D01*
X776441Y740580D01*
X776438Y740350D01*
X777412Y744569D02*
X777445Y744659D01*
X777481Y744748D01*
X777521Y744836D01*
X777565Y744921D01*
X777612Y745005D01*
X777662Y745087D01*
X777716Y745167D01*
X777772Y745244D01*
X777832Y745320D01*
X777895Y745393D01*
X777960Y745463D01*
X778029Y745531D01*
X778100Y745595D01*
X778173Y745657D01*
X778249Y745716D01*
X778327Y745772D01*
X778408Y745825D01*
X778490Y745874D01*
X778574Y745920D01*
X778661Y745963D01*
X778748Y746002D01*
X778838Y746038D01*
X778928Y746070D01*
X779020Y746098D01*
X779113Y746123D01*
X779207Y746144D01*
X779301Y746161D01*
X779396Y746175D01*
X779492Y746184D01*
X779588Y746190D01*
X779684Y746192D01*
X779780Y746190D01*
X779876Y746184D01*
X779972Y746175D01*
X780067Y746161D01*
X780161Y746144D01*
X780255Y746123D01*
X780348Y746098D01*
X780440Y746070D01*
X780530Y746038D01*
X780620Y746002D01*
X780707Y745963D01*
X780794Y745920D01*
X780878Y745874D01*
X780960Y745825D01*
X781041Y745772D01*
X781119Y745716D01*
X781195Y745657D01*
X781268Y745595D01*
X781339Y745531D01*
X781408Y745463D01*
X781473Y745393D01*
X781536Y745320D01*
X781596Y745244D01*
X781652Y745167D01*
X781706Y745087D01*
X781756Y745005D01*
X781803Y744921D01*
X781847Y744836D01*
X781887Y744748D01*
X781923Y744659D01*
X781956Y744569D01*
X782055Y744362D01*
X782148Y744152D01*
X782236Y743939D01*
X782319Y743725D01*
X782397Y743509D01*
X782470Y743291D01*
X782538Y743071D01*
X782600Y742850D01*
X782657Y742627D01*
X782709Y742403D01*
X782755Y742178D01*
X782796Y741952D01*
X782831Y741725D01*
X782861Y741497D01*
X782886Y741268D01*
X782905Y741039D01*
X782919Y740810D01*
X782927Y740580D01*
X782930Y740350D01*
X776438Y740350D02*
X776441Y740120D01*
X776449Y739890D01*
X776463Y739661D01*
X776482Y739432D01*
X776507Y739203D01*
X776537Y738975D01*
X776572Y738748D01*
X776613Y738522D01*
X776659Y738297D01*
X776711Y738073D01*
X776768Y737850D01*
X776830Y737629D01*
X776898Y737409D01*
X776971Y737191D01*
X777049Y736975D01*
X777132Y736761D01*
X777220Y736549D01*
X777313Y736338D01*
X777412Y736131D01*
X777445Y736041D01*
X777481Y735952D01*
X777522Y735864D01*
X777565Y735779D01*
X777612Y735695D01*
X777662Y735613D01*
X777716Y735533D01*
X777772Y735456D01*
X777832Y735380D01*
X777895Y735307D01*
X777960Y735237D01*
X778029Y735169D01*
X778100Y735105D01*
X778173Y735043D01*
X778249Y734984D01*
X778327Y734928D01*
X778408Y734875D01*
X778490Y734826D01*
X778574Y734780D01*
X778661Y734737D01*
X778748Y734698D01*
X778838Y734662D01*
X778928Y734630D01*
X779020Y734602D01*
X779113Y734577D01*
X779207Y734556D01*
X779301Y734539D01*
X779396Y734525D01*
X779492Y734516D01*
X779588Y734510D01*
X779684Y734508D01*
X781955Y736131D02*
X782054Y736338D01*
X782147Y736549D01*
X782235Y736761D01*
X782318Y736975D01*
X782396Y737191D01*
X782469Y737409D01*
X782537Y737629D01*
X782599Y737850D01*
X782656Y738073D01*
X782708Y738297D01*
X782754Y738522D01*
X782795Y738748D01*
X782830Y738975D01*
X782860Y739203D01*
X782885Y739432D01*
X782904Y739661D01*
X782918Y739890D01*
X782926Y740120D01*
X782929Y740350D01*
X781956Y736131D02*
X781923Y736041D01*
X781887Y735952D01*
X781847Y735864D01*
X781803Y735779D01*
X781756Y735695D01*
X781706Y735613D01*
X781652Y735533D01*
X781596Y735456D01*
X781536Y735380D01*
X781473Y735307D01*
X781408Y735237D01*
X781339Y735169D01*
X781268Y735105D01*
X781195Y735043D01*
X781119Y734984D01*
X781041Y734928D01*
X780960Y734875D01*
X780878Y734826D01*
X780794Y734780D01*
X780707Y734737D01*
X780620Y734698D01*
X780530Y734662D01*
X780440Y734630D01*
X780348Y734602D01*
X780255Y734577D01*
X780161Y734556D01*
X780067Y734539D01*
X779972Y734525D01*
X779876Y734516D01*
X779780Y734510D01*
X779684Y734508D01*
X777087Y737104D02*
X782280Y743596D01*
X787981Y742297D02*
X787983Y742419D01*
X787989Y742542D01*
X787998Y742664D01*
X788012Y742785D01*
X788029Y742906D01*
X788050Y743027D01*
X788075Y743147D01*
X788103Y743266D01*
X788136Y743384D01*
X788172Y743501D01*
X788211Y743616D01*
X788255Y743731D01*
X788301Y743844D01*
X788352Y743955D01*
X788406Y744065D01*
X788463Y744173D01*
X788523Y744280D01*
X788587Y744384D01*
X788655Y744486D01*
X788725Y744586D01*
X788798Y744684D01*
X788875Y744780D01*
X788954Y744873D01*
X789037Y744963D01*
X789122Y745051D01*
X789210Y745136D01*
X789300Y745219D01*
X789393Y745298D01*
X789489Y745375D01*
X789587Y745448D01*
X789687Y745518D01*
X789789Y745586D01*
X789893Y745650D01*
X790000Y745710D01*
X790108Y745767D01*
X790218Y745821D01*
X790329Y745872D01*
X790442Y745918D01*
X790557Y745962D01*
X790672Y746001D01*
X790789Y746037D01*
X790907Y746070D01*
X791026Y746098D01*
X791146Y746123D01*
X791267Y746144D01*
X791388Y746161D01*
X791509Y746175D01*
X791631Y746184D01*
X791754Y746190D01*
X791876Y746192D01*
X787981Y742297D02*
X787981Y740999D01*
X787983Y740879D01*
X787989Y740758D01*
X787999Y740638D01*
X788013Y740519D01*
X788030Y740399D01*
X788052Y740281D01*
X788077Y740163D01*
X788107Y740046D01*
X788140Y739930D01*
X788177Y739816D01*
X788217Y739702D01*
X788261Y739590D01*
X788309Y739480D01*
X788361Y739371D01*
X788416Y739264D01*
X788475Y739159D01*
X788537Y739055D01*
X788602Y738954D01*
X788670Y738855D01*
X788742Y738758D01*
X788817Y738664D01*
X788895Y738572D01*
X788976Y738483D01*
X789060Y738397D01*
X789147Y738313D01*
X789236Y738232D01*
X789328Y738154D01*
X789422Y738079D01*
X789519Y738008D01*
X789618Y737939D01*
X789719Y737874D01*
X789823Y737812D01*
X789928Y737754D01*
X789928Y734508D01*
X787981Y734508D01*
X795771Y742297D02*
X795769Y742419D01*
X795763Y742542D01*
X795754Y742664D01*
X795740Y742785D01*
X795723Y742906D01*
X795702Y743027D01*
X795677Y743147D01*
X795649Y743266D01*
X795616Y743384D01*
X795580Y743501D01*
X795541Y743616D01*
X795497Y743731D01*
X795451Y743844D01*
X795400Y743955D01*
X795346Y744065D01*
X795289Y744173D01*
X795229Y744280D01*
X795165Y744384D01*
X795097Y744486D01*
X795027Y744586D01*
X794954Y744684D01*
X794877Y744780D01*
X794798Y744873D01*
X794715Y744963D01*
X794630Y745051D01*
X794542Y745136D01*
X794452Y745219D01*
X794359Y745298D01*
X794263Y745375D01*
X794165Y745448D01*
X794065Y745518D01*
X793963Y745586D01*
X793859Y745650D01*
X793752Y745710D01*
X793644Y745767D01*
X793534Y745821D01*
X793423Y745872D01*
X793310Y745918D01*
X793195Y745962D01*
X793080Y746001D01*
X792963Y746037D01*
X792845Y746070D01*
X792726Y746098D01*
X792606Y746123D01*
X792485Y746144D01*
X792364Y746161D01*
X792243Y746175D01*
X792121Y746184D01*
X791998Y746190D01*
X791876Y746192D01*
X795770Y742297D02*
X795770Y740999D01*
X795768Y740879D01*
X795762Y740758D01*
X795752Y740638D01*
X795738Y740519D01*
X795721Y740399D01*
X795699Y740281D01*
X795674Y740163D01*
X795644Y740046D01*
X795611Y739930D01*
X795574Y739816D01*
X795534Y739702D01*
X795490Y739590D01*
X795442Y739480D01*
X795390Y739371D01*
X795335Y739264D01*
X795276Y739159D01*
X795214Y739055D01*
X795149Y738954D01*
X795081Y738855D01*
X795009Y738758D01*
X794934Y738664D01*
X794856Y738572D01*
X794775Y738483D01*
X794691Y738397D01*
X794604Y738313D01*
X794515Y738232D01*
X794423Y738154D01*
X794329Y738079D01*
X794232Y738008D01*
X794133Y737939D01*
X794032Y737874D01*
X793928Y737812D01*
X793823Y737754D01*
X793823Y734508D01*
X795770Y734508D01*
X766403Y260508D02*
X762508Y260508D01*
X766403Y260508D02*
X766502Y260510D01*
X766602Y260516D01*
X766701Y260525D01*
X766799Y260538D01*
X766897Y260555D01*
X766995Y260576D01*
X767091Y260601D01*
X767186Y260629D01*
X767280Y260661D01*
X767373Y260696D01*
X767465Y260735D01*
X767555Y260778D01*
X767643Y260823D01*
X767730Y260873D01*
X767814Y260925D01*
X767897Y260981D01*
X767977Y261039D01*
X768055Y261101D01*
X768130Y261166D01*
X768203Y261234D01*
X768273Y261304D01*
X768341Y261377D01*
X768406Y261452D01*
X768468Y261530D01*
X768526Y261610D01*
X768582Y261693D01*
X768634Y261777D01*
X768684Y261864D01*
X768729Y261952D01*
X768772Y262042D01*
X768811Y262134D01*
X768846Y262227D01*
X768878Y262321D01*
X768906Y262416D01*
X768931Y262512D01*
X768952Y262610D01*
X768969Y262708D01*
X768982Y262806D01*
X768991Y262905D01*
X768997Y263005D01*
X768999Y263104D01*
X768999Y264403D01*
X768997Y264502D01*
X768991Y264602D01*
X768982Y264701D01*
X768969Y264799D01*
X768952Y264897D01*
X768931Y264995D01*
X768906Y265091D01*
X768878Y265186D01*
X768846Y265280D01*
X768811Y265373D01*
X768772Y265465D01*
X768729Y265555D01*
X768684Y265643D01*
X768634Y265730D01*
X768582Y265814D01*
X768526Y265897D01*
X768468Y265977D01*
X768406Y266055D01*
X768341Y266130D01*
X768273Y266203D01*
X768203Y266273D01*
X768130Y266341D01*
X768055Y266406D01*
X767977Y266468D01*
X767897Y266526D01*
X767814Y266582D01*
X767730Y266634D01*
X767643Y266684D01*
X767555Y266729D01*
X767465Y266772D01*
X767373Y266811D01*
X767280Y266846D01*
X767186Y266878D01*
X767091Y266906D01*
X766995Y266931D01*
X766897Y266952D01*
X766799Y266969D01*
X766701Y266982D01*
X766602Y266991D01*
X766502Y266997D01*
X766403Y266999D01*
X762508Y266999D01*
X762508Y272192D01*
X768999Y272192D01*
X774912Y270569D02*
X774813Y270361D01*
X774720Y270151D01*
X774632Y269939D01*
X774549Y269725D01*
X774471Y269508D01*
X774398Y269290D01*
X774330Y269071D01*
X774268Y268849D01*
X774211Y268627D01*
X774159Y268403D01*
X774113Y268178D01*
X774072Y267952D01*
X774037Y267724D01*
X774007Y267497D01*
X773982Y267268D01*
X773963Y267039D01*
X773949Y266810D01*
X773941Y266580D01*
X773938Y266350D01*
X774912Y270569D02*
X774945Y270659D01*
X774981Y270748D01*
X775021Y270836D01*
X775065Y270921D01*
X775112Y271005D01*
X775162Y271087D01*
X775216Y271167D01*
X775272Y271244D01*
X775332Y271320D01*
X775395Y271393D01*
X775460Y271463D01*
X775529Y271531D01*
X775600Y271595D01*
X775673Y271657D01*
X775749Y271716D01*
X775827Y271772D01*
X775908Y271825D01*
X775990Y271874D01*
X776074Y271920D01*
X776161Y271963D01*
X776248Y272002D01*
X776338Y272038D01*
X776428Y272070D01*
X776520Y272098D01*
X776613Y272123D01*
X776707Y272144D01*
X776801Y272161D01*
X776896Y272175D01*
X776992Y272184D01*
X777088Y272190D01*
X777184Y272192D01*
X777280Y272190D01*
X777376Y272184D01*
X777472Y272175D01*
X777567Y272161D01*
X777661Y272144D01*
X777755Y272123D01*
X777848Y272098D01*
X777940Y272070D01*
X778030Y272038D01*
X778120Y272002D01*
X778207Y271963D01*
X778294Y271920D01*
X778378Y271874D01*
X778460Y271825D01*
X778541Y271772D01*
X778619Y271716D01*
X778695Y271657D01*
X778768Y271595D01*
X778839Y271531D01*
X778908Y271463D01*
X778973Y271393D01*
X779036Y271320D01*
X779096Y271244D01*
X779152Y271167D01*
X779206Y271087D01*
X779256Y271005D01*
X779303Y270921D01*
X779347Y270836D01*
X779387Y270748D01*
X779423Y270659D01*
X779456Y270569D01*
X779555Y270362D01*
X779648Y270152D01*
X779736Y269939D01*
X779819Y269725D01*
X779897Y269509D01*
X779970Y269291D01*
X780038Y269071D01*
X780100Y268850D01*
X780157Y268627D01*
X780209Y268403D01*
X780255Y268178D01*
X780296Y267952D01*
X780331Y267725D01*
X780361Y267497D01*
X780386Y267268D01*
X780405Y267039D01*
X780419Y266810D01*
X780427Y266580D01*
X780430Y266350D01*
X773938Y266350D02*
X773941Y266120D01*
X773949Y265890D01*
X773963Y265661D01*
X773982Y265432D01*
X774007Y265203D01*
X774037Y264975D01*
X774072Y264748D01*
X774113Y264522D01*
X774159Y264297D01*
X774211Y264073D01*
X774268Y263850D01*
X774330Y263629D01*
X774398Y263409D01*
X774471Y263191D01*
X774549Y262975D01*
X774632Y262761D01*
X774720Y262549D01*
X774813Y262338D01*
X774912Y262131D01*
X774945Y262041D01*
X774981Y261952D01*
X775022Y261864D01*
X775065Y261779D01*
X775112Y261695D01*
X775162Y261613D01*
X775216Y261533D01*
X775272Y261456D01*
X775332Y261380D01*
X775395Y261307D01*
X775460Y261237D01*
X775529Y261169D01*
X775600Y261105D01*
X775673Y261043D01*
X775749Y260984D01*
X775827Y260928D01*
X775908Y260875D01*
X775990Y260826D01*
X776074Y260780D01*
X776161Y260737D01*
X776248Y260698D01*
X776338Y260662D01*
X776428Y260630D01*
X776520Y260602D01*
X776613Y260577D01*
X776707Y260556D01*
X776801Y260539D01*
X776896Y260525D01*
X776992Y260516D01*
X777088Y260510D01*
X777184Y260508D01*
X779455Y262131D02*
X779554Y262338D01*
X779647Y262549D01*
X779735Y262761D01*
X779818Y262975D01*
X779896Y263191D01*
X779969Y263409D01*
X780037Y263629D01*
X780099Y263850D01*
X780156Y264073D01*
X780208Y264297D01*
X780254Y264522D01*
X780295Y264748D01*
X780330Y264975D01*
X780360Y265203D01*
X780385Y265432D01*
X780404Y265661D01*
X780418Y265890D01*
X780426Y266120D01*
X780429Y266350D01*
X779456Y262131D02*
X779423Y262041D01*
X779387Y261952D01*
X779347Y261864D01*
X779303Y261779D01*
X779256Y261695D01*
X779206Y261613D01*
X779152Y261533D01*
X779096Y261456D01*
X779036Y261380D01*
X778973Y261307D01*
X778908Y261237D01*
X778839Y261169D01*
X778768Y261105D01*
X778695Y261043D01*
X778619Y260984D01*
X778541Y260928D01*
X778460Y260875D01*
X778378Y260826D01*
X778294Y260780D01*
X778207Y260737D01*
X778120Y260698D01*
X778030Y260662D01*
X777940Y260630D01*
X777848Y260602D01*
X777755Y260577D01*
X777661Y260556D01*
X777567Y260539D01*
X777472Y260525D01*
X777376Y260516D01*
X777280Y260510D01*
X777184Y260508D01*
X774587Y263104D02*
X779780Y269596D01*
X785481Y268297D02*
X785483Y268419D01*
X785489Y268542D01*
X785498Y268664D01*
X785512Y268785D01*
X785529Y268906D01*
X785550Y269027D01*
X785575Y269147D01*
X785603Y269266D01*
X785636Y269384D01*
X785672Y269501D01*
X785711Y269616D01*
X785755Y269731D01*
X785801Y269844D01*
X785852Y269955D01*
X785906Y270065D01*
X785963Y270173D01*
X786023Y270280D01*
X786087Y270384D01*
X786155Y270486D01*
X786225Y270586D01*
X786298Y270684D01*
X786375Y270780D01*
X786454Y270873D01*
X786537Y270963D01*
X786622Y271051D01*
X786710Y271136D01*
X786800Y271219D01*
X786893Y271298D01*
X786989Y271375D01*
X787087Y271448D01*
X787187Y271518D01*
X787289Y271586D01*
X787393Y271650D01*
X787500Y271710D01*
X787608Y271767D01*
X787718Y271821D01*
X787829Y271872D01*
X787942Y271918D01*
X788057Y271962D01*
X788172Y272001D01*
X788289Y272037D01*
X788407Y272070D01*
X788526Y272098D01*
X788646Y272123D01*
X788767Y272144D01*
X788888Y272161D01*
X789009Y272175D01*
X789131Y272184D01*
X789254Y272190D01*
X789376Y272192D01*
X785481Y268297D02*
X785481Y266999D01*
X785483Y266879D01*
X785489Y266758D01*
X785499Y266638D01*
X785513Y266519D01*
X785530Y266399D01*
X785552Y266281D01*
X785577Y266163D01*
X785607Y266046D01*
X785640Y265930D01*
X785677Y265816D01*
X785717Y265702D01*
X785761Y265590D01*
X785809Y265480D01*
X785861Y265371D01*
X785916Y265264D01*
X785975Y265159D01*
X786037Y265055D01*
X786102Y264954D01*
X786170Y264855D01*
X786242Y264758D01*
X786317Y264664D01*
X786395Y264572D01*
X786476Y264483D01*
X786560Y264397D01*
X786647Y264313D01*
X786736Y264232D01*
X786828Y264154D01*
X786922Y264079D01*
X787019Y264008D01*
X787118Y263939D01*
X787219Y263874D01*
X787323Y263812D01*
X787428Y263754D01*
X787428Y260508D01*
X785481Y260508D01*
X793271Y268297D02*
X793269Y268419D01*
X793263Y268542D01*
X793254Y268664D01*
X793240Y268785D01*
X793223Y268906D01*
X793202Y269027D01*
X793177Y269147D01*
X793149Y269266D01*
X793116Y269384D01*
X793080Y269501D01*
X793041Y269616D01*
X792997Y269731D01*
X792951Y269844D01*
X792900Y269955D01*
X792846Y270065D01*
X792789Y270173D01*
X792729Y270280D01*
X792665Y270384D01*
X792597Y270486D01*
X792527Y270586D01*
X792454Y270684D01*
X792377Y270780D01*
X792298Y270873D01*
X792215Y270963D01*
X792130Y271051D01*
X792042Y271136D01*
X791952Y271219D01*
X791859Y271298D01*
X791763Y271375D01*
X791665Y271448D01*
X791565Y271518D01*
X791463Y271586D01*
X791359Y271650D01*
X791252Y271710D01*
X791144Y271767D01*
X791034Y271821D01*
X790923Y271872D01*
X790810Y271918D01*
X790695Y271962D01*
X790580Y272001D01*
X790463Y272037D01*
X790345Y272070D01*
X790226Y272098D01*
X790106Y272123D01*
X789985Y272144D01*
X789864Y272161D01*
X789743Y272175D01*
X789621Y272184D01*
X789498Y272190D01*
X789376Y272192D01*
X793270Y268297D02*
X793270Y266999D01*
X793268Y266879D01*
X793262Y266758D01*
X793252Y266638D01*
X793238Y266519D01*
X793221Y266399D01*
X793199Y266281D01*
X793174Y266163D01*
X793144Y266046D01*
X793111Y265930D01*
X793074Y265816D01*
X793034Y265702D01*
X792990Y265590D01*
X792942Y265480D01*
X792890Y265371D01*
X792835Y265264D01*
X792776Y265159D01*
X792714Y265055D01*
X792649Y264954D01*
X792581Y264855D01*
X792509Y264758D01*
X792434Y264664D01*
X792356Y264572D01*
X792275Y264483D01*
X792191Y264397D01*
X792104Y264313D01*
X792015Y264232D01*
X791923Y264154D01*
X791829Y264079D01*
X791732Y264008D01*
X791633Y263939D01*
X791532Y263874D01*
X791428Y263812D01*
X791323Y263754D01*
X791323Y260508D01*
X793270Y260508D01*
D12*
X327238Y470462D02*
X316062Y470462D01*
X316062Y473566D01*
X316064Y473677D01*
X316070Y473787D01*
X316080Y473898D01*
X316094Y474008D01*
X316111Y474117D01*
X316133Y474226D01*
X316158Y474334D01*
X316188Y474440D01*
X316221Y474546D01*
X316258Y474651D01*
X316298Y474754D01*
X316343Y474855D01*
X316390Y474955D01*
X316442Y475054D01*
X316497Y475150D01*
X316555Y475244D01*
X316616Y475336D01*
X316681Y475426D01*
X316749Y475514D01*
X316820Y475599D01*
X316894Y475681D01*
X316971Y475761D01*
X317051Y475838D01*
X317133Y475912D01*
X317218Y475983D01*
X317306Y476051D01*
X317396Y476116D01*
X317488Y476177D01*
X317582Y476235D01*
X317678Y476290D01*
X317777Y476342D01*
X317877Y476389D01*
X317978Y476434D01*
X318081Y476474D01*
X318186Y476511D01*
X318292Y476544D01*
X318398Y476574D01*
X318506Y476599D01*
X318615Y476621D01*
X318724Y476638D01*
X318834Y476652D01*
X318945Y476662D01*
X319055Y476668D01*
X319166Y476670D01*
X319277Y476668D01*
X319387Y476662D01*
X319498Y476652D01*
X319608Y476638D01*
X319717Y476621D01*
X319826Y476599D01*
X319934Y476574D01*
X320040Y476544D01*
X320146Y476511D01*
X320251Y476474D01*
X320354Y476434D01*
X320455Y476389D01*
X320555Y476342D01*
X320654Y476290D01*
X320750Y476235D01*
X320844Y476177D01*
X320936Y476116D01*
X321026Y476051D01*
X321114Y475983D01*
X321199Y475912D01*
X321281Y475838D01*
X321361Y475761D01*
X321438Y475681D01*
X321512Y475599D01*
X321583Y475514D01*
X321651Y475426D01*
X321716Y475336D01*
X321777Y475244D01*
X321835Y475150D01*
X321890Y475054D01*
X321942Y474955D01*
X321989Y474855D01*
X322034Y474754D01*
X322074Y474651D01*
X322111Y474546D01*
X322144Y474440D01*
X322174Y474334D01*
X322199Y474226D01*
X322221Y474117D01*
X322238Y474008D01*
X322252Y473898D01*
X322262Y473787D01*
X322268Y473677D01*
X322270Y473566D01*
X322271Y473566D02*
X322271Y470462D01*
X322271Y474187D02*
X327238Y476671D01*
X318546Y481800D02*
X316062Y484904D01*
X327238Y484904D01*
X327238Y481800D02*
X327238Y488009D01*
D13*
X328000Y466200D02*
X349000Y466200D01*
X349000Y525700D01*
X328000Y525700D01*
X328000Y466200D01*
D12*
X792362Y712162D02*
X803538Y712162D01*
X792362Y712162D02*
X792362Y715266D01*
X792364Y715377D01*
X792370Y715487D01*
X792380Y715598D01*
X792394Y715708D01*
X792411Y715817D01*
X792433Y715926D01*
X792458Y716034D01*
X792488Y716140D01*
X792521Y716246D01*
X792558Y716351D01*
X792598Y716454D01*
X792643Y716555D01*
X792690Y716655D01*
X792742Y716754D01*
X792797Y716850D01*
X792855Y716944D01*
X792916Y717036D01*
X792981Y717126D01*
X793049Y717214D01*
X793120Y717299D01*
X793194Y717381D01*
X793271Y717461D01*
X793351Y717538D01*
X793433Y717612D01*
X793518Y717683D01*
X793606Y717751D01*
X793696Y717816D01*
X793788Y717877D01*
X793882Y717935D01*
X793978Y717990D01*
X794077Y718042D01*
X794177Y718089D01*
X794278Y718134D01*
X794381Y718174D01*
X794486Y718211D01*
X794592Y718244D01*
X794698Y718274D01*
X794806Y718299D01*
X794915Y718321D01*
X795024Y718338D01*
X795134Y718352D01*
X795245Y718362D01*
X795355Y718368D01*
X795466Y718370D01*
X795577Y718368D01*
X795687Y718362D01*
X795798Y718352D01*
X795908Y718338D01*
X796017Y718321D01*
X796126Y718299D01*
X796234Y718274D01*
X796340Y718244D01*
X796446Y718211D01*
X796551Y718174D01*
X796654Y718134D01*
X796755Y718089D01*
X796855Y718042D01*
X796954Y717990D01*
X797050Y717935D01*
X797144Y717877D01*
X797236Y717816D01*
X797326Y717751D01*
X797414Y717683D01*
X797499Y717612D01*
X797581Y717538D01*
X797661Y717461D01*
X797738Y717381D01*
X797812Y717299D01*
X797883Y717214D01*
X797951Y717126D01*
X798016Y717036D01*
X798077Y716944D01*
X798135Y716850D01*
X798190Y716754D01*
X798242Y716655D01*
X798289Y716555D01*
X798334Y716454D01*
X798374Y716351D01*
X798411Y716246D01*
X798444Y716140D01*
X798474Y716034D01*
X798499Y715926D01*
X798521Y715817D01*
X798538Y715708D01*
X798552Y715598D01*
X798562Y715487D01*
X798568Y715377D01*
X798570Y715266D01*
X798571Y715266D02*
X798571Y712162D01*
X798571Y715887D02*
X803538Y718371D01*
X792362Y726915D02*
X792364Y727019D01*
X792370Y727124D01*
X792380Y727228D01*
X792393Y727331D01*
X792411Y727434D01*
X792432Y727537D01*
X792457Y727638D01*
X792486Y727739D01*
X792519Y727838D01*
X792555Y727936D01*
X792595Y728032D01*
X792639Y728127D01*
X792686Y728221D01*
X792736Y728312D01*
X792790Y728401D01*
X792847Y728489D01*
X792908Y728574D01*
X792972Y728657D01*
X793038Y728737D01*
X793108Y728815D01*
X793180Y728891D01*
X793256Y728963D01*
X793334Y729033D01*
X793414Y729099D01*
X793497Y729163D01*
X793582Y729224D01*
X793670Y729281D01*
X793759Y729335D01*
X793850Y729385D01*
X793944Y729432D01*
X794039Y729476D01*
X794135Y729516D01*
X794233Y729552D01*
X794332Y729585D01*
X794433Y729614D01*
X794534Y729639D01*
X794637Y729660D01*
X794740Y729678D01*
X794843Y729691D01*
X794947Y729701D01*
X795052Y729707D01*
X795156Y729709D01*
X792362Y726915D02*
X792364Y726796D01*
X792370Y726678D01*
X792380Y726559D01*
X792393Y726441D01*
X792411Y726324D01*
X792433Y726207D01*
X792458Y726091D01*
X792487Y725976D01*
X792520Y725861D01*
X792557Y725748D01*
X792597Y725637D01*
X792641Y725526D01*
X792689Y725418D01*
X792740Y725311D01*
X792795Y725205D01*
X792854Y725102D01*
X792915Y725000D01*
X792980Y724901D01*
X793049Y724803D01*
X793120Y724709D01*
X793195Y724616D01*
X793272Y724526D01*
X793353Y724439D01*
X793436Y724354D01*
X793522Y724272D01*
X793611Y724193D01*
X793702Y724117D01*
X793796Y724044D01*
X793892Y723975D01*
X793991Y723908D01*
X794091Y723845D01*
X794194Y723785D01*
X794298Y723728D01*
X794405Y723676D01*
X794513Y723626D01*
X794622Y723580D01*
X794734Y723538D01*
X794846Y723500D01*
X797329Y728778D02*
X797255Y728853D01*
X797178Y728925D01*
X797099Y728995D01*
X797017Y729062D01*
X796933Y729126D01*
X796847Y729187D01*
X796759Y729245D01*
X796668Y729300D01*
X796576Y729352D01*
X796482Y729400D01*
X796387Y729445D01*
X796289Y729487D01*
X796191Y729525D01*
X796091Y729560D01*
X795990Y729591D01*
X795888Y729618D01*
X795785Y729642D01*
X795682Y729663D01*
X795577Y729679D01*
X795472Y729692D01*
X795367Y729702D01*
X795262Y729707D01*
X795156Y729709D01*
X797329Y728778D02*
X803538Y723500D01*
X803538Y729709D01*
D13*
X804300Y707900D02*
X825300Y707900D01*
X825300Y767400D01*
X804300Y767400D01*
X804300Y707900D01*
D12*
X804038Y235662D02*
X792862Y235662D01*
X792862Y238766D01*
X792864Y238877D01*
X792870Y238987D01*
X792880Y239098D01*
X792894Y239208D01*
X792911Y239317D01*
X792933Y239426D01*
X792958Y239534D01*
X792988Y239640D01*
X793021Y239746D01*
X793058Y239851D01*
X793098Y239954D01*
X793143Y240055D01*
X793190Y240155D01*
X793242Y240254D01*
X793297Y240350D01*
X793355Y240444D01*
X793416Y240536D01*
X793481Y240626D01*
X793549Y240714D01*
X793620Y240799D01*
X793694Y240881D01*
X793771Y240961D01*
X793851Y241038D01*
X793933Y241112D01*
X794018Y241183D01*
X794106Y241251D01*
X794196Y241316D01*
X794288Y241377D01*
X794382Y241435D01*
X794478Y241490D01*
X794577Y241542D01*
X794677Y241589D01*
X794778Y241634D01*
X794881Y241674D01*
X794986Y241711D01*
X795092Y241744D01*
X795198Y241774D01*
X795306Y241799D01*
X795415Y241821D01*
X795524Y241838D01*
X795634Y241852D01*
X795745Y241862D01*
X795855Y241868D01*
X795966Y241870D01*
X796077Y241868D01*
X796187Y241862D01*
X796298Y241852D01*
X796408Y241838D01*
X796517Y241821D01*
X796626Y241799D01*
X796734Y241774D01*
X796840Y241744D01*
X796946Y241711D01*
X797051Y241674D01*
X797154Y241634D01*
X797255Y241589D01*
X797355Y241542D01*
X797454Y241490D01*
X797550Y241435D01*
X797644Y241377D01*
X797736Y241316D01*
X797826Y241251D01*
X797914Y241183D01*
X797999Y241112D01*
X798081Y241038D01*
X798161Y240961D01*
X798238Y240881D01*
X798312Y240799D01*
X798383Y240714D01*
X798451Y240626D01*
X798516Y240536D01*
X798577Y240444D01*
X798635Y240350D01*
X798690Y240254D01*
X798742Y240155D01*
X798789Y240055D01*
X798834Y239954D01*
X798874Y239851D01*
X798911Y239746D01*
X798944Y239640D01*
X798974Y239534D01*
X798999Y239426D01*
X799021Y239317D01*
X799038Y239208D01*
X799052Y239098D01*
X799062Y238987D01*
X799068Y238877D01*
X799070Y238766D01*
X799071Y238766D02*
X799071Y235662D01*
X799071Y239387D02*
X804038Y241871D01*
X804038Y247000D02*
X804038Y250104D01*
X804036Y250215D01*
X804030Y250325D01*
X804020Y250436D01*
X804006Y250546D01*
X803989Y250655D01*
X803967Y250764D01*
X803942Y250872D01*
X803912Y250978D01*
X803879Y251084D01*
X803842Y251189D01*
X803802Y251292D01*
X803757Y251393D01*
X803710Y251493D01*
X803658Y251592D01*
X803603Y251688D01*
X803545Y251782D01*
X803484Y251874D01*
X803419Y251964D01*
X803351Y252052D01*
X803280Y252137D01*
X803206Y252219D01*
X803129Y252299D01*
X803049Y252376D01*
X802967Y252450D01*
X802882Y252521D01*
X802794Y252589D01*
X802704Y252654D01*
X802612Y252715D01*
X802518Y252773D01*
X802422Y252828D01*
X802323Y252880D01*
X802223Y252927D01*
X802122Y252972D01*
X802019Y253012D01*
X801914Y253049D01*
X801808Y253082D01*
X801702Y253112D01*
X801594Y253137D01*
X801485Y253159D01*
X801376Y253176D01*
X801266Y253190D01*
X801155Y253200D01*
X801045Y253206D01*
X800934Y253208D01*
X800823Y253206D01*
X800713Y253200D01*
X800602Y253190D01*
X800492Y253176D01*
X800383Y253159D01*
X800274Y253137D01*
X800166Y253112D01*
X800060Y253082D01*
X799954Y253049D01*
X799849Y253012D01*
X799746Y252972D01*
X799645Y252927D01*
X799545Y252880D01*
X799446Y252828D01*
X799350Y252773D01*
X799256Y252715D01*
X799164Y252654D01*
X799074Y252589D01*
X798986Y252521D01*
X798901Y252450D01*
X798819Y252376D01*
X798739Y252299D01*
X798662Y252219D01*
X798588Y252137D01*
X798517Y252052D01*
X798449Y251964D01*
X798384Y251874D01*
X798323Y251782D01*
X798265Y251688D01*
X798210Y251592D01*
X798158Y251493D01*
X798111Y251393D01*
X798066Y251292D01*
X798026Y251189D01*
X797989Y251084D01*
X797956Y250978D01*
X797926Y250872D01*
X797901Y250764D01*
X797879Y250655D01*
X797862Y250546D01*
X797848Y250436D01*
X797838Y250325D01*
X797832Y250215D01*
X797830Y250104D01*
X792862Y250725D02*
X792862Y247000D01*
X792862Y250725D02*
X792864Y250824D01*
X792870Y250922D01*
X792880Y251021D01*
X792893Y251118D01*
X792911Y251216D01*
X792932Y251312D01*
X792958Y251408D01*
X792987Y251502D01*
X793019Y251595D01*
X793056Y251687D01*
X793096Y251777D01*
X793140Y251866D01*
X793187Y251953D01*
X793237Y252038D01*
X793291Y252120D01*
X793348Y252201D01*
X793408Y252279D01*
X793472Y252355D01*
X793538Y252428D01*
X793607Y252499D01*
X793679Y252567D01*
X793754Y252631D01*
X793831Y252693D01*
X793910Y252752D01*
X793992Y252807D01*
X794076Y252860D01*
X794161Y252908D01*
X794249Y252954D01*
X794339Y252996D01*
X794430Y253034D01*
X794522Y253068D01*
X794616Y253099D01*
X794711Y253126D01*
X794807Y253150D01*
X794904Y253169D01*
X795001Y253185D01*
X795099Y253197D01*
X795198Y253205D01*
X795297Y253209D01*
X795395Y253209D01*
X795494Y253205D01*
X795593Y253197D01*
X795691Y253185D01*
X795788Y253169D01*
X795885Y253150D01*
X795981Y253126D01*
X796076Y253099D01*
X796170Y253068D01*
X796262Y253034D01*
X796353Y252996D01*
X796443Y252954D01*
X796531Y252908D01*
X796616Y252860D01*
X796700Y252807D01*
X796782Y252752D01*
X796861Y252693D01*
X796938Y252631D01*
X797013Y252567D01*
X797085Y252499D01*
X797154Y252428D01*
X797220Y252355D01*
X797284Y252279D01*
X797344Y252201D01*
X797401Y252120D01*
X797455Y252038D01*
X797505Y251953D01*
X797552Y251866D01*
X797596Y251777D01*
X797636Y251687D01*
X797673Y251595D01*
X797705Y251502D01*
X797734Y251408D01*
X797760Y251312D01*
X797781Y251216D01*
X797799Y251118D01*
X797812Y251021D01*
X797822Y250922D01*
X797828Y250824D01*
X797830Y250725D01*
X797829Y250725D02*
X797829Y248242D01*
D13*
X804800Y231400D02*
X825800Y231400D01*
X825800Y290900D01*
X804800Y290900D01*
X804800Y231400D01*
M02*
