G04 EAGLE Gerber X2 export*
G75*
%MOMM*%
%FSLAX34Y34*%
%LPD*%
%AMOC8*
5,1,8,0,0,1.08239X$1,22.5*%
G01*
%ADD10R,4.902200X1.600200*%
%ADD11C,0.914400*%
%ADD12C,0.508000*%

G36*
X990185Y5012D02*
X990185Y5012D01*
X990370Y5014D01*
X990500Y5032D01*
X990631Y5041D01*
X990812Y5076D01*
X990996Y5101D01*
X991122Y5135D01*
X991252Y5160D01*
X991428Y5218D01*
X991606Y5266D01*
X991727Y5316D01*
X991852Y5357D01*
X992020Y5436D01*
X992190Y5506D01*
X992305Y5571D01*
X992423Y5627D01*
X992579Y5727D01*
X992740Y5819D01*
X992845Y5897D01*
X992956Y5968D01*
X993098Y6087D01*
X993246Y6198D01*
X993340Y6289D01*
X993441Y6373D01*
X993567Y6509D01*
X993700Y6638D01*
X993782Y6740D01*
X993871Y6837D01*
X993979Y6987D01*
X994094Y7131D01*
X994163Y7244D01*
X994239Y7350D01*
X994327Y7513D01*
X994424Y7671D01*
X994477Y7791D01*
X994540Y7906D01*
X994606Y8079D01*
X994682Y8248D01*
X994720Y8373D01*
X994768Y8496D01*
X994812Y8676D01*
X994866Y8853D01*
X994888Y8982D01*
X994919Y9110D01*
X994941Y9293D01*
X994972Y9476D01*
X994980Y9629D01*
X994992Y9737D01*
X994991Y9846D01*
X994999Y10000D01*
X994999Y441914D01*
X994988Y442099D01*
X994986Y442284D01*
X994968Y442414D01*
X994959Y442545D01*
X994924Y442726D01*
X994899Y442910D01*
X994865Y443036D01*
X994840Y443166D01*
X994782Y443342D01*
X994734Y443520D01*
X994684Y443641D01*
X994643Y443766D01*
X994564Y443934D01*
X994494Y444104D01*
X994429Y444219D01*
X994373Y444337D01*
X994273Y444493D01*
X994182Y444654D01*
X994103Y444759D01*
X994032Y444870D01*
X993913Y445012D01*
X993802Y445160D01*
X993711Y445254D01*
X993627Y445355D01*
X993491Y445481D01*
X993362Y445614D01*
X993260Y445696D01*
X993163Y445785D01*
X993013Y445893D01*
X992869Y446008D01*
X992756Y446077D01*
X992650Y446153D01*
X992487Y446241D01*
X992329Y446338D01*
X992209Y446391D01*
X992094Y446454D01*
X991921Y446520D01*
X991752Y446596D01*
X991627Y446634D01*
X991504Y446682D01*
X991324Y446726D01*
X991147Y446780D01*
X991018Y446802D01*
X990890Y446833D01*
X990707Y446855D01*
X990524Y446886D01*
X990371Y446894D01*
X990263Y446906D01*
X990154Y446905D01*
X990000Y446913D01*
X974608Y446913D01*
X974608Y457455D01*
X974608Y467997D01*
X990000Y467997D01*
X990185Y468008D01*
X990370Y468010D01*
X990500Y468028D01*
X990631Y468037D01*
X990812Y468072D01*
X990996Y468097D01*
X991122Y468131D01*
X991252Y468156D01*
X991428Y468214D01*
X991606Y468262D01*
X991727Y468312D01*
X991852Y468353D01*
X992020Y468432D01*
X992190Y468502D01*
X992305Y468567D01*
X992423Y468623D01*
X992579Y468723D01*
X992740Y468814D01*
X992845Y468893D01*
X992956Y468964D01*
X993098Y469083D01*
X993246Y469194D01*
X993340Y469285D01*
X993441Y469369D01*
X993567Y469505D01*
X993700Y469634D01*
X993782Y469736D01*
X993871Y469833D01*
X993979Y469983D01*
X994094Y470127D01*
X994163Y470240D01*
X994239Y470346D01*
X994327Y470509D01*
X994424Y470667D01*
X994477Y470787D01*
X994540Y470902D01*
X994606Y471075D01*
X994682Y471244D01*
X994720Y471369D01*
X994768Y471492D01*
X994812Y471672D01*
X994866Y471849D01*
X994888Y471978D01*
X994919Y472106D01*
X994941Y472289D01*
X994972Y472472D01*
X994980Y472625D01*
X994992Y472733D01*
X994991Y472842D01*
X994999Y472996D01*
X994999Y527004D01*
X994988Y527189D01*
X994986Y527374D01*
X994968Y527504D01*
X994959Y527635D01*
X994924Y527816D01*
X994899Y528000D01*
X994865Y528126D01*
X994840Y528256D01*
X994782Y528432D01*
X994734Y528610D01*
X994684Y528731D01*
X994643Y528856D01*
X994564Y529024D01*
X994494Y529194D01*
X994429Y529309D01*
X994373Y529427D01*
X994273Y529583D01*
X994182Y529744D01*
X994103Y529849D01*
X994032Y529960D01*
X993913Y530102D01*
X993802Y530250D01*
X993711Y530344D01*
X993627Y530445D01*
X993491Y530571D01*
X993362Y530704D01*
X993260Y530786D01*
X993163Y530875D01*
X993013Y530983D01*
X992869Y531098D01*
X992756Y531167D01*
X992650Y531243D01*
X992487Y531331D01*
X992329Y531428D01*
X992209Y531481D01*
X992094Y531544D01*
X991921Y531610D01*
X991752Y531686D01*
X991627Y531724D01*
X991504Y531772D01*
X991324Y531816D01*
X991147Y531870D01*
X991018Y531892D01*
X990890Y531923D01*
X990707Y531945D01*
X990524Y531976D01*
X990371Y531984D01*
X990263Y531996D01*
X990154Y531995D01*
X990000Y532003D01*
X974608Y532003D01*
X974608Y542545D01*
X974608Y553087D01*
X990000Y553087D01*
X990185Y553098D01*
X990370Y553100D01*
X990500Y553118D01*
X990631Y553127D01*
X990812Y553162D01*
X990996Y553187D01*
X991122Y553221D01*
X991252Y553246D01*
X991428Y553304D01*
X991606Y553352D01*
X991727Y553402D01*
X991852Y553443D01*
X992020Y553522D01*
X992190Y553592D01*
X992305Y553657D01*
X992423Y553713D01*
X992579Y553813D01*
X992740Y553904D01*
X992845Y553983D01*
X992956Y554054D01*
X993098Y554173D01*
X993246Y554284D01*
X993340Y554375D01*
X993441Y554459D01*
X993567Y554595D01*
X993700Y554724D01*
X993782Y554826D01*
X993871Y554923D01*
X993979Y555073D01*
X994094Y555217D01*
X994163Y555330D01*
X994239Y555436D01*
X994327Y555599D01*
X994424Y555757D01*
X994477Y555877D01*
X994540Y555992D01*
X994606Y556165D01*
X994682Y556334D01*
X994720Y556459D01*
X994768Y556582D01*
X994812Y556762D01*
X994866Y556939D01*
X994888Y557068D01*
X994919Y557196D01*
X994941Y557379D01*
X994972Y557562D01*
X994980Y557715D01*
X994992Y557823D01*
X994991Y557932D01*
X994999Y558086D01*
X994999Y990000D01*
X994988Y990185D01*
X994986Y990370D01*
X994968Y990500D01*
X994959Y990631D01*
X994924Y990812D01*
X994899Y990996D01*
X994865Y991122D01*
X994840Y991252D01*
X994782Y991428D01*
X994734Y991606D01*
X994684Y991727D01*
X994643Y991852D01*
X994564Y992020D01*
X994494Y992190D01*
X994429Y992305D01*
X994373Y992423D01*
X994273Y992579D01*
X994182Y992740D01*
X994103Y992845D01*
X994032Y992956D01*
X993913Y993098D01*
X993802Y993246D01*
X993711Y993340D01*
X993627Y993441D01*
X993491Y993567D01*
X993362Y993700D01*
X993260Y993782D01*
X993163Y993871D01*
X993013Y993979D01*
X992869Y994094D01*
X992756Y994163D01*
X992650Y994239D01*
X992487Y994327D01*
X992329Y994424D01*
X992209Y994477D01*
X992094Y994540D01*
X991921Y994606D01*
X991752Y994682D01*
X991627Y994720D01*
X991504Y994768D01*
X991324Y994812D01*
X991147Y994866D01*
X991018Y994888D01*
X990890Y994919D01*
X990707Y994941D01*
X990524Y994972D01*
X990371Y994980D01*
X990263Y994992D01*
X990154Y994991D01*
X990000Y994999D01*
X165000Y994999D01*
X164815Y994988D01*
X164630Y994986D01*
X164500Y994968D01*
X164369Y994959D01*
X164188Y994924D01*
X164004Y994899D01*
X163878Y994865D01*
X163748Y994840D01*
X163572Y994782D01*
X163394Y994734D01*
X163273Y994684D01*
X163148Y994643D01*
X162980Y994564D01*
X162810Y994494D01*
X162695Y994429D01*
X162577Y994373D01*
X162497Y994322D01*
X162487Y994327D01*
X162329Y994424D01*
X162209Y994477D01*
X162094Y994540D01*
X161921Y994606D01*
X161752Y994682D01*
X161627Y994720D01*
X161504Y994768D01*
X161324Y994812D01*
X161147Y994866D01*
X161018Y994888D01*
X160890Y994919D01*
X160707Y994941D01*
X160524Y994972D01*
X160371Y994980D01*
X160263Y994992D01*
X160154Y994991D01*
X160000Y994999D01*
X10000Y994999D01*
X9815Y994988D01*
X9630Y994986D01*
X9500Y994968D01*
X9369Y994959D01*
X9188Y994924D01*
X9004Y994899D01*
X8878Y994865D01*
X8748Y994840D01*
X8572Y994782D01*
X8394Y994734D01*
X8273Y994684D01*
X8148Y994643D01*
X7980Y994564D01*
X7810Y994494D01*
X7695Y994429D01*
X7577Y994373D01*
X7421Y994273D01*
X7260Y994182D01*
X7155Y994103D01*
X7044Y994032D01*
X6902Y993913D01*
X6754Y993802D01*
X6660Y993711D01*
X6559Y993627D01*
X6433Y993491D01*
X6300Y993362D01*
X6218Y993260D01*
X6129Y993163D01*
X6021Y993013D01*
X5906Y992869D01*
X5837Y992756D01*
X5761Y992650D01*
X5673Y992487D01*
X5576Y992329D01*
X5523Y992209D01*
X5460Y992094D01*
X5394Y991921D01*
X5318Y991752D01*
X5280Y991627D01*
X5232Y991504D01*
X5188Y991324D01*
X5134Y991147D01*
X5112Y991018D01*
X5081Y990890D01*
X5059Y990707D01*
X5028Y990524D01*
X5020Y990371D01*
X5008Y990263D01*
X5009Y990154D01*
X5001Y990000D01*
X5001Y845486D01*
X5012Y845301D01*
X5014Y845116D01*
X5032Y844986D01*
X5041Y844855D01*
X5076Y844674D01*
X5101Y844490D01*
X5135Y844364D01*
X5160Y844234D01*
X5218Y844058D01*
X5266Y843880D01*
X5316Y843759D01*
X5357Y843634D01*
X5436Y843466D01*
X5506Y843296D01*
X5571Y843181D01*
X5627Y843063D01*
X5727Y842907D01*
X5819Y842746D01*
X5897Y842641D01*
X5968Y842530D01*
X6087Y842388D01*
X6198Y842240D01*
X6289Y842146D01*
X6373Y842045D01*
X6509Y841919D01*
X6638Y841786D01*
X6740Y841704D01*
X6837Y841615D01*
X6987Y841507D01*
X7131Y841392D01*
X7244Y841323D01*
X7350Y841247D01*
X7513Y841159D01*
X7671Y841062D01*
X7791Y841009D01*
X7906Y840946D01*
X8079Y840880D01*
X8248Y840804D01*
X8373Y840766D01*
X8496Y840718D01*
X8676Y840674D01*
X8853Y840620D01*
X8982Y840598D01*
X9110Y840567D01*
X9293Y840545D01*
X9476Y840514D01*
X9629Y840506D01*
X9737Y840494D01*
X9846Y840495D01*
X10000Y840487D01*
X25392Y840487D01*
X25392Y829945D01*
X25392Y819403D01*
X10000Y819403D01*
X9815Y819392D01*
X9630Y819390D01*
X9500Y819372D01*
X9369Y819363D01*
X9188Y819328D01*
X9004Y819303D01*
X8878Y819269D01*
X8748Y819244D01*
X8572Y819186D01*
X8394Y819138D01*
X8273Y819088D01*
X8148Y819047D01*
X7980Y818968D01*
X7810Y818898D01*
X7695Y818833D01*
X7577Y818777D01*
X7421Y818677D01*
X7260Y818586D01*
X7155Y818507D01*
X7044Y818436D01*
X6902Y818317D01*
X6754Y818206D01*
X6660Y818115D01*
X6559Y818031D01*
X6433Y817895D01*
X6300Y817766D01*
X6218Y817664D01*
X6129Y817567D01*
X6021Y817417D01*
X5906Y817273D01*
X5837Y817160D01*
X5761Y817054D01*
X5673Y816891D01*
X5576Y816733D01*
X5523Y816613D01*
X5460Y816498D01*
X5394Y816325D01*
X5318Y816156D01*
X5280Y816031D01*
X5232Y815908D01*
X5188Y815728D01*
X5134Y815551D01*
X5112Y815422D01*
X5081Y815294D01*
X5059Y815111D01*
X5028Y814928D01*
X5020Y814775D01*
X5008Y814667D01*
X5009Y814558D01*
X5001Y814404D01*
X5001Y760396D01*
X5012Y760211D01*
X5014Y760026D01*
X5032Y759896D01*
X5041Y759765D01*
X5076Y759584D01*
X5101Y759400D01*
X5135Y759274D01*
X5160Y759144D01*
X5218Y758968D01*
X5266Y758790D01*
X5316Y758669D01*
X5357Y758544D01*
X5436Y758376D01*
X5506Y758206D01*
X5571Y758091D01*
X5627Y757973D01*
X5727Y757817D01*
X5818Y757656D01*
X5897Y757551D01*
X5968Y757440D01*
X6087Y757298D01*
X6198Y757150D01*
X6289Y757056D01*
X6373Y756955D01*
X6509Y756829D01*
X6638Y756696D01*
X6740Y756614D01*
X6837Y756525D01*
X6987Y756417D01*
X7131Y756302D01*
X7244Y756233D01*
X7350Y756157D01*
X7513Y756069D01*
X7671Y755972D01*
X7791Y755919D01*
X7906Y755856D01*
X8079Y755790D01*
X8248Y755714D01*
X8373Y755676D01*
X8496Y755628D01*
X8676Y755584D01*
X8853Y755530D01*
X8982Y755508D01*
X9110Y755477D01*
X9293Y755455D01*
X9476Y755424D01*
X9629Y755416D01*
X9737Y755404D01*
X9846Y755405D01*
X10000Y755397D01*
X25392Y755397D01*
X25392Y744855D01*
X25392Y734313D01*
X10000Y734313D01*
X9815Y734302D01*
X9630Y734300D01*
X9500Y734282D01*
X9369Y734273D01*
X9188Y734238D01*
X9004Y734213D01*
X8878Y734179D01*
X8748Y734154D01*
X8572Y734096D01*
X8394Y734048D01*
X8273Y733998D01*
X8148Y733957D01*
X7980Y733878D01*
X7810Y733808D01*
X7695Y733743D01*
X7577Y733687D01*
X7421Y733587D01*
X7260Y733496D01*
X7155Y733417D01*
X7044Y733346D01*
X6902Y733227D01*
X6754Y733116D01*
X6660Y733025D01*
X6559Y732941D01*
X6433Y732805D01*
X6300Y732676D01*
X6218Y732574D01*
X6129Y732477D01*
X6021Y732327D01*
X5906Y732183D01*
X5837Y732070D01*
X5761Y731964D01*
X5673Y731801D01*
X5576Y731643D01*
X5523Y731523D01*
X5460Y731408D01*
X5394Y731235D01*
X5318Y731066D01*
X5280Y730941D01*
X5232Y730818D01*
X5188Y730638D01*
X5134Y730461D01*
X5112Y730332D01*
X5081Y730204D01*
X5059Y730021D01*
X5028Y729838D01*
X5020Y729685D01*
X5008Y729577D01*
X5009Y729468D01*
X5001Y729314D01*
X5001Y558086D01*
X5012Y557901D01*
X5014Y557716D01*
X5032Y557586D01*
X5041Y557455D01*
X5076Y557274D01*
X5101Y557090D01*
X5135Y556964D01*
X5160Y556834D01*
X5218Y556658D01*
X5266Y556480D01*
X5316Y556359D01*
X5357Y556234D01*
X5436Y556066D01*
X5506Y555896D01*
X5571Y555781D01*
X5627Y555663D01*
X5727Y555507D01*
X5819Y555346D01*
X5897Y555241D01*
X5968Y555130D01*
X6087Y554988D01*
X6198Y554840D01*
X6289Y554746D01*
X6373Y554645D01*
X6509Y554519D01*
X6638Y554386D01*
X6740Y554304D01*
X6837Y554215D01*
X6987Y554107D01*
X7131Y553992D01*
X7244Y553923D01*
X7350Y553847D01*
X7513Y553759D01*
X7671Y553662D01*
X7791Y553609D01*
X7906Y553546D01*
X8079Y553480D01*
X8248Y553404D01*
X8373Y553366D01*
X8496Y553318D01*
X8676Y553274D01*
X8853Y553220D01*
X8982Y553198D01*
X9110Y553167D01*
X9293Y553145D01*
X9476Y553114D01*
X9629Y553106D01*
X9737Y553094D01*
X9846Y553095D01*
X10000Y553087D01*
X25392Y553087D01*
X25392Y542545D01*
X25392Y532003D01*
X10000Y532003D01*
X9815Y531992D01*
X9630Y531990D01*
X9500Y531972D01*
X9369Y531963D01*
X9188Y531928D01*
X9004Y531903D01*
X8878Y531869D01*
X8748Y531844D01*
X8572Y531786D01*
X8394Y531738D01*
X8273Y531688D01*
X8148Y531647D01*
X7980Y531568D01*
X7810Y531498D01*
X7695Y531433D01*
X7577Y531377D01*
X7421Y531277D01*
X7260Y531186D01*
X7155Y531107D01*
X7044Y531036D01*
X6902Y530917D01*
X6754Y530806D01*
X6660Y530715D01*
X6559Y530631D01*
X6433Y530495D01*
X6300Y530366D01*
X6218Y530264D01*
X6129Y530167D01*
X6021Y530017D01*
X5906Y529873D01*
X5837Y529760D01*
X5761Y529654D01*
X5673Y529491D01*
X5576Y529333D01*
X5523Y529213D01*
X5460Y529098D01*
X5394Y528925D01*
X5318Y528756D01*
X5280Y528631D01*
X5232Y528508D01*
X5188Y528328D01*
X5134Y528151D01*
X5112Y528022D01*
X5081Y527894D01*
X5059Y527711D01*
X5028Y527528D01*
X5020Y527375D01*
X5008Y527267D01*
X5009Y527158D01*
X5001Y527004D01*
X5001Y472996D01*
X5012Y472811D01*
X5014Y472626D01*
X5032Y472496D01*
X5041Y472365D01*
X5076Y472184D01*
X5101Y472000D01*
X5135Y471874D01*
X5160Y471744D01*
X5218Y471568D01*
X5266Y471390D01*
X5316Y471269D01*
X5357Y471144D01*
X5436Y470976D01*
X5506Y470806D01*
X5571Y470691D01*
X5627Y470573D01*
X5727Y470417D01*
X5819Y470256D01*
X5897Y470151D01*
X5968Y470040D01*
X6087Y469898D01*
X6198Y469750D01*
X6289Y469656D01*
X6373Y469555D01*
X6509Y469429D01*
X6638Y469296D01*
X6740Y469214D01*
X6837Y469125D01*
X6987Y469017D01*
X7131Y468902D01*
X7244Y468833D01*
X7350Y468757D01*
X7513Y468669D01*
X7671Y468572D01*
X7791Y468519D01*
X7906Y468456D01*
X8079Y468390D01*
X8248Y468314D01*
X8373Y468276D01*
X8496Y468228D01*
X8676Y468184D01*
X8853Y468130D01*
X8982Y468108D01*
X9110Y468077D01*
X9293Y468055D01*
X9476Y468024D01*
X9629Y468016D01*
X9737Y468004D01*
X9846Y468005D01*
X10000Y467997D01*
X25392Y467997D01*
X25392Y457455D01*
X25392Y446913D01*
X10000Y446913D01*
X9815Y446902D01*
X9630Y446900D01*
X9500Y446882D01*
X9369Y446873D01*
X9188Y446838D01*
X9004Y446813D01*
X8878Y446779D01*
X8748Y446754D01*
X8572Y446696D01*
X8394Y446648D01*
X8273Y446598D01*
X8148Y446557D01*
X7980Y446478D01*
X7810Y446408D01*
X7695Y446343D01*
X7577Y446287D01*
X7421Y446187D01*
X7260Y446096D01*
X7155Y446017D01*
X7044Y445946D01*
X6902Y445827D01*
X6754Y445716D01*
X6660Y445625D01*
X6559Y445541D01*
X6433Y445405D01*
X6300Y445276D01*
X6218Y445174D01*
X6129Y445077D01*
X6021Y444927D01*
X5906Y444783D01*
X5837Y444670D01*
X5761Y444564D01*
X5673Y444401D01*
X5576Y444243D01*
X5523Y444123D01*
X5460Y444008D01*
X5394Y443835D01*
X5318Y443666D01*
X5280Y443541D01*
X5232Y443418D01*
X5188Y443238D01*
X5134Y443061D01*
X5112Y442932D01*
X5081Y442804D01*
X5059Y442621D01*
X5028Y442438D01*
X5020Y442285D01*
X5008Y442177D01*
X5009Y442068D01*
X5001Y441914D01*
X5001Y223186D01*
X5012Y223001D01*
X5014Y222816D01*
X5032Y222686D01*
X5041Y222555D01*
X5076Y222374D01*
X5101Y222190D01*
X5135Y222064D01*
X5160Y221934D01*
X5218Y221758D01*
X5266Y221580D01*
X5316Y221459D01*
X5357Y221334D01*
X5436Y221166D01*
X5506Y220996D01*
X5571Y220881D01*
X5627Y220763D01*
X5727Y220607D01*
X5819Y220446D01*
X5897Y220341D01*
X5968Y220230D01*
X6087Y220088D01*
X6198Y219940D01*
X6289Y219846D01*
X6373Y219745D01*
X6509Y219619D01*
X6638Y219486D01*
X6740Y219404D01*
X6837Y219315D01*
X6987Y219207D01*
X7131Y219092D01*
X7244Y219023D01*
X7350Y218947D01*
X7513Y218859D01*
X7671Y218762D01*
X7791Y218709D01*
X7906Y218646D01*
X8079Y218580D01*
X8248Y218504D01*
X8373Y218466D01*
X8496Y218418D01*
X8676Y218374D01*
X8853Y218320D01*
X8982Y218298D01*
X9110Y218267D01*
X9293Y218245D01*
X9476Y218214D01*
X9629Y218206D01*
X9737Y218194D01*
X9846Y218195D01*
X10000Y218187D01*
X25392Y218187D01*
X25392Y207645D01*
X25392Y197103D01*
X10000Y197103D01*
X9815Y197092D01*
X9630Y197090D01*
X9500Y197072D01*
X9369Y197063D01*
X9188Y197028D01*
X9004Y197003D01*
X8878Y196969D01*
X8748Y196944D01*
X8572Y196886D01*
X8394Y196838D01*
X8273Y196788D01*
X8148Y196747D01*
X7980Y196668D01*
X7810Y196598D01*
X7695Y196533D01*
X7577Y196477D01*
X7421Y196377D01*
X7260Y196286D01*
X7155Y196207D01*
X7044Y196136D01*
X6902Y196017D01*
X6754Y195906D01*
X6660Y195815D01*
X6559Y195731D01*
X6433Y195595D01*
X6300Y195466D01*
X6218Y195364D01*
X6129Y195267D01*
X6021Y195117D01*
X5906Y194973D01*
X5837Y194860D01*
X5761Y194754D01*
X5673Y194591D01*
X5576Y194433D01*
X5523Y194313D01*
X5460Y194198D01*
X5394Y194025D01*
X5318Y193856D01*
X5280Y193731D01*
X5232Y193608D01*
X5188Y193428D01*
X5134Y193251D01*
X5112Y193122D01*
X5081Y192994D01*
X5059Y192811D01*
X5028Y192628D01*
X5020Y192475D01*
X5008Y192367D01*
X5009Y192258D01*
X5001Y192104D01*
X5001Y138096D01*
X5012Y137911D01*
X5014Y137726D01*
X5032Y137596D01*
X5041Y137465D01*
X5076Y137284D01*
X5101Y137100D01*
X5135Y136974D01*
X5160Y136844D01*
X5218Y136668D01*
X5266Y136490D01*
X5316Y136369D01*
X5357Y136244D01*
X5436Y136076D01*
X5506Y135906D01*
X5571Y135791D01*
X5627Y135673D01*
X5727Y135517D01*
X5819Y135356D01*
X5897Y135251D01*
X5968Y135140D01*
X6087Y134998D01*
X6198Y134850D01*
X6289Y134756D01*
X6373Y134655D01*
X6509Y134529D01*
X6638Y134396D01*
X6740Y134314D01*
X6837Y134225D01*
X6987Y134117D01*
X7131Y134002D01*
X7244Y133933D01*
X7350Y133857D01*
X7513Y133769D01*
X7671Y133672D01*
X7791Y133619D01*
X7906Y133556D01*
X8079Y133490D01*
X8248Y133414D01*
X8373Y133376D01*
X8496Y133328D01*
X8676Y133284D01*
X8853Y133230D01*
X8982Y133208D01*
X9110Y133177D01*
X9293Y133155D01*
X9476Y133124D01*
X9629Y133116D01*
X9737Y133104D01*
X9846Y133105D01*
X10000Y133097D01*
X25392Y133097D01*
X25392Y122555D01*
X25392Y112013D01*
X10000Y112013D01*
X9815Y112002D01*
X9630Y112000D01*
X9500Y111982D01*
X9369Y111973D01*
X9188Y111938D01*
X9004Y111913D01*
X8878Y111879D01*
X8748Y111854D01*
X8572Y111796D01*
X8394Y111748D01*
X8273Y111698D01*
X8148Y111657D01*
X7980Y111578D01*
X7810Y111508D01*
X7695Y111443D01*
X7577Y111387D01*
X7421Y111287D01*
X7260Y111196D01*
X7155Y111117D01*
X7044Y111046D01*
X6902Y110927D01*
X6754Y110816D01*
X6660Y110725D01*
X6559Y110641D01*
X6433Y110505D01*
X6300Y110376D01*
X6218Y110274D01*
X6129Y110177D01*
X6021Y110027D01*
X5906Y109883D01*
X5837Y109770D01*
X5761Y109664D01*
X5673Y109501D01*
X5576Y109343D01*
X5523Y109223D01*
X5460Y109108D01*
X5394Y108935D01*
X5318Y108766D01*
X5280Y108641D01*
X5232Y108518D01*
X5188Y108338D01*
X5134Y108161D01*
X5112Y108032D01*
X5081Y107904D01*
X5059Y107721D01*
X5028Y107538D01*
X5020Y107385D01*
X5008Y107277D01*
X5009Y107168D01*
X5001Y107014D01*
X5001Y10000D01*
X5012Y9815D01*
X5014Y9630D01*
X5032Y9500D01*
X5041Y9369D01*
X5076Y9188D01*
X5101Y9004D01*
X5135Y8878D01*
X5160Y8748D01*
X5218Y8572D01*
X5266Y8394D01*
X5316Y8273D01*
X5357Y8148D01*
X5436Y7980D01*
X5506Y7810D01*
X5571Y7695D01*
X5627Y7577D01*
X5727Y7421D01*
X5819Y7260D01*
X5897Y7155D01*
X5968Y7044D01*
X6087Y6902D01*
X6198Y6754D01*
X6289Y6660D01*
X6373Y6559D01*
X6509Y6433D01*
X6638Y6300D01*
X6740Y6218D01*
X6837Y6129D01*
X6987Y6021D01*
X7131Y5906D01*
X7244Y5837D01*
X7350Y5761D01*
X7513Y5673D01*
X7671Y5576D01*
X7791Y5523D01*
X7906Y5460D01*
X8079Y5394D01*
X8248Y5318D01*
X8373Y5280D01*
X8496Y5232D01*
X8676Y5188D01*
X8853Y5134D01*
X8982Y5112D01*
X9110Y5081D01*
X9293Y5059D01*
X9476Y5028D01*
X9629Y5020D01*
X9737Y5008D01*
X9846Y5009D01*
X10000Y5001D01*
X990000Y5001D01*
X990185Y5012D01*
G37*
%LPC*%
G36*
X94999Y279999D02*
X94999Y279999D01*
X94999Y745001D01*
X160000Y745001D01*
X160001Y745001D01*
X160001Y279999D01*
X94999Y279999D01*
G37*
%LPD*%
%LPC*%
G36*
X918534Y895540D02*
X918534Y895540D01*
X911799Y897344D01*
X905761Y900831D01*
X900831Y905761D01*
X897344Y911799D01*
X895540Y918534D01*
X895540Y925506D01*
X897344Y932241D01*
X900831Y938279D01*
X905761Y943209D01*
X911799Y946696D01*
X918534Y948500D01*
X925506Y948500D01*
X932241Y946696D01*
X938279Y943209D01*
X943209Y938279D01*
X946696Y932241D01*
X948500Y925506D01*
X948500Y918534D01*
X946696Y911799D01*
X943209Y905761D01*
X938279Y900831D01*
X932241Y897344D01*
X925506Y895540D01*
X918534Y895540D01*
G37*
%LPD*%
%LPC*%
G36*
X918534Y49720D02*
X918534Y49720D01*
X911799Y51524D01*
X905761Y55011D01*
X900831Y59941D01*
X897344Y65979D01*
X895540Y72714D01*
X895540Y79686D01*
X897344Y86421D01*
X900831Y92459D01*
X905761Y97389D01*
X911799Y100876D01*
X918534Y102680D01*
X925506Y102680D01*
X932241Y100876D01*
X938279Y97389D01*
X943209Y92459D01*
X946696Y86421D01*
X948500Y79686D01*
X948500Y72714D01*
X946696Y65979D01*
X943209Y59941D01*
X938279Y55011D01*
X932241Y51524D01*
X925506Y49720D01*
X918534Y49720D01*
G37*
%LPD*%
%LPC*%
G36*
X60014Y49720D02*
X60014Y49720D01*
X53279Y51524D01*
X47241Y55011D01*
X42311Y59941D01*
X38824Y65979D01*
X37020Y72714D01*
X37020Y79686D01*
X38824Y86421D01*
X42311Y92459D01*
X47241Y97389D01*
X53279Y100876D01*
X60014Y102680D01*
X66986Y102680D01*
X73721Y100876D01*
X79759Y97389D01*
X84689Y92459D01*
X85671Y90760D01*
X88176Y86421D01*
X89980Y79686D01*
X89980Y72714D01*
X88176Y65979D01*
X85671Y61640D01*
X84689Y59941D01*
X79759Y55011D01*
X73721Y51524D01*
X66986Y49720D01*
X60014Y49720D01*
G37*
%LPD*%
%LPC*%
G36*
X60014Y895540D02*
X60014Y895540D01*
X53279Y897344D01*
X47241Y900831D01*
X42311Y905761D01*
X38824Y911799D01*
X37020Y918534D01*
X37020Y925506D01*
X38824Y932241D01*
X42311Y938279D01*
X47241Y943209D01*
X53279Y946696D01*
X60014Y948500D01*
X66986Y948500D01*
X73721Y946696D01*
X79759Y943209D01*
X84689Y938279D01*
X85671Y936580D01*
X88176Y932241D01*
X89980Y925506D01*
X89980Y918534D01*
X88176Y911799D01*
X85671Y907460D01*
X84689Y905761D01*
X79759Y900831D01*
X73721Y897344D01*
X66986Y895540D01*
X60014Y895540D01*
G37*
%LPD*%
%LPC*%
G36*
X35390Y834944D02*
X35390Y834944D01*
X35390Y840487D01*
X55152Y840487D01*
X55643Y840389D01*
X56106Y840198D01*
X56522Y839920D01*
X56876Y839566D01*
X57154Y839150D01*
X57345Y838687D01*
X57443Y838196D01*
X57443Y834944D01*
X35390Y834944D01*
G37*
%LPD*%
%LPC*%
G36*
X35390Y749854D02*
X35390Y749854D01*
X35390Y755397D01*
X55152Y755397D01*
X55643Y755299D01*
X56106Y755108D01*
X56522Y754830D01*
X56876Y754476D01*
X57154Y754060D01*
X57345Y753597D01*
X57443Y753106D01*
X57443Y749854D01*
X35390Y749854D01*
G37*
%LPD*%
%LPC*%
G36*
X35390Y547544D02*
X35390Y547544D01*
X35390Y553087D01*
X55152Y553087D01*
X55643Y552989D01*
X56106Y552798D01*
X56522Y552520D01*
X56876Y552166D01*
X57154Y551750D01*
X57345Y551287D01*
X57443Y550796D01*
X57443Y547544D01*
X35390Y547544D01*
G37*
%LPD*%
%LPC*%
G36*
X35390Y462454D02*
X35390Y462454D01*
X35390Y467997D01*
X55152Y467997D01*
X55643Y467899D01*
X56106Y467708D01*
X56522Y467430D01*
X56876Y467076D01*
X57154Y466660D01*
X57345Y466197D01*
X57443Y465706D01*
X57443Y462454D01*
X35390Y462454D01*
G37*
%LPD*%
%LPC*%
G36*
X35390Y212644D02*
X35390Y212644D01*
X35390Y218187D01*
X55152Y218187D01*
X55643Y218089D01*
X56106Y217898D01*
X56522Y217620D01*
X56876Y217266D01*
X57154Y216850D01*
X57345Y216387D01*
X57443Y215896D01*
X57443Y212644D01*
X35390Y212644D01*
G37*
%LPD*%
%LPC*%
G36*
X35390Y127554D02*
X35390Y127554D01*
X35390Y133097D01*
X55152Y133097D01*
X55643Y132999D01*
X56106Y132808D01*
X56522Y132530D01*
X56876Y132176D01*
X57154Y131760D01*
X57345Y131297D01*
X57443Y130806D01*
X57443Y127554D01*
X35390Y127554D01*
G37*
%LPD*%
%LPC*%
G36*
X942557Y547544D02*
X942557Y547544D01*
X942557Y550796D01*
X942655Y551287D01*
X942846Y551750D01*
X943124Y552166D01*
X943478Y552520D01*
X943894Y552798D01*
X944357Y552989D01*
X944848Y553087D01*
X964609Y553087D01*
X964609Y547544D01*
X942557Y547544D01*
G37*
%LPD*%
%LPC*%
G36*
X942557Y462454D02*
X942557Y462454D01*
X942557Y465706D01*
X942655Y466197D01*
X942846Y466660D01*
X943124Y467076D01*
X943478Y467430D01*
X943894Y467708D01*
X944357Y467899D01*
X944848Y467997D01*
X964609Y467997D01*
X964609Y462454D01*
X942557Y462454D01*
G37*
%LPD*%
%LPC*%
G36*
X944848Y532003D02*
X944848Y532003D01*
X944357Y532101D01*
X943894Y532292D01*
X943478Y532570D01*
X943124Y532924D01*
X942846Y533340D01*
X942655Y533803D01*
X942557Y534294D01*
X942557Y537546D01*
X964609Y537546D01*
X964609Y532003D01*
X944848Y532003D01*
G37*
%LPD*%
%LPC*%
G36*
X944848Y446913D02*
X944848Y446913D01*
X944357Y447011D01*
X943894Y447202D01*
X943478Y447480D01*
X943124Y447834D01*
X942846Y448250D01*
X942655Y448713D01*
X942557Y449204D01*
X942557Y452456D01*
X964609Y452456D01*
X964609Y446913D01*
X944848Y446913D01*
G37*
%LPD*%
%LPC*%
G36*
X35390Y819403D02*
X35390Y819403D01*
X35390Y824946D01*
X57443Y824946D01*
X57443Y821694D01*
X57345Y821203D01*
X57154Y820740D01*
X56876Y820324D01*
X56522Y819970D01*
X56106Y819692D01*
X55643Y819501D01*
X55152Y819403D01*
X35390Y819403D01*
G37*
%LPD*%
%LPC*%
G36*
X35390Y734313D02*
X35390Y734313D01*
X35390Y739856D01*
X57443Y739856D01*
X57443Y736604D01*
X57345Y736113D01*
X57154Y735650D01*
X56876Y735234D01*
X56522Y734880D01*
X56106Y734602D01*
X55643Y734411D01*
X55152Y734313D01*
X35390Y734313D01*
G37*
%LPD*%
%LPC*%
G36*
X35390Y532003D02*
X35390Y532003D01*
X35390Y537546D01*
X57443Y537546D01*
X57443Y534294D01*
X57345Y533803D01*
X57154Y533340D01*
X56876Y532924D01*
X56522Y532570D01*
X56106Y532292D01*
X55643Y532101D01*
X55152Y532003D01*
X35390Y532003D01*
G37*
%LPD*%
%LPC*%
G36*
X35390Y446913D02*
X35390Y446913D01*
X35390Y452456D01*
X57443Y452456D01*
X57443Y449204D01*
X57345Y448713D01*
X57154Y448250D01*
X56876Y447834D01*
X56522Y447480D01*
X56106Y447202D01*
X55643Y447011D01*
X55152Y446913D01*
X35390Y446913D01*
G37*
%LPD*%
%LPC*%
G36*
X35390Y197103D02*
X35390Y197103D01*
X35390Y202646D01*
X57443Y202646D01*
X57443Y199394D01*
X57345Y198903D01*
X57154Y198440D01*
X56876Y198024D01*
X56522Y197670D01*
X56106Y197392D01*
X55643Y197201D01*
X55152Y197103D01*
X35390Y197103D01*
G37*
%LPD*%
%LPC*%
G36*
X35390Y112013D02*
X35390Y112013D01*
X35390Y117556D01*
X57443Y117556D01*
X57443Y114304D01*
X57345Y113813D01*
X57154Y113350D01*
X56876Y112934D01*
X56522Y112580D01*
X56106Y112302D01*
X55643Y112111D01*
X55152Y112013D01*
X35390Y112013D01*
G37*
%LPD*%
D10*
X30391Y829945D03*
X30391Y744855D03*
X30391Y542545D03*
X30391Y457455D03*
X30391Y207645D03*
X30391Y122555D03*
X969609Y457455D03*
X969609Y542545D03*
D11*
X12700Y985520D03*
X12700Y888238D03*
X12700Y693674D03*
X12700Y596392D03*
X12700Y401828D03*
X12700Y304546D03*
X12700Y109982D03*
X12700Y12700D03*
X109982Y12700D03*
X207264Y12700D03*
X304546Y12700D03*
X401828Y12700D03*
X499110Y12700D03*
X596392Y12700D03*
X693674Y12700D03*
X790956Y12700D03*
X888238Y12700D03*
X985520Y12700D03*
X985520Y109982D03*
X985520Y207264D03*
X985520Y304546D03*
X985520Y401828D03*
X985520Y596392D03*
X985520Y693674D03*
X985520Y790956D03*
X985520Y888238D03*
X985520Y985520D03*
X888238Y985520D03*
X790956Y985520D03*
X693674Y985520D03*
X596392Y985520D03*
X499110Y985520D03*
X401828Y985520D03*
X304546Y985520D03*
X207264Y985520D03*
X109982Y985520D03*
X127700Y656828D03*
X127700Y391828D03*
X127700Y361828D03*
D12*
X127700Y375000D01*
X127700Y391828D01*
X127700Y656828D02*
X110000Y656828D01*
X110000Y375000D01*
X127700Y375000D01*
M02*
