M48
;GenerationSoftware,Autodesk,EAGLE,8.7.1*%
;CreationDate,2018-04-02T23:12:38Z*%
FMAT,2
ICI,OFF
METRIC,TZ,000.000
T2C0.508
T1C3.264
%
G90
M71
T1
X6350Y7620
X6350Y92202
X92202Y92202
X92202Y7620
T2
X1270Y40183
X1270Y30455
X1270Y10998
X1270Y1270
X10998Y1270
X20726Y1270
X30455Y1270
X40183Y1270
X49911Y1270
X59639Y1270
X69367Y1270
X79096Y1270
X88824Y1270
X98552Y1270
X98552Y10998
X98552Y20726
X98552Y30455
X98552Y40183
X98552Y59639
X98552Y69367
X98552Y79096
X98552Y88824
X98552Y98552
X88824Y98552
X79096Y98552
X69367Y98552
X59639Y98552
X49911Y98552
X1270Y98552
X30455Y98552
X20726Y98552
X10998Y98552
X12770Y65683
X40183Y98552
X12770Y36183
X1270Y88824
X1270Y69367
X1270Y59639
X12770Y39183
M30